# Blender 4.4.1
# www.blender.org
mtllib checkPoint.mtl
o 立方体
v -0.200000 0.200000 3.800000
v -0.200000 0.200000 -0.200000
v -0.200000 -0.200000 3.800000
v -0.200000 -0.200000 -0.200000
v 0.200000 0.200000 3.800000
v 0.200000 0.200000 -0.200000
v 0.200000 -0.200000 3.800000
v 0.200000 -0.200000 -0.200000
vn -0.0000 -0.0000 1.0000
vn 1.0000 -0.0000 -0.0000
vn -1.0000 -0.0000 -0.0000
vn -0.0000 1.0000 -0.0000
vn -0.0000 -1.0000 -0.0000
vn -0.0000 -0.0000 -1.0000
vt 0.375000 0.750000
vt 0.125000 0.500000
vt 0.375000 0.500000
vt 0.625000 0.750000
vt 0.625000 0.500000
vt 0.625000 0.250000
vt 0.375000 0.000000
vt 0.625000 0.000000
vt 0.625000 1.000000
vt 0.375000 0.250000
vt 0.875000 0.750000
vt 0.875000 0.500000
vt 0.125000 0.750000
vt 0.375000 1.000000
s 0
usemtl Material
f 5/1/1 3/2/1 7/3/1
f 6/4/2 7/3/2 8/5/2
f 4/6/3 1/7/3 2/8/3
f 2/9/4 5/1/4 6/4/4
f 8/5/5 3/10/5 4/6/5
f 2/11/6 8/5/6 4/12/6
f 5/1/1 1/13/1 3/2/1
f 6/4/2 5/1/2 7/3/2
f 4/6/3 3/10/3 1/7/3
f 2/9/4 1/14/4 5/1/4
f 8/5/5 7/3/5 3/10/5
f 2/11/6 6/4/6 8/5/6
o 立方体.001
v -2.200000 0.200000 3.300000
v -2.200000 0.200000 2.300000
v -2.200000 -0.200000 3.300000
v -2.200000 -0.200000 2.300000
v -0.200000 0.200000 3.800000
v -0.200000 0.200000 1.800000
v -0.200000 -0.200000 3.800000
v -0.200000 -0.200000 1.800000
vn 1.0000 -0.0000 -0.0000
vn -0.0000 1.0000 -0.0000
vn -0.2425 -0.0000 0.9701
vn -0.0000 -1.0000 -0.0000
vn -1.0000 -0.0000 -0.0000
vn -0.2425 -0.0000 -0.9701
vt 0.625000 0.750000
vt 0.375000 0.500000
vt 0.625000 0.500000
vt 0.625000 1.000000
vt 0.375000 0.750000
vt 0.125000 0.500000
vt 0.375000 0.250000
vt 0.625000 0.250000
vt 0.375000 0.000000
vt 0.625000 0.000000
vt 0.875000 0.750000
vt 0.875000 0.500000
vt 0.375000 1.000000
vt 0.125000 0.750000
s 0
usemtl Material.001
f 14/15/7 15/16/7 16/17/7
f 10/18/8 13/19/8 14/15/8
f 13/19/9 11/20/9 15/16/9
f 16/17/10 11/21/10 12/22/10
f 12/22/11 9/23/11 10/24/11
f 10/25/12 16/17/12 12/26/12
f 14/15/7 13/19/7 15/16/7
f 10/18/8 9/27/8 13/19/8
f 13/19/9 9/28/9 11/20/9
f 16/17/10 15/16/10 11/21/10
f 12/22/11 11/21/11 9/23/11
f 10/25/12 14/15/12 16/17/12
