# Blender 4.4.1
# www.blender.org
mtllib Boss.mtl
o sphere
v 0.000000 2.328115 -1.555597
v 0.000000 1.555597 -2.328115
v 0.000000 0.546253 -2.746199
v 0.000000 -0.000000 -2.800000
v 0.000000 -0.546253 -2.746199
v 0.000000 -1.555597 -2.328115
v 0.106569 2.746199 -0.535757
v 0.209042 2.586863 -1.050925
v 0.303482 2.328115 -1.525706
v 0.386259 1.979899 -1.941856
v 0.454193 1.555597 -2.283381
v 0.504672 1.071514 -2.537157
v 0.535757 0.546253 -2.693431
v 0.546253 -0.000000 -2.746199
v 0.535757 -0.546253 -2.693431
v 0.504672 -1.071514 -2.537157
v 0.454193 -1.555597 -2.283381
v 0.386259 -1.979899 -1.941856
v 0.303482 -2.328115 -1.525706
v 0.209042 -2.586863 -1.050925
v 0.106569 -2.746199 -0.535757
v 0.209042 2.746199 -0.504672
v 0.410051 2.586863 -0.989950
v 0.595301 2.328115 -1.437184
v 0.757675 1.979899 -1.829188
v 0.890931 1.555597 -2.150897
v 0.989949 1.071514 -2.389949
v 1.050925 0.546253 -2.537157
v 1.071514 -0.000000 -2.586862
v 1.050925 -0.546253 -2.537157
v 0.989949 -1.071514 -2.389949
v 0.890931 -1.555597 -2.150897
v 0.757675 -1.979899 -1.829188
v 0.595301 -2.328115 -1.437184
v 0.410051 -2.586863 -0.989950
v 0.209042 -2.746199 -0.504672
v 0.303482 2.746199 -0.454193
v 0.595301 2.586863 -0.890931
v 0.864243 2.328115 -1.293431
v 1.099973 1.979899 -1.646226
v 1.293431 1.555597 -1.935756
v 1.437184 1.071514 -2.150898
v 1.525706 0.546253 -2.283381
v 1.555597 -0.000000 -2.328115
v 1.525706 -0.546253 -2.283381
v 1.437184 -1.071514 -2.150898
v 1.293431 -1.555597 -1.935756
v 1.099973 -1.979899 -1.646226
v 0.864243 -2.328115 -1.293431
v 0.595301 -2.586863 -0.890931
v 0.303482 -2.746199 -0.454193
v 0.386259 2.746199 -0.386259
v 0.757675 2.586863 -0.757674
v 1.099973 2.328115 -1.099973
v 1.400000 1.979899 -1.400000
v 1.646226 1.555597 -1.646225
v 1.829188 1.071514 -1.829188
v 1.941856 0.546253 -1.941856
v 1.979899 -0.000000 -1.979898
v 1.941856 -0.546253 -1.941856
v 1.829188 -1.071514 -1.829188
v 1.646226 -1.555597 -1.646225
v 1.400000 -1.979899 -1.400000
v 1.099973 -2.328115 -1.099973
v 0.757675 -2.586863 -0.757674
v 0.386259 -2.746199 -0.386259
v 0.454193 2.746199 -0.303482
v 0.890931 2.586863 -0.595301
v 1.293431 2.328115 -0.864243
v 1.646226 1.979899 -1.099973
v 1.935757 1.555597 -1.293431
v 2.150897 1.071514 -1.437184
v 2.283381 0.546253 -1.525706
v 2.328115 -0.000000 -1.555596
v 2.283381 -0.546253 -1.525706
v 2.150897 -1.071514 -1.437184
v 1.935757 -1.555597 -1.293431
v 1.646226 -1.979899 -1.099973
v 1.293431 -2.328115 -0.864243
v 0.890931 -2.586863 -0.595301
v 0.454193 -2.746199 -0.303482
v 0.000000 2.800000 -0.000000
v 0.504672 2.746199 -0.209042
v 0.989949 2.586863 -0.410050
v 1.437184 2.328115 -0.595301
v 1.829188 1.979899 -0.757675
v 2.150897 1.555597 -0.890931
v 2.389949 1.071514 -0.989950
v 2.537157 0.546253 -1.050924
v 2.586862 -0.000000 -1.071513
v 2.537157 -0.546253 -1.050924
v 2.389949 -1.071514 -0.989950
v 2.150897 -1.555597 -0.890931
v 1.829188 -1.979899 -0.757675
v 1.437184 -2.328115 -0.595301
v 0.989949 -2.586863 -0.410050
v 0.504672 -2.746199 -0.209042
v 0.535757 2.746199 -0.106569
v 1.050925 2.586863 -0.209042
v 1.525706 2.328115 -0.303482
v 1.941856 1.979899 -0.386259
v 2.283380 1.555597 -0.454192
v 2.537157 1.071514 -0.504672
v 2.693431 0.546253 -0.535756
v 2.746198 -0.000000 -0.546252
v 2.693431 -0.546253 -0.535756
v 2.537157 -1.071514 -0.504672
v 2.283380 -1.555597 -0.454192
v 1.941856 -1.979899 -0.386259
v 1.525706 -2.328115 -0.303482
v 1.050925 -2.586863 -0.209042
v 0.535757 -2.746199 -0.106569
v 0.546253 2.746199 -0.000000
v 1.071514 2.586863 -0.000000
v 1.555596 2.328115 -0.000000
v 1.979899 1.979899 -0.000000
v 2.328114 1.555597 -0.000000
v 2.586862 1.071514 -0.000000
v 2.746198 0.546253 -0.000000
v 2.799999 0.000000 0.000000
v 2.746198 -0.546253 0.000000
v 2.586862 -1.071514 0.000000
v 2.328114 -1.555597 0.000000
v 1.979899 -1.979899 0.000000
v 1.555596 -2.328115 0.000000
v 1.071514 -2.586863 0.000000
v 0.546253 -2.746199 0.000000
v 0.535757 2.746199 0.106569
v 1.050925 2.586863 0.209042
v 1.525706 2.328115 0.303482
v 1.941856 1.979899 0.386259
v 2.283380 1.555597 0.454193
v 2.537157 1.071514 0.504672
v 2.693431 0.546253 0.535757
v 2.746198 0.000000 0.546253
v 2.693431 -0.546253 0.535757
v 2.537157 -1.071514 0.504672
v 2.283380 -1.555597 0.454193
v 1.941856 -1.979899 0.386259
v 1.525706 -2.328115 0.303482
v 1.050925 -2.586863 0.209042
v 0.535757 -2.746199 0.106569
v 0.504672 2.746199 0.209042
v 0.989949 2.586863 0.410051
v 1.437183 2.328115 0.595301
v 1.829188 1.979899 0.757674
v 2.150897 1.555597 0.890931
v 2.389949 1.071514 0.989949
v 2.537156 0.546253 1.050925
v 2.586861 0.000000 1.071514
v 2.537156 -0.546253 1.050925
v 2.389949 -1.071514 0.989949
v 2.150897 -1.555597 0.890931
v 1.829188 -1.979899 0.757674
v 1.437183 -2.328115 0.595301
v 0.989949 -2.586863 0.410051
v 0.504672 -2.746199 0.209042
v 0.454192 2.746199 0.303482
v 0.890931 2.586863 0.595301
v 1.293431 2.328115 0.864243
v 1.646226 1.979899 1.099973
v 1.935756 1.555597 1.293431
v 2.150897 1.071514 1.437184
v 2.283380 0.546253 1.525706
v 2.328114 0.000000 1.555596
v 2.283380 -0.546253 1.525706
v 2.150897 -1.071514 1.437184
v 1.935756 -1.555597 1.293431
v 1.646226 -1.979899 1.099973
v 1.293431 -2.328115 0.864243
v 0.890931 -2.586863 0.595301
v 0.454192 -2.746199 0.303482
v 0.386259 2.746199 0.386259
v 0.757674 2.586863 0.757674
v 1.099972 2.328115 1.099973
v 1.400000 1.979899 1.400000
v 1.646225 1.555597 1.646225
v 1.829188 1.071514 1.829188
v 1.941855 0.546253 1.941856
v 1.979897 0.000000 1.979899
v 1.941855 -0.546253 1.941856
v 1.829188 -1.071514 1.829188
v 1.646225 -1.555597 1.646225
v 1.400000 -1.979899 1.400000
v 1.099972 -2.328115 1.099973
v 0.757674 -2.586863 0.757674
v 0.386259 -2.746199 0.386259
v 0.303482 2.746199 0.454192
v 0.595301 2.586863 0.890931
v 0.864243 2.328115 1.293431
v 1.099973 1.979899 1.646226
v 1.293431 1.555597 1.935756
v 1.437184 1.071514 2.150897
v 1.525706 0.546253 2.283380
v 1.555595 0.000000 2.328114
v 1.525706 -0.546253 2.283380
v 1.437184 -1.071514 2.150897
v 1.293431 -1.555597 1.935756
v 1.099973 -1.979899 1.646226
v 0.864243 -2.328115 1.293431
v 0.595301 -2.586863 0.890931
v 0.303482 -2.746199 0.454192
v 0.209042 2.746199 0.504672
v 0.410050 2.586863 0.989949
v 0.595301 2.328115 1.437183
v 0.757674 1.979899 1.829188
v 0.890930 1.555597 2.150897
v 0.989949 1.071514 2.389949
v 1.050924 0.546253 2.537156
v 1.071512 0.000000 2.586862
v 1.050924 -0.546253 2.537156
v 0.989949 -1.071514 2.389949
v 0.890930 -1.555597 2.150897
v 0.757674 -1.979899 1.829188
v 0.595301 -2.328115 1.437183
v 0.410050 -2.586863 0.989949
v 0.209042 -2.746199 0.504672
v 0.106569 2.746199 0.535756
v 0.209042 2.586863 1.050925
v 0.303481 2.328115 1.525706
v 0.386259 1.979899 1.941856
v 0.454192 1.555597 2.283380
v 0.504672 1.071514 2.537156
v 0.535756 0.546253 2.693430
v 0.546252 0.000000 2.746197
v 0.535756 -0.546253 2.693430
v 0.504672 -1.071514 2.537156
v 0.454192 -1.555597 2.283380
v 0.386259 -1.979899 1.941856
v 0.303481 -2.328115 1.525706
v 0.209042 -2.586863 1.050925
v 0.106569 -2.746199 0.535756
v 0.000000 2.746199 0.546253
v 0.000000 2.586863 1.071513
v 0.000000 2.328115 1.555596
v 0.000000 1.979899 1.979899
v 0.000000 1.555597 2.328114
v 0.000000 1.071514 2.586862
v 0.000000 0.546253 2.746198
v -0.000001 0.000000 2.799998
v 0.000000 -0.546253 2.746198
v 0.000000 -1.071514 2.586862
v 0.000000 -1.555597 2.328114
v 0.000000 -1.979899 1.979899
v 0.000000 -2.328115 1.555596
v 0.000000 -2.586863 1.071513
v 0.000000 -2.746199 0.546253
v -0.106569 2.746199 0.535756
v -0.209042 2.586863 1.050925
v -0.303482 2.328115 1.525705
v -0.386259 1.979899 1.941855
v -0.454193 1.555597 2.283380
v -0.504672 1.071514 2.537156
v -0.535757 0.546253 2.693430
v -0.546253 0.000000 2.746197
v -0.535757 -0.546253 2.693430
v -0.504672 -1.071514 2.537156
v -0.454193 -1.555597 2.283380
v -0.386259 -1.979899 1.941855
v -0.303482 -2.328115 1.525705
v -0.209042 -2.586863 1.050925
v -0.106569 -2.746199 0.535756
v -0.209042 2.746199 0.504672
v -0.410051 2.586863 0.989949
v -0.595301 2.328115 1.437183
v -0.757674 1.979899 1.829188
v -0.890931 1.555597 2.150897
v -0.989949 1.071514 2.389949
v -1.050925 0.546253 2.537156
v -1.071514 0.000000 2.586860
v -1.050925 -0.546253 2.537156
v -0.989949 -1.071514 2.389949
v -0.890931 -1.555597 2.150897
v -0.757674 -1.979899 1.829188
v -0.595301 -2.328115 1.437183
v -0.410051 -2.586863 0.989949
v -0.209042 -2.746199 0.504672
v -0.303482 2.746199 0.454192
v -0.595301 2.586863 0.890931
v -0.864243 2.328115 1.293430
v -1.099973 1.979899 1.646225
v -1.293431 1.555597 1.935756
v -1.437183 1.071514 2.150897
v -1.525706 0.546253 2.283380
v -1.555596 0.000000 2.328113
v -1.525706 -0.546253 2.283380
v -1.437183 -1.071514 2.150897
v -1.293431 -1.555597 1.935756
v -1.099973 -1.979899 1.646225
v -0.864243 -2.328115 1.293430
v -0.595301 -2.586863 0.890931
v -0.303482 -2.746199 0.454192
v -0.386259 2.746199 0.386259
v -0.757674 2.586863 0.757674
v -1.099972 2.328115 1.099972
v -1.400000 1.979899 1.400000
v -1.646225 1.555597 1.646225
v -1.829187 1.071514 1.829188
v -1.941855 0.546253 1.941855
v -1.979898 0.000000 1.979897
v -1.941855 -0.546253 1.941855
v -1.829187 -1.071514 1.829188
v -1.646225 -1.555597 1.646225
v -1.400000 -1.979899 1.400000
v -1.099972 -2.328115 1.099972
v -0.757674 -2.586863 0.757674
v -0.386259 -2.746199 0.386259
v 0.000000 -2.800000 0.000000
v -0.454192 2.746199 0.303482
v -0.890931 2.586863 0.595301
v -1.293431 2.328115 0.864242
v -1.646225 1.979899 1.099973
v -1.935756 1.555597 1.293430
v -2.150897 1.071514 1.437183
v -2.283380 0.546253 1.525705
v -2.328114 0.000000 1.555594
v -2.283380 -0.546253 1.525705
v -2.150897 -1.071514 1.437183
v -1.935756 -1.555597 1.293430
v -1.646225 -1.979899 1.099973
v -1.293431 -2.328115 0.864242
v -0.890931 -2.586863 0.595301
v -0.454192 -2.746199 0.303482
v -0.504671 2.746199 0.209042
v -0.989949 2.586863 0.410050
v -1.437183 2.328115 0.595300
v -1.829188 1.979899 0.757674
v -2.150897 1.555597 0.890930
v -2.389949 1.071514 0.989949
v -2.537156 0.546253 1.050924
v -2.586861 0.000000 1.071512
v -2.537156 -0.546253 1.050924
v -2.389949 -1.071514 0.989949
v -2.150897 -1.555597 0.890930
v -1.829188 -1.979899 0.757674
v -1.437183 -2.328115 0.595300
v -0.989949 -2.586863 0.410050
v -0.504671 -2.746199 0.209042
v -0.535756 2.746199 0.106569
v -1.050924 2.586863 0.209042
v -1.525705 2.328115 0.303481
v -1.941855 1.979899 0.386259
v -2.283380 1.555597 0.454192
v -2.537156 1.071514 0.504672
v -2.693430 0.546253 0.535756
v -2.746196 0.000000 0.546251
v -2.693430 -0.546253 0.535756
v -2.537156 -1.071514 0.504672
v -2.283380 -1.555597 0.454192
v -1.941855 -1.979899 0.386259
v -1.525705 -2.328115 0.303481
v -1.050924 -2.586863 0.209042
v -0.535756 -2.746199 0.106569
v -0.546252 2.746199 -0.000000
v -1.071513 2.586863 -0.000000
v -1.555595 2.328115 -0.000000
v -1.979898 1.979899 -0.000000
v -2.328114 1.555597 -0.000000
v -2.586862 1.071514 -0.000000
v -2.746197 0.546253 -0.000001
v -2.799997 -0.000000 -0.000001
v -2.746197 -0.546253 -0.000001
v -2.586862 -1.071514 0.000000
v -2.328114 -1.555597 0.000000
v -1.979898 -1.979899 0.000000
v -1.555595 -2.328115 0.000000
v -1.071513 -2.586863 0.000000
v -0.546252 -2.746199 0.000000
v -0.535756 2.746199 -0.106569
v -1.050924 2.586863 -0.209042
v -1.525705 2.328115 -0.303482
v -1.941855 1.979899 -0.386259
v -2.283379 1.555597 -0.454193
v -2.537156 1.071514 -0.504672
v -2.693430 0.546253 -0.535757
v -2.746196 -0.000000 -0.546254
v -2.693430 -0.546253 -0.535757
v -2.537156 -1.071514 -0.504672
v -2.283379 -1.555597 -0.454193
v -1.941855 -1.979899 -0.386259
v -1.525705 -2.328115 -0.303482
v -1.050924 -2.586863 -0.209042
v -0.535756 -2.746199 -0.106569
v -0.504671 2.746199 -0.209042
v -0.989949 2.586863 -0.410050
v -1.437182 2.328115 -0.595301
v -1.829188 1.979899 -0.757674
v -2.150896 1.555597 -0.890931
v -2.389948 1.071514 -0.989949
v -2.537155 0.546253 -1.050925
v -2.586859 -0.000000 -1.071514
v -2.537155 -0.546253 -1.050925
v -2.389948 -1.071514 -0.989949
v -2.150896 -1.555597 -0.890931
v -1.829188 -1.979899 -0.757674
v -1.437182 -2.328115 -0.595301
v -0.989949 -2.586863 -0.410050
v -0.504671 -2.746199 -0.209042
v -0.454192 2.746199 -0.303482
v -0.890930 2.586863 -0.595301
v -1.293430 2.328115 -0.864243
v -1.646225 1.979899 -1.099973
v -1.935755 1.555597 -1.293431
v -2.150897 1.071514 -1.437183
v -2.283379 0.546253 -1.525706
v -2.328112 -0.000000 -1.555596
v -2.283379 -0.546253 -1.525706
v -2.150897 -1.071514 -1.437183
v -1.935755 -1.555597 -1.293431
v -1.646225 -1.979899 -1.099973
v -1.293430 -2.328115 -0.864243
v -0.890930 -2.586863 -0.595301
v -0.454192 -2.746199 -0.303482
v -0.386259 2.746199 -0.386259
v -0.757674 2.586863 -0.757674
v -1.099971 2.328115 -1.099972
v -1.399999 1.979899 -1.400000
v -1.646224 1.555597 -1.646225
v -1.829187 1.071514 -1.829187
v -1.941854 0.546253 -1.941855
v -1.979896 -0.000000 -1.979898
v -1.941854 -0.546253 -1.941855
v -1.829187 -1.071514 -1.829187
v -1.646224 -1.555597 -1.646225
v -1.399999 -1.979899 -1.400000
v -1.099971 -2.328115 -1.099972
v -0.757674 -2.586863 -0.757674
v -0.386259 -2.746199 -0.386259
v -0.303481 2.746199 -0.454192
v -0.595301 2.586863 -0.890931
v -0.864242 2.328115 -1.293430
v -1.099972 1.979899 -1.646225
v -1.293430 1.555597 -1.935756
v -1.437183 1.071514 -2.150897
v -1.525705 0.546253 -2.283380
v -1.555594 -0.000000 -2.328113
v -1.525705 -0.546253 -2.283380
v -1.437183 -1.071514 -2.150897
v -1.293430 -1.555597 -1.935756
v -1.099972 -1.979899 -1.646225
v -0.864242 -2.328115 -1.293430
v -0.595301 -2.586863 -0.890931
v -0.303481 -2.746199 -0.454192
v -0.209042 2.746199 -0.504671
v -0.410050 2.586863 -0.989949
v -0.595300 2.328115 -1.437183
v -0.757674 1.979899 -1.829188
v -0.890930 1.555597 -2.150896
v -0.989949 1.071514 -2.389948
v -1.050923 0.546253 -2.537155
v -1.071511 -0.000000 -2.586860
v -1.050923 -0.546253 -2.537155
v -0.989949 -1.071514 -2.389948
v -0.890930 -1.555597 -2.150896
v -0.757674 -1.979899 -1.829188
v -0.595300 -2.328115 -1.437183
v -0.410050 -2.586863 -0.989949
v -0.209042 -2.746199 -0.504671
v -0.106568 2.746199 -0.535756
v -0.209042 2.586863 -1.050924
v -0.303481 2.328115 -1.525705
v -0.386259 1.979899 -1.941855
v -0.454192 1.555597 -2.283379
v -0.504671 1.071514 -2.537155
v -0.535756 0.546253 -2.693430
v -0.546251 -0.000000 -2.746196
v -0.535756 -0.546253 -2.693430
v -0.504671 -1.071514 -2.537155
v -0.454192 -1.555597 -2.283379
v -0.386259 -1.979899 -1.941855
v -0.303481 -2.328115 -1.525705
v -0.209042 -2.586863 -1.050924
v -0.106568 -2.746199 -0.535756
v 0.000000 2.746199 -0.546252
v 0.000000 2.586863 -1.071513
v 0.000000 1.979899 -1.979898
v 0.000000 1.071514 -2.586861
v 0.000000 -1.071514 -2.586861
v 0.000000 -1.979899 -1.979898
v 0.000001 -2.328115 -1.555595
v 0.000000 -2.586863 -1.071513
v 0.000000 -2.746199 -0.546252
vn 0.0976 0.0975 -0.9904
vn 0.0097 0.9951 -0.0980
vn 0.0097 -0.9951 -0.0980
vn 0.0976 -0.0976 -0.9904
vn 0.0286 0.9565 -0.2902
vn 0.0938 -0.2890 -0.9527
vn 0.0464 0.8810 -0.4709
vn 0.0865 -0.4696 -0.8786
vn 0.0624 0.7715 -0.6332
vn 0.0759 -0.6326 -0.7708
vn 0.0759 0.6326 -0.7708
vn 0.0624 -0.7715 -0.6332
vn 0.0865 0.4696 -0.8786
vn 0.0464 -0.8810 -0.4709
vn 0.0938 0.2890 -0.9527
vn 0.0286 -0.9565 -0.2902
vn 0.1374 -0.8810 -0.4528
vn 0.2779 0.2890 -0.9161
vn 0.0846 -0.9565 -0.2790
vn 0.2889 0.0975 -0.9524
vn 0.0286 0.9951 -0.0942
vn 0.0286 -0.9951 -0.0942
vn 0.2889 -0.0975 -0.9524
vn 0.0846 0.9565 -0.2790
vn 0.2779 -0.2890 -0.9161
vn 0.1374 0.8810 -0.4528
vn 0.2563 -0.4696 -0.8448
vn 0.1847 0.7715 -0.6088
vn 0.2248 -0.6326 -0.7412
vn 0.2248 0.6326 -0.7412
vn 0.1847 -0.7715 -0.6088
vn 0.2563 0.4696 -0.8448
vn 0.4162 -0.4696 -0.7786
vn 0.2999 0.7715 -0.5611
vn 0.3651 -0.6326 -0.6831
vn 0.3651 0.6326 -0.6831
vn 0.2999 -0.7715 -0.5611
vn 0.4162 0.4696 -0.7786
vn 0.2231 -0.8810 -0.4173
vn 0.4513 0.2890 -0.8443
vn 0.1374 -0.9565 -0.2571
vn 0.4691 0.0975 -0.8777
vn 0.0464 0.9951 -0.0869
vn 0.0464 -0.9951 -0.0869
vn 0.4691 -0.0975 -0.8777
vn 0.1374 0.9565 -0.2571
vn 0.4513 -0.2890 -0.8443
vn 0.2231 0.8810 -0.4173
vn 0.1850 -0.9565 -0.2254
vn 0.6314 0.0975 -0.7693
vn 0.0625 0.9951 -0.0761
vn 0.0625 -0.9951 -0.0761
vn 0.6314 -0.0975 -0.7693
vn 0.1850 0.9565 -0.2254
vn 0.6073 -0.2890 -0.7400
vn 0.3002 0.8810 -0.3658
vn 0.5601 -0.4696 -0.6825
vn 0.4036 0.7715 -0.4918
vn 0.4913 -0.6326 -0.5987
vn 0.4913 0.6326 -0.5987
vn 0.4036 -0.7715 -0.4918
vn 0.5601 0.4696 -0.6825
vn 0.3002 -0.8810 -0.3658
vn 0.6073 0.2890 -0.7400
vn 0.4918 0.7715 -0.4036
vn 0.5987 -0.6326 -0.4913
vn 0.5987 0.6326 -0.4913
vn 0.4918 -0.7715 -0.4036
vn 0.6825 0.4696 -0.5601
vn 0.3658 -0.8810 -0.3002
vn 0.7400 0.2890 -0.6073
vn 0.2254 -0.9565 -0.1850
vn 0.7693 0.0975 -0.6314
vn 0.0761 0.9951 -0.0625
vn 0.0761 -0.9951 -0.0625
vn 0.7693 -0.0975 -0.6314
vn 0.2254 0.9565 -0.1850
vn 0.7400 -0.2890 -0.6073
vn 0.3658 0.8810 -0.3002
vn 0.6825 -0.4696 -0.5601
vn 0.8777 0.0975 -0.4691
vn 0.0869 0.9951 -0.0464
vn 0.0869 -0.9951 -0.0464
vn 0.8777 -0.0975 -0.4691
vn 0.2571 0.9565 -0.1374
vn 0.8443 -0.2890 -0.4513
vn 0.4173 0.8810 -0.2231
vn 0.7786 -0.4696 -0.4162
vn 0.5611 0.7715 -0.2999
vn 0.6831 -0.6326 -0.3651
vn 0.6831 0.6326 -0.3651
vn 0.5611 -0.7715 -0.2999
vn 0.7786 0.4696 -0.4162
vn 0.4173 -0.8810 -0.2231
vn 0.8443 0.2890 -0.4513
vn 0.2571 -0.9565 -0.1374
vn 0.7412 -0.6326 -0.2248
vn 0.7412 0.6326 -0.2248
vn 0.6088 -0.7715 -0.1847
vn 0.8448 0.4696 -0.2563
vn 0.4528 -0.8810 -0.1374
vn 0.9161 0.2890 -0.2779
vn 0.2790 -0.9565 -0.0846
vn 0.9524 0.0975 -0.2889
vn 0.0942 0.9951 -0.0286
vn 0.0942 -0.9951 -0.0286
vn 0.9524 -0.0975 -0.2889
vn 0.2790 0.9565 -0.0846
vn 0.9161 -0.2890 -0.2779
vn 0.4528 0.8810 -0.1374
vn 0.8448 -0.4696 -0.2563
vn 0.6088 0.7715 -0.1847
vn 0.0980 0.9951 -0.0097
vn 0.0980 -0.9951 -0.0097
vn 0.9904 -0.0975 -0.0975
vn 0.2902 0.9565 -0.0286
vn 0.9527 -0.2890 -0.0938
vn 0.4709 0.8810 -0.0464
vn 0.8786 -0.4696 -0.0865
vn 0.6332 0.7715 -0.0624
vn 0.7708 -0.6326 -0.0759
vn 0.7708 0.6326 -0.0759
vn 0.6332 -0.7715 -0.0624
vn 0.8786 0.4696 -0.0865
vn 0.4709 -0.8810 -0.0464
vn 0.9527 0.2890 -0.0938
vn 0.2902 -0.9565 -0.0286
vn 0.9904 0.0975 -0.0975
vn 0.7708 0.6326 0.0759
vn 0.6332 -0.7715 0.0624
vn 0.8786 0.4696 0.0865
vn 0.4709 -0.8810 0.0464
vn 0.9527 0.2890 0.0938
vn 0.2902 -0.9565 0.0286
vn 0.9904 0.0975 0.0975
vn 0.0980 0.9951 0.0097
vn 0.0980 -0.9951 0.0097
vn 0.9904 -0.0975 0.0975
vn 0.2902 0.9565 0.0286
vn 0.9527 -0.2890 0.0938
vn 0.4709 0.8810 0.0464
vn 0.8786 -0.4696 0.0865
vn 0.6332 0.7715 0.0624
vn 0.7708 -0.6326 0.0759
vn 0.9524 -0.0975 0.2889
vn 0.2790 0.9565 0.0846
vn 0.9161 -0.2890 0.2779
vn 0.4528 0.8810 0.1374
vn 0.8448 -0.4696 0.2563
vn 0.6088 0.7715 0.1847
vn 0.7412 -0.6326 0.2248
vn 0.7412 0.6326 0.2248
vn 0.6088 -0.7715 0.1847
vn 0.8448 0.4696 0.2563
vn 0.4528 -0.8810 0.1374
vn 0.9161 0.2890 0.2779
vn 0.2790 -0.9565 0.0846
vn 0.9524 0.0975 0.2889
vn 0.0942 0.9951 0.0286
vn 0.0942 -0.9951 0.0286
vn 0.5611 -0.7715 0.2999
vn 0.7786 0.4696 0.4162
vn 0.4173 -0.8810 0.2230
vn 0.8443 0.2890 0.4513
vn 0.2571 -0.9565 0.1374
vn 0.8777 0.0975 0.4691
vn 0.0869 0.9951 0.0464
vn 0.0869 -0.9951 0.0464
vn 0.8777 -0.0975 0.4691
vn 0.2571 0.9565 0.1374
vn 0.8443 -0.2890 0.4513
vn 0.4173 0.8810 0.2230
vn 0.7786 -0.4696 0.4162
vn 0.5611 0.7715 0.2999
vn 0.6831 -0.6326 0.3651
vn 0.6831 0.6326 0.3651
vn 0.7400 -0.2890 0.6073
vn 0.3658 0.8810 0.3002
vn 0.6825 -0.4696 0.5601
vn 0.4918 0.7715 0.4036
vn 0.5987 -0.6326 0.4913
vn 0.5987 0.6326 0.4913
vn 0.4918 -0.7715 0.4036
vn 0.6825 0.4696 0.5601
vn 0.3658 -0.8810 0.3002
vn 0.7400 0.2890 0.6073
vn 0.2254 -0.9565 0.1850
vn 0.7693 0.0975 0.6314
vn 0.0761 0.9951 0.0625
vn 0.0761 -0.9951 0.0625
vn 0.7693 -0.0975 0.6314
vn 0.2254 0.9565 0.1850
vn 0.3002 -0.8810 0.3658
vn 0.6073 0.2890 0.7400
vn 0.1850 -0.9565 0.2254
vn 0.6314 0.0975 0.7693
vn 0.0625 0.9951 0.0761
vn 0.0625 -0.9951 0.0761
vn 0.6314 -0.0975 0.7693
vn 0.1850 0.9565 0.2254
vn 0.6073 -0.2890 0.7400
vn 0.3002 0.8810 0.3658
vn 0.5601 -0.4696 0.6825
vn 0.4036 0.7715 0.4918
vn 0.4913 -0.6326 0.5987
vn 0.4913 0.6326 0.5987
vn 0.4036 -0.7715 0.4918
vn 0.5601 0.4696 0.6825
vn 0.2230 0.8810 0.4173
vn 0.4162 -0.4696 0.7786
vn 0.2999 0.7715 0.5611
vn 0.3651 -0.6326 0.6831
vn 0.3651 0.6326 0.6831
vn 0.2999 -0.7715 0.5611
vn 0.4162 0.4696 0.7786
vn 0.2230 -0.8810 0.4173
vn 0.4513 0.2890 0.8443
vn 0.1374 -0.9565 0.2571
vn 0.4691 0.0975 0.8777
vn 0.0464 0.9951 0.0869
vn 0.0464 -0.9951 0.0869
vn 0.4691 -0.0975 0.8777
vn 0.1374 0.9565 0.2571
vn 0.4513 -0.2890 0.8443
vn 0.2779 0.2890 0.9161
vn 0.0846 -0.9565 0.2790
vn 0.2889 0.0975 0.9524
vn 0.0286 0.9951 0.0942
vn 0.0286 -0.9951 0.0942
vn 0.2889 -0.0975 0.9524
vn 0.0846 0.9565 0.2790
vn 0.2779 -0.2890 0.9161
vn 0.1374 0.8810 0.4528
vn 0.2563 -0.4696 0.8448
vn 0.1847 0.7715 0.6088
vn 0.2248 -0.6326 0.7412
vn 0.2248 0.6326 0.7412
vn 0.1847 -0.7715 0.6088
vn 0.2563 0.4696 0.8448
vn 0.1374 -0.8810 0.4528
vn 0.0865 -0.4696 0.8786
vn 0.0624 0.7715 0.6332
vn 0.0759 -0.6326 0.7708
vn 0.0759 0.6326 0.7708
vn 0.0624 -0.7715 0.6332
vn 0.0865 0.4696 0.8786
vn 0.0464 -0.8810 0.4709
vn 0.0938 0.2890 0.9527
vn 0.0286 -0.9565 0.2902
vn 0.0976 0.0975 0.9904
vn 0.0097 0.9951 0.0980
vn 0.0097 -0.9951 0.0980
vn 0.0976 -0.0975 0.9904
vn 0.0286 0.9565 0.2902
vn 0.0938 -0.2890 0.9527
vn 0.0464 0.8810 0.4709
vn -0.0286 -0.9565 0.2902
vn -0.0976 0.0975 0.9904
vn -0.0097 0.9951 0.0980
vn -0.0097 -0.9951 0.0980
vn -0.0976 -0.0975 0.9904
vn -0.0286 0.9565 0.2902
vn -0.0938 -0.2890 0.9527
vn -0.0464 0.8810 0.4709
vn -0.0865 -0.4696 0.8786
vn -0.0624 0.7715 0.6332
vn -0.0759 -0.6326 0.7708
vn -0.0759 0.6326 0.7708
vn -0.0624 -0.7715 0.6332
vn -0.0865 0.4696 0.8786
vn -0.0464 -0.8810 0.4709
vn -0.0938 0.2890 0.9527
vn -0.1847 0.7715 0.6088
vn -0.2248 -0.6326 0.7412
vn -0.2248 0.6326 0.7412
vn -0.1847 -0.7715 0.6088
vn -0.2563 0.4696 0.8448
vn -0.1374 -0.8810 0.4528
vn -0.2779 0.2890 0.9161
vn -0.0846 -0.9565 0.2790
vn -0.2889 0.0975 0.9524
vn -0.0286 0.9951 0.0942
vn -0.0286 -0.9951 0.0942
vn -0.2889 -0.0975 0.9524
vn -0.0846 0.9565 0.2790
vn -0.2779 -0.2890 0.9161
vn -0.1374 0.8810 0.4528
vn -0.2563 -0.4696 0.8448
vn -0.4691 0.0975 0.8777
vn -0.0464 0.9951 0.0869
vn -0.0464 -0.9951 0.0869
vn -0.4691 -0.0975 0.8777
vn -0.1374 0.9565 0.2571
vn -0.4513 -0.2890 0.8443
vn -0.2231 0.8810 0.4173
vn -0.4162 -0.4696 0.7786
vn -0.2999 0.7715 0.5611
vn -0.3651 -0.6326 0.6831
vn -0.3651 0.6326 0.6831
vn -0.2999 -0.7715 0.5611
vn -0.4162 0.4696 0.7786
vn -0.2231 -0.8810 0.4173
vn -0.4513 0.2890 0.8443
vn -0.1374 -0.9565 0.2571
vn -0.4913 -0.6326 0.5987
vn -0.4913 0.6326 0.5987
vn -0.4036 -0.7715 0.4918
vn -0.5601 0.4696 0.6825
vn -0.3002 -0.8810 0.3658
vn -0.6073 0.2890 0.7400
vn -0.1850 -0.9565 0.2254
vn -0.6314 0.0975 0.7693
vn -0.0625 0.9951 0.0761
vn -0.0625 -0.9951 0.0761
vn -0.6314 -0.0975 0.7693
vn -0.1850 0.9565 0.2254
vn -0.6073 -0.2890 0.7400
vn -0.3002 0.8810 0.3658
vn -0.5601 -0.4696 0.6825
vn -0.4036 0.7715 0.4918
vn -0.0761 -0.9951 0.0625
vn -0.7693 -0.0975 0.6314
vn -0.2254 0.9565 0.1850
vn -0.7400 -0.2890 0.6073
vn -0.3658 0.8810 0.3002
vn -0.6825 -0.4696 0.5601
vn -0.4918 0.7715 0.4036
vn -0.5987 -0.6326 0.4913
vn -0.5987 0.6326 0.4913
vn -0.4918 -0.7715 0.4036
vn -0.6825 0.4696 0.5601
vn -0.3658 -0.8810 0.3002
vn -0.7400 0.2890 0.6073
vn -0.2254 -0.9565 0.1850
vn -0.7693 0.0975 0.6314
vn -0.0761 0.9951 0.0625
vn -0.5611 -0.7715 0.2999
vn -0.7786 0.4696 0.4162
vn -0.4173 -0.8810 0.2230
vn -0.8443 0.2890 0.4513
vn -0.2571 -0.9565 0.1374
vn -0.8777 0.0975 0.4691
vn -0.0869 0.9951 0.0464
vn -0.0869 -0.9951 0.0464
vn -0.8777 -0.0975 0.4691
vn -0.2571 0.9565 0.1374
vn -0.8443 -0.2890 0.4513
vn -0.4173 0.8810 0.2230
vn -0.7786 -0.4696 0.4162
vn -0.5611 0.7715 0.2999
vn -0.6831 -0.6326 0.3651
vn -0.6831 0.6326 0.3651
vn -0.2790 0.9565 0.0846
vn -0.9161 -0.2890 0.2779
vn -0.4528 0.8810 0.1374
vn -0.8448 -0.4696 0.2563
vn -0.6088 0.7715 0.1847
vn -0.7412 -0.6326 0.2248
vn -0.7412 0.6326 0.2248
vn -0.6088 -0.7715 0.1847
vn -0.8448 0.4696 0.2563
vn -0.4528 -0.8810 0.1374
vn -0.9161 0.2890 0.2779
vn -0.2790 -0.9565 0.0846
vn -0.9524 0.0975 0.2889
vn -0.0942 0.9951 0.0286
vn -0.0942 -0.9951 0.0286
vn -0.9524 -0.0975 0.2889
vn -0.8786 0.4696 0.0865
vn -0.4709 -0.8810 0.0464
vn -0.9527 0.2890 0.0938
vn -0.2902 -0.9565 0.0286
vn -0.9904 0.0975 0.0975
vn -0.0980 0.9951 0.0097
vn -0.0980 -0.9951 0.0097
vn -0.9904 -0.0975 0.0975
vn -0.2902 0.9565 0.0286
vn -0.9527 -0.2890 0.0938
vn -0.4709 0.8810 0.0464
vn -0.8786 -0.4696 0.0865
vn -0.6332 0.7715 0.0624
vn -0.7708 -0.6326 0.0759
vn -0.7708 0.6326 0.0759
vn -0.6332 -0.7715 0.0624
vn -0.9527 -0.2890 -0.0938
vn -0.4709 0.8810 -0.0464
vn -0.8786 -0.4696 -0.0865
vn -0.6332 0.7715 -0.0624
vn -0.7708 -0.6326 -0.0759
vn -0.7708 0.6326 -0.0759
vn -0.6332 -0.7715 -0.0624
vn -0.8786 0.4696 -0.0865
vn -0.4709 -0.8810 -0.0464
vn -0.9527 0.2890 -0.0938
vn -0.2902 -0.9565 -0.0286
vn -0.9904 0.0975 -0.0975
vn -0.0980 0.9951 -0.0097
vn -0.0980 -0.9951 -0.0097
vn -0.9904 -0.0975 -0.0975
vn -0.2902 0.9565 -0.0286
vn -0.4528 -0.8810 -0.1374
vn -0.9161 0.2890 -0.2779
vn -0.2790 -0.9565 -0.0846
vn -0.9524 0.0975 -0.2889
vn -0.0942 0.9951 -0.0286
vn -0.0942 -0.9951 -0.0286
vn -0.9524 -0.0975 -0.2889
vn -0.2790 0.9565 -0.0846
vn -0.9161 -0.2890 -0.2779
vn -0.4528 0.8810 -0.1374
vn -0.8448 -0.4696 -0.2563
vn -0.6088 0.7715 -0.1847
vn -0.7412 -0.6326 -0.2248
vn -0.7412 0.6326 -0.2248
vn -0.6088 -0.7715 -0.1847
vn -0.8448 0.4696 -0.2563
vn -0.4173 0.8810 -0.2231
vn -0.7786 -0.4696 -0.4162
vn -0.5611 0.7715 -0.2999
vn -0.6831 -0.6326 -0.3651
vn -0.6831 0.6326 -0.3651
vn -0.5611 -0.7715 -0.2999
vn -0.7786 0.4696 -0.4162
vn -0.4173 -0.8810 -0.2231
vn -0.8443 0.2890 -0.4513
vn -0.2571 -0.9565 -0.1374
vn -0.8777 0.0975 -0.4691
vn -0.0869 0.9951 -0.0464
vn -0.0869 -0.9951 -0.0464
vn -0.8777 -0.0975 -0.4691
vn -0.2571 0.9565 -0.1374
vn -0.8443 -0.2890 -0.4513
vn -0.7400 0.2890 -0.6073
vn -0.2254 -0.9565 -0.1850
vn -0.7693 0.0975 -0.6314
vn -0.0761 0.9951 -0.0625
vn -0.0761 -0.9951 -0.0625
vn -0.7693 -0.0975 -0.6314
vn -0.2254 0.9565 -0.1850
vn -0.7400 -0.2890 -0.6073
vn -0.3658 0.8810 -0.3002
vn -0.6825 -0.4696 -0.5601
vn -0.4918 0.7715 -0.4036
vn -0.5987 -0.6326 -0.4913
vn -0.5987 0.6326 -0.4913
vn -0.4918 -0.7715 -0.4036
vn -0.6825 0.4696 -0.5601
vn -0.3658 -0.8810 -0.3002
vn -0.5601 -0.4696 -0.6825
vn -0.4036 0.7715 -0.4918
vn -0.4913 -0.6326 -0.5987
vn -0.4913 0.6326 -0.5987
vn -0.4036 -0.7715 -0.4918
vn -0.5601 0.4696 -0.6825
vn -0.3002 -0.8810 -0.3658
vn -0.6073 0.2890 -0.7400
vn -0.1850 -0.9565 -0.2254
vn -0.6314 0.0975 -0.7693
vn -0.0625 0.9951 -0.0761
vn -0.0625 -0.9951 -0.0761
vn -0.6314 -0.0975 -0.7693
vn -0.1850 0.9565 -0.2254
vn -0.6073 -0.2890 -0.7400
vn -0.3002 0.8810 -0.3658
vn -0.1374 -0.9565 -0.2571
vn -0.4691 0.0975 -0.8777
vn -0.0464 0.9951 -0.0869
vn -0.0464 -0.9951 -0.0869
vn -0.4691 -0.0975 -0.8777
vn -0.1374 0.9565 -0.2571
vn -0.4513 -0.2890 -0.8443
vn -0.2231 0.8810 -0.4173
vn -0.4162 -0.4696 -0.7786
vn -0.2999 0.7715 -0.5611
vn -0.3651 -0.6326 -0.6831
vn -0.3651 0.6326 -0.6831
vn -0.2999 -0.7715 -0.5611
vn -0.4162 0.4696 -0.7786
vn -0.2231 -0.8810 -0.4173
vn -0.4513 0.2890 -0.8443
vn -0.2248 -0.6326 -0.7412
vn -0.2248 0.6326 -0.7412
vn -0.1847 -0.7715 -0.6088
vn -0.2563 0.4696 -0.8448
vn -0.1374 -0.8810 -0.4528
vn -0.2779 0.2890 -0.9161
vn -0.0846 -0.9565 -0.2790
vn -0.2889 0.0975 -0.9524
vn -0.0286 0.9951 -0.0942
vn -0.0286 -0.9951 -0.0942
vn -0.2889 -0.0975 -0.9524
vn -0.0846 0.9565 -0.2790
vn -0.2779 -0.2890 -0.9161
vn -0.1374 0.8810 -0.4528
vn -0.2563 -0.4696 -0.8448
vn -0.1847 0.7715 -0.6088
vn -0.0097 0.9951 -0.0980
vn -0.0097 -0.9951 -0.0980
vn -0.0976 -0.0975 -0.9904
vn -0.0286 0.9565 -0.2902
vn -0.0938 -0.2890 -0.9527
vn -0.0464 0.8810 -0.4709
vn -0.0865 -0.4696 -0.8786
vn -0.0624 0.7715 -0.6332
vn -0.0759 -0.6326 -0.7708
vn -0.0759 0.6326 -0.7708
vn -0.0624 -0.7715 -0.6332
vn -0.0865 0.4696 -0.8786
vn -0.0464 -0.8810 -0.4709
vn -0.0938 0.2890 -0.9527
vn -0.0286 -0.9565 -0.2902
vn -0.0976 0.0975 -0.9904
vt 0.269430 0.252215
vt 0.269413 0.226543
vt 0.294875 0.226261
vt 0.295086 0.252180
vt 0.268803 0.042418
vt 0.268699 0.000073
vt 0.276449 0.041689
vt 0.268162 0.499793
vt 0.268559 0.460189
vt 0.276008 0.460939
vt 0.269306 0.277810
vt 0.294697 0.278079
vt 0.268984 0.080195
vt 0.282495 0.079147
vt 0.269200 0.303874
vt 0.293701 0.304362
vt 0.269080 0.113961
vt 0.286903 0.112836
vt 0.269151 0.330860
vt 0.292222 0.331670
vt 0.269162 0.144638
vt 0.290111 0.143737
vt 0.269067 0.359396
vt 0.289915 0.360387
vt 0.269224 0.173392
vt 0.292379 0.172508
vt 0.268949 0.389808
vt 0.286654 0.391012
vt 0.269293 0.200419
vt 0.293856 0.199927
vt 0.268840 0.423289
vt 0.282174 0.424356
vt 0.304389 0.394299
vt 0.295370 0.427367
vt 0.318925 0.198223
vt 0.320849 0.225406
vt 0.283268 0.462975
vt 0.321373 0.252171
vt 0.283926 0.039771
vt 0.320667 0.278940
vt 0.295891 0.076160
vt 0.318747 0.306090
vt 0.304761 0.109630
vt 0.315695 0.334118
vt 0.311212 0.140945
vt 0.310887 0.363168
vt 0.315886 0.170156
vt 0.344758 0.309015
vt 0.339861 0.338225
vt 0.322600 0.104374
vt 0.332744 0.135973
vt 0.332371 0.368297
vt 0.340200 0.166024
vt 0.322127 0.399675
vt 0.344964 0.195332
vt 0.308273 0.432376
vt 0.347862 0.223921
vt 0.290159 0.466287
vt 0.348938 0.252167
vt 0.291060 0.036578
vt 0.347792 0.280450
vt 0.309003 0.071191
vt 0.320698 0.439491
vt 0.296491 0.470857
vt 0.376789 0.221727
vt 0.378262 0.252239
vt 0.297659 0.032124
vt 0.376677 0.282756
vt 0.321653 0.064256
vt 0.372301 0.313423
vt 0.340579 0.096502
vt 0.365161 0.344426
vt 0.354961 0.128474
vt 0.354409 0.375809
vt 0.365520 0.159971
vt 0.339890 0.407574
vt 0.372533 0.191039
vt 0.358493 0.085748
vt 0.377963 0.118081
vt 0.392033 0.353211
vt 0.377173 0.386248
vt 0.392357 0.151381
vt 0.357554 0.418349
vt 0.402331 0.184885
vt 0.332372 0.448856
vt 0.408340 0.218568
vt 0.302048 0.476651
vt 0.410378 0.252314
vt 0.303507 0.026447
vt 0.408197 0.286053
vt 0.333565 0.055039
vt 0.402064 0.319714
vt 0.443659 0.214115
vt 0.446426 0.252407
vt 0.308354 0.019613
vt 0.306576 0.483564
vt 0.443452 0.290675
vt 0.344403 0.043285
vt 0.434931 0.328526
vt 0.375831 0.071849
vt 0.420976 0.365361
vt 0.401440 0.104220
vt 0.400766 0.400384
vt 0.421673 0.139187
vt 0.374871 0.432507
vt 0.435355 0.176183
vt 0.343027 0.460775
vt 0.452505 0.382072
vt 0.425179 0.419348
vt 0.426004 0.085338
vt 0.453219 0.122698
vt 0.391315 0.450654
vt 0.472655 0.164021
vt 0.352079 0.475293
vt 0.484218 0.207911
vt 0.309780 0.491529
vt 0.487874 0.252522
vt 0.311931 0.011744
vt 0.483960 0.297101
vt 0.353678 0.028976
vt 0.472152 0.340899
vt 0.392268 0.053943
vt 0.313956 0.003062
vt 0.311351 0.500331
vt 0.536332 0.252667
vt 0.531936 0.305899
vt 0.360493 0.012221
vt 0.515986 0.358784
vt 0.407087 0.030967
vt 0.486755 0.405082
vt 0.451364 0.059801
vt 0.450318 0.444957
vt 0.487607 0.099865
vt 0.405855 0.473409
vt 0.516618 0.146370
vt 0.358857 0.492543
vt 0.532265 0.199391
vt 0.481828 0.900728
vt 0.444788 0.938284
vt 0.420729 0.914059
vt 0.447387 0.877521
vt 0.405236 0.527858
vt 0.447491 0.558583
vt 0.422966 0.582770
vt 0.389826 0.550792
vt 0.508511 0.854541
vt 0.467173 0.836976
vt 0.358053 0.509041
vt 0.351270 0.525943
vt 0.527312 0.804467
vt 0.479501 0.793872
vt 0.309572 0.509041
vt 0.535475 0.749402
vt 0.483956 0.748970
vt 0.308716 0.997591
vt 0.262800 0.999927
vt 0.306639 0.988750
vt 0.528274 0.694172
vt 0.480235 0.703982
vt 0.356124 0.987775
vt 0.348966 0.970880
vt 0.510295 0.643682
vt 0.468571 0.660630
vt 0.402783 0.968130
vt 0.387656 0.945844
vt 0.484255 0.596862
vt 0.449322 0.619713
vt 0.442026 0.748636
vt 0.439706 0.710364
vt 0.303050 0.980771
vt 0.339666 0.956722
vt 0.431769 0.672637
vt 0.370852 0.927798
vt 0.417900 0.635987
vt 0.396554 0.895583
vt 0.398582 0.601074
vt 0.416236 0.860877
vt 0.373073 0.568759
vt 0.430598 0.824442
vt 0.342099 0.540167
vt 0.439103 0.786859
vt 0.306202 0.516906
vt 0.374980 0.614729
vt 0.355826 0.582395
vt 0.387555 0.848751
vt 0.397963 0.815486
vt 0.331365 0.551787
vt 0.403972 0.781977
vt 0.301544 0.523756
vt 0.406016 0.748353
vt 0.298212 0.973827
vt 0.404505 0.714704
vt 0.328718 0.944950
vt 0.399014 0.681115
vt 0.353513 0.913945
vt 0.389086 0.647727
vt 0.373060 0.881703
vt 0.373059 0.717683
vt 0.369298 0.687077
vt 0.316731 0.935556
vt 0.335811 0.903325
vt 0.362291 0.656152
vt 0.350339 0.871427
vt 0.352157 0.624794
vt 0.360784 0.839904
vt 0.338042 0.592947
vt 0.368306 0.809075
vt 0.319507 0.560931
vt 0.372563 0.778505
vt 0.295877 0.529397
vt 0.374016 0.748099
vt 0.292381 0.968033
vt 0.320189 0.600655
vt 0.306956 0.567777
vt 0.340855 0.804567
vt 0.343771 0.776047
vt 0.289452 0.533793
vt 0.344785 0.747859
vt 0.285798 0.963453
vt 0.344244 0.719674
vt 0.304047 0.928557
vt 0.341792 0.691166
vt 0.317819 0.895320
vt 0.337044 0.662034
vt 0.328141 0.863794
vt 0.330091 0.631962
vt 0.335690 0.833790
vt 0.290895 0.923503
vt 0.299954 0.889889
vt 0.315821 0.693782
vt 0.312921 0.665865
vt 0.306652 0.858728
vt 0.308650 0.636703
vt 0.311464 0.829500
vt 0.302471 0.605779
vt 0.314856 0.801510
vt 0.293956 0.572644
vt 0.316732 0.774354
vt 0.282494 0.536914
vt 0.317412 0.747620
vt 0.278662 0.960122
vt 0.317214 0.720898
vt 0.289798 0.799653
vt 0.290786 0.773280
vt 0.280748 0.575486
vt 0.275202 0.538825
vt 0.291188 0.747371
vt 0.271160 0.958059
vt 0.291295 0.721481
vt 0.277469 0.920432
vt 0.290821 0.695164
vt 0.282101 0.886642
vt 0.289527 0.667957
vt 0.285515 0.855717
vt 0.287631 0.639341
vt 0.287974 0.826957
vt 0.284807 0.608678
vt 0.266299 0.695441
vt 0.266495 0.668479
vt 0.264258 0.885457
vt 0.264556 0.854590
vt 0.266826 0.640061
vt 0.264822 0.825964
vt 0.267142 0.609549
vt 0.265193 0.798871
vt 0.267405 0.576264
vt 0.265364 0.772747
vt 0.267742 0.539366
vt 0.265514 0.747105
vt 0.263465 0.957276
vt 0.265913 0.721488
vt 0.263899 0.919267
vt 0.254090 0.575145
vt 0.260306 0.538617
vt 0.239936 0.772729
vt 0.239839 0.746815
vt 0.255751 0.957777
vt 0.240539 0.720936
vt 0.250318 0.920169
vt 0.241793 0.694650
vt 0.246396 0.886223
vt 0.243479 0.667482
vt 0.243580 0.855290
vt 0.246042 0.638917
vt 0.241651 0.826456
vt 0.249499 0.608370
vt 0.240580 0.799116
vt 0.228444 0.889123
vt 0.222367 0.857884
vt 0.220137 0.664908
vt 0.225088 0.635849
vt 0.218104 0.828480
vt 0.231847 0.605105
vt 0.215494 0.800422
vt 0.240924 0.572104
vt 0.213972 0.773238
vt 0.253063 0.536584
vt 0.213609 0.746494
vt 0.248202 0.959657
vt 0.214647 0.719795
vt 0.236868 0.922810
vt 0.216848 0.692743
vt 0.186897 0.774334
vt 0.186228 0.746131
vt 0.240988 0.962806
vt 0.246191 0.533281
vt 0.187668 0.717987
vt 0.223648 0.927457
vt 0.190977 0.689585
vt 0.210405 0.894230
vt 0.196111 0.660584
vt 0.200736 0.862546
vt 0.203776 0.630680
vt 0.193815 0.832202
vt 0.214181 0.599615
vt 0.189438 0.802909
vt 0.228052 0.567072
vt 0.171015 0.654193
vt 0.181936 0.623091
vt 0.178513 0.869585
vt 0.168382 0.837926
vt 0.196540 0.591659
vt 0.161843 0.806807
vt 0.215660 0.559944
vt 0.158042 0.776132
vt 0.239883 0.528726
vt 0.156995 0.745711
vt 0.234294 0.967211
vt 0.158942 0.715369
vt 0.210860 0.934361
vt 0.163627 0.684927
vt 0.192439 0.901706
vt 0.234351 0.522958
vt 0.125039 0.745214
vt 0.127649 0.711713
vt 0.228316 0.972788
vt 0.198711 0.943428
vt 0.134134 0.678362
vt 0.174342 0.912170
vt 0.144425 0.645230
vt 0.155465 0.879535
vt 0.159427 0.612586
vt 0.141329 0.846149
vt 0.179044 0.580881
vt 0.132013 0.812495
vt 0.204007 0.550583
vt 0.126573 0.778824
vt 0.136174 0.598428
vt 0.161961 0.566805
vt 0.112145 0.857634
vt 0.099055 0.820573
vt 0.193452 0.538841
vt 0.091393 0.782705
vt 0.229832 0.516042
vt 0.089227 0.744611
vt 0.223319 0.979550
vt 0.092717 0.706670
vt 0.187581 0.955066
vt 0.101644 0.669250
vt 0.156780 0.925793
vt 0.115865 0.632915
vt 0.131544 0.893109
vt 0.219573 0.987367
vt 0.178097 0.969135
vt 0.052660 0.699736
vt 0.064948 0.656545
vt 0.139800 0.943684
vt 0.084860 0.616062
vt 0.106602 0.911519
vt 0.112209 0.579511
vt 0.080244 0.873553
vt 0.145811 0.548839
vt 0.061686 0.832030
vt 0.184487 0.524593
vt 0.050982 0.788194
vt 0.226591 0.508090
vt 0.048097 0.743856
vt 0.045418 0.895592
vt 0.017621 0.848711
vt 0.131620 0.526390
vt 0.177768 0.507797
vt 0.003137 0.795775
vt 0.224910 0.499280
vt 0.000073 0.742893
vt 0.217360 0.996034
vt 0.005323 0.690302
vt 0.170957 0.985817
vt 0.021873 0.638295
vt 0.124572 0.966417
vt 0.051313 0.592959
vt 0.080677 0.936556
vt 0.087660 0.554068
vt 0.026116 0.357491
vt 0.007737 0.307330
vt 0.055530 0.297131
vt 0.067525 0.340239
vt 0.130338 0.033088
vt 0.176573 0.013622
vt 0.183680 0.030125
vt 0.145764 0.055621
vt 0.052481 0.403866
vt 0.087042 0.380833
vt 0.088745 0.063381
vt 0.112984 0.087317
vt 0.089390 0.441604
vt 0.113550 0.417392
vt 0.052242 0.101098
vt 0.086748 0.123898
vt 0.131524 0.471690
vt 0.146697 0.448879
vt 0.026062 0.147309
vt 0.067392 0.164450
vt 0.178287 0.490334
vt 0.184986 0.473734
vt 0.007743 0.197366
vt 0.055481 0.207514
vt 0.226742 0.490532
vt 0.000073 0.252330
vt 0.051431 0.252314
vt 0.223218 0.003234
vt 0.225408 0.011955
vt 0.163075 0.431293
vt 0.194221 0.459360
vt 0.103936 0.176602
vt 0.095803 0.214144
vt 0.230102 0.482666
vt 0.093229 0.252281
vt 0.229096 0.019810
vt 0.095871 0.290424
vt 0.193168 0.044214
vt 0.104093 0.327973
vt 0.162373 0.073059
vt 0.118192 0.364398
vt 0.137157 0.105430
vt 0.137639 0.399068
vt 0.117903 0.140162
vt 0.204152 0.055802
vt 0.179746 0.086632
vt 0.136685 0.319260
vt 0.146834 0.352485
vt 0.160695 0.119016
vt 0.161118 0.385296
vt 0.146572 0.151936
vt 0.180413 0.417382
vt 0.136535 0.185212
vt 0.204863 0.447848
vt 0.130868 0.218689
vt 0.234752 0.475817
vt 0.129138 0.252246
vt 0.234010 0.026624
vt 0.130936 0.285800
vt 0.166164 0.191308
vt 0.162230 0.221855
vt 0.216715 0.438655
vt 0.240414 0.470172
vt 0.161065 0.252214
vt 0.239890 0.032284
vt 0.162286 0.282564
vt 0.216165 0.064876
vt 0.166286 0.313081
vt 0.197605 0.097129
vt 0.173505 0.343890
vt 0.183501 0.129075
vt 0.183816 0.375120
vt 0.173299 0.160431
vt 0.198062 0.406822
vt 0.193717 0.308788
vt 0.198669 0.337840
vt 0.215525 0.104812
vt 0.205594 0.136279
vt 0.205799 0.367839
vt 0.198533 0.166413
vt 0.215809 0.399097
vt 0.193636 0.195542
vt 0.229264 0.431733
vt 0.191001 0.224034
vt 0.246839 0.465770
vt 0.190250 0.252190
vt 0.246506 0.036729
vt 0.191038 0.280335
vt 0.228876 0.071710
vt 0.242254 0.426930
vt 0.253802 0.462645
vt 0.218019 0.225457
vt 0.217591 0.252178
vt 0.253648 0.039928
vt 0.218030 0.278884
vt 0.242011 0.076436
vt 0.219647 0.305982
vt 0.233437 0.110078
vt 0.222751 0.333832
vt 0.227110 0.141091
vt 0.227213 0.362969
vt 0.222687 0.170383
vt 0.233552 0.393839
vt 0.219613 0.198314
vt 0.246133 0.331540
vt 0.248236 0.360205
vt 0.248215 0.143790
vt 0.246136 0.172666
vt 0.251263 0.390794
vt 0.244659 0.199854
vt 0.255501 0.424130
vt 0.243952 0.226263
vt 0.261102 0.460811
vt 0.243789 0.252182
vt 0.261150 0.041770
vt 0.243926 0.278075
vt 0.255453 0.079375
vt 0.244640 0.304432
vt 0.251252 0.113087
s 1
usemtl Material.002
f 4/1/1 3/2/1 13/3/1 14/4/1
f 474/5/2 82/6/2 7/7/2
f 308/8/3 482/9/3 21/10/3
f 5/11/4 4/1/4 14/4/4 15/12/4
f 475/13/5 474/5/5 7/7/5 8/14/5
f 478/15/6 5/11/6 15/12/6 16/16/6
f 1/17/7 475/13/7 8/14/7 9/18/7
f 6/19/8 478/15/8 16/16/8 17/20/8
f 476/21/9 1/17/9 9/18/9 10/22/9
f 479/23/10 6/19/10 17/20/10 18/24/10
f 2/25/11 476/21/11 10/22/11 11/26/11
f 480/27/12 479/23/12 18/24/12 19/28/12
f 477/29/13 2/25/13 11/26/13 12/30/13
f 481/31/14 480/27/14 19/28/14 20/32/14
f 3/2/15 477/29/15 12/30/15 13/3/15
f 482/9/16 481/31/16 20/32/16 21/10/16
f 20/32/17 19/28/17 34/33/17 35/34/17
f 13/3/18 12/30/18 27/35/18 28/36/18
f 21/10/19 20/32/19 35/34/19 36/37/19
f 14/4/20 13/3/20 28/36/20 29/38/20
f 7/7/21 82/6/21 22/39/21
f 308/8/22 21/10/22 36/37/22
f 15/12/23 14/4/23 29/38/23 30/40/23
f 8/14/24 7/7/24 22/39/24 23/41/24
f 16/16/25 15/12/25 30/40/25 31/42/25
f 9/18/26 8/14/26 23/41/26 24/43/26
f 17/20/27 16/16/27 31/42/27 32/44/27
f 10/22/28 9/18/28 24/43/28 25/45/28
f 18/24/29 17/20/29 32/44/29 33/46/29
f 11/26/30 10/22/30 25/45/30 26/47/30
f 19/28/31 18/24/31 33/46/31 34/33/31
f 12/30/32 11/26/32 26/47/32 27/35/32
f 32/44/33 31/42/33 46/48/33 47/49/33
f 25/45/34 24/43/34 39/50/34 40/51/34
f 33/46/35 32/44/35 47/49/35 48/52/35
f 26/47/36 25/45/36 40/51/36 41/53/36
f 34/33/37 33/46/37 48/52/37 49/54/37
f 27/35/38 26/47/38 41/53/38 42/55/38
f 35/34/39 34/33/39 49/54/39 50/56/39
f 28/36/40 27/35/40 42/55/40 43/57/40
f 36/37/41 35/34/41 50/56/41 51/58/41
f 29/38/42 28/36/42 43/57/42 44/59/42
f 22/39/43 82/6/43 37/60/43
f 308/8/44 36/37/44 51/58/44
f 30/40/45 29/38/45 44/59/45 45/61/45
f 23/41/46 22/39/46 37/60/46 38/62/46
f 31/42/47 30/40/47 45/61/47 46/48/47
f 24/43/48 23/41/48 38/62/48 39/50/48
f 51/58/49 50/56/49 65/63/49 66/64/49
f 44/59/50 43/57/50 58/65/50 59/66/50
f 37/60/51 82/6/51 52/67/51
f 308/8/52 51/58/52 66/64/52
f 45/61/53 44/59/53 59/66/53 60/68/53
f 38/62/54 37/60/54 52/67/54 53/69/54
f 46/48/55 45/61/55 60/68/55 61/70/55
f 39/50/56 38/62/56 53/69/56 54/71/56
f 47/49/57 46/48/57 61/70/57 62/72/57
f 40/51/58 39/50/58 54/71/58 55/73/58
f 48/52/59 47/49/59 62/72/59 63/74/59
f 41/53/60 40/51/60 55/73/60 56/75/60
f 49/54/61 48/52/61 63/74/61 64/76/61
f 42/55/62 41/53/62 56/75/62 57/77/62
f 50/56/63 49/54/63 64/76/63 65/63/63
f 43/57/64 42/55/64 57/77/64 58/65/64
f 55/73/65 54/71/65 69/78/65 70/79/65
f 63/74/66 62/72/66 77/80/66 78/81/66
f 56/75/67 55/73/67 70/79/67 71/82/67
f 64/76/68 63/74/68 78/81/68 79/83/68
f 57/77/69 56/75/69 71/82/69 72/84/69
f 65/63/70 64/76/70 79/83/70 80/85/70
f 58/65/71 57/77/71 72/84/71 73/86/71
f 66/64/72 65/63/72 80/85/72 81/87/72
f 59/66/73 58/65/73 73/86/73 74/88/73
f 52/67/74 82/6/74 67/89/74
f 308/8/75 66/64/75 81/87/75
f 60/68/76 59/66/76 74/88/76 75/90/76
f 53/69/77 52/67/77 67/89/77 68/91/77
f 61/70/78 60/68/78 75/90/78 76/92/78
f 54/71/79 53/69/79 68/91/79 69/78/79
f 62/72/80 61/70/80 76/92/80 77/80/80
f 74/88/81 73/86/81 89/93/81 90/94/81
f 67/89/82 82/6/82 83/95/82
f 308/8/83 81/87/83 97/96/83
f 75/90/84 74/88/84 90/94/84 91/97/84
f 68/91/85 67/89/85 83/95/85 84/98/85
f 76/92/86 75/90/86 91/97/86 92/99/86
f 69/78/87 68/91/87 84/98/87 85/100/87
f 77/80/88 76/92/88 92/99/88 93/101/88
f 70/79/89 69/78/89 85/100/89 86/102/89
f 78/81/90 77/80/90 93/101/90 94/103/90
f 71/82/91 70/79/91 86/102/91 87/104/91
f 79/83/92 78/81/92 94/103/92 95/105/92
f 72/84/93 71/82/93 87/104/93 88/106/93
f 80/85/94 79/83/94 95/105/94 96/107/94
f 73/86/95 72/84/95 88/106/95 89/93/95
f 81/87/96 80/85/96 96/107/96 97/96/96
f 94/103/97 93/101/97 108/108/97 109/109/97
f 87/104/98 86/102/98 101/110/98 102/111/98
f 95/105/99 94/103/99 109/109/99 110/112/99
f 88/106/100 87/104/100 102/111/100 103/113/100
f 96/107/101 95/105/101 110/112/101 111/114/101
f 89/93/102 88/106/102 103/113/102 104/115/102
f 97/96/103 96/107/103 111/114/103 112/116/103
f 90/94/104 89/93/104 104/115/104 105/117/104
f 83/95/105 82/6/105 98/118/105
f 308/8/106 97/96/106 112/116/106
f 91/97/107 90/94/107 105/117/107 106/119/107
f 84/98/108 83/95/108 98/118/108 99/120/108
f 92/99/109 91/97/109 106/119/109 107/121/109
f 85/100/110 84/98/110 99/120/110 100/122/110
f 93/101/111 92/99/111 107/121/111 108/108/111
f 86/102/112 85/100/112 100/122/112 101/110/112
f 98/118/113 82/6/113 113/123/113
f 308/8/114 112/116/114 127/124/114
f 106/119/115 105/117/115 120/125/115 121/126/115
f 99/120/116 98/118/116 113/123/116 114/127/116
f 107/121/117 106/119/117 121/126/117 122/128/117
f 100/122/118 99/120/118 114/127/118 115/129/118
f 108/108/119 107/121/119 122/128/119 123/130/119
f 101/110/120 100/122/120 115/129/120 116/131/120
f 109/109/121 108/108/121 123/130/121 124/132/121
f 102/111/122 101/110/122 116/131/122 117/133/122
f 110/112/123 109/109/123 124/132/123 125/134/123
f 103/113/124 102/111/124 117/133/124 118/135/124
f 111/114/125 110/112/125 125/134/125 126/136/125
f 104/115/126 103/113/126 118/135/126 119/137/126
f 112/116/127 111/114/127 126/136/127 127/124/127
f 105/117/128 104/115/128 119/137/128 120/125/128
f 117/138/129 116/139/129 131/140/129 132/141/129
f 125/142/130 124/143/130 139/144/130 140/145/130
f 118/146/131 117/138/131 132/141/131 133/147/131
f 126/148/132 125/142/132 140/145/132 141/149/132
f 119/150/133 118/146/133 133/147/133 134/151/133
f 127/124/134 126/148/134 141/149/134 142/152/134
f 120/153/135 119/150/135 134/151/135 135/154/135
f 113/155/136 82/156/136 128/157/136
f 308/8/137 127/124/137 142/152/137
f 121/158/138 120/153/138 135/154/138 136/159/138
f 114/160/139 113/155/139 128/157/139 129/161/139
f 122/162/140 121/158/140 136/159/140 137/163/140
f 115/164/141 114/160/141 129/161/141 130/165/141
f 123/166/142 122/162/142 137/163/142 138/167/142
f 116/139/143 115/164/143 130/165/143 131/140/143
f 124/143/144 123/166/144 138/167/144 139/144/144
f 136/159/145 135/154/145 150/168/145 151/169/145
f 129/161/146 128/157/146 143/170/146 144/171/146
f 137/163/147 136/159/147 151/169/147 152/172/147
f 130/165/148 129/161/148 144/171/148 145/173/148
f 138/167/149 137/163/149 152/172/149 153/174/149
f 131/140/150 130/165/150 145/173/150 146/175/150
f 139/144/151 138/167/151 153/174/151 154/176/151
f 132/141/152 131/140/152 146/175/152 147/177/152
f 140/145/153 139/144/153 154/176/153 155/178/153
f 133/147/154 132/141/154 147/177/154 148/179/154
f 141/149/155 140/145/155 155/178/155 156/180/155
f 134/151/156 133/147/156 148/179/156 149/181/156
f 142/152/157 141/149/157 156/180/157 157/182/157
f 135/154/158 134/151/158 149/181/158 150/168/158
f 128/157/159 82/156/159 143/170/159
f 308/8/160 142/152/160 157/182/160
f 155/178/161 154/176/161 169/183/161 170/184/161
f 148/179/162 147/177/162 162/185/162 163/186/162
f 156/180/163 155/178/163 170/184/163 171/187/163
f 149/181/164 148/179/164 163/186/164 164/188/164
f 157/182/165 156/180/165 171/187/165 172/189/165
f 150/168/166 149/181/166 164/188/166 165/190/166
f 143/170/167 82/156/167 158/191/167
f 308/8/168 157/182/168 172/189/168
f 151/169/169 150/168/169 165/190/169 166/192/169
f 144/171/170 143/170/170 158/191/170 159/193/170
f 152/172/171 151/169/171 166/192/171 167/194/171
f 145/173/172 144/171/172 159/193/172 160/195/172
f 153/174/173 152/172/173 167/194/173 168/196/173
f 146/175/174 145/173/174 160/195/174 161/197/174
f 154/176/175 153/174/175 168/196/175 169/183/175
f 147/177/176 146/175/176 161/197/176 162/185/176
f 167/194/177 166/192/177 181/198/177 182/199/177
f 160/195/178 159/193/178 174/200/178 175/201/178
f 168/196/179 167/194/179 182/199/179 183/202/179
f 161/197/180 160/195/180 175/201/180 176/203/180
f 169/183/181 168/196/181 183/202/181 184/204/181
f 162/185/182 161/197/182 176/203/182 177/205/182
f 170/184/183 169/183/183 184/204/183 185/206/183
f 163/186/184 162/185/184 177/205/184 178/207/184
f 171/187/185 170/184/185 185/206/185 186/208/185
f 164/188/186 163/186/186 178/207/186 179/209/186
f 172/189/187 171/187/187 186/208/187 187/210/187
f 165/190/188 164/188/188 179/209/188 180/211/188
f 158/191/189 82/156/189 173/212/189
f 308/8/190 172/189/190 187/210/190
f 166/192/191 165/190/191 180/211/191 181/198/191
f 159/193/192 158/191/192 173/212/192 174/200/192
f 186/208/193 185/206/193 200/213/193 201/214/193
f 179/209/194 178/207/194 193/215/194 194/216/194
f 187/210/195 186/208/195 201/214/195 202/217/195
f 180/211/196 179/209/196 194/216/196 195/218/196
f 173/212/197 82/156/197 188/219/197
f 308/8/198 187/210/198 202/217/198
f 181/198/199 180/211/199 195/218/199 196/220/199
f 174/200/200 173/212/200 188/219/200 189/221/200
f 182/199/201 181/198/201 196/220/201 197/222/201
f 175/201/202 174/200/202 189/221/202 190/223/202
f 183/202/203 182/199/203 197/222/203 198/224/203
f 176/203/204 175/201/204 190/223/204 191/225/204
f 184/204/205 183/202/205 198/224/205 199/226/205
f 177/205/206 176/203/206 191/225/206 192/227/206
f 185/206/207 184/204/207 199/226/207 200/213/207
f 178/207/208 177/205/208 192/227/208 193/215/208
f 190/223/209 189/221/209 204/228/209 205/229/209
f 198/224/210 197/222/210 212/230/210 213/231/210
f 191/225/211 190/223/211 205/229/211 206/232/211
f 199/226/212 198/224/212 213/231/212 214/233/212
f 192/227/213 191/225/213 206/232/213 207/234/213
f 200/213/214 199/226/214 214/233/214 215/235/214
f 193/215/215 192/227/215 207/234/215 208/236/215
f 201/214/216 200/213/216 215/235/216 216/237/216
f 194/216/217 193/215/217 208/236/217 209/238/217
f 202/217/218 201/214/218 216/237/218 217/239/218
f 195/218/219 194/216/219 209/238/219 210/240/219
f 188/219/220 82/156/220 203/241/220
f 308/8/221 202/217/221 217/239/221
f 196/220/222 195/218/222 210/240/222 211/242/222
f 189/221/223 188/219/223 203/241/223 204/228/223
f 197/222/224 196/220/224 211/242/224 212/230/224
f 209/238/225 208/236/225 223/243/225 224/244/225
f 217/239/226 216/237/226 231/245/226 232/246/226
f 210/240/227 209/238/227 224/244/227 225/247/227
f 203/241/228 82/156/228 218/248/228
f 308/8/229 217/239/229 232/246/229
f 211/242/230 210/240/230 225/247/230 226/249/230
f 204/228/231 203/241/231 218/248/231 219/250/231
f 212/230/232 211/242/232 226/249/232 227/251/232
f 205/229/233 204/228/233 219/250/233 220/252/233
f 213/231/234 212/230/234 227/251/234 228/253/234
f 206/232/235 205/229/235 220/252/235 221/254/235
f 214/233/236 213/231/236 228/253/236 229/255/236
f 207/234/237 206/232/237 221/254/237 222/256/237
f 215/235/238 214/233/238 229/255/238 230/257/238
f 208/236/239 207/234/239 222/256/239 223/243/239
f 216/237/240 215/235/240 230/257/240 231/245/240
f 228/253/241 227/251/241 242/258/241 243/259/241
f 221/254/242 220/252/242 235/260/242 236/261/242
f 229/255/243 228/253/243 243/259/243 244/262/243
f 222/256/244 221/254/244 236/261/244 237/263/244
f 230/257/245 229/255/245 244/262/245 245/264/245
f 223/243/246 222/256/246 237/263/246 238/265/246
f 231/245/247 230/257/247 245/264/247 246/266/247
f 224/244/248 223/243/248 238/265/248 239/267/248
f 232/246/249 231/245/249 246/266/249 247/268/249
f 225/247/250 224/244/250 239/267/250 240/269/250
f 218/248/251 82/156/251 233/270/251
f 308/8/252 232/246/252 247/268/252
f 226/249/253 225/247/253 240/269/253 241/271/253
f 219/250/254 218/248/254 233/270/254 234/272/254
f 227/251/255 226/249/255 241/271/255 242/258/255
f 220/252/256 219/250/256 234/272/256 235/260/256
f 247/268/257 246/266/257 261/273/257 262/274/257
f 240/269/258 239/267/258 254/275/258 255/276/258
f 233/270/259 82/156/259 248/277/259
f 308/8/260 247/268/260 262/274/260
f 241/271/261 240/269/261 255/276/261 256/278/261
f 234/272/262 233/270/262 248/277/262 249/279/262
f 242/258/263 241/271/263 256/278/263 257/280/263
f 235/260/264 234/272/264 249/279/264 250/281/264
f 243/259/265 242/258/265 257/280/265 258/282/265
f 236/261/266 235/260/266 250/281/266 251/283/266
f 244/262/267 243/259/267 258/282/267 259/284/267
f 237/263/268 236/261/268 251/283/268 252/285/268
f 245/264/269 244/262/269 259/284/269 260/286/269
f 238/265/270 237/263/270 252/285/270 253/287/270
f 246/266/271 245/264/271 260/286/271 261/273/271
f 239/267/272 238/265/272 253/287/272 254/275/272
f 251/283/273 250/281/273 265/288/273 266/289/273
f 259/284/274 258/282/274 273/290/274 274/291/274
f 252/285/275 251/283/275 266/289/275 267/292/275
f 260/286/276 259/284/276 274/291/276 275/293/276
f 253/287/277 252/285/277 267/292/277 268/294/277
f 261/273/278 260/286/278 275/293/278 276/295/278
f 254/275/279 253/287/279 268/294/279 269/296/279
f 262/274/280 261/273/280 276/295/280 277/297/280
f 255/276/281 254/275/281 269/296/281 270/298/281
f 248/277/282 82/156/282 263/299/282
f 308/8/283 262/274/283 277/297/283
f 256/278/284 255/276/284 270/298/284 271/300/284
f 249/279/285 248/277/285 263/299/285 264/301/285
f 257/280/286 256/278/286 271/300/286 272/302/286
f 250/281/287 249/279/287 264/301/287 265/288/287
f 258/282/288 257/280/288 272/302/288 273/290/288
f 270/298/289 269/296/289 284/303/289 285/304/289
f 263/299/290 82/156/290 278/305/290
f 308/8/291 277/297/291 292/306/291
f 271/300/292 270/298/292 285/304/292 286/307/292
f 264/301/293 263/299/293 278/305/293 279/308/293
f 272/302/294 271/300/294 286/307/294 287/309/294
f 265/288/295 264/301/295 279/308/295 280/310/295
f 273/290/296 272/302/296 287/309/296 288/311/296
f 266/289/297 265/288/297 280/310/297 281/312/297
f 274/291/298 273/290/298 288/311/298 289/313/298
f 267/292/299 266/289/299 281/312/299 282/314/299
f 275/293/300 274/291/300 289/313/300 290/315/300
f 268/294/301 267/292/301 282/314/301 283/316/301
f 276/295/302 275/293/302 290/315/302 291/317/302
f 269/296/303 268/294/303 283/316/303 284/303/303
f 277/297/304 276/295/304 291/317/304 292/306/304
f 289/313/305 288/311/305 303/318/305 304/319/305
f 282/314/306 281/312/306 296/320/306 297/321/306
f 290/315/307 289/313/307 304/319/307 305/322/307
f 283/316/308 282/314/308 297/321/308 298/323/308
f 291/317/309 290/315/309 305/322/309 306/324/309
f 284/303/310 283/316/310 298/323/310 299/325/310
f 292/306/311 291/317/311 306/324/311 307/326/311
f 285/304/312 284/303/312 299/325/312 300/327/312
f 278/305/313 82/156/313 293/328/313
f 308/8/314 292/306/314 307/326/314
f 286/307/315 285/304/315 300/327/315 301/329/315
f 279/308/316 278/305/316 293/328/316 294/330/316
f 287/309/317 286/307/317 301/329/317 302/331/317
f 280/310/318 279/308/318 294/330/318 295/332/318
f 288/311/319 287/309/319 302/331/319 303/318/319
f 281/312/320 280/310/320 295/332/320 296/320/320
f 308/8/321 307/326/321 323/333/321
f 301/329/322 300/327/322 316/334/322 317/335/322
f 294/330/323 293/328/323 309/336/323 310/337/323
f 302/331/324 301/329/324 317/335/324 318/338/324
f 295/332/325 294/330/325 310/337/325 311/339/325
f 303/318/326 302/331/326 318/338/326 319/340/326
f 296/320/327 295/332/327 311/339/327 312/341/327
f 304/319/328 303/318/328 319/340/328 320/342/328
f 297/321/329 296/320/329 312/341/329 313/343/329
f 305/322/330 304/319/330 320/342/330 321/344/330
f 298/323/331 297/321/331 313/343/331 314/345/331
f 306/324/332 305/322/332 321/344/332 322/346/332
f 299/325/333 298/323/333 314/345/333 315/347/333
f 307/326/334 306/324/334 322/346/334 323/333/334
f 300/327/335 299/325/335 315/347/335 316/334/335
f 293/328/336 82/156/336 309/336/336
f 321/344/337 320/342/337 335/348/337 336/349/337
f 314/345/338 313/343/338 328/350/338 329/351/338
f 322/346/339 321/344/339 336/349/339 337/352/339
f 315/347/340 314/345/340 329/351/340 330/353/340
f 323/333/341 322/346/341 337/352/341 338/354/341
f 316/334/342 315/347/342 330/353/342 331/355/342
f 309/336/343 82/156/343 324/356/343
f 308/8/344 323/333/344 338/354/344
f 317/335/345 316/334/345 331/355/345 332/357/345
f 310/337/346 309/336/346 324/356/346 325/358/346
f 318/338/347 317/335/347 332/357/347 333/359/347
f 311/339/348 310/337/348 325/358/348 326/360/348
f 319/340/349 318/338/349 333/359/349 334/361/349
f 312/341/350 311/339/350 326/360/350 327/362/350
f 320/342/351 319/340/351 334/361/351 335/348/351
f 313/343/352 312/341/352 327/362/352 328/350/352
f 325/358/353 324/356/353 339/363/353 340/364/353
f 333/359/354 332/357/354 347/365/354 348/366/354
f 326/360/355 325/358/355 340/364/355 341/367/355
f 334/361/356 333/359/356 348/366/356 349/368/356
f 327/362/357 326/360/357 341/367/357 342/369/357
f 335/348/358 334/361/358 349/368/358 350/370/358
f 328/350/359 327/362/359 342/369/359 343/371/359
f 336/349/360 335/348/360 350/370/360 351/372/360
f 329/351/361 328/350/361 343/371/361 344/373/361
f 337/352/362 336/349/362 351/372/362 352/374/362
f 330/353/363 329/351/363 344/373/363 345/375/363
f 338/354/364 337/352/364 352/374/364 353/376/364
f 331/355/365 330/353/365 345/375/365 346/377/365
f 324/356/366 82/156/366 339/363/366
f 308/8/367 338/354/367 353/376/367
f 332/357/368 331/355/368 346/377/368 347/365/368
f 344/373/369 343/371/369 358/378/369 359/379/369
f 352/374/370 351/372/370 366/380/370 367/381/370
f 345/375/371 344/373/371 359/379/371 360/382/371
f 353/376/372 352/374/372 367/381/372 368/383/372
f 346/377/373 345/375/373 360/382/373 361/384/373
f 339/363/374 82/156/374 354/385/374
f 308/8/375 353/376/375 368/383/375
f 347/365/376 346/377/376 361/384/376 362/386/376
f 340/364/377 339/363/377 354/385/377 355/387/377
f 348/366/378 347/365/378 362/386/378 363/388/378
f 341/367/379 340/364/379 355/387/379 356/389/379
f 349/368/380 348/366/380 363/388/380 364/390/380
f 342/369/381 341/367/381 356/389/381 357/391/381
f 350/370/382 349/368/382 364/390/382 365/392/382
f 343/371/383 342/369/383 357/391/383 358/378/383
f 351/372/384 350/370/384 365/392/384 366/380/384
f 363/393/385 362/394/385 377/395/385 378/396/385
f 356/397/386 355/398/386 370/399/386 371/400/386
f 364/401/387 363/393/387 378/396/387 379/402/387
f 357/403/388 356/397/388 371/400/388 372/404/388
f 365/405/389 364/401/389 379/402/389 380/406/389
f 358/407/390 357/403/390 372/404/390 373/408/390
f 366/409/391 365/405/391 380/406/391 381/410/391
f 359/411/392 358/407/392 373/408/392 374/412/392
f 367/413/393 366/409/393 381/410/393 382/414/393
f 360/415/394 359/411/394 374/412/394 375/416/394
f 368/383/395 367/413/395 382/414/395 383/417/395
f 361/418/396 360/415/396 375/416/396 376/419/396
f 354/420/397 82/6/397 369/421/397
f 308/8/398 368/383/398 383/417/398
f 362/394/399 361/418/399 376/419/399 377/395/399
f 355/398/400 354/420/400 369/421/400 370/399/400
f 382/414/401 381/410/401 396/422/401 397/423/401
f 375/416/402 374/412/402 389/424/402 390/425/402
f 383/417/403 382/414/403 397/423/403 398/426/403
f 376/419/404 375/416/404 390/425/404 391/427/404
f 369/421/405 82/6/405 384/428/405
f 308/8/406 383/417/406 398/426/406
f 377/395/407 376/419/407 391/427/407 392/429/407
f 370/399/408 369/421/408 384/428/408 385/430/408
f 378/396/409 377/395/409 392/429/409 393/431/409
f 371/400/410 370/399/410 385/430/410 386/432/410
f 379/402/411 378/396/411 393/431/411 394/433/411
f 372/404/412 371/400/412 386/432/412 387/434/412
f 380/406/413 379/402/413 394/433/413 395/435/413
f 373/408/414 372/404/414 387/434/414 388/436/414
f 381/410/415 380/406/415 395/435/415 396/422/415
f 374/412/416 373/408/416 388/436/416 389/424/416
f 386/432/417 385/430/417 400/437/417 401/438/417
f 394/433/418 393/431/418 408/439/418 409/440/418
f 387/434/419 386/432/419 401/438/419 402/441/419
f 395/435/420 394/433/420 409/440/420 410/442/420
f 388/436/421 387/434/421 402/441/421 403/443/421
f 396/422/422 395/435/422 410/442/422 411/444/422
f 389/424/423 388/436/423 403/443/423 404/445/423
f 397/423/424 396/422/424 411/444/424 412/446/424
f 390/425/425 389/424/425 404/445/425 405/447/425
f 398/426/426 397/423/426 412/446/426 413/448/426
f 391/427/427 390/425/427 405/447/427 406/449/427
f 384/428/428 82/6/428 399/450/428
f 308/8/429 398/426/429 413/448/429
f 392/429/430 391/427/430 406/449/430 407/451/430
f 385/430/431 384/428/431 399/450/431 400/437/431
f 393/431/432 392/429/432 407/451/432 408/439/432
f 405/447/433 404/445/433 419/452/433 420/453/433
f 413/448/434 412/446/434 427/454/434 428/455/434
f 406/449/435 405/447/435 420/453/435 421/456/435
f 399/450/436 82/6/436 414/457/436
f 308/8/437 413/448/437 428/455/437
f 407/451/438 406/449/438 421/456/438 422/458/438
f 400/437/439 399/450/439 414/457/439 415/459/439
f 408/439/440 407/451/440 422/458/440 423/460/440
f 401/438/441 400/437/441 415/459/441 416/461/441
f 409/440/442 408/439/442 423/460/442 424/462/442
f 402/441/443 401/438/443 416/461/443 417/463/443
f 410/442/444 409/440/444 424/462/444 425/464/444
f 403/443/445 402/441/445 417/463/445 418/465/445
f 411/444/446 410/442/446 425/464/446 426/466/446
f 404/445/447 403/443/447 418/465/447 419/452/447
f 412/446/448 411/444/448 426/466/448 427/454/448
f 424/462/449 423/460/449 438/467/449 439/468/449
f 417/463/450 416/461/450 431/469/450 432/470/450
f 425/464/451 424/462/451 439/468/451 440/471/451
f 418/465/452 417/463/452 432/470/452 433/472/452
f 426/466/453 425/464/453 440/471/453 441/473/453
f 419/452/454 418/465/454 433/472/454 434/474/454
f 427/454/455 426/466/455 441/473/455 442/475/455
f 420/453/456 419/452/456 434/474/456 435/476/456
f 428/455/457 427/454/457 442/475/457 443/477/457
f 421/456/458 420/453/458 435/476/458 436/478/458
f 414/457/459 82/6/459 429/479/459
f 308/8/460 428/455/460 443/477/460
f 422/458/461 421/456/461 436/478/461 437/480/461
f 415/459/462 414/457/462 429/479/462 430/481/462
f 423/460/463 422/458/463 437/480/463 438/467/463
f 416/461/464 415/459/464 430/481/464 431/469/464
f 443/477/465 442/475/465 457/482/465 458/483/465
f 436/478/466 435/476/466 450/484/466 451/485/466
f 429/479/467 82/6/467 444/486/467
f 308/8/468 443/477/468 458/483/468
f 437/480/469 436/478/469 451/485/469 452/487/469
f 430/481/470 429/479/470 444/486/470 445/488/470
f 438/467/471 437/480/471 452/487/471 453/489/471
f 431/469/472 430/481/472 445/488/472 446/490/472
f 439/468/473 438/467/473 453/489/473 454/491/473
f 432/470/474 431/469/474 446/490/474 447/492/474
f 440/471/475 439/468/475 454/491/475 455/493/475
f 433/472/476 432/470/476 447/492/476 448/494/476
f 441/473/477 440/471/477 455/493/477 456/495/477
f 434/474/478 433/472/478 448/494/478 449/496/478
f 442/475/479 441/473/479 456/495/479 457/482/479
f 435/476/480 434/474/480 449/496/480 450/484/480
f 455/493/481 454/491/481 469/497/481 470/498/481
f 448/494/482 447/492/482 462/499/482 463/500/482
f 456/495/483 455/493/483 470/498/483 471/501/483
f 449/496/484 448/494/484 463/500/484 464/502/484
f 457/482/485 456/495/485 471/501/485 472/503/485
f 450/484/486 449/496/486 464/502/486 465/504/486
f 458/483/487 457/482/487 472/503/487 473/505/487
f 451/485/488 450/484/488 465/504/488 466/506/488
f 444/486/489 82/6/489 459/507/489
f 308/8/490 458/483/490 473/505/490
f 452/487/491 451/485/491 466/506/491 467/508/491
f 445/488/492 444/486/492 459/507/492 460/509/492
f 453/489/493 452/487/493 467/508/493 468/510/493
f 446/490/494 445/488/494 460/509/494 461/511/494
f 454/491/495 453/489/495 468/510/495 469/497/495
f 447/492/496 446/490/496 461/511/496 462/499/496
f 459/507/497 82/6/497 474/5/497
f 308/8/498 473/505/498 482/9/498
f 467/508/499 466/506/499 4/1/499 5/11/499
f 460/509/500 459/507/500 474/5/500 475/13/500
f 468/510/501 467/508/501 5/11/501 478/15/501
f 461/511/502 460/509/502 475/13/502 1/17/502
f 469/497/503 468/510/503 478/15/503 6/19/503
f 462/499/504 461/511/504 1/17/504 476/21/504
f 470/498/505 469/497/505 6/19/505 479/23/505
f 463/500/506 462/499/506 476/21/506 2/25/506
f 471/501/507 470/498/507 479/23/507 480/27/507
f 464/502/508 463/500/508 2/25/508 477/29/508
f 472/503/509 471/501/509 480/27/509 481/31/509
f 465/504/510 464/502/510 477/29/510 3/2/510
f 473/505/511 472/503/511 481/31/511 482/9/511
f 466/506/512 465/504/512 3/2/512 4/1/512
