# Blender 4.4.1
# www.blender.org
mtllib stage_0.mtl
o 立方体.001
v 80.219994 -1.030796 -20.000000
v 80.219994 2.169204 -20.000000
v 80.219994 -1.030796 20.000000
v 80.219994 2.169204 20.000000
v 3.780006 -1.030796 -20.000000
v 3.780006 2.169204 -20.000000
v 3.780006 -1.030796 20.000000
v 3.780006 2.169204 20.000000
vn 1.0000 -0.0000 -0.0000
vn -0.0000 -0.0000 1.0000
vn -1.0000 -0.0000 -0.0000
vn -0.0000 -0.0000 -1.0000
vn -0.0000 -1.0000 -0.0000
vn -0.0000 1.0000 -0.0000
vt 0.625000 0.000000
vt 0.375000 0.250000
vt 0.375000 0.000000
vt 0.625000 0.250000
vt 0.375000 0.500000
vt 0.625000 0.500000
vt 0.375000 0.750000
vt 0.625000 0.750000
vt 0.375000 1.000000
vt 0.125000 0.750000
vt 0.125000 0.500000
vt 0.875000 0.500000
vt 0.625000 1.000000
vt 0.875000 0.750000
s 0
usemtl material
f 2/1/1 3/2/1 1/3/1
f 4/4/2 7/5/2 3/2/2
f 8/6/3 5/7/3 7/5/3
f 6/8/4 1/9/4 5/7/4
f 7/5/5 1/10/5 3/11/5
f 4/12/6 6/8/6 8/6/6
f 2/1/1 4/4/1 3/2/1
f 4/4/2 8/6/2 7/5/2
f 8/6/3 6/8/3 5/7/3
f 6/8/4 2/13/4 1/9/4
f 7/5/5 5/7/5 1/10/5
f 4/12/6 2/14/6 6/8/6
o 立方体.002
v 42.975273 2.284602 -10.000000
v 42.975273 4.284602 -10.000000
v 42.975273 2.284602 10.000000
v 42.975273 4.284602 10.000000
v 34.975273 2.284602 -10.000000
v 34.975273 4.284602 -10.000000
v 34.975273 2.284602 10.000000
v 34.975273 4.284602 10.000000
vn 1.0000 -0.0000 -0.0000
vn -0.0000 -0.0000 1.0000
vn -1.0000 -0.0000 -0.0000
vn -0.0000 -0.0000 -1.0000
vn -0.0000 -1.0000 -0.0000
vn -0.0000 1.0000 -0.0000
vt 0.625000 0.000000
vt 0.375000 0.250000
vt 0.375000 0.000000
vt 0.625000 0.250000
vt 0.375000 0.500000
vt 0.625000 0.500000
vt 0.375000 0.750000
vt 0.625000 0.750000
vt 0.375000 1.000000
vt 0.125000 0.750000
vt 0.125000 0.500000
vt 0.875000 0.500000
vt 0.625000 1.000000
vt 0.875000 0.750000
s 0
usemtl material
f 10/15/7 11/16/7 9/17/7
f 12/18/8 15/19/8 11/16/8
f 16/20/9 13/21/9 15/19/9
f 14/22/10 9/23/10 13/21/10
f 15/19/11 9/24/11 11/25/11
f 12/26/12 14/22/12 16/20/12
f 10/15/7 12/18/7 11/16/7
f 12/18/8 16/20/8 15/19/8
f 16/20/9 14/22/9 13/21/9
f 14/22/10 10/27/10 9/23/10
f 15/19/11 13/21/11 9/24/11
f 12/26/12 10/28/12 14/22/12
o 立方体.004
v 19.708719 2.151156 -20.000000
v 19.708719 5.951156 -20.000000
v 19.708719 2.151156 20.000000
v 19.708719 5.951156 20.000000
v 3.708723 2.151156 -20.000000
v 3.708723 5.951156 -20.000000
v 3.708723 2.151156 20.000000
v 3.708723 5.951156 20.000000
vn 1.0000 -0.0000 -0.0000
vn -0.0000 -0.0000 1.0000
vn -1.0000 -0.0000 -0.0000
vn -0.0000 -0.0000 -1.0000
vn -0.0000 -1.0000 -0.0000
vn -0.0000 1.0000 -0.0000
vt 0.625000 0.000000
vt 0.375000 0.250000
vt 0.375000 0.000000
vt 0.625000 0.250000
vt 0.375000 0.500000
vt 0.625000 0.500000
vt 0.375000 0.750000
vt 0.625000 0.750000
vt 0.375000 1.000000
vt 0.125000 0.750000
vt 0.125000 0.500000
vt 0.875000 0.500000
vt 0.625000 1.000000
vt 0.875000 0.750000
s 0
usemtl material
f 18/29/13 19/30/13 17/31/13
f 20/32/14 23/33/14 19/30/14
f 24/34/15 21/35/15 23/33/15
f 22/36/16 17/37/16 21/35/16
f 23/33/17 17/38/17 19/39/17
f 20/40/18 22/36/18 24/34/18
f 18/29/13 20/32/13 19/30/13
f 20/32/14 24/34/14 23/33/14
f 24/34/15 22/36/15 21/35/15
f 22/36/16 18/41/16 17/37/16
f 23/33/17 21/35/17 17/38/17
f 20/40/18 18/42/18 22/36/18
o 立方体.003
v 26.046207 2.069983 -20.000000
v 26.046207 4.069983 -20.000000
v 26.046207 2.069983 20.000000
v 26.046207 4.069983 20.000000
v 19.646210 2.069983 -20.000000
v 19.646210 4.069983 -20.000000
v 19.646210 2.069983 20.000000
v 19.646210 4.069983 20.000000
vn 1.0000 -0.0000 -0.0000
vn -0.0000 -0.0000 1.0000
vn -1.0000 -0.0000 -0.0000
vn -0.0000 -0.0000 -1.0000
vn -0.0000 -1.0000 -0.0000
vn -0.0000 1.0000 -0.0000
vt 0.625000 0.000000
vt 0.375000 0.250000
vt 0.375000 0.000000
vt 0.625000 0.250000
vt 0.375000 0.500000
vt 0.625000 0.500000
vt 0.375000 0.750000
vt 0.625000 0.750000
vt 0.375000 1.000000
vt 0.125000 0.750000
vt 0.125000 0.500000
vt 0.875000 0.500000
vt 0.625000 1.000000
vt 0.875000 0.750000
s 0
usemtl material
f 26/43/19 27/44/19 25/45/19
f 28/46/20 31/47/20 27/44/20
f 32/48/21 29/49/21 31/47/21
f 30/50/22 25/51/22 29/49/22
f 31/47/23 25/52/23 27/53/23
f 28/54/24 30/50/24 32/48/24
f 26/43/19 28/46/19 27/44/19
f 28/46/20 32/48/20 31/47/20
f 32/48/21 30/50/21 29/49/21
f 30/50/22 26/55/22 25/51/22
f 31/47/23 29/49/23 25/52/23
f 28/54/24 26/56/24 30/50/24
o 立方体.005
v 3.781261 -1.011324 -20.000000
v 3.781261 8.589598 -20.000000
v 3.781261 -1.011324 20.000000
v 3.781261 8.589598 20.000000
v -83.807602 -1.011324 -20.000000
v -83.807602 8.589598 -20.000000
v -83.807602 -1.011324 20.000000
v -83.807602 8.589598 20.000000
vn 1.0000 -0.0000 -0.0000
vn -0.0000 -0.0000 1.0000
vn -1.0000 -0.0000 -0.0000
vn -0.0000 -0.0000 -1.0000
vn -0.0000 -1.0000 -0.0000
vn -0.0000 1.0000 -0.0000
vt 0.625000 0.000000
vt 0.375000 0.250000
vt 0.375000 0.000000
vt 0.625000 0.250000
vt 0.375000 0.500000
vt 0.625000 0.500000
vt 0.375000 0.750000
vt 0.625000 0.750000
vt 0.375000 1.000000
vt 0.125000 0.750000
vt 0.125000 0.500000
vt 0.875000 0.500000
vt 0.625000 1.000000
vt 0.875000 0.750000
s 0
usemtl material
f 34/57/25 35/58/25 33/59/25
f 36/60/26 39/61/26 35/58/26
f 40/62/27 37/63/27 39/61/27
f 38/64/28 33/65/28 37/63/28
f 39/61/29 33/66/29 35/67/29
f 36/68/30 38/64/30 40/62/30
f 34/57/25 36/60/25 35/58/25
f 36/60/26 40/62/26 39/61/26
f 40/62/27 38/64/27 37/63/27
f 38/64/28 34/69/28 33/65/28
f 39/61/29 37/63/29 33/66/29
f 36/68/30 34/70/30 38/64/30
o 立方体.006
v -13.988889 15.288500 -3.000000
v -13.988889 20.711500 -3.000000
v -13.988889 15.288500 17.000000
v -13.988889 20.711500 17.000000
v -18.588888 15.288500 -3.000000
v -18.588888 20.711500 -3.000000
v -18.588888 15.288500 17.000000
v -18.588888 20.711500 17.000000
vn 1.0000 -0.0000 -0.0000
vn -0.0000 -0.0000 1.0000
vn -1.0000 -0.0000 -0.0000
vn -0.0000 -0.0000 -1.0000
vn -0.0000 -1.0000 -0.0000
vn -0.0000 1.0000 -0.0000
vt 0.625000 0.000000
vt 0.375000 0.250000
vt 0.375000 0.000000
vt 0.625000 0.250000
vt 0.375000 0.500000
vt 0.625000 0.500000
vt 0.375000 0.750000
vt 0.625000 0.750000
vt 0.375000 1.000000
vt 0.125000 0.750000
vt 0.125000 0.500000
vt 0.875000 0.500000
vt 0.625000 1.000000
vt 0.875000 0.750000
s 0
usemtl material
f 42/71/31 43/72/31 41/73/31
f 44/74/32 47/75/32 43/72/32
f 48/76/33 45/77/33 47/75/33
f 46/78/34 41/79/34 45/77/34
f 47/75/35 41/80/35 43/81/35
f 44/82/36 46/78/36 48/76/36
f 42/71/31 44/74/31 43/72/31
f 44/74/32 48/76/32 47/75/32
f 48/76/33 46/78/33 45/77/33
f 46/78/34 42/83/34 41/79/34
f 47/75/35 45/77/35 41/80/35
f 44/82/36 42/84/36 46/78/36
o 立方体.007
v -23.688885 7.405000 -10.000000
v -23.688885 10.595000 -10.000000
v -23.688885 7.405000 10.000000
v -23.688885 10.595000 10.000000
v -25.688885 7.405000 -10.000000
v -25.688885 10.595000 -10.000000
v -25.688885 7.405000 10.000000
v -25.688885 10.595000 10.000000
vn 1.0000 -0.0000 -0.0000
vn -0.0000 -0.0000 1.0000
vn -1.0000 -0.0000 -0.0000
vn -0.0000 -0.0000 -1.0000
vn -0.0000 -1.0000 -0.0000
vn -0.0000 1.0000 -0.0000
vt 0.625000 0.000000
vt 0.375000 0.250000
vt 0.375000 0.000000
vt 0.625000 0.250000
vt 0.375000 0.500000
vt 0.625000 0.500000
vt 0.375000 0.750000
vt 0.625000 0.750000
vt 0.375000 1.000000
vt 0.125000 0.750000
vt 0.125000 0.500000
vt 0.875000 0.500000
vt 0.625000 1.000000
vt 0.875000 0.750000
s 0
usemtl material
f 50/85/37 51/86/37 49/87/37
f 52/88/38 55/89/38 51/86/38
f 56/90/39 53/91/39 55/89/39
f 54/92/40 49/93/40 53/91/40
f 55/89/41 49/94/41 51/95/41
f 52/96/42 54/92/42 56/90/42
f 50/85/37 52/88/37 51/86/37
f 52/88/38 56/90/38 55/89/38
f 56/90/39 54/92/39 53/91/39
f 54/92/40 50/97/40 49/93/40
f 55/89/41 53/91/41 49/94/41
f 52/96/42 50/98/42 54/92/42
o 立方体.008
v -82.909790 -1.011324 -20.000000
v -82.909790 8.589598 -20.000000
v -82.909790 -1.011324 20.000000
v -82.909790 8.589598 20.000000
v -106.558777 -1.011324 -20.000000
v -106.558777 8.589598 -20.000000
v -106.558777 -1.011324 20.000000
v -106.558777 8.589598 20.000000
vn 1.0000 -0.0000 -0.0000
vn -0.0000 -0.0000 1.0000
vn -1.0000 -0.0000 -0.0000
vn -0.0000 -0.0000 -1.0000
vn -0.0000 -1.0000 -0.0000
vn -0.0000 1.0000 -0.0000
vt 0.625000 0.000000
vt 0.375000 0.250000
vt 0.375000 0.000000
vt 0.625000 0.250000
vt 0.375000 0.500000
vt 0.625000 0.500000
vt 0.375000 0.750000
vt 0.625000 0.750000
vt 0.375000 1.000000
vt 0.125000 0.750000
vt 0.125000 0.500000
vt 0.875000 0.500000
vt 0.625000 1.000000
vt 0.875000 0.750000
s 0
usemtl material
f 58/99/43 59/100/43 57/101/43
f 60/102/44 63/103/44 59/100/44
f 64/104/45 61/105/45 63/103/45
f 62/106/46 57/107/46 61/105/46
f 63/103/47 57/108/47 59/109/47
f 60/110/48 62/106/48 64/104/48
f 58/99/43 60/102/43 59/100/43
f 60/102/44 64/104/44 63/103/44
f 64/104/45 62/106/45 61/105/45
f 62/106/46 58/111/46 57/107/46
f 63/103/47 61/105/47 57/108/47
f 60/110/48 58/112/48 62/106/48
o 立方体.009
v -50.988888 8.405000 -20.000000
v -50.988888 11.595000 -20.000000
v -50.988888 8.405000 20.000000
v -50.988888 11.595000 20.000000
v -52.988888 8.405000 -20.000000
v -52.988888 11.595000 -20.000000
v -52.988888 8.405000 20.000000
v -52.988888 11.595000 20.000000
vn 1.0000 -0.0000 -0.0000
vn -0.0000 -0.0000 1.0000
vn -1.0000 -0.0000 -0.0000
vn -0.0000 -0.0000 -1.0000
vn -0.0000 -1.0000 -0.0000
vn -0.0000 1.0000 -0.0000
vt 0.625000 0.000000
vt 0.375000 0.250000
vt 0.375000 0.000000
vt 0.625000 0.250000
vt 0.375000 0.500000
vt 0.625000 0.500000
vt 0.375000 0.750000
vt 0.625000 0.750000
vt 0.375000 1.000000
vt 0.125000 0.750000
vt 0.125000 0.500000
vt 0.875000 0.500000
vt 0.625000 1.000000
vt 0.875000 0.750000
s 0
usemtl material
f 66/113/49 67/114/49 65/115/49
f 68/116/50 71/117/50 67/114/50
f 72/118/51 69/119/51 71/117/51
f 70/120/52 65/121/52 69/119/52
f 71/117/53 65/122/53 67/123/53
f 68/124/54 70/120/54 72/118/54
f 66/113/49 68/116/49 67/114/49
f 68/116/50 72/118/50 71/117/50
f 72/118/51 70/120/51 69/119/51
f 70/120/52 66/125/52 65/121/52
f 71/117/53 69/119/53 65/122/53
f 68/124/54 66/126/54 70/120/54
o 立方体.010
v -46.068390 13.286251 -10.000000
v -46.068390 24.781734 -10.000000
v -46.068390 13.286251 10.000000
v -46.068390 24.781734 10.000000
v -48.068390 13.286251 -10.000000
v -48.068390 24.781734 -10.000000
v -48.068390 13.286251 10.000000
v -48.068390 24.781734 10.000000
vn 1.0000 -0.0000 -0.0000
vn -0.0000 -0.0000 1.0000
vn -1.0000 -0.0000 -0.0000
vn -0.0000 -0.0000 -1.0000
vn -0.0000 -1.0000 -0.0000
vn -0.0000 1.0000 -0.0000
vt 0.625000 0.000000
vt 0.375000 0.250000
vt 0.375000 0.000000
vt 0.625000 0.250000
vt 0.375000 0.500000
vt 0.625000 0.500000
vt 0.375000 0.750000
vt 0.625000 0.750000
vt 0.375000 1.000000
vt 0.125000 0.750000
vt 0.125000 0.500000
vt 0.875000 0.500000
vt 0.625000 1.000000
vt 0.875000 0.750000
s 0
usemtl material
f 74/127/55 75/128/55 73/129/55
f 76/130/56 79/131/56 75/128/56
f 80/132/57 77/133/57 79/131/57
f 78/134/58 73/135/58 77/133/58
f 79/131/59 73/136/59 75/137/59
f 76/138/60 78/134/60 80/132/60
f 74/127/55 76/130/55 75/128/55
f 76/130/56 80/132/56 79/131/56
f 80/132/57 78/134/57 77/133/57
f 78/134/58 74/139/58 73/135/58
f 79/131/59 77/133/59 73/136/59
f 76/138/60 74/140/60 78/134/60
o 立方体.011
v -124.188889 2.010480 -10.000000
v -124.188889 5.010480 -10.000000
v -124.188889 2.010480 10.000000
v -124.188889 5.010480 10.000000
v -127.188889 2.010480 -10.000000
v -127.188889 5.010480 -10.000000
v -127.188889 2.010480 10.000000
v -127.188889 5.010480 10.000000
vn 1.0000 -0.0000 -0.0000
vn -0.0000 -0.0000 1.0000
vn -1.0000 -0.0000 -0.0000
vn -0.0000 -0.0000 -1.0000
vn -0.0000 -1.0000 -0.0000
vn -0.0000 1.0000 -0.0000
vt 0.625000 0.000000
vt 0.375000 0.250000
vt 0.375000 0.000000
vt 0.625000 0.250000
vt 0.375000 0.500000
vt 0.625000 0.500000
vt 0.375000 0.750000
vt 0.625000 0.750000
vt 0.375000 1.000000
vt 0.125000 0.750000
vt 0.125000 0.500000
vt 0.875000 0.500000
vt 0.625000 1.000000
vt 0.875000 0.750000
s 0
usemtl material
f 82/141/61 83/142/61 81/143/61
f 84/144/62 87/145/62 83/142/62
f 88/146/63 85/147/63 87/145/63
f 86/148/64 81/149/64 85/147/64
f 87/145/65 81/150/65 83/151/65
f 84/152/66 86/148/66 88/146/66
f 82/141/61 84/144/61 83/142/61
f 84/144/62 88/146/62 87/145/62
f 88/146/63 86/148/63 85/147/63
f 86/148/64 82/153/64 81/149/64
f 87/145/65 85/147/65 81/150/65
f 84/152/66 82/154/66 86/148/66
o 立方体.012
v -139.516846 8.529270 -20.000000
v -139.516846 11.889271 -20.000000
v -139.516846 8.529270 20.000000
v -139.516846 11.889271 20.000000
v -148.636841 8.529270 -20.000000
v -148.636841 11.889271 -20.000000
v -148.636841 8.529270 20.000000
v -148.636841 11.889271 20.000000
vn 1.0000 -0.0000 -0.0000
vn -0.0000 -0.0000 1.0000
vn -1.0000 -0.0000 -0.0000
vn -0.0000 -0.0000 -1.0000
vn -0.0000 -1.0000 -0.0000
vn -0.0000 1.0000 -0.0000
vt 0.625000 0.000000
vt 0.375000 0.250000
vt 0.375000 0.000000
vt 0.625000 0.250000
vt 0.375000 0.500000
vt 0.625000 0.500000
vt 0.375000 0.750000
vt 0.625000 0.750000
vt 0.375000 1.000000
vt 0.125000 0.750000
vt 0.125000 0.500000
vt 0.875000 0.500000
vt 0.625000 1.000000
vt 0.875000 0.750000
s 0
usemtl material
f 90/155/67 91/156/67 89/157/67
f 92/158/68 95/159/68 91/156/68
f 96/160/69 93/161/69 95/159/69
f 94/162/70 89/163/70 93/161/70
f 95/159/71 89/164/71 91/165/71
f 92/166/72 94/162/72 96/160/72
f 90/155/67 92/158/67 91/156/67
f 92/158/68 96/160/68 95/159/68
f 96/160/69 94/162/69 93/161/69
f 94/162/70 90/167/70 89/163/70
f 95/159/71 93/161/71 89/164/71
f 92/166/72 90/168/72 94/162/72
o 立方体.013
v -126.785675 -1.011324 -20.000000
v -126.785675 8.589598 -20.000000
v -126.785675 -1.011324 20.000000
v -126.785675 8.589598 20.000000
v -148.682892 -1.011324 -20.000000
v -148.682892 8.589598 -20.000000
v -148.682892 -1.011324 20.000000
v -148.682892 8.589598 20.000000
vn 1.0000 -0.0000 -0.0000
vn -0.0000 -0.0000 1.0000
vn -1.0000 -0.0000 -0.0000
vn -0.0000 -0.0000 -1.0000
vn -0.0000 -1.0000 -0.0000
vn -0.0000 1.0000 -0.0000
vt 0.625000 0.000000
vt 0.375000 0.250000
vt 0.375000 0.000000
vt 0.625000 0.250000
vt 0.375000 0.500000
vt 0.625000 0.500000
vt 0.375000 0.750000
vt 0.625000 0.750000
vt 0.375000 1.000000
vt 0.125000 0.750000
vt 0.125000 0.500000
vt 0.875000 0.500000
vt 0.625000 1.000000
vt 0.875000 0.750000
s 0
usemtl material
f 98/169/73 99/170/73 97/171/73
f 100/172/74 103/173/74 99/170/74
f 104/174/75 101/175/75 103/173/75
f 102/176/76 97/177/76 101/175/76
f 103/173/77 97/178/77 99/179/77
f 100/180/78 102/176/78 104/174/78
f 98/169/73 100/172/73 99/170/73
f 100/172/74 104/174/74 103/173/74
f 104/174/75 102/176/75 101/175/75
f 102/176/76 98/181/76 97/177/76
f 103/173/77 101/175/77 97/178/77
f 100/180/78 98/182/78 102/176/78
o 立方体.014
v -98.589615 7.810712 -6.000000
v -98.589615 17.457275 -6.000000
v -98.589615 7.810712 6.000000
v -98.589615 17.457275 6.000000
v -101.469620 7.810712 -6.000000
v -101.469620 17.457275 -6.000000
v -101.469620 7.810712 6.000000
v -101.469620 17.457275 6.000000
vn 1.0000 -0.0000 -0.0000
vn -0.0000 -0.0000 1.0000
vn -1.0000 -0.0000 -0.0000
vn -0.0000 -0.0000 -1.0000
vn -0.0000 -1.0000 -0.0000
vn -0.0000 1.0000 -0.0000
vt 0.625000 0.000000
vt 0.375000 0.250000
vt 0.375000 0.000000
vt 0.625000 0.250000
vt 0.375000 0.500000
vt 0.625000 0.500000
vt 0.375000 0.750000
vt 0.625000 0.750000
vt 0.375000 1.000000
vt 0.125000 0.750000
vt 0.125000 0.500000
vt 0.875000 0.500000
vt 0.625000 1.000000
vt 0.875000 0.750000
s 0
usemtl material
f 106/183/79 107/184/79 105/185/79
f 108/186/80 111/187/80 107/184/80
f 112/188/81 109/189/81 111/187/81
f 110/190/82 105/191/82 109/189/82
f 111/187/83 105/192/83 107/193/83
f 108/194/84 110/190/84 112/188/84
f 106/183/79 108/186/79 107/184/79
f 108/186/80 112/188/80 111/187/80
f 112/188/81 110/190/81 109/189/81
f 110/190/82 106/195/82 105/191/82
f 111/187/83 109/189/83 105/192/83
f 108/194/84 106/196/84 110/190/84
o 立方体.016
v 74.125854 0.000776 -2.502075
v 74.125854 0.594402 -2.502075
v 74.125854 0.000776 5.897926
v 74.125854 0.594402 5.897926
v 73.725861 0.000776 -2.502075
v 73.725861 0.594402 -2.502075
v 73.725861 0.000776 5.897926
v 73.725861 0.594402 5.897926
vn 1.0000 -0.0000 -0.0000
vn -0.0000 -0.0000 1.0000
vn -1.0000 -0.0000 -0.0000
vn -0.0000 -0.0000 -1.0000
vn -0.0000 -1.0000 -0.0000
vn -0.0000 1.0000 -0.0000
vt 0.625000 0.000000
vt 0.375000 0.250000
vt 0.375000 0.000000
vt 0.625000 0.250000
vt 0.375000 0.500000
vt 0.625000 0.500000
vt 0.375000 0.750000
vt 0.625000 0.750000
vt 0.375000 1.000000
vt 0.125000 0.750000
vt 0.125000 0.500000
vt 0.875000 0.500000
vt 0.625000 1.000000
vt 0.875000 0.750000
s 0
usemtl material
f 114/197/85 115/198/85 113/199/85
f 116/200/86 119/201/86 115/198/86
f 120/202/87 117/203/87 119/201/87
f 118/204/88 113/205/88 117/203/88
f 119/201/89 113/206/89 115/207/89
f 116/208/90 118/204/90 120/202/90
f 114/197/85 116/200/85 115/198/85
f 116/200/86 120/202/86 119/201/86
f 120/202/87 118/204/87 117/203/87
f 118/204/88 114/209/88 113/205/88
f 119/201/89 117/203/89 113/206/89
f 116/208/90 114/210/90 118/204/90
o 立方体.017
v -73.988892 8.405000 -20.000000
v -73.988892 11.595000 -20.000000
v -73.988892 8.405000 20.000000
v -73.988892 11.595000 20.000000
v -75.988892 8.405000 -20.000000
v -75.988892 11.595000 -20.000000
v -75.988892 8.405000 20.000000
v -75.988892 11.595000 20.000000
vn 1.0000 -0.0000 -0.0000
vn -0.0000 -0.0000 1.0000
vn -1.0000 -0.0000 -0.0000
vn -0.0000 -0.0000 -1.0000
vn -0.0000 -1.0000 -0.0000
vn -0.0000 1.0000 -0.0000
vt 0.625000 0.000000
vt 0.375000 0.250000
vt 0.375000 0.000000
vt 0.625000 0.250000
vt 0.375000 0.500000
vt 0.625000 0.500000
vt 0.375000 0.750000
vt 0.625000 0.750000
vt 0.375000 1.000000
vt 0.125000 0.750000
vt 0.125000 0.500000
vt 0.875000 0.500000
vt 0.625000 1.000000
vt 0.875000 0.750000
s 0
usemtl material
f 122/211/91 123/212/91 121/213/91
f 124/214/92 127/215/92 123/212/92
f 128/216/93 125/217/93 127/215/93
f 126/218/94 121/219/94 125/217/94
f 127/215/95 121/220/95 123/221/95
f 124/222/96 126/218/96 128/216/96
f 122/211/91 124/214/91 123/212/91
f 124/214/92 128/216/92 127/215/92
f 128/216/93 126/218/93 125/217/93
f 126/218/94 122/223/94 121/219/94
f 127/215/95 125/217/95 121/220/95
f 124/222/96 122/224/96 126/218/96
o 立方体.015
v -105.888885 -0.989520 -20.000000
v -105.888885 2.010480 -20.000000
v -105.888885 -0.989520 20.000000
v -105.888885 2.010480 20.000000
v -127.488892 -0.989520 -20.000000
v -127.488892 2.010480 -20.000000
v -127.488892 -0.989520 20.000000
v -127.488892 2.010480 20.000000
vn 1.0000 -0.0000 -0.0000
vn -0.0000 -0.0000 1.0000
vn -1.0000 -0.0000 -0.0000
vn -0.0000 -0.0000 -1.0000
vn -0.0000 -1.0000 -0.0000
vn -0.0000 1.0000 -0.0000
vt 0.625000 0.000000
vt 0.375000 0.250000
vt 0.375000 0.000000
vt 0.625000 0.250000
vt 0.375000 0.500000
vt 0.625000 0.500000
vt 0.375000 0.750000
vt 0.625000 0.750000
vt 0.375000 1.000000
vt 0.125000 0.750000
vt 0.125000 0.500000
vt 0.875000 0.500000
vt 0.625000 1.000000
vt 0.875000 0.750000
s 0
usemtl material
f 130/225/97 131/226/97 129/227/97
f 132/228/98 135/229/98 131/226/98
f 136/230/99 133/231/99 135/229/99
f 134/232/100 129/233/100 133/231/100
f 135/229/101 129/234/101 131/235/101
f 132/236/102 134/232/102 136/230/102
f 130/225/97 132/228/97 131/226/97
f 132/228/98 136/230/98 135/229/98
f 136/230/99 134/232/99 133/231/99
f 134/232/100 130/237/100 129/233/100
f 135/229/101 133/231/101 129/234/101
f 132/236/102 130/238/102 134/232/102
o 立方体.018
v 80.219994 -1.030796 -20.000000
v 80.219994 2.169204 -20.000000
v 80.219994 -1.030796 20.000000
v 80.219994 2.169204 20.000000
v 3.780006 -1.030796 -20.000000
v 3.780006 2.169204 -20.000000
v 3.780006 -1.030796 20.000000
v 3.780006 2.169204 20.000000
v 42.975269 2.284602 -9.999999
v 42.975269 4.284602 -9.999999
v 42.975269 2.284602 9.999999
v 42.975269 4.284602 9.999999
v 34.975273 2.284602 -9.999999
v 34.975273 4.284602 -9.999999
v 34.975273 2.284602 9.999999
v 34.975273 4.284602 9.999999
v 19.708717 2.151155 -19.999998
v 19.708717 5.951156 -19.999998
v 19.708717 2.151155 19.999998
v 19.708717 5.951156 19.999998
v 3.708721 2.151155 -19.999998
v 3.708721 5.951156 -19.999998
v 3.708721 2.151155 19.999998
v 3.708721 5.951156 19.999998
v 26.046206 2.069983 -19.999998
v 26.046206 4.069983 -19.999998
v 26.046206 2.069983 19.999998
v 26.046206 4.069983 19.999998
v 19.646208 2.069983 -19.999998
v 19.646208 4.069983 -19.999998
v 19.646208 2.069983 19.999998
v 19.646208 4.069983 19.999998
v 3.781269 -1.011324 -19.999998
v 3.781269 8.589597 -19.999998
v 3.781269 -1.011324 19.999998
v 3.781269 8.589597 19.999998
v -83.807579 -1.011324 -19.999998
v -83.807579 8.589597 -19.999998
v -83.807579 -1.011324 19.999998
v -83.807579 8.589597 19.999998
v -13.988888 15.288498 -3.000000
v -13.988888 20.711498 -3.000000
v -13.988888 15.288498 16.999998
v -13.988888 20.711498 16.999998
v -18.588886 15.288498 -3.000000
v -18.588886 20.711498 -3.000000
v -18.588886 15.288498 16.999998
v -18.588886 20.711498 16.999998
v -23.688881 7.405000 -9.999999
v -23.688881 10.594999 -9.999999
v -23.688881 7.405000 9.999999
v -23.688881 10.594999 9.999999
v -25.688881 7.405000 -9.999999
v -25.688881 10.594999 -9.999999
v -25.688881 7.405000 9.999999
v -25.688881 10.594999 9.999999
v -82.909775 -1.011324 -19.999998
v -82.909775 8.589597 -19.999998
v -82.909775 -1.011324 19.999998
v -82.909775 8.589597 19.999998
v -106.558762 -1.011324 -19.999998
v -106.558762 8.589597 -19.999998
v -106.558762 -1.011324 19.999998
v -106.558762 8.589597 19.999998
v -50.988884 8.405000 -19.999998
v -50.988884 11.594999 -19.999998
v -50.988884 8.405000 19.999998
v -50.988884 11.594999 19.999998
v -52.988884 8.405000 -19.999998
v -52.988884 11.594999 -19.999998
v -52.988884 8.405000 19.999998
v -52.988884 11.594999 19.999998
v -46.068382 13.286248 -9.999999
v -46.068382 24.781733 -9.999999
v -46.068382 13.286248 9.999999
v -46.068382 24.781733 9.999999
v -48.068382 13.286248 -9.999999
v -48.068382 24.781733 -9.999999
v -48.068382 13.286248 9.999999
v -48.068382 24.781733 9.999999
v -124.188858 2.010480 -9.999999
v -124.188858 5.010480 -9.999999
v -124.188858 2.010480 9.999999
v -124.188858 5.010480 9.999999
v -127.188873 2.010480 -9.999999
v -127.188873 5.010480 -9.999999
v -127.188873 2.010480 9.999999
v -127.188873 5.010480 9.999999
v -139.516830 8.529270 -19.999998
v -139.516830 11.889270 -19.999998
v -139.516830 8.529270 19.999998
v -139.516830 11.889270 19.999998
v -148.636841 8.529270 -19.999998
v -148.636841 11.889270 -19.999998
v -148.636841 8.529270 19.999998
v -148.636841 11.889270 19.999998
v -126.785660 -1.011324 -19.999998
v -126.785660 8.589597 -19.999998
v -126.785660 -1.011324 19.999998
v -126.785660 8.589597 19.999998
v -148.682877 -1.011324 -19.999998
v -148.682877 8.589597 -19.999998
v -148.682877 -1.011324 19.999998
v -148.682877 8.589597 19.999998
v -98.589615 7.810711 -5.999999
v -98.589615 17.457273 -5.999999
v -98.589615 7.810711 5.999999
v -98.589615 17.457273 5.999999
v -101.469604 7.810711 -5.999999
v -101.469604 17.457273 -5.999999
v -101.469604 7.810711 5.999999
v -101.469604 17.457273 5.999999
v 74.125854 0.000776 -2.502074
v 74.125854 0.594402 -2.502074
v 74.125854 0.000776 5.897925
v 74.125854 0.594402 5.897925
v 73.725853 0.000776 -2.502074
v 73.725853 0.594402 -2.502074
v 73.725853 0.000776 5.897925
v 73.725853 0.594402 5.897925
v -73.988884 8.405000 -19.999998
v -73.988884 11.594999 -19.999998
v -73.988884 8.405000 19.999998
v -73.988884 11.594999 19.999998
v -75.988876 8.405000 -19.999998
v -75.988876 11.594999 -19.999998
v -75.988876 8.405000 19.999998
v -75.988876 11.594999 19.999998
v -105.888885 -0.989520 -19.999998
v -105.888885 2.010480 -19.999998
v -105.888885 -0.989520 19.999998
v -105.888885 2.010480 19.999998
v -127.488892 -0.989520 -19.999998
v -127.488892 2.010480 -19.999998
v -127.488892 -0.989520 19.999998
v -127.488892 2.010480 19.999998
vn 1.0000 -0.0000 -0.0000
vn -0.0000 -0.0000 1.0000
vn -1.0000 -0.0000 -0.0000
vn -0.0000 -0.0000 -1.0000
vn -0.0000 -1.0000 -0.0000
vn -0.0000 1.0000 -0.0000
vt 0.625000 0.000000
vt 0.375000 0.250000
vt 0.375000 0.000000
vt 0.625000 0.250000
vt 0.375000 0.500000
vt 0.625000 0.500000
vt 0.375000 0.750000
vt 0.625000 0.750000
vt 0.375000 1.000000
vt 0.125000 0.750000
vt 0.125000 0.500000
vt 0.875000 0.500000
vt 0.625000 1.000000
vt 0.875000 0.750000
s 0
usemtl material
f 138/239/103 139/240/103 137/241/103
f 140/242/104 143/243/104 139/240/104
f 144/244/105 141/245/105 143/243/105
f 142/246/106 137/247/106 141/245/106
f 143/243/107 137/248/107 139/249/107
f 140/250/108 142/246/108 144/244/108
f 138/239/103 140/242/103 139/240/103
f 140/242/104 144/244/104 143/243/104
f 144/244/105 142/246/105 141/245/105
f 142/246/106 138/251/106 137/247/106
f 143/243/107 141/245/107 137/248/107
f 140/250/108 138/252/108 142/246/108
f 146/239/103 147/240/103 145/241/103
f 148/242/104 151/243/104 147/240/104
f 152/244/105 149/245/105 151/243/105
f 150/246/106 145/247/106 149/245/106
f 151/243/107 145/248/107 147/249/107
f 148/250/108 150/246/108 152/244/108
f 146/239/103 148/242/103 147/240/103
f 148/242/104 152/244/104 151/243/104
f 152/244/105 150/246/105 149/245/105
f 150/246/106 146/251/106 145/247/106
f 151/243/107 149/245/107 145/248/107
f 148/250/108 146/252/108 150/246/108
f 154/239/103 155/240/103 153/241/103
f 156/242/104 159/243/104 155/240/104
f 160/244/105 157/245/105 159/243/105
f 158/246/106 153/247/106 157/245/106
f 159/243/107 153/248/107 155/249/107
f 156/250/108 158/246/108 160/244/108
f 154/239/103 156/242/103 155/240/103
f 156/242/104 160/244/104 159/243/104
f 160/244/105 158/246/105 157/245/105
f 158/246/106 154/251/106 153/247/106
f 159/243/107 157/245/107 153/248/107
f 156/250/108 154/252/108 158/246/108
f 162/239/103 163/240/103 161/241/103
f 164/242/104 167/243/104 163/240/104
f 168/244/105 165/245/105 167/243/105
f 166/246/106 161/247/106 165/245/106
f 167/243/107 161/248/107 163/249/107
f 164/250/108 166/246/108 168/244/108
f 162/239/103 164/242/103 163/240/103
f 164/242/104 168/244/104 167/243/104
f 168/244/105 166/246/105 165/245/105
f 166/246/106 162/251/106 161/247/106
f 167/243/107 165/245/107 161/248/107
f 164/250/108 162/252/108 166/246/108
f 170/239/103 171/240/103 169/241/103
f 172/242/104 175/243/104 171/240/104
f 176/244/105 173/245/105 175/243/105
f 174/246/106 169/247/106 173/245/106
f 175/243/107 169/248/107 171/249/107
f 172/250/108 174/246/108 176/244/108
f 170/239/103 172/242/103 171/240/103
f 172/242/104 176/244/104 175/243/104
f 176/244/105 174/246/105 173/245/105
f 174/246/106 170/251/106 169/247/106
f 175/243/107 173/245/107 169/248/107
f 172/250/108 170/252/108 174/246/108
f 178/239/103 179/240/103 177/241/103
f 180/242/104 183/243/104 179/240/104
f 184/244/105 181/245/105 183/243/105
f 182/246/106 177/247/106 181/245/106
f 183/243/107 177/248/107 179/249/107
f 180/250/108 182/246/108 184/244/108
f 178/239/103 180/242/103 179/240/103
f 180/242/104 184/244/104 183/243/104
f 184/244/105 182/246/105 181/245/105
f 182/246/106 178/251/106 177/247/106
f 183/243/107 181/245/107 177/248/107
f 180/250/108 178/252/108 182/246/108
f 186/239/103 187/240/103 185/241/103
f 188/242/104 191/243/104 187/240/104
f 192/244/105 189/245/105 191/243/105
f 190/246/106 185/247/106 189/245/106
f 191/243/107 185/248/107 187/249/107
f 188/250/108 190/246/108 192/244/108
f 186/239/103 188/242/103 187/240/103
f 188/242/104 192/244/104 191/243/104
f 192/244/105 190/246/105 189/245/105
f 190/246/106 186/251/106 185/247/106
f 191/243/107 189/245/107 185/248/107
f 188/250/108 186/252/108 190/246/108
f 194/239/103 195/240/103 193/241/103
f 196/242/104 199/243/104 195/240/104
f 200/244/105 197/245/105 199/243/105
f 198/246/106 193/247/106 197/245/106
f 199/243/107 193/248/107 195/249/107
f 196/250/108 198/246/108 200/244/108
f 194/239/103 196/242/103 195/240/103
f 196/242/104 200/244/104 199/243/104
f 200/244/105 198/246/105 197/245/105
f 198/246/106 194/251/106 193/247/106
f 199/243/107 197/245/107 193/248/107
f 196/250/108 194/252/108 198/246/108
f 202/239/103 203/240/103 201/241/103
f 204/242/104 207/243/104 203/240/104
f 208/244/105 205/245/105 207/243/105
f 206/246/106 201/247/106 205/245/106
f 207/243/107 201/248/107 203/249/107
f 204/250/108 206/246/108 208/244/108
f 202/239/103 204/242/103 203/240/103
f 204/242/104 208/244/104 207/243/104
f 208/244/105 206/246/105 205/245/105
f 206/246/106 202/251/106 201/247/106
f 207/243/107 205/245/107 201/248/107
f 204/250/108 202/252/108 206/246/108
f 210/239/103 211/240/103 209/241/103
f 212/242/104 215/243/104 211/240/104
f 216/244/105 213/245/105 215/243/105
f 214/246/106 209/247/106 213/245/106
f 215/243/107 209/248/107 211/249/107
f 212/250/108 214/246/108 216/244/108
f 210/239/103 212/242/103 211/240/103
f 212/242/104 216/244/104 215/243/104
f 216/244/105 214/246/105 213/245/105
f 214/246/106 210/251/106 209/247/106
f 215/243/107 213/245/107 209/248/107
f 212/250/108 210/252/108 214/246/108
f 218/239/103 219/240/103 217/241/103
f 220/242/104 223/243/104 219/240/104
f 224/244/105 221/245/105 223/243/105
f 222/246/106 217/247/106 221/245/106
f 223/243/107 217/248/107 219/249/107
f 220/250/108 222/246/108 224/244/108
f 218/239/103 220/242/103 219/240/103
f 220/242/104 224/244/104 223/243/104
f 224/244/105 222/246/105 221/245/105
f 222/246/106 218/251/106 217/247/106
f 223/243/107 221/245/107 217/248/107
f 220/250/108 218/252/108 222/246/108
f 226/239/103 227/240/103 225/241/103
f 228/242/104 231/243/104 227/240/104
f 232/244/105 229/245/105 231/243/105
f 230/246/106 225/247/106 229/245/106
f 231/243/107 225/248/107 227/249/107
f 228/250/108 230/246/108 232/244/108
f 226/239/103 228/242/103 227/240/103
f 228/242/104 232/244/104 231/243/104
f 232/244/105 230/246/105 229/245/105
f 230/246/106 226/251/106 225/247/106
f 231/243/107 229/245/107 225/248/107
f 228/250/108 226/252/108 230/246/108
f 234/239/103 235/240/103 233/241/103
f 236/242/104 239/243/104 235/240/104
f 240/244/105 237/245/105 239/243/105
f 238/246/106 233/247/106 237/245/106
f 239/243/107 233/248/107 235/249/107
f 236/250/108 238/246/108 240/244/108
f 234/239/103 236/242/103 235/240/103
f 236/242/104 240/244/104 239/243/104
f 240/244/105 238/246/105 237/245/105
f 238/246/106 234/251/106 233/247/106
f 239/243/107 237/245/107 233/248/107
f 236/250/108 234/252/108 238/246/108
f 242/239/103 243/240/103 241/241/103
f 244/242/104 247/243/104 243/240/104
f 248/244/105 245/245/105 247/243/105
f 246/246/106 241/247/106 245/245/106
f 247/243/107 241/248/107 243/249/107
f 244/250/108 246/246/108 248/244/108
f 242/239/103 244/242/103 243/240/103
f 244/242/104 248/244/104 247/243/104
f 248/244/105 246/246/105 245/245/105
f 246/246/106 242/251/106 241/247/106
f 247/243/107 245/245/107 241/248/107
f 244/250/108 242/252/108 246/246/108
f 250/239/103 251/240/103 249/241/103
f 252/242/104 255/243/104 251/240/104
f 256/244/105 253/245/105 255/243/105
f 254/246/106 249/247/106 253/245/106
f 255/243/107 249/248/107 251/249/107
f 252/250/108 254/246/108 256/244/108
f 250/239/103 252/242/103 251/240/103
f 252/242/104 256/244/104 255/243/104
f 256/244/105 254/246/105 253/245/105
f 254/246/106 250/251/106 249/247/106
f 255/243/107 253/245/107 249/248/107
f 252/250/108 250/252/108 254/246/108
f 258/239/103 259/240/103 257/241/103
f 260/242/104 263/243/104 259/240/104
f 264/244/105 261/245/105 263/243/105
f 262/246/106 257/247/106 261/245/106
f 263/243/107 257/248/107 259/249/107
f 260/250/108 262/246/108 264/244/108
f 258/239/103 260/242/103 259/240/103
f 260/242/104 264/244/104 263/243/104
f 264/244/105 262/246/105 261/245/105
f 262/246/106 258/251/106 257/247/106
f 263/243/107 261/245/107 257/248/107
f 260/250/108 258/252/108 262/246/108
f 266/239/103 267/240/103 265/241/103
f 268/242/104 271/243/104 267/240/104
f 272/244/105 269/245/105 271/243/105
f 270/246/106 265/247/106 269/245/106
f 271/243/107 265/248/107 267/249/107
f 268/250/108 270/246/108 272/244/108
f 266/239/103 268/242/103 267/240/103
f 268/242/104 272/244/104 271/243/104
f 272/244/105 270/246/105 269/245/105
f 270/246/106 266/251/106 265/247/106
f 271/243/107 269/245/107 265/248/107
f 268/250/108 266/252/108 270/246/108
