{
	"asset":{
		"generator":"Khronos glTF Blender I/O v4.4.56",
		"version":"2.0"
	},
	"scene":0,
	"scenes":[
		{
			"name":"Scene",
			"nodes":[
				0,
				1,
				2,
				3,
				4
			]
		}
	],
	"nodes":[
		{
			"mesh":0,
			"name":"Cube"
		},
		{
			"mesh":1,
			"name":"Cube.001"
		},
		{
			"mesh":2,
			"name":"Cube.002"
		},
		{
			"mesh":3,
			"name":"Cube.003"
		},
		{
			"mesh":4,
			"name":"chilli"
		}
	],
	"animations":[
		{
			"channels":[
				{
					"sampler":0,
					"target":{
						"node":1,
						"path":"translation"
					}
				},
				{
					"sampler":1,
					"target":{
						"node":1,
						"path":"rotation"
					}
				},
				{
					"sampler":2,
					"target":{
						"node":1,
						"path":"scale"
					}
				}
			],
			"name":"\u7acb\u65b9\u4f53\u30a2\u30af\u30b7\u30e7\u30f3",
			"samplers":[
				{
					"input":18,
					"interpolation":"STEP",
					"output":19
				},
				{
					"input":20,
					"interpolation":"LINEAR",
					"output":21
				},
				{
					"input":18,
					"interpolation":"STEP",
					"output":22
				}
			]
		},
		{
			"channels":[
				{
					"sampler":0,
					"target":{
						"node":2,
						"path":"translation"
					}
				},
				{
					"sampler":1,
					"target":{
						"node":2,
						"path":"rotation"
					}
				},
				{
					"sampler":2,
					"target":{
						"node":2,
						"path":"scale"
					}
				}
			],
			"name":"\u7acb\u65b9\u4f53.001\u30a2\u30af\u30b7\u30e7\u30f3",
			"samplers":[
				{
					"input":20,
					"interpolation":"LINEAR",
					"output":23
				},
				{
					"input":20,
					"interpolation":"LINEAR",
					"output":24
				},
				{
					"input":18,
					"interpolation":"STEP",
					"output":25
				}
			]
		},
		{
			"channels":[
				{
					"sampler":0,
					"target":{
						"node":3,
						"path":"translation"
					}
				},
				{
					"sampler":1,
					"target":{
						"node":3,
						"path":"rotation"
					}
				},
				{
					"sampler":2,
					"target":{
						"node":3,
						"path":"scale"
					}
				}
			],
			"name":"\u7acb\u65b9\u4f53.002\u30a2\u30af\u30b7\u30e7\u30f3",
			"samplers":[
				{
					"input":20,
					"interpolation":"LINEAR",
					"output":26
				},
				{
					"input":20,
					"interpolation":"LINEAR",
					"output":27
				},
				{
					"input":18,
					"interpolation":"STEP",
					"output":28
				}
			]
		}
	],
	"materials":[
		{
			"doubleSided":true,
			"name":"Material.001",
			"pbrMetallicRoughness":{
				"baseColorTexture":{
					"index":0
				},
				"metallicFactor":0,
				"roughnessFactor":0.5
			}
		},
		{
			"doubleSided":true,
			"name":"Material.002",
			"pbrMetallicRoughness":{
				"baseColorTexture":{
					"index":1
				},
				"metallicFactor":0,
				"roughnessFactor":0.5
			}
		},
		{
			"doubleSided":true,
			"name":"Material.003",
			"pbrMetallicRoughness":{
				"baseColorTexture":{
					"index":2
				},
				"metallicFactor":0,
				"roughnessFactor":0.5
			}
		},
		{
			"doubleSided":true,
			"name":"Material.004",
			"pbrMetallicRoughness":{
				"baseColorTexture":{
					"index":3
				},
				"metallicFactor":0,
				"roughnessFactor":0.5
			}
		},
		{
			"doubleSided":true,
			"name":"\u30de\u30c6\u30ea\u30a2\u30eb.001",
			"pbrMetallicRoughness":{
				"baseColorTexture":{
					"index":4
				},
				"metallicFactor":0,
				"roughnessFactor":0.5
			}
		}
	],
	"meshes":[
		{
			"name":"Cube.001",
			"primitives":[
				{
					"attributes":{
						"POSITION":0,
						"NORMAL":1,
						"TEXCOORD_0":2
					},
					"indices":3,
					"material":0
				}
			]
		},
		{
			"name":"\u7acb\u65b9\u4f53",
			"primitives":[
				{
					"attributes":{
						"POSITION":4,
						"NORMAL":5,
						"TEXCOORD_0":6
					},
					"indices":7,
					"material":1
				}
			]
		},
		{
			"name":"\u7acb\u65b9\u4f53.001",
			"primitives":[
				{
					"attributes":{
						"POSITION":8,
						"NORMAL":9,
						"TEXCOORD_0":10
					},
					"indices":7,
					"material":2
				}
			]
		},
		{
			"name":"\u7acb\u65b9\u4f53.002",
			"primitives":[
				{
					"attributes":{
						"POSITION":11,
						"NORMAL":12,
						"TEXCOORD_0":13
					},
					"indices":7,
					"material":3
				}
			]
		},
		{
			"name":"chilli.001",
			"primitives":[
				{
					"attributes":{
						"POSITION":14,
						"NORMAL":15,
						"TEXCOORD_0":16
					},
					"indices":17,
					"material":4
				}
			]
		}
	],
	"textures":[
		{
			"sampler":0,
			"source":0
		},
		{
			"sampler":0,
			"source":1
		},
		{
			"sampler":0,
			"source":2
		},
		{
			"sampler":0,
			"source":3
		},
		{
			"sampler":0,
			"source":4
		}
	],
	"images":[
		{
			"mimeType":"image/png",
			"name":"uvChecker",
			"uri":"uvChecker.png"
		},
		{
			"mimeType":"image/png",
			"name":"monsterBall",
			"uri":"monsterBall.png"
		},
		{
			"mimeType":"image/png",
			"name":"ground",
			"uri":"ground.png"
		},
		{
			"mimeType":"image/png",
			"name":"moyou",
			"uri":"moyou.png"
		},
		{
			"mimeType":"image/png",
			"name":"yabukeru",
			"uri":"yabukeru.png"
		}
	],
	"accessors":[
		{
			"bufferView":0,
			"componentType":5126,
			"count":24,
			"max":[
				0.20000013709068298,
				0.021187961101531982,
				1.0157825946807861
			],
			"min":[
				-0.20000001788139343,
				-0.994764506816864,
				-0.19663068652153015
			],
			"type":"VEC3"
		},
		{
			"bufferView":1,
			"componentType":5126,
			"count":24,
			"type":"VEC3"
		},
		{
			"bufferView":2,
			"componentType":5126,
			"count":24,
			"type":"VEC2"
		},
		{
			"bufferView":3,
			"componentType":5123,
			"count":36,
			"type":"SCALAR"
		},
		{
			"bufferView":4,
			"componentType":5126,
			"count":24,
			"max":[
				0.3999999761581421,
				0.6438795924186707,
				0.1475154161453247
			],
			"min":[
				-0.40000009536743164,
				-0.47030311822891235,
				-0.9666674137115479
			],
			"type":"VEC3"
		},
		{
			"bufferView":5,
			"componentType":5126,
			"count":24,
			"type":"VEC3"
		},
		{
			"bufferView":6,
			"componentType":5126,
			"count":24,
			"type":"VEC2"
		},
		{
			"bufferView":7,
			"componentType":5123,
			"count":36,
			"type":"SCALAR"
		},
		{
			"bufferView":8,
			"componentType":5126,
			"count":24,
			"max":[
				0.7999999523162842,
				-0.6000000238418579,
				-0.5000001192092896
			],
			"min":[
				0.3999998867511749,
				-1,
				-0.9000001549720764
			],
			"type":"VEC3"
		},
		{
			"bufferView":9,
			"componentType":5126,
			"count":24,
			"type":"VEC3"
		},
		{
			"bufferView":10,
			"componentType":5126,
			"count":24,
			"type":"VEC2"
		},
		{
			"bufferView":11,
			"componentType":5126,
			"count":24,
			"max":[
				-0.40000012516975403,
				-0.6000000238418579,
				-0.4999999403953552
			],
			"min":[
				-0.8000001311302185,
				-1,
				-0.8999999761581421
			],
			"type":"VEC3"
		},
		{
			"bufferView":12,
			"componentType":5126,
			"count":24,
			"type":"VEC3"
		},
		{
			"bufferView":13,
			"componentType":5126,
			"count":24,
			"type":"VEC2"
		},
		{
			"bufferView":14,
			"componentType":5126,
			"count":328,
			"max":[
				1.902325987815857,
				-0.46482589840888977,
				1.0658499002456665
			],
			"min":[
				1.3024659156799316,
				-1.0012686252593994,
				-1.0081738233566284
			],
			"type":"VEC3"
		},
		{
			"bufferView":15,
			"componentType":5126,
			"count":328,
			"type":"VEC3"
		},
		{
			"bufferView":16,
			"componentType":5126,
			"count":328,
			"type":"VEC2"
		},
		{
			"bufferView":17,
			"componentType":5123,
			"count":1464,
			"type":"SCALAR"
		},
		{
			"bufferView":18,
			"componentType":5126,
			"count":2,
			"max":[
				5.333333333333333
			],
			"min":[
				0
			],
			"type":"SCALAR"
		},
		{
			"bufferView":19,
			"componentType":5126,
			"count":2,
			"type":"VEC3"
		},
		{
			"bufferView":20,
			"componentType":5126,
			"count":129,
			"max":[
				5.333333333333333
			],
			"min":[
				0
			],
			"type":"SCALAR"
		},
		{
			"bufferView":21,
			"componentType":5126,
			"count":129,
			"type":"VEC4"
		},
		{
			"bufferView":22,
			"componentType":5126,
			"count":2,
			"type":"VEC3"
		},
		{
			"bufferView":23,
			"componentType":5126,
			"count":129,
			"type":"VEC3"
		},
		{
			"bufferView":24,
			"componentType":5126,
			"count":129,
			"type":"VEC4"
		},
		{
			"bufferView":25,
			"componentType":5126,
			"count":2,
			"type":"VEC3"
		},
		{
			"bufferView":26,
			"componentType":5126,
			"count":129,
			"type":"VEC3"
		},
		{
			"bufferView":27,
			"componentType":5126,
			"count":129,
			"type":"VEC4"
		},
		{
			"bufferView":28,
			"componentType":5126,
			"count":2,
			"type":"VEC3"
		}
	],
	"bufferViews":[
		{
			"buffer":0,
			"byteLength":288,
			"byteOffset":0,
			"target":34962
		},
		{
			"buffer":0,
			"byteLength":288,
			"byteOffset":288,
			"target":34962
		},
		{
			"buffer":0,
			"byteLength":192,
			"byteOffset":576,
			"target":34962
		},
		{
			"buffer":0,
			"byteLength":72,
			"byteOffset":768,
			"target":34963
		},
		{
			"buffer":0,
			"byteLength":288,
			"byteOffset":840,
			"target":34962
		},
		{
			"buffer":0,
			"byteLength":288,
			"byteOffset":1128,
			"target":34962
		},
		{
			"buffer":0,
			"byteLength":192,
			"byteOffset":1416,
			"target":34962
		},
		{
			"buffer":0,
			"byteLength":72,
			"byteOffset":1608,
			"target":34963
		},
		{
			"buffer":0,
			"byteLength":288,
			"byteOffset":1680,
			"target":34962
		},
		{
			"buffer":0,
			"byteLength":288,
			"byteOffset":1968,
			"target":34962
		},
		{
			"buffer":0,
			"byteLength":192,
			"byteOffset":2256,
			"target":34962
		},
		{
			"buffer":0,
			"byteLength":288,
			"byteOffset":2448,
			"target":34962
		},
		{
			"buffer":0,
			"byteLength":288,
			"byteOffset":2736,
			"target":34962
		},
		{
			"buffer":0,
			"byteLength":192,
			"byteOffset":3024,
			"target":34962
		},
		{
			"buffer":0,
			"byteLength":3936,
			"byteOffset":3216,
			"target":34962
		},
		{
			"buffer":0,
			"byteLength":3936,
			"byteOffset":7152,
			"target":34962
		},
		{
			"buffer":0,
			"byteLength":2624,
			"byteOffset":11088,
			"target":34962
		},
		{
			"buffer":0,
			"byteLength":2928,
			"byteOffset":13712,
			"target":34963
		},
		{
			"buffer":0,
			"byteLength":8,
			"byteOffset":16640
		},
		{
			"buffer":0,
			"byteLength":24,
			"byteOffset":16648
		},
		{
			"buffer":0,
			"byteLength":516,
			"byteOffset":16672
		},
		{
			"buffer":0,
			"byteLength":2064,
			"byteOffset":17188
		},
		{
			"buffer":0,
			"byteLength":24,
			"byteOffset":19252
		},
		{
			"buffer":0,
			"byteLength":1548,
			"byteOffset":19276
		},
		{
			"buffer":0,
			"byteLength":2064,
			"byteOffset":20824
		},
		{
			"buffer":0,
			"byteLength":24,
			"byteOffset":22888
		},
		{
			"buffer":0,
			"byteLength":1548,
			"byteOffset":22912
		},
		{
			"buffer":0,
			"byteLength":2064,
			"byteOffset":24460
		},
		{
			"buffer":0,
			"byteLength":24,
			"byteOffset":26524
		}
	],
	"samplers":[
		{
			"magFilter":9729,
			"minFilter":9987
		}
	],
	"buffers":[
		{
			"byteLength":26548,
			"uri":"player_GameOver.bin"
		}
	]
}
