# Blender 4.4.1
# www.blender.org
mtllib player_lost_mark.mtl
o question_mark
v 0.128316 0.355368 -0.100000
v 0.128316 0.355368 -0.100000
v 0.128316 0.355368 -0.100000
v 0.128316 0.409368 -0.100000
v 0.128316 0.409368 -0.100000
v 0.127860 0.472560 -0.100000
v 0.127860 0.472560 -0.100000
v 0.123360 0.534630 -0.100000
v 0.123360 0.534630 -0.100000
v 0.110814 0.601794 -0.100000
v 0.110814 0.601794 -0.100000
v 0.083136 0.669090 -0.100000
v 0.083136 0.669090 -0.100000
v 0.037590 0.737682 -0.100000
v 0.037590 0.737682 -0.100000
v -0.159270 0.556392 -0.100000
v -0.159270 0.556392 -0.100000
v -0.024876 0.804072 -0.100000
v -0.024876 0.804072 -0.100000
v -0.076608 0.852930 -0.100000
v -0.076608 0.852930 -0.100000
v -0.122850 0.898008 -0.100000
v -0.122850 0.898008 -0.100000
v -0.163272 0.942420 -0.100000
v -0.163272 0.942420 -0.100000
v -0.191652 0.989484 -0.100000
v -0.191652 0.989484 -0.100000
v -0.208626 1.034034 -0.100000
v -0.208626 1.034034 -0.100000
v -0.213540 1.079688 -0.100000
v -0.213540 1.079688 -0.100000
v -0.184554 1.167906 -0.100000
v -0.184554 1.167906 -0.100000
v -0.155142 1.203300 -0.100000
v -0.155142 1.203300 -0.100000
v -0.116628 1.230426 -0.100000
v -0.116628 1.230426 -0.100000
v -0.068478 1.247502 -0.100000
v -0.068478 1.247502 -0.100000
v -0.018762 1.252518 -0.100000
v -0.018762 1.252518 -0.100000
v 0.074376 1.233306 -0.100000
v 0.074376 1.233306 -0.100000
v 0.114096 1.209528 -0.100000
v 0.114096 1.209528 -0.100000
v 0.148578 1.175214 -0.100000
v 0.148578 1.175214 -0.100000
v 0.176088 1.133706 -0.100000
v 0.176088 1.133706 -0.100000
v 0.199758 1.089642 -0.100000
v 0.199758 1.089642 -0.100000
v 0.224874 1.004412 -0.100000
v 0.224874 1.004412 -0.100000
v 0.224874 1.004412 -0.100000
v -0.128316 0.355872 -0.100000
v -0.128316 0.355872 -0.100000
v -0.128316 0.355872 -0.100000
v -0.127362 0.438180 -0.100000
v -0.127362 0.438180 -0.100000
v -0.139920 0.519072 -0.100000
v -0.139920 0.519072 -0.100000
v -0.196926 0.601464 -0.100000
v -0.196926 0.601464 -0.100000
v -0.248754 0.655086 -0.100000
v -0.248754 0.655086 -0.100000
v -0.309774 0.714630 -0.100000
v -0.309774 0.714630 -0.100000
v -0.378078 0.785652 -0.100000
v -0.378078 0.785652 -0.100000
v -0.438876 0.866910 -0.100000
v -0.438876 0.866910 -0.100000
v -0.482538 0.967554 -0.100000
v -0.482538 0.967554 -0.100000
v -0.490146 1.070094 -0.100000
v -0.490146 1.070094 -0.100000
v -0.476664 1.174920 -0.100000
v -0.476664 1.174920 -0.100000
v -0.434346 1.270914 -0.100000
v -0.434346 1.270914 -0.100000
v -0.371952 1.355244 -0.100000
v -0.371952 1.355244 -0.100000
v -0.290058 1.422288 -0.100000
v -0.290058 1.422288 -0.100000
v -0.196116 1.468578 -0.100000
v -0.196116 1.468578 -0.100000
v -0.091620 1.492602 -0.100000
v -0.091620 1.492602 -0.100000
v 0.013800 1.498182 -0.100000
v 0.013800 1.498182 -0.100000
v 0.118896 1.486470 -0.100000
v 0.118896 1.486470 -0.100000
v 0.219384 1.453992 -0.100000
v 0.219384 1.453992 -0.100000
v 0.303174 1.401492 -0.100000
v 0.303174 1.401492 -0.100000
v 0.364278 1.339392 -0.100000
v 0.364278 1.339392 -0.100000
v 0.413148 1.269306 -0.100000
v 0.413148 1.269306 -0.100000
v 0.449238 1.195806 -0.100000
v 0.449238 1.195806 -0.100000
v 0.472086 1.112754 -0.100000
v 0.472086 1.112754 -0.100000
v 0.480036 1.044822 -0.100000
v 0.480036 1.044822 -0.100000
v 0.480036 1.044822 -0.100000
v -0.127836 0.397026 -0.100000
v -0.127836 0.397026 -0.100000
v 0.030162 1.247304 -0.100000
v 0.030162 1.247304 -0.100000
v -0.203844 1.125780 -0.100000
v -0.203844 1.125780 -0.100000
v -0.130482 0.478626 -0.100000
v -0.130482 0.478626 -0.100000
v 0.215370 1.040712 -0.100000
v 0.215370 1.040712 -0.100000
v 0.128316 0.256008 -0.100000
v 0.128316 0.256008 -0.100000
v 0.128316 0.256008 -0.100000
v -0.128316 0.256512 -0.100000
v -0.128316 0.256512 -0.100000
v -0.128316 0.256512 -0.100000
v 0.128316 -0.000252 -0.100000
v 0.128316 -0.000252 -0.100000
v 0.128316 -0.000252 -0.100000
v -0.128316 0.000252 -0.100000
v -0.128316 0.000252 -0.100000
v -0.128316 0.000252 -0.100000
v 0.128316 0.355368 0.100000
v 0.128316 0.355368 0.100000
v 0.128316 0.355368 0.100000
v 0.128316 0.409368 0.100000
v 0.128316 0.409368 0.100000
v 0.127860 0.472560 0.100000
v 0.127860 0.472560 0.100000
v 0.123360 0.534630 0.100000
v 0.123360 0.534630 0.100000
v 0.110814 0.601794 0.100000
v 0.110814 0.601794 0.100000
v 0.083136 0.669090 0.100000
v 0.083136 0.669090 0.100000
v 0.037590 0.737682 0.100000
v 0.037590 0.737682 0.100000
v -0.130482 0.478626 0.100000
v -0.130482 0.478626 0.100000
v -0.127362 0.438180 0.100000
v -0.127362 0.438180 0.100000
v -0.024876 0.804072 0.100000
v -0.024876 0.804072 0.100000
v -0.076608 0.852930 0.100000
v -0.076608 0.852930 0.100000
v -0.378078 0.785652 0.100000
v -0.378078 0.785652 0.100000
v -0.438876 0.866910 0.100000
v -0.438876 0.866910 0.100000
v -0.163272 0.942420 0.100000
v -0.163272 0.942420 0.100000
v -0.191652 0.989484 0.100000
v -0.191652 0.989484 0.100000
v -0.208626 1.034034 0.100000
v -0.208626 1.034034 0.100000
v -0.213540 1.079688 0.100000
v -0.213540 1.079688 0.100000
v -0.203844 1.125780 0.100000
v -0.203844 1.125780 0.100000
v -0.184554 1.167906 0.100000
v -0.184554 1.167906 0.100000
v -0.155142 1.203300 0.100000
v -0.155142 1.203300 0.100000
v -0.116628 1.230426 0.100000
v -0.116628 1.230426 0.100000
v -0.068478 1.247502 0.100000
v -0.068478 1.247502 0.100000
v -0.018762 1.252518 0.100000
v -0.018762 1.252518 0.100000
v 0.030162 1.247304 0.100000
v 0.030162 1.247304 0.100000
v 0.074376 1.233306 0.100000
v 0.074376 1.233306 0.100000
v 0.114096 1.209528 0.100000
v 0.114096 1.209528 0.100000
v 0.148578 1.175214 0.100000
v 0.148578 1.175214 0.100000
v 0.176088 1.133706 0.100000
v 0.176088 1.133706 0.100000
v 0.199758 1.089642 0.100000
v 0.199758 1.089642 0.100000
v 0.215370 1.040712 0.100000
v 0.215370 1.040712 0.100000
v 0.224874 1.004412 0.100000
v 0.224874 1.004412 0.100000
v 0.224874 1.004412 0.100000
v -0.127836 0.397026 0.100000
v -0.127836 0.397026 0.100000
v -0.139920 0.519072 0.100000
v -0.139920 0.519072 0.100000
v -0.159270 0.556392 0.100000
v -0.159270 0.556392 0.100000
v -0.196926 0.601464 0.100000
v -0.196926 0.601464 0.100000
v -0.248754 0.655086 0.100000
v -0.248754 0.655086 0.100000
v -0.309774 0.714630 0.100000
v -0.309774 0.714630 0.100000
v -0.482538 0.967554 0.100000
v -0.482538 0.967554 0.100000
v -0.490146 1.070094 0.100000
v -0.490146 1.070094 0.100000
v -0.476664 1.174920 0.100000
v -0.476664 1.174920 0.100000
v -0.434346 1.270914 0.100000
v -0.434346 1.270914 0.100000
v 0.118896 1.486470 0.100000
v 0.118896 1.486470 0.100000
v 0.219384 1.453992 0.100000
v 0.219384 1.453992 0.100000
v -0.371952 1.355244 0.100000
v -0.371952 1.355244 0.100000
v -0.290058 1.422288 0.100000
v -0.290058 1.422288 0.100000
v -0.196116 1.468578 0.100000
v -0.196116 1.468578 0.100000
v -0.091620 1.492602 0.100000
v -0.091620 1.492602 0.100000
v 0.013800 1.498182 0.100000
v 0.013800 1.498182 0.100000
v 0.303174 1.401492 0.100000
v 0.303174 1.401492 0.100000
v 0.364278 1.339392 0.100000
v 0.364278 1.339392 0.100000
v 0.413148 1.269306 0.100000
v 0.413148 1.269306 0.100000
v 0.449238 1.195806 0.100000
v 0.449238 1.195806 0.100000
v 0.472086 1.112754 0.100000
v 0.472086 1.112754 0.100000
v 0.480036 1.044822 0.100000
v 0.480036 1.044822 0.100000
v 0.480036 1.044822 0.100000
v -0.128316 0.355872 0.100000
v -0.128316 0.355872 0.100000
v -0.128316 0.355872 0.100000
v -0.122850 0.898008 0.100000
v -0.122850 0.898008 0.100000
v 0.128316 0.256008 0.100000
v 0.128316 0.256008 0.100000
v 0.128316 0.256008 0.100000
v -0.128316 0.256512 0.100000
v -0.128316 0.256512 0.100000
v -0.128316 0.256512 0.100000
v 0.128316 -0.000252 0.100000
v 0.128316 -0.000252 0.100000
v 0.128316 -0.000252 0.100000
v -0.128316 0.000252 0.100000
v -0.128316 0.000252 0.100000
v -0.128316 0.000252 0.100000
vn -0.0000 -0.0000 -1.0000
vn -0.0000 -0.0000 1.0000
vn -0.8648 0.5022 -0.0000
vn -0.7242 0.6896 -0.0000
vn -0.9999 0.0117 -0.0000
vn -0.7734 -0.6339 -0.0000
vn -0.6141 -0.7893 -0.0000
vn -0.0020 -1.0000 -0.0000
vn -0.8582 -0.5134 -0.0000
vn -0.9207 -0.3902 -0.0000
vn -0.9674 -0.2533 -0.0000
vn -0.9604 -0.2787 -0.0000
vn -0.9381 -0.3465 -0.0000
vn -0.8325 -0.5540 -0.0000
vn -0.9999 0.0115 -0.0000
vn -0.9995 -0.0327 -0.0000
vn -0.9883 -0.1525 -0.0000
vn -0.7437 -0.6685 -0.0000
vn 1.0000 0.0036 -0.0000
vn 1.0000 -0.0000 -0.0000
vn 0.1564 -0.9877 -0.0000
vn 0.7191 0.6949 -0.0000
vn 0.6924 0.7216 -0.0000
vn -0.7088 -0.7054 -0.0000
vn 0.9992 0.0398 -0.0000
vn -0.7097 -0.7045 -0.0000
vn -0.7622 -0.6474 -0.0000
vn 0.9918 0.1282 -0.0000
vn 0.8018 0.5976 -0.0000
vn -0.8649 -0.5019 -0.0000
vn -0.9709 -0.2393 -0.0000
vn 0.9590 0.2835 -0.0000
vn 0.0020 1.0000 -0.0000
vn -0.9996 0.0269 -0.0000
vn 0.8832 0.4690 -0.0000
vn -0.9634 0.2682 -0.0000
vn 0.7835 0.6214 -0.0000
vn -1.0000 -0.0000 -0.0000
vn 0.2102 0.9777 -0.0000
vn 0.4225 0.9064 -0.0000
vn -0.5413 0.8409 -0.0000
vn 0.7078 0.7064 -0.0000
vn -0.3353 0.9421 -0.0000
vn -0.1390 0.9903 -0.0000
vn 0.8990 0.4380 -0.0000
vn 0.0290 0.9996 -0.0000
vn 0.9724 0.2334 -0.0000
vn 0.9724 0.2335 -0.0000
vn 0.9987 -0.0500 -0.0000
vn 0.8465 -0.5324 -0.0000
vn 0.9497 -0.3130 -0.0000
vn -0.2049 -0.9788 -0.0000
vn -0.0028 -1.0000 -0.0000
vn 0.6262 0.7797 -0.0000
vn 0.6784 -0.7347 -0.0000
vn 0.6261 0.7797 -0.0000
vn 0.7693 0.6389 -0.0000
vn 0.4593 -0.8883 -0.0000
vn 0.8615 0.5078 -0.0000
vn 0.2189 -0.9757 -0.0000
vn 0.9350 0.3546 -0.0000
vn 0.9815 0.1913 -0.0000
vn -0.4105 -0.9119 -0.0000
vn 0.9932 0.1162 -0.0000
vt 0.497619 0.307881
vt 0.479870 0.418379
vt 0.474331 0.307927
vt 0.462122 0.418209
vt 0.447082 0.308177
vt 0.304252 0.374322
vt 0.391767 0.448346
vt 0.368689 0.470741
vt 0.283225 0.396673
vt 0.343063 0.497105
vt 0.263826 0.416652
vt 0.312494 0.526620
vt 0.244709 0.434120
vt 0.277505 0.552908
vt 0.224436 0.446398
vt 0.234140 0.571820
vt 0.205240 0.453757
vt 0.189928 0.575188
vt 0.185555 0.455915
vt 0.144712 0.569463
vt 0.120472 0.414250
vt 0.037880 0.489202
vt 0.017839 0.448730
vt 0.066861 0.524461
vt 0.132201 0.430834
vt 0.147488 0.443488
vt 0.113067 0.393501
vt 0.007391 0.403687
vt 0.110862 0.372065
vt 0.004894 0.358232
vt 0.129287 0.314736
vt 0.023777 0.269538
vt 0.046346 0.233361
vt 0.444683 0.419588
vt 0.420319 0.310170
vt 0.427250 0.423693
vt 0.391366 0.315637
vt 0.362369 0.327631
vt 0.411173 0.432068
vt 0.332827 0.347330
vt 0.113068 0.350965
vt 0.009856 0.312901
vt 0.119067 0.331886
vt 0.103281 0.551294
vt 0.165672 0.451771
vt 0.144055 0.299839
vt 0.073074 0.206959
vt 0.161931 0.287939
vt 0.103257 0.185826
vt 0.180914 0.277695
vt 0.134920 0.170199
vt 0.170717 0.160276
vt 0.200005 0.156790
vt 0.202000 0.270921
vt 0.589310 0.225886
vt 0.699820 0.336338
vt 0.589310 0.336555
vt 0.791463 0.591594
vt 0.809211 0.702093
vt 0.785924 0.702047
vt 0.773714 0.591765
vt 0.758674 0.701797
vt 0.615844 0.635652
vt 0.703359 0.561628
vt 0.644419 0.662644
vt 0.680282 0.539232
vt 0.594817 0.613301
vt 0.654655 0.512868
vt 0.575418 0.593322
vt 0.556301 0.575853
vt 0.624087 0.483354
vt 0.589097 0.457066
vt 0.536028 0.563576
vt 0.545733 0.438153
vt 0.516832 0.556216
vt 0.501520 0.434785
vt 0.497147 0.554058
vt 0.456304 0.440510
vt 0.432064 0.595724
vt 0.349471 0.520771
vt 0.443793 0.579139
vt 0.378453 0.485512
vt 0.424659 0.616472
vt 0.329431 0.561243
vt 0.422453 0.637909
vt 0.318983 0.606286
vt 0.440878 0.695238
vt 0.335368 0.740435
vt 0.430659 0.678088
vt 0.756276 0.590386
vt 0.731911 0.699804
vt 0.738843 0.586281
vt 0.702959 0.694337
vt 0.673962 0.682343
vt 0.722766 0.577906
vt 0.424660 0.659009
vt 0.316485 0.651741
vt 0.321447 0.697073
vt 0.414873 0.458679
vt 0.459080 0.566485
vt 0.477264 0.558202
vt 0.357937 0.776613
vt 0.455646 0.710135
vt 0.384665 0.803015
vt 0.473523 0.722035
vt 0.414848 0.824148
vt 0.492505 0.732279
vt 0.446511 0.839775
vt 0.482308 0.849698
vt 0.513591 0.739053
vt 0.511596 0.853184
vt 0.529239 0.743184
vt 0.505166 0.159063
vt 0.394662 0.269510
vt 0.394662 0.158846
vt 0.456891 0.004749
vt 0.502129 0.073123
vt 0.456892 0.073123
vt 0.004885 0.004749
vt 0.022634 0.073123
vt 0.004885 0.073123
vt 0.571934 0.149007
vt 0.550956 0.080630
vt 0.571934 0.080630
vt 0.314006 0.268508
vt 0.382381 0.157838
vt 0.382381 0.268508
vt 0.593409 0.149007
vt 0.593409 0.080630
vt 0.614980 0.149007
vt 0.614980 0.080630
vt 0.653312 0.149007
vt 0.637128 0.080630
vt 0.653312 0.080630
vt 0.075786 0.004749
vt 0.093914 0.073123
vt 0.075786 0.073123
vt 0.022634 0.004749
vt 0.040384 0.073123
vt 0.637128 0.149007
vt 0.057877 0.004749
vt 0.057877 0.073123
vt 0.093914 0.004749
vt 0.119244 0.073123
vt 0.027492 0.149007
vt 0.004203 0.080630
vt 0.027492 0.080630
vt 0.233135 0.268686
vt 0.301505 0.157287
vt 0.301505 0.268686
vt 0.275781 0.149007
vt 0.247933 0.080630
vt 0.275781 0.080630
vt 0.119244 0.004749
vt 0.151401 0.073123
vt 0.054743 0.149007
vt 0.054743 0.080630
vt 0.188168 0.004749
vt 0.230660 0.073123
vt 0.188168 0.073123
vt 0.151401 0.004749
vt 0.081581 0.149007
vt 0.081581 0.080630
vt 0.301678 0.149007
vt 0.301678 0.080630
vt 0.274424 0.004749
vt 0.321734 0.073123
vt 0.274424 0.073123
vt 0.111046 0.149007
vt 0.111046 0.080630
vt 0.520936 0.336555
vt 0.321734 0.004749
vt 0.366074 0.073123
vt 0.142427 0.149007
vt 0.142427 0.080630
vt 0.768194 0.225669
vt 0.699820 0.225669
vt 0.366074 0.004749
vt 0.411651 0.073123
vt 0.177936 0.149007
vt 0.177936 0.080630
vt 0.699954 0.404713
vt 0.411651 0.004749
vt 0.589176 0.157512
vt 0.730298 0.004749
vt 0.775840 0.073123
vt 0.730298 0.073124
vt 0.040384 0.004749
vt 0.502129 0.004749
vt 0.547771 0.073123
vt 0.247933 0.149007
vt 0.217245 0.080630
vt 0.547771 0.004749
vt 0.592933 0.073123
vt 0.230660 0.004749
vt 0.592933 0.004749
vt 0.639172 0.073123
vt 0.325380 0.149007
vt 0.325380 0.080630
vt 0.639172 0.004749
vt 0.684696 0.073123
vt 0.345938 0.149007
vt 0.345938 0.080630
vt 0.684696 0.004749
vt 0.365743 0.149007
vt 0.365743 0.080630
vt 0.406035 0.149007
vt 0.386053 0.080630
vt 0.406035 0.080630
vt 0.510992 0.149007
vt 0.489776 0.080630
vt 0.510992 0.080630
vt 0.775840 0.004749
vt 0.818481 0.073124
vt 0.425880 0.149007
vt 0.425880 0.080630
vt 0.386053 0.149007
vt 0.818481 0.004749
vt 0.856050 0.073124
vt 0.446194 0.149007
vt 0.446194 0.080630
vt 0.217245 0.149007
vt 0.856050 0.004749
vt 0.892896 0.073124
vt 0.468225 0.149007
vt 0.468225 0.080630
vt 0.892896 0.004749
vt 0.928205 0.073124
vt 0.489776 0.149007
vt 0.928205 0.004749
vt 0.965352 0.073124
vt 0.530992 0.149007
vt 0.530992 0.080630
vt 0.965352 0.004749
vt 0.994847 0.073124
vt 0.550956 0.149007
vt 0.497619 0.418550
vt 0.217647 0.266791
vt 0.809211 0.591424
vt 0.505166 0.269727
vt 0.314006 0.157838
vt 0.004203 0.149007
vt 0.233135 0.157287
vt 0.520936 0.225886
vt 0.768194 0.336338
vt 0.589445 0.404930
vt 0.699685 0.157295
vt 0.994847 0.004749
s 0
usemtl Material.001
f 1/1/1 107/2/1 4/3/1
f 4/3/1 58/4/1 6/5/1
f 18/6/1 62/7/1 64/8/1
f 20/9/1 64/8/1 66/10/1
f 22/11/1 66/10/1 68/12/1
f 24/13/1 68/12/1 70/14/1
f 26/15/1 70/14/1 72/16/1
f 28/17/1 72/16/1 74/18/1
f 30/19/1 74/18/1 76/20/1
f 36/21/1 82/22/1 84/23/1
f 80/24/1 34/25/1 32/26/1
f 38/27/1 84/23/1 86/28/1
f 40/29/1 86/28/1 88/30/1
f 44/31/1 92/32/1 94/33/1
f 6/5/1 113/34/1 8/35/1
f 8/35/1 60/36/1 10/37/1
f 12/38/1 60/36/1 16/39/1
f 14/40/1 16/39/1 62/7/1
f 109/41/1 88/30/1 90/42/1
f 42/43/1 90/42/1 92/32/1
f 78/44/1 32/26/1 111/45/1
f 76/20/1 111/45/1 30/19/1
f 46/46/1 94/33/1 96/47/1
f 48/48/1 96/47/1 98/49/1
f 50/50/1 98/49/1 100/51/1
f 102/52/1 50/50/1 100/51/1
f 104/53/1 115/54/1 102/52/1
f 117/55/1 126/56/1 120/57/1
f 193/58/2 129/59/2 132/60/2
f 146/61/2 132/60/2 134/62/2
f 148/63/2 199/64/2 142/65/2
f 201/66/2 150/67/2 203/68/2
f 243/69/2 203/68/2 150/67/2
f 156/70/2 152/71/2 243/69/2
f 154/72/2 158/73/2 205/74/2
f 205/74/2 160/75/2 207/76/2
f 207/76/2 162/77/2 209/78/2
f 170/79/2 219/80/2 168/81/2
f 217/82/2 168/81/2 219/80/2
f 172/83/2 221/84/2 170/79/2
f 174/85/2 223/86/2 172/83/2
f 180/87/2 215/88/2 178/89/2
f 144/90/2 134/62/2 136/91/2
f 195/92/2 136/91/2 138/93/2
f 140/94/2 195/92/2 138/93/2
f 142/65/2 197/95/2 140/94/2
f 176/96/2 225/97/2 174/85/2
f 178/89/2 213/98/2 176/96/2
f 211/99/2 166/100/2 217/82/2
f 209/78/2 164/101/2 211/99/2
f 227/102/2 182/103/2 229/104/2
f 229/104/2 184/105/2 231/106/2
f 231/106/2 186/107/2 233/108/2
f 235/109/2 186/107/2 188/110/2
f 237/111/2 188/110/2 190/112/2
f 254/113/2 245/114/2 248/115/2
s 1
f 212/116/3 81/117/4 79/118/3
s 0
f 242/119/5 108/120/5 57/121/5
s 1
f 183/122/6 45/123/7 47/124/6
s 0
f 130/125/8 56/126/8 2/127/8
s 1
f 185/128/9 47/124/6 49/129/9
f 187/130/10 49/129/9 51/131/10
f 191/132/11 116/133/12 53/134/11
f 196/135/13 17/136/14 61/137/13
f 194/138/15 59/139/16 108/120/15
f 189/140/12 51/131/10 116/133/12
f 145/141/17 61/137/13 114/142/17
f 198/143/14 63/144/18 17/136/14
f 133/145/19 3/146/20 5/147/19
s 0
f 238/148/21 54/149/21 105/150/21
s 1
f 244/151/22 21/152/23 23/153/22
f 200/154/18 65/155/24 63/144/18
f 135/156/25 5/147/19 7/157/25
f 204/158/26 69/159/27 67/160/26
f 202/161/24 67/160/26 65/155/24
f 137/162/28 7/157/25 9/163/28
f 157/164/29 23/153/22 25/165/29
f 155/166/30 73/167/31 71/168/30
f 139/169/32 9/163/28 11/170/32
s 0
f 250/171/33 118/55/33 122/57/33
s 1
f 206/172/31 75/173/34 73/167/31
f 141/174/35 11/170/32 13/175/35
s 0
f 252/176/8 127/56/8 124/177/8
s 1
f 208/178/34 77/179/36 75/173/34
f 143/180/37 13/175/35 15/181/37
s 0
f 256/182/38 121/57/38 128/56/38
s 1
f 210/183/36 79/118/3 77/179/36
s 0
f 247/184/20 125/177/20 119/55/20
s 1
f 214/185/39 93/186/40 91/187/39
f 147/188/16 114/142/17 59/139/16
f 218/189/4 83/190/41 81/117/4
f 151/191/23 19/192/42 21/152/23
f 220/193/41 85/194/43 83/190/41
f 153/195/27 71/168/30 69/159/27
f 222/196/43 87/197/44 85/194/43
f 159/198/45 25/165/29 27/199/45
f 224/200/44 89/201/46 87/197/44
f 161/202/47 27/199/45 29/203/48
f 226/204/46 91/187/39 89/201/46
f 163/205/49 29/203/48 31/206/49
f 167/207/50 112/208/51 33/209/50
f 177/210/52 41/211/53 110/212/52
f 216/213/40 95/214/54 93/186/40
f 169/215/55 33/209/50 35/216/55
f 165/217/51 31/206/49 112/208/51
f 228/218/56 97/219/57 95/214/54
f 171/220/58 35/216/55 37/221/58
f 149/222/42 15/181/37 19/192/42
f 230/223/57 99/224/59 97/219/57
f 173/225/60 37/221/58 39/226/60
f 232/227/59 101/228/61 99/224/59
f 175/229/53 39/226/60 41/211/53
f 234/230/61 103/231/62 101/228/61
f 179/232/63 110/212/52 43/233/63
f 236/234/62 106/235/64 103/231/62
f 181/236/7 43/233/63 45/123/7
s 0
f 1/1/1 55/237/1 107/2/1
f 4/3/1 107/2/1 58/4/1
f 18/6/1 14/40/1 62/7/1
f 20/9/1 18/6/1 64/8/1
f 22/11/1 20/9/1 66/10/1
f 24/13/1 22/11/1 68/12/1
f 26/15/1 24/13/1 70/14/1
f 28/17/1 26/15/1 72/16/1
f 30/19/1 28/17/1 74/18/1
f 36/21/1 34/25/1 82/22/1
f 80/24/1 82/22/1 34/25/1
f 38/27/1 36/21/1 84/23/1
f 40/29/1 38/27/1 86/28/1
f 44/31/1 42/43/1 92/32/1
f 6/5/1 58/4/1 113/34/1
f 8/35/1 113/34/1 60/36/1
f 12/38/1 10/37/1 60/36/1
f 14/40/1 12/38/1 16/39/1
f 109/41/1 40/29/1 88/30/1
f 42/43/1 109/41/1 90/42/1
f 78/44/1 80/24/1 32/26/1
f 76/20/1 78/44/1 111/45/1
f 46/46/1 44/31/1 94/33/1
f 48/48/1 46/46/1 96/47/1
f 50/50/1 48/48/1 98/49/1
f 102/52/1 115/54/1 50/50/1
f 104/53/1 52/238/1 115/54/1
f 117/55/1 123/177/1 126/56/1
f 193/58/2 240/239/2 129/59/2
f 146/61/2 193/58/2 132/60/2
f 148/63/2 201/66/2 199/64/2
f 201/66/2 148/63/2 150/67/2
f 243/69/2 152/71/2 203/68/2
f 156/70/2 154/72/2 152/71/2
f 154/72/2 156/70/2 158/73/2
f 205/74/2 158/73/2 160/75/2
f 207/76/2 160/75/2 162/77/2
f 170/79/2 221/84/2 219/80/2
f 217/82/2 166/100/2 168/81/2
f 172/83/2 223/86/2 221/84/2
f 174/85/2 225/97/2 223/86/2
f 180/87/2 227/102/2 215/88/2
f 144/90/2 146/61/2 134/62/2
f 195/92/2 144/90/2 136/91/2
f 140/94/2 197/95/2 195/92/2
f 142/65/2 199/64/2 197/95/2
f 176/96/2 213/98/2 225/97/2
f 178/89/2 215/88/2 213/98/2
f 211/99/2 164/101/2 166/100/2
f 209/78/2 162/77/2 164/101/2
f 227/102/2 180/87/2 182/103/2
f 229/104/2 182/103/2 184/105/2
f 231/106/2 184/105/2 186/107/2
f 235/109/2 233/108/2 186/107/2
f 237/111/2 235/109/2 188/110/2
f 254/113/2 251/240/2 245/114/2
s 1
f 212/116/3 218/189/4 81/117/4
s 0
f 242/119/5 194/138/5 108/120/5
s 1
f 183/122/6 181/236/7 45/123/7
s 0
f 130/125/8 241/241/8 56/126/8
s 1
f 185/128/9 183/122/6 47/124/6
f 187/130/10 185/128/9 49/129/9
f 191/132/11 189/140/12 116/133/12
f 196/135/13 198/143/14 17/136/14
f 194/138/15 147/188/16 59/139/16
f 189/140/12 187/130/10 51/131/10
f 145/141/17 196/135/13 61/137/13
f 198/143/14 200/154/18 63/144/18
f 133/145/19 131/242/20 3/146/20
s 0
f 238/148/21 192/243/21 54/149/21
s 1
f 244/151/22 151/191/23 21/152/23
f 200/154/18 202/161/24 65/155/24
f 135/156/25 133/145/19 5/147/19
f 204/158/26 153/195/27 69/159/27
f 202/161/24 204/158/26 67/160/26
f 137/162/28 135/156/25 7/157/25
f 157/164/29 244/151/22 23/153/22
f 155/166/30 206/172/31 73/167/31
f 139/169/32 137/162/28 9/163/28
s 0
f 250/171/33 246/244/33 118/55/33
s 1
f 206/172/31 208/178/34 75/173/34
f 141/174/35 139/169/32 11/170/32
s 0
f 252/176/8 255/245/8 127/56/8
s 1
f 208/178/34 210/183/36 77/179/36
f 143/180/37 141/174/35 13/175/35
s 0
f 256/182/38 249/246/38 121/57/38
s 1
f 210/183/36 212/116/3 79/118/3
s 0
f 247/184/20 253/247/20 125/177/20
s 1
f 214/185/39 216/213/40 93/186/40
f 147/188/16 145/141/17 114/142/17
f 218/189/4 220/193/41 83/190/41
f 151/191/23 149/222/42 19/192/42
f 220/193/41 222/196/43 85/194/43
f 153/195/27 155/166/30 71/168/30
f 222/196/43 224/200/44 87/197/44
f 159/198/45 157/164/29 25/165/29
f 224/200/44 226/204/46 89/201/46
f 161/202/47 159/198/45 27/199/45
f 226/204/46 214/185/39 91/187/39
f 163/205/49 161/202/47 29/203/48
f 167/207/50 165/217/51 112/208/51
f 177/210/52 175/229/53 41/211/53
f 216/213/40 228/218/56 95/214/54
f 169/215/55 167/207/50 33/209/50
f 165/217/51 163/205/49 31/206/49
f 228/218/56 230/223/57 97/219/57
f 171/220/58 169/215/55 35/216/55
f 149/222/42 143/180/37 15/181/37
f 230/223/57 232/227/59 99/224/59
f 173/225/60 171/220/58 37/221/58
f 232/227/59 234/230/61 101/228/61
f 175/229/53 173/225/60 39/226/60
f 234/230/61 236/234/62 103/231/62
f 179/232/63 177/210/52 110/212/52
f 236/234/62 239/248/64 106/235/64
f 181/236/7 179/232/63 43/233/63
