# Blender 4.4.1
# www.blender.org
mtllib enemy.mtl
o 立方体.002
v 0.100000 0.351100 1.259702
v 0.100000 0.151100 1.259702
v 0.100000 0.351100 -0.740298
v 0.100000 0.151100 -0.740298
v -0.100000 0.351100 1.259702
v -0.100000 0.151100 1.259702
v -0.100000 0.351100 -0.740298
v -0.100000 0.151100 -0.740298
v 0.100000 -1.000000 -0.100000
v 0.100000 1.000000 -0.100000
v 0.100000 -1.000000 0.100000
v 0.100000 1.000000 0.100000
v -0.100000 -1.000000 -0.100000
v -0.100000 1.000000 -0.100000
v -0.100000 -1.000000 0.100000
v -0.100000 1.000000 0.100000
v -0.500000 0.600000 0.500000
v -0.500000 1.600000 0.500000
v -0.500000 0.600000 -0.500000
v -0.500000 1.600000 -0.500000
v 0.500000 0.600000 0.500000
v 0.500000 1.600000 0.500000
v 0.500000 0.600000 -0.500000
v 0.500000 1.600000 -0.500000
vn 1.0000 -0.0000 -0.0000
vn -0.0000 -0.0000 -1.0000
vn -1.0000 -0.0000 -0.0000
vn -0.0000 -0.0000 1.0000
vn -0.0000 1.0000 -0.0000
vn -0.0000 -1.0000 -0.0000
vt 0.625000 0.000000
vt 0.375000 0.250000
vt 0.375000 0.000000
vt 0.625000 0.250000
vt 0.375000 0.500000
vt 0.625000 0.500000
vt 0.375000 0.750000
vt 0.625000 0.750000
vt 0.375000 1.000000
vt 0.125000 0.750000
vt 0.125000 0.500000
vt 0.875000 0.500000
vt 0.625000 1.000000
vt 0.875000 0.750000
s 1
usemtl マテリアル
f 2/1/1 3/2/1 1/3/1
f 4/4/2 7/5/2 3/2/2
f 8/6/3 5/7/3 7/5/3
f 6/8/4 1/9/4 5/7/4
f 7/5/5 1/10/5 3/11/5
f 4/12/6 6/8/6 8/6/6
f 10/1/1 11/2/1 9/3/1
f 12/4/4 15/5/4 11/2/4
f 16/6/3 13/7/3 15/5/3
f 14/8/2 9/9/2 13/7/2
f 15/5/6 9/10/6 11/11/6
f 12/12/5 14/8/5 16/6/5
f 18/1/3 19/2/3 17/3/3
f 20/4/2 23/5/2 19/2/2
f 24/6/1 21/7/1 23/5/1
f 22/8/4 17/9/4 21/7/4
f 23/5/6 17/10/6 19/11/6
f 20/12/5 22/8/5 24/6/5
f 2/1/1 4/4/1 3/2/1
f 4/4/2 8/6/2 7/5/2
f 8/6/3 6/8/3 5/7/3
f 6/8/4 2/13/4 1/9/4
f 7/5/5 5/7/5 1/10/5
f 4/12/6 2/14/6 6/8/6
f 10/1/1 12/4/1 11/2/1
f 12/4/4 16/6/4 15/5/4
f 16/6/3 14/8/3 13/7/3
f 14/8/2 10/13/2 9/9/2
f 15/5/6 13/7/6 9/10/6
f 12/12/5 10/14/5 14/8/5
f 18/1/3 20/4/3 19/2/3
f 20/4/2 24/6/2 23/5/2
f 24/6/1 22/8/1 21/7/1
f 22/8/4 18/13/4 17/9/4
f 23/5/6 21/7/6 17/10/6
f 20/12/5 18/14/5 22/8/5
