# Blender 4.4.1
# www.blender.org
mtllib energy.mtl
o 立方体
v 1.000000 -1.000000 -1.000000
v 0.576982 -0.900000 -0.576982
v 1.000000 -1.000000 1.000000
v 0.576982 -0.900000 0.576982
v -1.000000 -1.000000 -1.000000
v -0.576982 -0.900000 -0.576982
v -1.000000 -1.000000 1.000000
v -0.576982 -0.900000 0.576982
v 1.000000 -0.718041 -1.000000
v 1.000000 -0.718041 1.000000
v -1.000000 -0.718041 1.000000
v -1.000000 -0.718041 -1.000000
v 0.504000 -0.748000 -0.504000
v 0.504000 0.548000 -0.504000
v 0.504000 -0.748000 0.504000
v 0.504000 0.548000 0.504000
v -0.504000 -0.748000 -0.504000
v -0.504000 0.548000 -0.504000
v -0.504000 -0.748000 0.504000
v -0.504000 0.548000 0.504000
v 0.504000 -0.424000 -0.504000
v 0.504000 -0.100000 -0.504000
v 0.504000 0.224000 -0.504000
v 0.504000 0.224000 0.504000
v 0.504000 -0.100000 0.504000
v 0.504000 -0.424000 0.504000
v -0.504000 0.224000 0.504000
v -0.504000 -0.100000 0.504000
v -0.504000 -0.424000 0.504000
v -0.504000 0.224000 -0.504000
v -0.504000 -0.100000 -0.504000
v -0.504000 -0.424000 -0.504000
v 0.200000 0.600000 -0.200000
v 0.200000 1.000000 -0.200000
v 0.200000 0.600000 0.200000
v 0.200000 1.000000 0.200000
v -0.200000 0.600000 -0.200000
v -0.200000 1.000000 -0.200000
v -0.200000 0.600000 0.200000
v -0.200000 1.000000 0.200000
vn 1.0000 -0.0000 -0.0000
vn -0.0000 -0.0000 1.0000
vn -1.0000 -0.0000 -0.0000
vn -0.0000 -0.0000 -1.0000
vn -0.0000 -1.0000 -0.0000
vn -0.0000 1.0000 -0.0000
vn -0.3951 0.9186 -0.0000
vn -0.0000 0.9186 -0.3951
vn 0.3951 0.9186 -0.0000
vn -0.0000 0.9186 0.3951
vt 0.817122 0.291966
vt 0.642070 0.467018
vt 0.642070 0.291966
vt 0.817122 0.467018
vt 0.642070 0.642070
vt 0.817122 0.642070
vt 0.642070 0.817122
vt 0.817122 0.817122
vt 0.642070 0.992173
vt 0.467018 0.817122
vt 0.467018 0.642070
vt 0.955148 0.679095
vt 0.854147 0.780097
vt 0.854147 0.679095
vt 0.992173 0.817122
vt 0.955148 0.780097
vt 0.992173 0.642070
vt 0.418668 0.008711
vt 0.367475 0.213482
vt 0.367475 0.008711
vt 0.418668 0.213482
vt 0.367475 0.418254
vt 0.418668 0.418254
vt 0.367475 0.623026
vt 0.418668 0.623026
vt 0.367475 0.827798
vt 0.213896 0.418254
vt 0.009124 0.623026
vt 0.009124 0.418254
vt 0.623440 0.418254
vt 0.265089 0.623026
vt 0.213896 0.827798
vt 0.213896 0.623026
vt 0.316282 0.623026
vt 0.265089 0.827798
vt 0.316282 0.827798
vt 0.265089 0.418254
vt 0.316282 0.418254
vt 0.265089 0.213482
vt 0.213896 0.213482
vt 0.316282 0.213482
vt 0.265089 0.008711
vt 0.213896 0.008711
vt 0.316282 0.008711
vt 0.507485 0.296171
vt 0.579531 0.224125
vt 0.579531 0.296171
vt 0.507485 0.224125
vt 0.579531 0.152080
vt 0.507485 0.152080
vt 0.579531 0.080034
vt 0.507485 0.080034
vt 0.579531 0.007988
vt 0.651577 0.080034
vt 0.651577 0.152080
vt 0.435440 0.152080
vt 0.817122 0.992173
vt 0.418668 0.827798
vt 0.623440 0.623026
vt 0.507485 0.007988
vt 0.435440 0.080034
s 0
usemtl Material
f 9/1/1 3/2/1 1/3/1
f 10/4/2 7/5/2 3/2/2
f 11/6/3 5/7/3 7/5/3
f 12/8/4 1/9/4 5/7/4
f 7/5/5 1/10/5 3/11/5
f 4/12/6 6/13/6 8/14/6
f 4/12/7 9/15/7 2/16/7
f 8/14/8 10/17/8 4/12/8
f 6/13/9 11/6/9 8/14/9
f 2/16/10 12/8/10 6/13/10
f 14/18/1 24/19/1 23/20/1
f 16/21/2 27/22/2 24/19/2
f 20/23/3 30/24/3 27/22/3
f 18/25/4 23/26/4 30/24/4
f 19/27/5 13/28/5 15/29/5
f 16/30/6 18/25/6 20/23/6
f 32/31/4 13/32/4 17/33/4
f 31/34/4 21/35/4 32/31/4
f 30/24/4 22/36/4 31/34/4
f 29/37/3 17/33/3 19/27/3
f 28/38/3 32/31/3 29/37/3
f 27/22/3 31/34/3 28/38/3
f 26/39/2 19/27/2 15/40/2
f 25/41/2 29/37/2 26/39/2
f 24/19/2 28/38/2 25/41/2
f 21/42/1 15/40/1 13/43/1
f 22/44/1 26/39/1 21/42/1
f 23/20/1 25/41/1 22/44/1
f 34/45/1 35/46/1 33/47/1
f 36/48/2 39/49/2 35/46/2
f 40/50/3 37/51/3 39/49/3
f 38/52/4 33/53/4 37/51/4
f 39/49/5 33/54/5 35/55/5
f 36/56/6 38/52/6 40/50/6
f 9/1/1 10/4/1 3/2/1
f 10/4/2 11/6/2 7/5/2
f 11/6/3 12/8/3 5/7/3
f 12/8/4 9/57/4 1/9/4
f 7/5/5 5/7/5 1/10/5
f 4/12/6 2/16/6 6/13/6
f 4/12/7 10/17/7 9/15/7
f 8/14/8 11/6/8 10/17/8
f 6/13/9 12/8/9 11/6/9
f 2/16/10 9/15/10 12/8/10
f 14/18/1 16/21/1 24/19/1
f 16/21/2 20/23/2 27/22/2
f 20/23/3 18/25/3 30/24/3
f 18/25/4 14/58/4 23/26/4
f 19/27/5 17/33/5 13/28/5
f 16/30/6 14/59/6 18/25/6
f 32/31/4 21/35/4 13/32/4
f 31/34/4 22/36/4 21/35/4
f 30/24/4 23/26/4 22/36/4
f 29/37/3 32/31/3 17/33/3
f 28/38/3 31/34/3 32/31/3
f 27/22/3 30/24/3 31/34/3
f 26/39/2 29/37/2 19/27/2
f 25/41/2 28/38/2 29/37/2
f 24/19/2 27/22/2 28/38/2
f 21/42/1 26/39/1 15/40/1
f 22/44/1 25/41/1 26/39/1
f 23/20/1 24/19/1 25/41/1
f 34/45/1 36/48/1 35/46/1
f 36/48/2 40/50/2 39/49/2
f 40/50/3 38/52/3 37/51/3
f 38/52/4 34/60/4 33/53/4
f 39/49/5 37/51/5 33/54/5
f 36/56/6 34/61/6 38/52/6
