{
	"asset":{
		"generator":"Khronos glTF Blender I/O v4.4.56",
		"version":"2.0"
	},
	"scene":0,
	"scenes":[
		{
			"name":"Scene",
			"nodes":[
				0
			]
		}
	],
	"nodes":[
		{
			"mesh":0,
			"name":"\u7403"
		}
	],
	"materials":[
		{
			"doubleSided":true,
			"name":"material",
			"pbrMetallicRoughness":{
				"baseColorTexture":{
					"index":0
				},
				"metallicFactor":0,
				"roughnessFactor":0.5
			}
		}
	],
	"meshes":[
		{
			"name":"\u7403",
			"primitives":[
				{
					"attributes":{
						"POSITION":0,
						"NORMAL":1,
						"TEXCOORD_0":2
					},
					"indices":3,
					"material":0
				}
			]
		}
	],
	"textures":[
		{
			"sampler":0,
			"source":0
		}
	],
	"images":[
		{
			"mimeType":"image/png",
			"name":"enemy_bomb",
			"uri":"enemy_bomb.png"
		}
	],
	"accessors":[
		{
			"bufferView":0,
			"componentType":5126,
			"count":1840,
			"max":[
				0.972000002861023,
				1.36953604221344,
				0.9719989895820618
			],
			"min":[
				-0.9719989895820618,
				-0.8301010131835938,
				-0.972000002861023
			],
			"type":"VEC3"
		},
		{
			"bufferView":1,
			"componentType":5126,
			"count":1840,
			"type":"VEC3"
		},
		{
			"bufferView":2,
			"componentType":5126,
			"count":1840,
			"type":"VEC2"
		},
		{
			"bufferView":3,
			"componentType":5123,
			"count":2754,
			"type":"SCALAR"
		}
	],
	"bufferViews":[
		{
			"buffer":0,
			"byteLength":22080,
			"byteOffset":0,
			"target":34962
		},
		{
			"buffer":0,
			"byteLength":22080,
			"byteOffset":22080,
			"target":34962
		},
		{
			"buffer":0,
			"byteLength":14720,
			"byteOffset":44160,
			"target":34962
		},
		{
			"buffer":0,
			"byteLength":5508,
			"byteOffset":58880,
			"target":34963
		}
	],
	"samplers":[
		{
			"magFilter":9729,
			"minFilter":9987
		}
	],
	"buffers":[
		{
			"byteLength":64388,
			"uri":"bomb.bin"
		}
	]
}
