# Blender 4.4.1
# www.blender.org
mtllib enemy_bomb.mtl
o 球
v 0.000000 0.950088 0.540014
v 0.000000 0.681914 0.808189
v 0.000000 0.331527 0.953323
v 0.000000 0.141899 0.972000
v 0.000000 -0.047728 0.953323
v 0.000000 -0.398115 0.808189
v -0.072568 1.039911 0.364821
v -0.105351 0.950088 0.529638
v -0.134087 0.829208 0.674102
v -0.157670 0.681914 0.792659
v -0.175193 0.513867 0.880755
v -0.185984 0.331527 0.935006
v -0.189627 0.141899 0.953323
v -0.185984 -0.047728 0.935006
v -0.175193 -0.230068 0.880755
v -0.157670 -0.398115 0.792659
v -0.134087 -0.545409 0.674101
v -0.105351 -0.666289 0.529638
v -0.072568 -0.756112 0.364821
v -0.036994 -0.811424 0.185984
v -0.142347 1.039911 0.343654
v -0.206655 0.950088 0.498908
v -0.263021 0.829208 0.634989
v -0.309281 0.681914 0.746669
v -0.343654 0.513867 0.829654
v -0.364821 0.331527 0.880755
v -0.371968 0.141899 0.898010
v -0.364821 -0.047728 0.880755
v -0.343654 -0.230068 0.829654
v -0.309281 -0.398115 0.746669
v -0.263021 -0.545409 0.634989
v -0.206655 -0.666289 0.498908
v -0.142347 -0.756112 0.343653
v -0.072568 -0.811424 0.175193
v -0.206655 1.039911 0.309281
v -0.300016 0.950088 0.449006
v -0.381847 0.829208 0.571476
v -0.449006 0.681914 0.671984
v -0.498908 0.513867 0.746669
v -0.529638 0.331527 0.792659
v -0.540014 0.141899 0.808188
v -0.529638 -0.047728 0.792659
v -0.498908 -0.230068 0.746669
v -0.449006 -0.398115 0.671984
v -0.381847 -0.545409 0.571476
v -0.300016 -0.666289 0.449006
v -0.206655 -0.756112 0.309281
v -0.105351 -0.811424 0.157670
v -0.263021 1.039911 0.263021
v -0.381847 0.950088 0.381847
v -0.486000 0.829208 0.486000
v -0.571476 0.681914 0.571476
v -0.634989 0.513867 0.634989
v -0.674101 0.331527 0.674101
v -0.687308 0.141899 0.687308
v -0.674101 -0.047728 0.674101
v -0.634989 -0.230068 0.634989
v -0.571476 -0.398115 0.571476
v -0.486000 -0.545409 0.486000
v -0.381847 -0.666289 0.381847
v -0.263021 -0.756112 0.263021
v -0.134087 -0.811424 0.134087
v -0.309281 1.039911 0.206655
v -0.449006 0.950088 0.300016
v -0.571476 0.829208 0.381847
v -0.671984 0.681914 0.449006
v -0.746669 0.513867 0.498908
v -0.792659 0.331527 0.529638
v -0.808189 0.141899 0.540014
v -0.792659 -0.047728 0.529638
v -0.746669 -0.230068 0.498908
v -0.671984 -0.398115 0.449006
v -0.571476 -0.545409 0.381847
v -0.449006 -0.666289 0.300016
v -0.309281 -0.756112 0.206655
v -0.157670 -0.811424 0.105351
v -0.343654 1.039911 0.142347
v -0.498908 0.950088 0.206654
v -0.634989 0.829208 0.263021
v -0.746669 0.681914 0.309281
v -0.829654 0.513867 0.343654
v -0.880755 0.331527 0.364821
v -0.898010 0.141899 0.371968
v -0.880755 -0.047728 0.364821
v -0.829654 -0.230068 0.343654
v -0.746669 -0.398115 0.309281
v -0.634989 -0.545409 0.263021
v -0.498908 -0.666289 0.206654
v -0.343654 -0.756112 0.142346
v -0.175193 -0.811424 0.072568
v -0.364821 1.039911 0.072568
v -0.529638 0.950088 0.105351
v -0.674101 0.829208 0.134087
v -0.792659 0.681914 0.157670
v -0.880755 0.513867 0.175193
v -0.935006 0.331527 0.185984
v -0.953323 0.141900 0.189627
v -0.935006 -0.047728 0.185984
v -0.880755 -0.230068 0.175193
v -0.792659 -0.398115 0.157670
v -0.674101 -0.545409 0.134087
v -0.529638 -0.666289 0.105351
v -0.364821 -0.756112 0.072568
v -0.185984 -0.811424 0.036994
v -0.371968 1.039911 0.000000
v -0.540014 0.950088 0.000000
v -0.687308 0.829208 0.000000
v -0.808188 0.681914 0.000000
v -0.898010 0.513867 0.000000
v -0.953323 0.331527 0.000000
v -0.972000 0.141900 0.000000
v -0.953323 -0.047728 -0.000000
v -0.898010 -0.230068 -0.000000
v -0.808188 -0.398115 -0.000000
v -0.687308 -0.545409 -0.000000
v -0.540014 -0.666289 -0.000000
v -0.371968 -0.756112 -0.000000
v -0.189627 -0.811424 -0.000000
v -0.364821 1.039911 -0.072568
v -0.529638 0.950088 -0.105351
v -0.674101 0.829208 -0.134087
v -0.792659 0.681914 -0.157670
v -0.880755 0.513867 -0.175193
v -0.935006 0.331527 -0.185984
v -0.953323 0.141900 -0.189627
v -0.935006 -0.047728 -0.185984
v -0.880755 -0.230068 -0.175193
v -0.792659 -0.398115 -0.157670
v -0.674101 -0.545409 -0.134087
v -0.529638 -0.666289 -0.105351
v -0.364821 -0.756112 -0.072568
v -0.185984 -0.811424 -0.036994
v -0.343654 1.039911 -0.142346
v -0.498908 0.950088 -0.206655
v -0.634989 0.829208 -0.263021
v -0.746669 0.681914 -0.309281
v -0.829654 0.513867 -0.343654
v -0.880755 0.331527 -0.364821
v -0.898010 0.141900 -0.371968
v -0.880755 -0.047728 -0.364821
v -0.829654 -0.230068 -0.343654
v -0.746669 -0.398115 -0.309281
v -0.634989 -0.545409 -0.263021
v -0.498908 -0.666289 -0.206655
v -0.343654 -0.756112 -0.142347
v -0.175193 -0.811424 -0.072568
v -0.309281 1.039911 -0.206655
v -0.449006 0.950088 -0.300016
v -0.571476 0.829208 -0.381847
v -0.671983 0.681914 -0.449006
v -0.746669 0.513867 -0.498908
v -0.792659 0.331527 -0.529638
v -0.808188 0.141900 -0.540014
v -0.792659 -0.047728 -0.529638
v -0.746669 -0.230068 -0.498908
v -0.671983 -0.398115 -0.449006
v -0.571476 -0.545409 -0.381847
v -0.449006 -0.666289 -0.300016
v -0.309281 -0.756112 -0.206655
v -0.157670 -0.811424 -0.105351
v -0.263021 1.039911 -0.263021
v -0.381847 0.950088 -0.381847
v -0.486000 0.829208 -0.486000
v -0.571476 0.681914 -0.571476
v -0.634989 0.513867 -0.634989
v -0.674101 0.331527 -0.674101
v -0.687307 0.141900 -0.687308
v -0.674101 -0.047728 -0.674101
v -0.634989 -0.230068 -0.634989
v -0.571476 -0.398115 -0.571476
v -0.486000 -0.545408 -0.486000
v -0.381847 -0.666289 -0.381847
v -0.263021 -0.756112 -0.263021
v -0.134087 -0.811424 -0.134087
v -0.206654 1.039911 -0.309281
v -0.300016 0.950089 -0.449006
v -0.381847 0.829208 -0.571476
v -0.449006 0.681914 -0.671984
v -0.498908 0.513867 -0.746669
v -0.529638 0.331527 -0.792659
v -0.540014 0.141900 -0.808188
v -0.529638 -0.047728 -0.792659
v -0.498908 -0.230068 -0.746669
v -0.449006 -0.398115 -0.671984
v -0.381847 -0.545408 -0.571476
v -0.300016 -0.666289 -0.449006
v -0.206654 -0.756112 -0.309281
v -0.105351 -0.811424 -0.157670
v -0.142347 1.039911 -0.343653
v -0.206654 0.950089 -0.498908
v -0.263021 0.829208 -0.634989
v -0.309280 0.681914 -0.746669
v -0.343654 0.513867 -0.829654
v -0.364821 0.331527 -0.880755
v -0.371968 0.141900 -0.898010
v -0.364821 -0.047728 -0.880755
v -0.343654 -0.230068 -0.829654
v -0.309280 -0.398115 -0.746669
v -0.263021 -0.545408 -0.634989
v -0.206654 -0.666289 -0.498908
v -0.142347 -0.756112 -0.343654
v -0.072568 -0.811424 -0.175193
v -0.072568 1.039911 -0.364821
v -0.105351 0.950089 -0.529638
v -0.134087 0.829208 -0.674101
v -0.157670 0.681914 -0.792659
v -0.175193 0.513867 -0.880755
v -0.185984 0.331527 -0.935005
v -0.189627 0.141900 -0.953323
v -0.185984 -0.047728 -0.935005
v -0.175193 -0.230068 -0.880755
v -0.157670 -0.398115 -0.792659
v -0.134087 -0.545408 -0.674102
v -0.105351 -0.666289 -0.529638
v -0.072568 -0.756112 -0.364821
v -0.036994 -0.811424 -0.185985
v 0.000000 1.039911 -0.371968
v 0.000000 0.950089 -0.540014
v 0.000000 0.829208 -0.687308
v 0.000000 0.681914 -0.808188
v 0.000000 0.513867 -0.898010
v 0.000000 0.331527 -0.953323
v 0.000000 0.141900 -0.971999
v 0.000000 -0.047728 -0.953323
v 0.000000 -0.230068 -0.898010
v 0.000000 -0.398115 -0.808188
v 0.000000 -0.545408 -0.687308
v 0.000000 -0.666289 -0.540014
v 0.000000 -0.756112 -0.371968
v 0.000000 -0.811424 -0.189628
v 0.072568 1.039911 -0.364821
v 0.105351 0.950089 -0.529638
v 0.134087 0.829208 -0.674101
v 0.157670 0.681914 -0.792659
v 0.175193 0.513867 -0.880755
v 0.185984 0.331527 -0.935005
v 0.189628 0.141900 -0.953323
v 0.185984 -0.047728 -0.935005
v 0.175193 -0.230068 -0.880755
v 0.157670 -0.398115 -0.792659
v 0.134087 -0.545408 -0.674102
v 0.105351 -0.666289 -0.529638
v 0.072568 -0.756112 -0.364821
v 0.036994 -0.811424 -0.185985
v 0.142347 1.039911 -0.343653
v 0.206655 0.950089 -0.498908
v 0.263021 0.829208 -0.634989
v 0.309281 0.681914 -0.746668
v 0.343654 0.513867 -0.829654
v 0.364821 0.331527 -0.880755
v 0.371968 0.141900 -0.898010
v 0.364821 -0.047728 -0.880755
v 0.343654 -0.230068 -0.829654
v 0.309281 -0.398115 -0.746668
v 0.263021 -0.545408 -0.634989
v 0.206655 -0.666289 -0.498908
v 0.142347 -0.756112 -0.343654
v 0.072568 -0.811424 -0.175193
v 0.206655 1.039911 -0.309281
v 0.300016 0.950089 -0.449005
v 0.381847 0.829208 -0.571476
v 0.449006 0.681914 -0.671983
v 0.498908 0.513867 -0.746669
v 0.529638 0.331527 -0.792659
v 0.540014 0.141900 -0.808188
v 0.529638 -0.047728 -0.792659
v 0.498908 -0.230068 -0.746669
v 0.449006 -0.398115 -0.671984
v 0.381847 -0.545408 -0.571476
v 0.300016 -0.666289 -0.449005
v 0.206655 -0.756112 -0.309281
v 0.105351 -0.811424 -0.157670
v 0.263021 1.039911 -0.263021
v 0.381847 0.950088 -0.381847
v 0.486000 0.829208 -0.486000
v 0.571476 0.681914 -0.571475
v 0.634989 0.513867 -0.634989
v 0.674101 0.331527 -0.674101
v 0.687307 0.141900 -0.687307
v 0.674101 -0.047728 -0.674101
v 0.634989 -0.230068 -0.634989
v 0.571476 -0.398115 -0.571475
v 0.486000 -0.545408 -0.486000
v 0.381847 -0.666289 -0.381847
v 0.263021 -0.756112 -0.263021
v 0.134087 -0.811424 -0.134087
v 0.000000 -0.830101 -0.000000
v 0.309281 1.039911 -0.206654
v 0.449006 0.950088 -0.300016
v 0.571476 0.829208 -0.381847
v 0.671983 0.681914 -0.449005
v 0.746668 0.513867 -0.498908
v 0.792659 0.331527 -0.529638
v 0.808188 0.141900 -0.540013
v 0.792659 -0.047728 -0.529638
v 0.746668 -0.230068 -0.498908
v 0.671983 -0.398115 -0.449005
v 0.571476 -0.545409 -0.381847
v 0.449006 -0.666289 -0.300016
v 0.309281 -0.756112 -0.206654
v 0.157670 -0.811424 -0.105351
v 0.343654 1.039911 -0.142346
v 0.498908 0.950088 -0.206654
v 0.634989 0.829208 -0.263021
v 0.746668 0.681914 -0.309280
v 0.829654 0.513867 -0.343654
v 0.880755 0.331527 -0.364821
v 0.898010 0.141900 -0.371968
v 0.880755 -0.047728 -0.364821
v 0.829654 -0.230068 -0.343654
v 0.746668 -0.398115 -0.309280
v 0.634989 -0.545409 -0.263021
v 0.498908 -0.666289 -0.206654
v 0.343654 -0.756112 -0.142347
v 0.175193 -0.811424 -0.072568
v 0.364821 1.039911 -0.072568
v 0.529638 0.950088 -0.105351
v 0.674101 0.829208 -0.134087
v 0.792659 0.681914 -0.157669
v 0.880755 0.513867 -0.175193
v 0.935005 0.331527 -0.185983
v 0.953322 0.141900 -0.189627
v 0.935005 -0.047728 -0.185983
v 0.880755 -0.230068 -0.175193
v 0.792659 -0.398115 -0.157669
v 0.674101 -0.545409 -0.134087
v 0.529638 -0.666289 -0.105351
v 0.364821 -0.756112 -0.072568
v 0.185984 -0.811424 -0.036994
v 0.371968 1.039911 0.000000
v 0.540014 0.950088 0.000000
v 0.687308 0.829208 0.000000
v 0.808188 0.681914 0.000000
v 0.898010 0.513867 0.000000
v 0.953323 0.331527 0.000000
v 0.971999 0.141900 0.000000
v 0.953323 -0.047728 -0.000000
v 0.898010 -0.230068 -0.000000
v 0.808188 -0.398115 -0.000000
v 0.687308 -0.545409 -0.000000
v 0.540014 -0.666289 -0.000000
v 0.371968 -0.756112 -0.000000
v 0.189627 -0.811424 -0.000000
v 0.364821 1.039911 0.072568
v 0.529638 0.950088 0.105351
v 0.674101 0.829208 0.134087
v 0.792659 0.681914 0.157670
v 0.880755 0.513867 0.175193
v 0.935005 0.331527 0.185984
v 0.953322 0.141900 0.189628
v 0.935005 -0.047728 0.185984
v 0.880755 -0.230068 0.175193
v 0.792659 -0.398115 0.157670
v 0.674101 -0.545409 0.134087
v 0.529638 -0.666289 0.105351
v 0.364821 -0.756112 0.072568
v 0.185984 -0.811424 0.036994
v 0.343654 1.039911 0.142347
v 0.498907 0.950088 0.206654
v 0.634989 0.829208 0.263021
v 0.746668 0.681914 0.309281
v 0.829654 0.513867 0.343654
v 0.880755 0.331527 0.364821
v 0.898009 0.141899 0.371968
v 0.880755 -0.047728 0.364821
v 0.829654 -0.230068 0.343654
v 0.746668 -0.398115 0.309281
v 0.634989 -0.545409 0.263021
v 0.498907 -0.666289 0.206654
v 0.343654 -0.756112 0.142346
v 0.175193 -0.811424 0.072568
v 0.309280 1.039911 0.206654
v 0.449005 0.950088 0.300016
v 0.571476 0.829208 0.381847
v 0.671983 0.681914 0.449006
v 0.746668 0.513867 0.498908
v 0.792659 0.331527 0.529638
v 0.808187 0.141899 0.540014
v 0.792659 -0.047728 0.529638
v 0.746668 -0.230068 0.498908
v 0.671983 -0.398115 0.449006
v 0.571476 -0.545409 0.381847
v 0.449005 -0.666289 0.300016
v 0.309280 -0.756112 0.206654
v 0.157670 -0.811424 0.105351
v 0.263021 1.039911 0.263021
v 0.381847 0.950088 0.381847
v 0.486000 0.829208 0.486000
v 0.571475 0.681914 0.571476
v 0.634989 0.513867 0.634989
v 0.674101 0.331527 0.674101
v 0.687307 0.141899 0.687307
v 0.674101 -0.047728 0.674101
v 0.634989 -0.230068 0.634989
v 0.571475 -0.398115 0.571476
v 0.486000 -0.545409 0.486000
v 0.381847 -0.666289 0.381847
v 0.263021 -0.756112 0.263021
v 0.134087 -0.811424 0.134087
v 0.206654 1.039911 0.309281
v 0.300016 0.950088 0.449005
v 0.381847 0.829208 0.571476
v 0.449005 0.681914 0.671984
v 0.498908 0.513867 0.746668
v 0.529638 0.331527 0.792659
v 0.540013 0.141899 0.808188
v 0.529638 -0.047728 0.792659
v 0.498908 -0.230068 0.746668
v 0.449005 -0.398115 0.671983
v 0.381847 -0.545409 0.571476
v 0.300016 -0.666289 0.449005
v 0.206654 -0.756112 0.309281
v 0.105351 -0.811424 0.157670
v 0.142346 1.039911 0.343654
v 0.206654 0.950088 0.498907
v 0.263021 0.829208 0.634989
v 0.309280 0.681914 0.746668
v 0.343654 0.513867 0.829654
v 0.364821 0.331527 0.880755
v 0.371968 0.141899 0.898010
v 0.364821 -0.047728 0.880755
v 0.343654 -0.230068 0.829654
v 0.309280 -0.398115 0.746668
v 0.263021 -0.545409 0.634989
v 0.206654 -0.666289 0.498907
v 0.142346 -0.756112 0.343653
v 0.072568 -0.811424 0.175193
v 0.072568 1.039911 0.364821
v 0.105351 0.950088 0.529638
v 0.134087 0.829208 0.674102
v 0.157669 0.681914 0.792659
v 0.175193 0.513867 0.880755
v 0.185983 0.331527 0.935005
v 0.189627 0.141899 0.953322
v 0.185983 -0.047728 0.935005
v 0.175193 -0.230068 0.880755
v 0.157669 -0.398115 0.792659
v 0.134087 -0.545409 0.674101
v 0.105351 -0.666289 0.529638
v 0.072568 -0.756112 0.364821
v 0.036994 -0.811424 0.185984
v 0.000000 1.039911 0.371968
v 0.000000 0.829208 0.687308
v 0.000000 0.513867 0.898010
v 0.000000 -0.230068 0.898010
v 0.000000 -0.545409 0.687308
v 0.000000 -0.666289 0.540014
v 0.000000 -0.756112 0.371968
v 0.000000 -0.811424 0.189627
v 0.252720 1.041000 -0.252720
v 0.252720 1.157640 -0.252720
v 0.252720 1.041000 0.252720
v 0.252720 1.157640 0.252720
v -0.252720 1.041000 -0.252720
v -0.252720 1.157640 -0.252720
v -0.252720 1.041000 0.252720
v -0.252720 1.157640 0.252720
v 0.025272 1.159584 -0.025272
v 0.025272 1.369536 -0.025272
v 0.025272 1.159584 0.025272
v 0.025272 1.369536 0.025272
v -0.025272 1.159584 -0.025272
v -0.025272 1.369536 -0.025272
v -0.025272 1.159584 0.025272
v -0.025272 1.369536 0.025272
vn -0.0759 -0.6326 0.7708
vn -0.0759 0.6326 0.7708
vn -0.0624 -0.7715 0.6332
vn -0.0865 0.4696 0.8786
vn -0.0464 -0.8810 0.4709
vn -0.0938 0.2890 0.9527
vn -0.0286 -0.9566 0.2902
vn -0.0975 0.0975 0.9904
vn -0.0976 0.0976 0.9904
vn -0.0097 -0.9951 0.0980
vn -0.0975 -0.0975 0.9904
vn -0.0975 -0.0976 0.9904
vn -0.0938 -0.2890 0.9527
vn -0.0464 0.8810 0.4709
vn -0.0865 -0.4696 0.8786
vn -0.0624 0.7715 0.6332
vn -0.2563 -0.4696 0.8449
vn -0.1847 0.7715 0.6088
vn -0.2248 -0.6326 0.7412
vn -0.2248 0.6326 0.7412
vn -0.1847 -0.7715 0.6088
vn -0.2563 0.4696 0.8449
vn -0.1374 -0.8810 0.4528
vn -0.2779 0.2890 0.9161
vn -0.0846 -0.9565 0.2790
vn -0.0846 -0.9566 0.2790
vn -0.2889 0.0975 0.9524
vn -0.0286 -0.9951 0.0942
vn -0.2889 -0.0975 0.9524
vn -0.2779 -0.2890 0.9161
vn -0.1374 0.8810 0.4528
vn -0.1374 -0.9566 0.2571
vn -0.4691 0.0975 0.8777
vn -0.0464 -0.9951 0.0869
vn -0.4691 -0.0975 0.8777
vn -0.4513 -0.2890 0.8443
vn -0.2230 0.8810 0.4173
vn -0.4162 -0.4696 0.7786
vn -0.2999 0.7715 0.5611
vn -0.3651 -0.6326 0.6831
vn -0.3651 0.6326 0.6831
vn -0.2999 -0.7715 0.5611
vn -0.4162 0.4696 0.7786
vn -0.2230 -0.8810 0.4173
vn -0.4513 0.2890 0.8443
vn -0.4036 0.7715 0.4918
vn -0.4913 -0.6326 0.5987
vn -0.4913 0.6326 0.5987
vn -0.4036 -0.7715 0.4918
vn -0.5601 0.4696 0.6825
vn -0.3002 -0.8810 0.3658
vn -0.6073 0.2890 0.7400
vn -0.1850 -0.9565 0.2254
vn -0.1850 -0.9566 0.2254
vn -0.6314 0.0976 0.7693
vn -0.0625 -0.9951 0.0761
vn -0.6314 -0.0976 0.7693
vn -0.6314 -0.0975 0.7693
vn -0.6073 -0.2890 0.7400
vn -0.3002 0.8810 0.3658
vn -0.5601 -0.4696 0.6825
vn -0.7693 0.0976 0.6314
vn -0.0761 -0.9951 0.0625
vn -0.7693 -0.0976 0.6314
vn -0.7400 -0.2890 0.6073
vn -0.3658 0.8810 0.3002
vn -0.6825 -0.4696 0.5601
vn -0.4918 0.7715 0.4036
vn -0.5987 -0.6326 0.4913
vn -0.5987 0.6326 0.4913
vn -0.4918 -0.7715 0.4036
vn -0.6825 0.4696 0.5601
vn -0.3658 -0.8810 0.3002
vn -0.7400 0.2890 0.6073
vn -0.2254 -0.9566 0.1850
vn -0.6831 -0.6326 0.3651
vn -0.6831 0.6326 0.3651
vn -0.5611 -0.7715 0.2999
vn -0.7786 0.4696 0.4162
vn -0.4173 -0.8810 0.2230
vn -0.8443 0.2890 0.4513
vn -0.2571 -0.9566 0.1374
vn -0.8777 0.0976 0.4691
vn -0.8777 0.0975 0.4691
vn -0.0869 -0.9951 0.0464
vn -0.8777 -0.0976 0.4691
vn -0.8443 -0.2890 0.4513
vn -0.4173 0.8810 0.2230
vn -0.7786 -0.4696 0.4162
vn -0.5611 0.7715 0.2999
vn -0.0942 -0.9951 0.0286
vn -0.9524 -0.0975 0.2889
vn -0.9161 -0.2890 0.2779
vn -0.4528 0.8810 0.1374
vn -0.8449 -0.4696 0.2563
vn -0.6088 0.7715 0.1847
vn -0.7412 -0.6326 0.2248
vn -0.7412 0.6326 0.2248
vn -0.6088 -0.7715 0.1847
vn -0.8449 0.4696 0.2563
vn -0.4528 -0.8810 0.1374
vn -0.9161 0.2890 0.2779
vn -0.2790 -0.9566 0.0846
vn -0.2790 -0.9565 0.0846
vn -0.9524 0.0975 0.2889
vn -0.6332 -0.7715 0.0624
vn -0.8786 0.4696 0.0865
vn -0.4709 -0.8810 0.0464
vn -0.9527 0.2890 0.0938
vn -0.2902 -0.9566 0.0286
vn -0.9904 0.0975 0.0975
vn -0.9904 0.0976 0.0976
vn -0.0980 -0.9951 0.0097
vn -0.9904 -0.0975 0.0975
vn -0.9527 -0.2890 0.0938
vn -0.4709 0.8810 0.0464
vn -0.8786 -0.4696 0.0865
vn -0.6332 0.7715 0.0624
vn -0.7708 -0.6326 0.0759
vn -0.7708 0.6326 0.0759
vn -0.9527 -0.2890 -0.0938
vn -0.4709 0.8810 -0.0464
vn -0.8786 -0.4696 -0.0865
vn -0.6332 0.7715 -0.0624
vn -0.7708 -0.6326 -0.0759
vn -0.7708 0.6326 -0.0759
vn -0.6332 -0.7715 -0.0624
vn -0.8786 0.4696 -0.0865
vn -0.4709 -0.8810 -0.0464
vn -0.9527 0.2890 -0.0938
vn -0.2902 -0.9566 -0.0286
vn -0.9904 0.0975 -0.0975
vn -0.9904 0.0975 -0.0976
vn -0.0980 -0.9951 -0.0097
vn -0.9904 -0.0975 -0.0975
vn -0.9904 -0.0976 -0.0975
vn -0.8449 0.4696 -0.2563
vn -0.4528 -0.8810 -0.1374
vn -0.9161 0.2890 -0.2779
vn -0.2790 -0.9566 -0.0846
vn -0.9524 0.0975 -0.2889
vn -0.0942 -0.9951 -0.0286
vn -0.9524 -0.0975 -0.2889
vn -0.9161 -0.2890 -0.2779
vn -0.4528 0.8810 -0.1374
vn -0.8449 -0.4696 -0.2563
vn -0.6088 0.7715 -0.1847
vn -0.7412 -0.6326 -0.2248
vn -0.7412 0.6326 -0.2248
vn -0.6088 -0.7715 -0.1847
vn -0.8443 -0.2890 -0.4513
vn -0.4173 0.8810 -0.2230
vn -0.7786 -0.4696 -0.4162
vn -0.5611 0.7715 -0.2999
vn -0.6831 -0.6326 -0.3651
vn -0.6831 0.6326 -0.3651
vn -0.5611 -0.7715 -0.2999
vn -0.7786 0.4696 -0.4162
vn -0.4173 -0.8810 -0.2231
vn -0.8443 0.2890 -0.4513
vn -0.2571 -0.9566 -0.1374
vn -0.8777 0.0975 -0.4691
vn -0.0869 -0.9951 -0.0464
vn -0.8777 -0.0975 -0.4691
vn -0.3658 -0.8810 -0.3002
vn -0.7400 0.2890 -0.6073
vn -0.2254 -0.9566 -0.1850
vn -0.7693 0.0975 -0.6314
vn -0.7693 0.0976 -0.6314
vn -0.0761 -0.9951 -0.0625
vn -0.7693 -0.0975 -0.6314
vn -0.7400 -0.2890 -0.6073
vn -0.3658 0.8810 -0.3002
vn -0.6825 -0.4696 -0.5601
vn -0.4918 0.7715 -0.4036
vn -0.5987 -0.6326 -0.4913
vn -0.5987 0.6326 -0.4913
vn -0.4918 -0.7715 -0.4036
vn -0.6825 0.4696 -0.5601
vn -0.3002 0.8810 -0.3658
vn -0.5601 -0.4696 -0.6825
vn -0.4036 0.7715 -0.4918
vn -0.4913 -0.6326 -0.5987
vn -0.4913 0.6326 -0.5987
vn -0.4036 -0.7715 -0.4918
vn -0.5601 0.4696 -0.6825
vn -0.3002 -0.8810 -0.3658
vn -0.6073 0.2890 -0.7400
vn -0.1850 -0.9565 -0.2254
vn -0.6314 0.0976 -0.7693
vn -0.6314 0.0975 -0.7693
vn -0.0625 -0.9951 -0.0761
vn -0.6314 -0.0975 -0.7693
vn -0.6314 -0.0976 -0.7693
vn -0.6073 -0.2890 -0.7400
vn -0.4513 0.2890 -0.8443
vn -0.1374 -0.9566 -0.2571
vn -0.4691 0.0975 -0.8777
vn -0.0464 -0.9951 -0.0869
vn -0.4691 -0.0975 -0.8777
vn -0.4513 -0.2890 -0.8443
vn -0.2230 0.8810 -0.4173
vn -0.4162 -0.4696 -0.7786
vn -0.2999 0.7715 -0.5611
vn -0.3651 -0.6326 -0.6831
vn -0.3651 0.6326 -0.6831
vn -0.2999 -0.7715 -0.5611
vn -0.4162 0.4696 -0.7786
vn -0.2231 -0.8810 -0.4173
vn -0.2230 -0.8810 -0.4173
vn -0.2563 -0.4696 -0.8449
vn -0.1847 0.7715 -0.6088
vn -0.2248 -0.6326 -0.7412
vn -0.2248 0.6326 -0.7412
vn -0.1847 -0.7715 -0.6088
vn -0.2563 0.4696 -0.8449
vn -0.1374 -0.8810 -0.4528
vn -0.2779 0.2890 -0.9161
vn -0.0846 -0.9565 -0.2790
vn -0.0846 -0.9566 -0.2790
vn -0.2889 0.0975 -0.9524
vn -0.0286 -0.9951 -0.0942
vn -0.2889 -0.0975 -0.9524
vn -0.2779 -0.2890 -0.9161
vn -0.1374 0.8810 -0.4528
vn -0.0286 -0.9565 -0.2902
vn -0.0975 0.0975 -0.9904
vn -0.0097 -0.9951 -0.0980
vn -0.0975 -0.0975 -0.9904
vn -0.0976 -0.0976 -0.9904
vn -0.0938 -0.2890 -0.9527
vn -0.0464 0.8810 -0.4709
vn -0.0865 -0.4696 -0.8786
vn -0.0624 0.7715 -0.6332
vn -0.0759 -0.6326 -0.7708
vn -0.0759 0.6326 -0.7708
vn -0.0624 -0.7715 -0.6332
vn -0.0865 0.4696 -0.8786
vn -0.0464 -0.8810 -0.4709
vn -0.0938 0.2890 -0.9527
vn 0.0759 -0.6326 -0.7708
vn 0.0759 0.6326 -0.7708
vn 0.0624 -0.7715 -0.6332
vn 0.0865 0.4696 -0.8786
vn 0.0464 -0.8810 -0.4709
vn 0.0938 0.2890 -0.9527
vn 0.0286 -0.9565 -0.2902
vn 0.0975 0.0975 -0.9904
vn 0.0975 0.0976 -0.9904
vn 0.0097 -0.9951 -0.0980
vn 0.0975 -0.0975 -0.9904
vn 0.0976 -0.0975 -0.9904
vn 0.0938 -0.2890 -0.9527
vn 0.0464 0.8810 -0.4709
vn 0.0865 -0.4696 -0.8786
vn 0.0624 0.7715 -0.6332
vn 0.0286 -0.9951 -0.0942
vn 0.2889 -0.0975 -0.9524
vn 0.2889 -0.0976 -0.9524
vn 0.2779 -0.2890 -0.9161
vn 0.1374 0.8810 -0.4528
vn 0.2563 -0.4696 -0.8448
vn 0.2563 -0.4696 -0.8449
vn 0.1847 0.7715 -0.6088
vn 0.2248 -0.6326 -0.7412
vn 0.2248 0.6326 -0.7412
vn 0.1847 -0.7715 -0.6088
vn 0.2563 0.4696 -0.8448
vn 0.2563 0.4696 -0.8449
vn 0.1374 -0.8810 -0.4528
vn 0.2779 0.2890 -0.9161
vn 0.0846 -0.9566 -0.2790
vn 0.0846 -0.9565 -0.2790
vn 0.2889 0.0976 -0.9524
vn 0.2889 0.0975 -0.9524
vn 0.3651 0.6326 -0.6831
vn 0.2999 -0.7715 -0.5611
vn 0.4162 0.4696 -0.7786
vn 0.2231 -0.8810 -0.4173
vn 0.2230 -0.8810 -0.4173
vn 0.4513 0.2890 -0.8443
vn 0.1374 -0.9566 -0.2571
vn 0.4691 0.0975 -0.8777
vn 0.0464 -0.9951 -0.0869
vn 0.4691 -0.0975 -0.8777
vn 0.4513 -0.2890 -0.8443
vn 0.2230 0.8810 -0.4173
vn 0.2231 0.8810 -0.4173
vn 0.4162 -0.4696 -0.7786
vn 0.2999 0.7715 -0.5611
vn 0.3651 -0.6326 -0.6831
vn 0.6314 -0.0975 -0.7693
vn 0.6073 -0.2890 -0.7400
vn 0.3002 0.8810 -0.3658
vn 0.5601 -0.4696 -0.6825
vn 0.4036 0.7715 -0.4918
vn 0.4913 -0.6326 -0.5987
vn 0.4913 0.6326 -0.5987
vn 0.4036 -0.7715 -0.4918
vn 0.5601 0.4696 -0.6825
vn 0.3002 -0.8810 -0.3658
vn 0.6073 0.2890 -0.7400
vn 0.1850 -0.9565 -0.2254
vn 0.1850 -0.9566 -0.2254
vn 0.6314 0.0975 -0.7693
vn 0.0625 -0.9951 -0.0761
vn 0.4918 -0.7715 -0.4036
vn 0.6825 0.4696 -0.5601
vn 0.3658 -0.8810 -0.3002
vn 0.7400 0.2890 -0.6073
vn 0.2254 -0.9565 -0.1850
vn 0.2254 -0.9566 -0.1850
vn 0.7693 0.0975 -0.6314
vn 0.0761 -0.9951 -0.0625
vn 0.7693 -0.0975 -0.6314
vn 0.7400 -0.2890 -0.6073
vn 0.3658 0.8810 -0.3002
vn 0.6825 -0.4696 -0.5601
vn 0.4918 0.7715 -0.4036
vn 0.5987 -0.6326 -0.4913
vn 0.5987 0.6326 -0.4913
vn 0.8443 -0.2890 -0.4513
vn 0.4173 0.8810 -0.2230
vn 0.7786 -0.4696 -0.4162
vn 0.5611 0.7715 -0.2999
vn 0.6831 -0.6326 -0.3651
vn 0.6831 0.6326 -0.3651
vn 0.5611 -0.7715 -0.2999
vn 0.7786 0.4696 -0.4162
vn 0.4173 -0.8810 -0.2230
vn 0.4173 -0.8810 -0.2231
vn 0.8443 0.2890 -0.4513
vn 0.2571 -0.9566 -0.1374
vn 0.8777 0.0975 -0.4691
vn 0.0869 -0.9951 -0.0464
vn 0.8777 -0.0975 -0.4691
vn 0.8448 0.4696 -0.2563
vn 0.4528 -0.8810 -0.1374
vn 0.9161 0.2890 -0.2779
vn 0.2790 -0.9566 -0.0846
vn 0.9524 0.0975 -0.2889
vn 0.0942 -0.9951 -0.0286
vn 0.9524 -0.0975 -0.2889
vn 0.9161 -0.2890 -0.2779
vn 0.4528 0.8810 -0.1374
vn 0.8448 -0.4696 -0.2563
vn 0.6088 0.7715 -0.1847
vn 0.7412 -0.6326 -0.2248
vn 0.7412 0.6326 -0.2248
vn 0.6088 -0.7715 -0.1847
vn 0.9527 -0.2890 -0.0938
vn 0.4709 0.8810 -0.0464
vn 0.8786 -0.4696 -0.0865
vn 0.6332 0.7715 -0.0624
vn 0.7708 -0.6326 -0.0759
vn 0.7708 0.6326 -0.0759
vn 0.6332 -0.7715 -0.0624
vn 0.8786 0.4696 -0.0865
vn 0.4709 -0.8810 -0.0464
vn 0.9527 0.2890 -0.0938
vn 0.2902 -0.9566 -0.0286
vn 0.9904 0.0975 -0.0976
vn 0.0980 -0.9951 -0.0097
vn 0.9904 -0.0975 -0.0976
vn 0.4709 -0.8810 0.0464
vn 0.9527 0.2890 0.0938
vn 0.2902 -0.9566 0.0286
vn 0.9904 0.0975 0.0976
vn 0.0980 -0.9951 0.0097
vn 0.9904 -0.0975 0.0976
vn 0.9527 -0.2890 0.0938
vn 0.4709 0.8810 0.0464
vn 0.8786 -0.4696 0.0865
vn 0.6332 0.7715 0.0624
vn 0.7708 -0.6326 0.0759
vn 0.7708 0.6326 0.0759
vn 0.6332 -0.7715 0.0624
vn 0.8786 0.4696 0.0865
vn 0.8448 -0.4696 0.2563
vn 0.8449 -0.4696 0.2563
vn 0.6088 0.7715 0.1847
vn 0.7412 -0.6326 0.2248
vn 0.7412 0.6326 0.2248
vn 0.6088 -0.7715 0.1847
vn 0.8448 0.4696 0.2563
vn 0.8449 0.4696 0.2563
vn 0.4528 -0.8810 0.1374
vn 0.9161 0.2890 0.2779
vn 0.2790 -0.9566 0.0846
vn 0.9524 0.0975 0.2889
vn 0.0942 -0.9951 0.0286
vn 0.9524 -0.0975 0.2889
vn 0.9161 -0.2890 0.2779
vn 0.4528 0.8810 0.1374
vn 0.2571 -0.9565 0.1374
vn 0.8777 0.0975 0.4691
vn 0.0869 -0.9951 0.0464
vn 0.8777 -0.0975 0.4691
vn 0.8443 -0.2890 0.4513
vn 0.4173 0.8810 0.2230
vn 0.4173 0.8810 0.2231
vn 0.7786 -0.4696 0.4162
vn 0.5611 0.7715 0.2999
vn 0.6831 -0.6326 0.3651
vn 0.6831 0.6326 0.3651
vn 0.5611 -0.7715 0.2999
vn 0.7786 0.4696 0.4162
vn 0.4173 -0.8810 0.2230
vn 0.4173 -0.8810 0.2231
vn 0.8443 0.2890 0.4513
vn 0.4918 0.7715 0.4036
vn 0.5987 -0.6326 0.4913
vn 0.5987 0.6326 0.4913
vn 0.4918 -0.7715 0.4036
vn 0.6825 0.4696 0.5601
vn 0.3658 -0.8810 0.3002
vn 0.7400 0.2890 0.6073
vn 0.2254 -0.9566 0.1850
vn 0.2254 -0.9565 0.1850
vn 0.7693 0.0975 0.6314
vn 0.0761 -0.9951 0.0625
vn 0.7693 -0.0975 0.6314
vn 0.7400 -0.2890 0.6073
vn 0.3658 0.8810 0.3002
vn 0.6825 -0.4696 0.5601
vn 0.6314 0.0975 0.7693
vn 0.0625 -0.9951 0.0761
vn 0.6314 -0.0975 0.7693
vn 0.6073 -0.2890 0.7400
vn 0.3002 0.8810 0.3658
vn 0.5601 -0.4696 0.6825
vn 0.4036 0.7715 0.4918
vn 0.4913 -0.6326 0.5987
vn 0.4913 0.6326 0.5987
vn 0.4036 -0.7715 0.4918
vn 0.5601 0.4696 0.6825
vn 0.3002 -0.8810 0.3658
vn 0.6073 0.2890 0.7400
vn 0.1850 -0.9565 0.2254
vn 0.1850 -0.9566 0.2254
vn 0.3651 -0.6326 0.6831
vn 0.3651 0.6326 0.6831
vn 0.2999 -0.7715 0.5611
vn 0.4162 0.4696 0.7786
vn 0.2230 -0.8810 0.4173
vn 0.4513 0.2890 0.8443
vn 0.1374 -0.9565 0.2571
vn 0.1374 -0.9566 0.2571
vn 0.4691 0.0975 0.8777
vn 0.0464 -0.9951 0.0869
vn 0.4691 -0.0975 0.8777
vn 0.4513 -0.2890 0.8443
vn 0.2230 0.8810 0.4173
vn 0.4162 -0.4696 0.7786
vn 0.2999 0.7715 0.5611
vn 0.0286 -0.9951 0.0942
vn 0.2889 -0.0975 0.9524
vn 0.2779 -0.2890 0.9161
vn 0.1374 0.8810 0.4528
vn 0.2563 -0.4696 0.8448
vn 0.1847 0.7715 0.6088
vn 0.2248 -0.6326 0.7412
vn 0.2248 0.6326 0.7412
vn 0.1847 -0.7715 0.6088
vn 0.2563 0.4696 0.8448
vn 0.1374 -0.8810 0.4528
vn 0.2779 0.2890 0.9161
vn 0.0846 -0.9566 0.2790
vn 0.0846 -0.9565 0.2790
vn 0.2889 0.0975 0.9524
vn 0.0759 0.6326 0.7708
vn 0.0624 -0.7715 0.6332
vn 0.0865 0.4696 0.8786
vn 0.0464 -0.8810 0.4709
vn 0.0938 0.2890 0.9527
vn 0.0286 -0.9566 0.2902
vn 0.0976 0.0975 0.9904
vn 0.0976 0.0976 0.9904
vn 0.0097 -0.9951 0.0980
vn 0.0976 -0.0975 0.9904
vn 0.0938 -0.2890 0.9527
vn 0.0464 0.8810 0.4709
vn 0.0865 -0.4696 0.8786
vn 0.0624 0.7715 0.6332
vn 0.0759 -0.6326 0.7708
vn -0.0976 -0.0975 0.9904
vn -0.1374 -0.9565 0.2571
vn -0.6314 0.0975 0.7693
vn -0.8777 -0.0975 0.4691
vn -0.9904 -0.0976 0.0976
vn -0.9904 0.0976 -0.0975
vn -0.9904 -0.0975 -0.0976
vn -0.4173 -0.8810 -0.2230
vn -0.0976 0.0976 -0.9904
vn 0.0976 0.0975 -0.9904
vn 0.0975 -0.0976 -0.9904
vn 0.2231 0.8810 0.4173
vn 0.0976 -0.0976 0.9904
vn 0.0846 0.9566 0.2788
vn 0.1374 0.9566 0.2570
vn 0.1849 0.9566 0.2254
vn 0.2254 0.9566 0.1849
vn 0.2570 0.9566 0.1374
vn 0.2788 0.9566 0.0846
vn 0.2899 0.9566 0.0286
vn 0.2899 0.9566 -0.0286
vn 0.2788 0.9566 -0.0846
vn 0.2570 0.9566 -0.1374
vn 0.2254 0.9566 -0.1849
vn 0.1849 0.9566 -0.2254
vn 0.1374 0.9566 -0.2570
vn 0.0846 0.9566 -0.2788
vn 0.0286 0.9566 -0.2899
vn -0.0286 0.9566 -0.2899
vn -0.0846 0.9566 -0.2788
vn -0.1374 0.9566 -0.2570
vn -0.1849 0.9566 -0.2254
vn -0.2254 0.9566 -0.1849
vn -0.2570 0.9566 -0.1374
vn -0.2788 0.9566 -0.0846
vn -0.2899 0.9566 -0.0286
vn -0.2899 0.9566 0.0286
vn -0.2788 0.9566 0.0846
vn -0.2570 0.9566 0.1374
vn -0.2254 0.9566 0.1849
vn -0.1849 0.9566 0.2254
vn -0.1374 0.9566 0.2570
vn -0.0846 0.9566 0.2788
vn -0.0286 0.9566 0.2899
vn 0.0286 0.9566 0.2899
vn 1.0000 -0.0000 -0.0000
vn -0.0000 -0.0000 1.0000
vn -1.0000 -0.0000 -0.0000
vn -0.0000 -0.0000 -1.0000
vn -0.0000 -1.0000 -0.0000
vn -0.0000 1.0000 -0.0000
vt 0.217503 0.213938
vt 0.220853 0.254091
vt 0.200274 0.229585
vt 0.383895 0.383920
vt 0.344257 0.379849
vt 0.361792 0.361360
vt 0.178696 0.202613
vt 0.193716 0.189631
vt 0.340944 0.340115
vt 0.321978 0.359450
vt 0.155841 0.172445
vt 0.167344 0.162750
vt 0.320683 0.319585
vt 0.300818 0.339506
vt 0.131428 0.138253
vt 0.138026 0.132853
vt 0.280537 0.319258
vt 0.300796 0.299313
vt 0.105171 0.099249
vt 0.260712 0.298489
vt 0.281025 0.278950
vt 0.241024 0.276913
vt 0.260833 0.258205
vt 0.407540 0.408075
vt 0.422934 0.446171
vt 0.394226 0.422533
vt 0.239863 0.236766
vt 0.368091 0.400640
vt 0.219867 0.295093
vt 0.200402 0.270555
vt 0.353734 0.419083
vt 0.181292 0.243807
vt 0.327628 0.399812
vt 0.162135 0.214078
vt 0.303606 0.380156
vt 0.143061 0.180632
vt 0.281094 0.360276
vt 0.123985 0.142503
vt 0.259773 0.339748
vt 0.239515 0.318042
vt 0.382520 0.438425
vt 0.128860 0.187046
vt 0.115869 0.145560
vt 0.260918 0.382471
vt 0.238124 0.361075
vt 0.216969 0.337969
vt 0.197025 0.313109
vt 0.413932 0.457913
vt 0.372646 0.456091
vt 0.177963 0.286235
vt 0.340773 0.439428
vt 0.160431 0.256679
vt 0.311812 0.421804
vt 0.143801 0.223830
vt 0.285405 0.402603
vt 0.329363 0.462268
vt 0.137111 0.268059
vt 0.296784 0.446146
vt 0.123487 0.231641
vt 0.267192 0.427376
vt 0.113366 0.191440
vt 0.239973 0.406685
vt 0.107185 0.147196
vt 0.215037 0.383904
vt 0.192456 0.358711
vt 0.171911 0.331178
vt 0.407312 0.471025
vt 0.364872 0.475786
vt 0.153234 0.301184
vt 0.217759 0.433761
vt 0.189804 0.408930
vt 0.098118 0.147218
vt 0.165134 0.380766
vt 0.143603 0.349531
vt 0.401652 0.501487
vt 0.359626 0.497451
vt 0.125240 0.315342
vt 0.319764 0.487941
vt 0.111031 0.277716
vt 0.282601 0.473814
vt 0.101281 0.237090
vt 0.248738 0.455403
vt 0.096689 0.193390
vt 0.081380 0.285138
vt 0.312489 0.517271
vt 0.269474 0.505824
vt 0.076407 0.239623
vt 0.229843 0.487892
vt 0.078982 0.192663
vt 0.193661 0.464834
vt 0.088964 0.145601
vt 0.161511 0.437056
vt 0.133869 0.404737
vt 0.110899 0.368360
vt 0.357421 0.521853
vt 0.092981 0.328498
vt 0.079975 0.142177
vt 0.097077 0.431450
vt 0.071993 0.387832
vt 0.407843 0.536299
vt 0.359176 0.548327
vt 0.055130 0.340103
vt 0.308458 0.551070
vt 0.047377 0.289400
vt 0.257939 0.543523
vt 0.049561 0.238307
vt 0.210324 0.526661
vt 0.060583 0.188676
vt 0.166835 0.501482
vt 0.128975 0.469452
vt 0.007466 0.289006
vt 0.020065 0.231692
vt 0.189899 0.575055
vt 0.042286 0.180902
vt 0.135951 0.545897
vt 0.071523 0.136920
vt 0.090913 0.507377
vt 0.052557 0.462200
vt 0.023563 0.408190
vt 0.366357 0.577547
vt 0.010177 0.348921
vt 0.309179 0.590946
vt 0.249210 0.588443
vt 0.505058 0.920957
vt 0.578870 0.900391
vt 0.559189 0.946759
vt 0.391604 0.604231
vt 0.433526 0.562861
vt 0.421246 0.611375
vt 0.616757 0.963280
vt 0.626442 0.917625
vt 0.418497 0.661929
vt 0.380405 0.660897
vt 0.676516 0.926158
vt 0.676029 0.964713
vt 0.379668 0.719935
vt 0.425362 0.711735
vt 0.733786 0.956050
vt 0.728139 0.925477
vt 0.441187 0.759453
vt 0.394459 0.777799
vt 0.779088 0.915439
vt 0.786834 0.934510
vt 0.418792 0.832547
vt 0.465178 0.803388
vt 0.826646 0.896226
vt 0.831953 0.904837
vt 0.455710 0.882815
vt 0.496975 0.842532
vt 0.870547 0.870878
vt 0.535403 0.875255
vt 0.480013 0.740837
vt 0.727480 0.898154
vt 0.775248 0.896475
vt 0.502719 0.777240
vt 0.823253 0.887049
vt 0.530462 0.809779
vt 0.562469 0.838226
vt 0.598547 0.861820
vt 0.447723 0.613213
vt 0.638522 0.879912
vt 0.451851 0.658176
vt 0.681490 0.892393
vt 0.463031 0.700816
vt 0.617775 0.829212
vt 0.451297 0.567941
vt 0.471794 0.611132
vt 0.652089 0.847794
vt 0.481053 0.651133
vt 0.689482 0.862811
vt 0.495054 0.688149
vt 0.730479 0.873354
vt 0.512775 0.722429
vt 0.774712 0.878555
vt 0.534299 0.753530
vt 0.821671 0.877684
vt 0.559137 0.781646
vt 0.586875 0.807010
vt 0.736317 0.850932
vt 0.776902 0.861703
vt 0.541087 0.704284
vt 0.561740 0.731591
vt 0.821774 0.868455
vt 0.584547 0.756623
vt 0.609330 0.779807
vt 0.636539 0.800965
vt 0.468048 0.569364
vt 0.493590 0.605953
vt 0.666635 0.819864
vt 0.506805 0.641698
vt 0.699632 0.836693
vt 0.522846 0.674288
vt 0.498433 0.563286
vt 0.513419 0.598289
vt 0.654989 0.775903
vt 0.681928 0.795118
vt 0.529733 0.630406
vt 0.711449 0.813387
vt 0.547409 0.659506
vt 0.744416 0.830413
vt 0.566137 0.686288
vt 0.781536 0.846080
vt 0.586257 0.710858
vt 0.823514 0.859637
vt 0.607697 0.733730
vt 0.630429 0.755421
vt 0.588786 0.668256
vt 0.608709 0.690860
vt 0.788055 0.831744
vt 0.826598 0.851353
vt 0.629314 0.712258
vt 0.650668 0.733007
vt 0.673341 0.753172
vt 0.531211 0.588524
vt 0.697910 0.772834
vt 0.550303 0.617573
vt 0.724649 0.792451
vt 0.569474 0.643893
vt 0.754423 0.812053
vt 0.691852 0.732133
vt 0.714651 0.752452
vt 0.568926 0.603345
vt 0.739147 0.773467
vt 0.589601 0.627421
vt 0.766124 0.795448
vt 0.609677 0.649959
vt 0.796351 0.818775
vt 0.629742 0.671186
vt 0.830967 0.843790
vt 0.649969 0.691652
vt 0.670479 0.711927
vt 0.511629 0.556332
vt 0.547319 0.576971
vt 0.836576 0.837173
vt 0.649870 0.651447
vt 0.670140 0.671439
vt 0.690265 0.691668
vt 0.710811 0.712286
vt 0.523936 0.547628
vt 0.561861 0.563816
vt 0.732308 0.733543
vt 0.585901 0.587759
vt 0.754962 0.756128
vt 0.608212 0.609964
vt 0.779425 0.780490
vt 0.629306 0.631129
vt 0.806259 0.807172
vt 0.772210 0.740219
vt 0.601426 0.570754
vt 0.625614 0.591310
vt 0.794276 0.767060
vt 0.648064 0.611447
vt 0.817804 0.797193
vt 0.669526 0.631247
vt 0.843203 0.831578
vt 0.690264 0.651182
vt 0.710427 0.671792
vt 0.730554 0.693229
vt 0.545659 0.525990
vt 0.575059 0.549268
vt 0.751118 0.715782
vt 0.850707 0.827138
vt 0.731399 0.651893
vt 0.751478 0.674623
vt 0.586578 0.533113
vt 0.771405 0.698925
vt 0.615580 0.552121
vt 0.791116 0.725619
vt 0.642023 0.571150
vt 0.810881 0.755242
vt 0.666272 0.590522
vt 0.830623 0.788676
vt 0.689103 0.610154
vt 0.710773 0.630444
vt 0.628325 0.531580
vt 0.657561 0.549065
vt 0.811945 0.712319
vt 0.829175 0.745099
vt 0.684197 0.567863
vt 0.844932 0.782057
vt 0.708987 0.587656
vt 0.858955 0.823977
vt 0.732135 0.608745
vt 0.753687 0.631565
vt 0.774072 0.656173
vt 0.554418 0.513722
vt 0.596321 0.515278
vt 0.793588 0.682816
vt 0.777913 0.610373
vt 0.798972 0.637613
vt 0.565721 0.485973
vt 0.603974 0.495659
vt 0.818233 0.667372
vt 0.639508 0.508735
vt 0.835126 0.700405
vt 0.672262 0.524491
vt 0.849470 0.736849
vt 0.702072 0.542829
vt 0.860621 0.777422
vt 0.729587 0.563116
vt 0.867746 0.822167
vt 0.754892 0.585520
vt 0.861179 0.690140
vt 0.871939 0.730862
vt 0.720103 0.514558
vt 0.877389 0.775090
vt 0.751376 0.535699
vt 0.876963 0.821988
vt 0.779726 0.560064
vt 0.804893 0.587813
vt 0.827025 0.618697
vt 0.567512 0.470103
vt 0.609082 0.473951
vt 0.846093 0.652623
vt 0.648823 0.483024
vt 0.686055 0.496665
vt 0.859417 0.599207
vt 0.611083 0.449612
vt 0.878179 0.638766
vt 0.655731 0.453724
vt 0.890787 0.682019
vt 0.698696 0.464559
vt 0.896812 0.727716
vt 0.738463 0.481846
vt 0.895402 0.775514
vt 0.774937 0.504269
vt 0.886307 0.823459
vt 0.807520 0.531457
vt 0.835736 0.563257
vt 0.757290 0.442887
vt 0.914263 0.779183
vt 0.801070 0.467242
vt 0.895502 0.826778
vt 0.839421 0.498515
vt 0.871995 0.535855
vt 0.897940 0.578937
vt 0.561143 0.436095
vt 0.609035 0.423235
vt 0.915841 0.626305
vt 0.659288 0.420077
vt 0.924843 0.676907
vt 0.709608 0.426852
vt 0.924182 0.728288
vt 0.945876 0.557580
vt 0.552223 0.418686
vt 0.601673 0.394901
vt 0.960572 0.616457
vt 0.657958 0.380662
vt 0.964715 0.676258
vt 0.717519 0.382067
vt 0.953769 0.733869
vt 0.776792 0.394351
vt 0.933574 0.786724
vt 0.831049 0.422414
vt 0.904151 0.832023
vt 0.876673 0.459955
vt 0.915826 0.504273
vt 0.239771 0.016178
vt 0.195450 0.056639
vt 0.187837 0.037886
vt 0.553347 0.141369
vt 0.530171 0.214181
vt 0.506676 0.170032
vt 0.148619 0.075005
vt 0.143516 0.066512
vt 0.516936 0.090722
vt 0.475299 0.130606
vt 0.437206 0.097569
vt 0.467915 0.052138
vt 0.393994 0.072122
vt 0.413976 0.025930
vt 0.577602 0.369684
vt 0.535332 0.409802
vt 0.548432 0.362179
vt 0.356518 0.009061
vt 0.346623 0.054613
vt 0.551703 0.311824
vt 0.589666 0.313384
vt 0.296734 0.045862
vt 0.297278 0.007466
vt 0.591185 0.254386
vt 0.545434 0.262023
vt 0.245390 0.046339
vt 0.577074 0.196374
vt 0.374073 0.110471
vt 0.334359 0.092157
vt 0.518325 0.315153
vt 0.291662 0.079493
vt 0.507678 0.272487
vt 0.246040 0.073620
vt 0.491184 0.232346
vt 0.199134 0.075190
vt 0.468909 0.195760
vt 0.151844 0.084044
vt 0.441543 0.162997
vt 0.409865 0.134308
vt 0.518096 0.404722
vt 0.521889 0.359965
vt 0.199505 0.092795
vt 0.153296 0.093258
vt 0.437139 0.219095
vt 0.412652 0.190789
vt 0.385239 0.165225
vt 0.354644 0.142822
vt 0.501334 0.403243
vt 0.497799 0.361779
vt 0.320630 0.124054
vt 0.489083 0.321842
vt 0.283563 0.108878
vt 0.475562 0.284765
vt 0.242986 0.098238
vt 0.458276 0.250361
vt 0.463290 0.330972
vt 0.273305 0.134748
vt 0.447677 0.298282
vt 0.237072 0.120471
vt 0.429829 0.268154
vt 0.197132 0.109486
vt 0.409532 0.240687
vt 0.153024 0.102304
vt 0.387058 0.215482
vt 0.362598 0.192120
vt 0.335707 0.170785
vt 0.485437 0.404951
vt 0.475989 0.366746
vt 0.305941 0.151723
vt 0.384859 0.261093
vt 0.363740 0.238050
vt 0.151274 0.110989
vt 0.341330 0.216189
vt 0.317100 0.195540
vt 0.470924 0.409177
vt 0.456273 0.374223
vt 0.290520 0.176172
vt 0.440333 0.341988
vt 0.261389 0.157735
vt 0.423018 0.312749
vt 0.228892 0.140519
vt 0.404649 0.285825
vt 0.192461 0.124811
vt 0.248077 0.178355
vt 0.419704 0.354576
vt 0.400834 0.328061
vt 0.218804 0.158620
vt 0.381866 0.303558
vt 0.185778 0.138896
vt 0.362250 0.280776
vt 0.148046 0.119054
vt 0.341960 0.259197
vt 0.320928 0.238277
vt 0.298591 0.217943
vt 0.457592 0.416087
vt 0.438418 0.383782
vt 0.274420 0.198150
vt 0.143641 0.126428
vt 0.300959 0.259019
vt 0.279906 0.238625
vt 0.445170 0.424848
vt 0.422140 0.395129
vt 0.257590 0.218232
vt 0.401013 0.368590
vt 0.233464 0.196998
vt 0.380551 0.344221
vt 0.207043 0.174940
vt 0.360837 0.321591
vt 0.177359 0.151530
vt 0.341046 0.300141
vt 0.321141 0.279468
vt 0.434324 0.436216
vt 0.403323 0.485454
vt 0.403220 0.518136
vt 0.416256 0.553953
vt 0.483993 0.567579
vt 0.534495 0.536484
vt 0.561401 0.500476
vt 0.566124 0.453676
vt 0.361406 0.958047
vt 0.363235 0.817618
vt 0.432535 0.888747
vt 0.292106 0.886918
vt 0.293935 0.746488
vt 0.222806 0.815788
vt 0.224635 0.675359
vt 0.153506 0.744659
vt 0.155335 0.604230
vt 0.295765 0.606059
vt 0.365065 0.677188
vt 0.151676 0.885088
vt 0.084206 0.673530
vt 0.082376 0.813959
vt 0.595306 0.107858
vt 0.694613 0.207165
vt 0.595306 0.207165
vt 0.694613 0.107858
vt 0.793920 0.207165
vt 0.793920 0.107858
vt 0.893227 0.207165
vt 0.893227 0.107858
vt 0.992534 0.207165
vt 0.893227 0.306472
vt 0.793920 0.306472
vt 0.793920 0.008551
vt 0.992534 0.107858
vt 0.893227 0.008551
s 1
usemtl material
f 446/1/1 16/2/1 17/3/1
f 443/4/2 10/5/2 2/6/2
f 446/1/3 18/7/3 447/8/3
f 444/9/4 10/5/4 11/10/4
f 447/8/5 19/11/5 448/12/5
f 3/13/6 11/10/6 12/14/6
f 448/12/7 20/15/7 449/16/7
f 3/13/8 13/17/8 4/18/9
f 287/19/10 449/16/10 20/15/10
f 4/18/11 14/20/11 5/21/12
f 5/21/13 15/22/13 445/23/13
f 1/24/14 7/25/14 8/26/14
f 445/23/15 16/2/15 6/27/15
f 443/4/16 8/26/16 9/28/16
f 16/2/17 29/29/17 30/30/17
f 8/26/18 23/31/18 9/28/18
f 17/3/19 30/30/19 31/32/19
f 9/28/20 24/33/20 10/5/20
f 18/7/21 31/32/21 32/34/21
f 10/5/22 25/35/22 11/10/22
f 19/11/23 32/34/23 33/36/23
f 12/14/24 25/35/24 26/37/24
f 19/11/25 34/38/26 20/15/26
f 12/14/27 27/39/27 13/17/27
f 287/19/28 20/15/28 34/38/28
f 13/17/29 28/40/29 14/20/29
f 14/20/30 29/29/30 15/22/30
f 7/25/31 22/41/31 8/26/31
f 34/38/32 47/42/32 48/43/32
f 27/39/33 40/44/33 41/45/33
f 287/19/34 34/38/34 48/43/34
f 27/39/35 42/46/35 28/40/35
f 28/40/36 43/47/36 29/29/36
f 21/48/37 36/49/37 22/41/37
f 30/30/38 43/47/38 44/50/38
f 22/41/39 37/51/39 23/31/39
f 31/32/40 44/50/40 45/52/40
f 23/31/41 38/53/41 24/33/41
f 32/34/42 45/52/42 46/54/42
f 24/33/43 39/55/43 25/35/43
f 33/36/44 46/54/44 47/42/44
f 26/37/45 39/55/45 40/44/45
f 36/49/46 51/56/46 37/51/46
f 44/50/47 59/57/47 45/52/47
f 38/53/48 51/56/48 52/58/48
f 46/54/49 59/57/49 60/59/49
f 38/53/50 53/60/50 39/55/50
f 47/42/51 60/59/51 61/61/51
f 40/44/52 53/60/52 54/62/52
f 48/43/53 61/61/54 62/63/53
f 41/45/55 54/62/55 55/64/55
f 287/19/56 48/43/56 62/63/56
f 41/45/57 56/65/57 42/46/58
f 42/46/59 57/66/59 43/47/59
f 35/67/60 50/68/60 36/49/60
f 44/50/61 57/66/61 58/69/61
f 55/64/62 68/70/62 69/71/62
f 287/19/63 62/63/63 76/72/63
f 55/64/64 70/73/64 56/65/64
f 56/65/65 71/74/65 57/66/65
f 50/68/66 63/75/66 64/76/66
f 58/69/67 71/74/67 72/77/67
f 50/68/68 65/78/68 51/56/68
f 58/69/69 73/79/69 59/57/69
f 52/58/70 65/78/70 66/80/70
f 60/59/71 73/79/71 74/81/71
f 52/58/72 67/82/72 53/60/72
f 60/59/73 75/83/73 61/61/73
f 54/62/74 67/82/74 68/70/74
f 61/61/75 76/72/75 62/63/75
f 72/77/76 87/84/76 73/79/76
f 66/80/77 79/85/77 80/86/77
f 74/81/78 87/84/78 88/87/78
f 66/80/79 81/88/79 67/82/79
f 75/83/80 88/87/80 89/89/80
f 68/70/81 81/88/81 82/90/81
f 76/72/82 89/89/82 90/91/82
f 69/71/83 82/90/83 83/92/84
f 287/19/85 76/72/85 90/91/85
f 69/71/86 84/93/86 70/73/86
f 70/73/87 85/94/87 71/74/87
f 63/75/88 78/95/88 64/76/88
f 72/77/89 85/94/89 86/96/89
f 64/76/90 79/85/90 65/78/90
f 287/19/91 90/91/91 104/97/91
f 83/92/92 98/98/92 84/93/92
f 84/93/93 99/99/93 85/94/93
f 78/95/94 91/100/94 92/101/94
f 86/96/95 99/99/95 100/102/95
f 78/95/96 93/103/96 79/85/96
f 86/96/97 101/104/97 87/84/97
f 80/86/98 93/103/98 94/105/98
f 88/87/99 101/104/99 102/106/99
f 80/86/100 95/107/100 81/88/100
f 88/87/101 103/108/101 89/89/101
f 82/90/102 95/107/102 96/109/102
f 89/89/103 104/97/103 90/91/104
f 83/92/105 96/109/105 97/110/105
f 102/106/106 115/111/106 116/112/106
f 94/105/107 109/113/107 95/107/107
f 103/108/108 116/112/108 117/114/108
f 96/109/109 109/113/109 110/115/109
f 103/108/110 118/116/110 104/97/110
f 97/110/111 110/115/111 111/117/112
f 287/19/113 104/97/113 118/116/113
f 97/110/114 112/118/114 98/98/114
f 98/98/115 113/119/115 99/99/115
f 91/100/116 106/120/116 92/101/116
f 100/102/117 113/119/117 114/121/117
f 92/101/118 107/122/118 93/103/118
f 100/102/119 115/111/119 101/104/119
f 94/105/120 107/122/120 108/123/120
f 112/124/121 127/125/121 113/126/121
f 106/127/122 119/128/122 120/129/122
f 114/130/123 127/125/123 128/131/123
f 106/127/124 121/132/124 107/133/124
f 114/130/125 129/134/125 115/135/125
f 108/136/126 121/132/126 122/137/126
f 116/138/127 129/134/127 130/139/127
f 108/136/128 123/140/128 109/141/128
f 116/138/129 131/142/129 117/143/129
f 110/144/130 123/140/130 124/145/130
f 117/143/131 132/146/131 118/147/131
f 111/148/132 124/145/132 125/149/133
f 287/150/134 118/147/134 132/146/134
f 111/148/135 126/151/135 112/124/136
f 122/137/137 137/152/137 123/140/137
f 131/142/138 144/153/138 145/154/138
f 124/145/139 137/152/139 138/155/139
f 131/142/140 146/156/140 132/146/140
f 125/149/141 138/155/141 139/157/141
f 287/150/142 132/146/142 146/156/142
f 125/149/143 140/158/143 126/151/143
f 126/151/144 141/159/144 127/125/144
f 119/128/145 134/160/145 120/129/145
f 128/131/146 141/159/146 142/161/146
f 120/129/147 135/162/147 121/132/147
f 128/131/148 143/163/148 129/134/148
f 122/137/149 135/162/149 136/164/149
f 130/139/150 143/163/150 144/153/150
f 140/158/151 155/165/151 141/159/151
f 133/166/152 148/167/152 134/160/152
f 142/161/153 155/165/153 156/168/153
f 134/160/154 149/169/154 135/162/154
f 142/161/155 157/170/155 143/163/155
f 136/164/156 149/169/156 150/171/156
f 144/153/157 157/170/157 158/172/157
f 136/164/158 151/173/158 137/152/158
f 145/154/159 158/172/159 159/174/159
f 138/155/160 151/173/160 152/175/160
f 146/156/161 159/174/161 160/176/161
f 139/157/162 152/175/162 153/177/162
f 287/150/163 146/156/163 160/176/163
f 139/157/164 154/178/164 140/158/164
f 159/174/165 172/179/165 173/180/165
f 152/175/166 165/181/166 166/182/166
f 160/176/167 173/180/167 174/183/167
f 153/177/168 166/182/168 167/184/169
f 287/150/170 160/176/170 174/183/170
f 153/177/171 168/185/171 154/178/171
f 154/178/172 169/186/172 155/165/172
f 147/187/173 162/188/173 148/167/173
f 156/168/174 169/186/174 170/189/174
f 148/167/175 163/190/175 149/169/175
f 156/168/176 171/191/176 157/170/176
f 150/171/177 163/190/177 164/192/177
f 158/172/178 171/191/178 172/179/178
f 150/171/179 165/181/179 151/173/179
f 162/188/180 175/193/180 176/194/180
f 170/189/181 183/195/181 184/196/181
f 162/188/182 177/197/182 163/190/182
f 170/189/183 185/198/183 171/191/183
f 164/192/184 177/197/184 178/199/184
f 172/179/185 185/198/185 186/200/185
f 164/192/186 179/201/186 165/181/186
f 172/179/187 187/202/187 173/180/187
f 166/182/188 179/201/188 180/203/188
f 173/180/189 188/204/189 174/183/189
f 167/184/190 180/203/190 181/205/191
f 287/150/192 174/183/192 188/204/192
f 167/184/193 182/206/193 168/185/194
f 168/185/195 183/195/195 169/186/195
f 180/203/196 193/207/196 194/208/196
f 188/204/197 201/209/197 202/210/197
f 181/205/198 194/208/198 195/211/198
f 287/150/199 188/204/199 202/210/199
f 181/205/200 196/212/200 182/206/200
f 182/206/201 197/213/201 183/195/201
f 175/193/202 190/214/202 176/194/202
f 184/196/203 197/213/203 198/215/203
f 176/194/204 191/216/204 177/197/204
f 184/196/205 199/217/205 185/198/205
f 178/199/206 191/216/206 192/218/206
f 186/200/207 199/217/207 200/219/207
f 178/199/208 193/207/208 179/201/208
f 187/202/209 200/219/210 201/209/209
f 198/215/211 211/220/211 212/221/211
f 190/214/212 205/222/212 191/216/212
f 198/215/213 213/223/213 199/217/213
f 192/218/214 205/222/214 206/224/214
f 200/219/215 213/223/215 214/225/215
f 192/218/216 207/226/216 193/207/216
f 201/209/217 214/225/217 215/227/217
f 194/208/218 207/226/218 208/228/218
f 202/210/219 215/227/220 216/229/219
f 195/211/221 208/228/221 209/230/221
f 287/150/222 202/210/222 216/229/222
f 195/211/223 210/231/223 196/212/223
f 196/212/224 211/220/224 197/213/224
f 189/232/225 204/233/225 190/214/225
f 215/227/226 230/234/226 216/229/226
f 209/230/227 222/235/227 223/236/227
f 287/150/228 216/229/228 230/234/228
f 209/230/229 224/237/229 210/231/230
f 210/231/231 225/238/231 211/220/231
f 203/239/232 218/240/232 204/233/232
f 212/221/233 225/238/233 226/241/233
f 204/233/234 219/242/234 205/222/234
f 212/221/235 227/243/235 213/223/235
f 206/224/236 219/242/236 220/244/236
f 214/225/237 227/243/237 228/245/237
f 206/224/238 221/246/238 207/226/238
f 215/227/239 228/245/239 229/247/239
f 208/228/240 221/246/240 222/235/240
f 226/241/241 241/248/241 227/243/241
f 220/244/242 233/249/242 234/250/242
f 228/245/243 241/248/243 242/251/243
f 220/244/244 235/252/244 221/246/244
f 228/245/245 243/253/245 229/247/245
f 222/235/246 235/252/246 236/254/246
f 229/247/247 244/255/247 230/234/247
f 223/236/248 236/254/248 237/256/249
f 287/150/250 230/234/250 244/255/250
f 223/236/251 238/257/251 224/237/252
f 224/237/253 239/258/253 225/238/253
f 218/240/254 231/259/254 232/260/254
f 226/241/255 239/258/255 240/261/255
f 218/240/256 233/249/256 219/242/256
f 287/150/257 244/255/257 258/262/257
f 237/256/258 252/263/258 238/257/259
f 238/257/260 253/264/260 239/258/260
f 231/259/261 246/265/261 232/260/261
f 240/261/262 253/264/263 254/266/262
f 232/260/264 247/267/264 233/249/264
f 240/261/265 255/268/265 241/248/265
f 234/250/266 247/267/266 248/269/266
f 242/251/267 255/268/267 256/270/267
f 234/250/268 249/271/269 235/252/269
f 243/253/270 256/270/270 257/272/270
f 236/254/271 249/271/271 250/273/271
f 243/253/272 258/262/273 244/255/273
f 237/256/274 250/273/274 251/274/275
f 248/269/276 261/275/276 262/276/276
f 256/270/277 269/277/277 270/278/277
f 248/269/278 263/279/278 249/271/278
f 256/270/279 271/280/279 257/272/280
f 250/273/281 263/279/281 264/281/281
f 257/272/282 272/282/282 258/262/282
f 251/274/283 264/281/283 265/283/283
f 287/150/284 258/262/284 272/282/284
f 251/274/285 266/284/285 252/263/285
f 252/263/286 267/285/286 253/264/286
f 245/286/287 260/287/287 246/265/288
f 254/266/289 267/285/289 268/288/289
f 246/265/290 261/275/290 247/267/290
f 254/266/291 269/277/291 255/268/291
f 265/283/292 280/289/292 266/284/292
f 266/284/293 281/290/293 267/285/293
f 260/287/294 273/291/294 274/292/294
f 268/288/295 281/290/295 282/293/295
f 260/287/296 275/294/296 261/275/296
f 268/288/297 283/295/297 269/277/297
f 262/276/298 275/294/298 276/296/298
f 270/278/299 283/295/299 284/297/299
f 262/276/300 277/298/300 263/279/300
f 270/278/301 285/299/301 271/280/301
f 264/281/302 277/298/302 278/300/302
f 272/282/303 285/299/304 286/301/303
f 265/283/305 278/300/305 279/302/305
f 287/150/306 272/282/306 286/301/306
f 284/297/307 298/303/307 299/304/307
f 276/296/308 292/305/308 277/298/308
f 284/297/309 300/306/309 285/299/309
f 278/300/310 292/305/310 293/307/310
f 285/299/311 301/308/311 286/301/312
f 279/302/313 293/307/313 294/309/313
f 287/150/314 286/301/314 301/308/314
f 279/302/315 295/310/315 280/289/315
f 280/289/316 296/311/316 281/290/316
f 274/292/317 288/312/317 289/313/317
f 282/293/318 296/311/318 297/314/318
f 274/292/319 290/315/319 275/294/319
f 282/293/320 298/303/320 283/295/320
f 276/296/321 290/315/321 291/316/321
f 295/310/322 310/317/322 296/311/322
f 288/312/323 303/318/323 289/313/323
f 297/314/324 310/317/324 311/319/324
f 289/313/325 304/320/325 290/315/325
f 297/314/326 312/321/326 298/303/326
f 291/316/327 304/320/327 305/322/327
f 299/304/328 312/321/328 313/323/328
f 291/316/329 306/324/329 292/305/329
f 299/304/330 314/325/331 300/306/331
f 293/307/332 306/324/332 307/326/332
f 301/308/333 314/325/333 315/327/333
f 294/309/334 307/326/334 308/328/334
f 287/150/335 301/308/335 315/327/335
f 294/309/336 309/329/336 295/310/336
f 305/322/337 320/330/337 306/324/337
f 313/323/338 328/331/338 314/325/338
f 307/326/339 320/330/339 321/332/339
f 315/327/340 328/331/340 329/333/340
f 308/328/341 321/332/341 322/334/341
f 287/150/342 315/327/342 329/333/342
f 308/328/343 323/335/343 309/329/343
f 309/329/344 324/336/344 310/317/344
f 303/318/345 316/337/345 317/338/345
f 311/319/346 324/336/346 325/339/346
f 303/318/347 318/340/347 304/320/347
f 311/319/348 326/341/348 312/321/348
f 305/322/349 318/340/349 319/342/349
f 313/323/350 326/341/350 327/343/350
f 323/335/351 338/344/351 324/336/351
f 317/338/352 330/345/352 331/346/352
f 325/339/353 338/344/353 339/347/353
f 317/338/354 332/348/354 318/340/354
f 325/339/355 340/349/355 326/341/355
f 319/342/356 332/348/356 333/350/356
f 327/343/357 340/349/357 341/351/357
f 319/342/358 334/352/358 320/330/358
f 327/343/359 342/353/359 328/331/359
f 321/332/360 334/352/360 335/354/360
f 329/333/361 342/353/361 343/355/361
f 322/334/362 335/354/362 336/356/362
f 287/150/363 329/333/363 343/355/363
f 322/334/364 337/357/364 323/335/364
f 341/358/365 356/359/365 342/360/365
f 335/361/366 348/362/366 349/363/366
f 342/360/367 357/364/367 343/365/367
f 336/366/368 349/363/368 350/367/368
f 287/19/369 343/365/369 357/364/369
f 336/366/370 351/368/370 337/369/370
f 337/369/371 352/370/371 338/371/371
f 331/372/372 344/373/372 345/374/372
f 339/375/373 352/370/373 353/376/373
f 331/372/374 346/377/374 332/378/374
f 339/375/375 354/379/375 340/380/375
f 333/381/376 346/377/376 347/382/376
f 341/358/377 354/379/377 355/383/377
f 333/381/378 348/362/378 334/384/378
f 353/376/379 366/385/380 367/386/379
f 345/374/381 360/387/381 346/377/381
f 353/376/382 368/388/382 354/379/382
f 347/382/383 360/387/383 361/389/383
f 355/383/384 368/388/384 369/390/384
f 347/382/385 362/391/386 348/362/386
f 355/383/387 370/392/387 356/359/387
f 349/363/388 362/391/388 363/393/388
f 356/359/389 371/394/389 357/364/389
f 350/367/390 363/393/390 364/395/390
f 287/19/391 357/364/391 371/394/391
f 350/367/392 365/396/392 351/368/392
f 351/368/393 366/385/393 352/370/393
f 345/374/394 358/397/394 359/398/394
f 371/394/395 384/399/395 385/400/395
f 364/395/396 377/401/396 378/402/396
f 287/19/397 371/394/397 385/400/397
f 364/395/398 379/403/398 365/396/398
f 365/396/399 380/404/399 366/385/399
f 359/398/400 372/405/401 373/406/400
f 367/386/402 380/404/402 381/407/402
f 359/398/403 374/408/403 360/387/403
f 367/386/404 382/409/404 368/388/404
f 361/389/405 374/408/405 375/410/405
f 369/390/406 382/409/406 383/411/406
f 361/389/407 376/412/407 362/391/407
f 369/390/408 384/399/409 370/392/409
f 363/393/410 376/412/410 377/401/410
f 373/406/411 388/413/411 374/408/411
f 381/407/412 396/414/412 382/409/412
f 375/410/413 388/413/413 389/415/413
f 383/411/414 396/414/414 397/416/414
f 375/410/415 390/417/415 376/412/415
f 383/411/416 398/418/416 384/399/416
f 377/401/417 390/417/417 391/419/417
f 384/399/418 399/420/419 385/400/419
f 378/402/420 391/419/420 392/421/420
f 287/19/421 385/400/421 399/420/421
f 378/402/422 393/422/422 379/403/422
f 379/403/423 394/423/423 380/404/423
f 373/406/424 386/424/424 387/425/424
f 381/407/425 394/423/425 395/426/425
f 392/421/426 405/427/426 406/428/426
f 287/19/427 399/420/427 413/429/427
f 392/421/428 407/430/428 393/422/428
f 393/422/429 408/431/429 394/423/429
f 387/425/430 400/432/430 401/433/430
f 395/426/431 408/431/431 409/434/431
f 387/425/432 402/435/432 388/413/432
f 395/426/433 410/436/433 396/414/433
f 389/415/434 402/435/434 403/437/434
f 397/416/435 410/436/435 411/438/435
f 389/415/436 404/439/436 390/417/436
f 397/416/437 412/440/437 398/418/437
f 391/419/438 404/439/438 405/427/438
f 399/420/439 412/440/440 413/429/439
f 409/434/441 424/441/441 410/436/441
f 403/437/442 416/442/442 417/443/442
f 411/438/443 424/441/443 425/444/443
f 403/437/444 418/445/444 404/439/444
f 411/438/445 426/446/445 412/440/445
f 405/427/446 418/445/446 419/447/446
f 412/440/447 427/448/448 413/429/448
f 406/428/449 419/447/449 420/449/449
f 287/19/450 413/429/450 427/448/450
f 406/428/451 421/450/451 407/430/451
f 407/430/452 422/451/452 408/431/452
f 401/433/453 414/452/453 415/453/453
f 409/434/454 422/451/454 423/454/454
f 401/433/455 416/442/455 402/435/455
f 287/19/456 427/448/456 441/455/456
f 420/449/457 435/456/457 421/450/457
f 421/450/458 436/457/458 422/451/458
f 415/453/459 428/458/459 429/459/459
f 423/454/460 436/457/460 437/460/460
f 415/453/461 430/461/461 416/442/461
f 423/454/462 438/462/462 424/441/462
f 417/443/463 430/461/463 431/463/463
f 425/444/464 438/462/464 439/464/464
f 417/443/465 432/465/465 418/445/465
f 425/444/466 440/466/466 426/446/466
f 419/447/467 432/465/467 433/467/467
f 427/448/468 440/466/469 441/455/468
f 420/449/470 433/467/470 434/468/470
f 431/463/471 443/4/471 2/6/471
f 439/464/472 446/1/472 447/8/472
f 432/465/473 2/6/473 444/9/473
f 439/464/474 448/12/474 440/466/474
f 433/467/475 444/9/475 3/13/475
f 440/466/476 449/16/476 441/455/476
f 434/468/477 3/13/477 4/18/478
f 287/19/479 441/455/479 449/16/479
f 434/468/480 5/21/480 435/456/480
f 435/456/481 445/23/481 436/457/481
f 429/459/482 442/469/482 1/24/482
f 436/457/483 6/27/483 437/460/483
f 430/461/484 1/24/484 443/4/484
f 437/460/485 446/1/485 438/462/485
f 446/1/1 6/27/1 16/2/1
f 443/4/2 9/28/2 10/5/2
f 446/1/3 17/3/3 18/7/3
f 444/9/4 2/6/4 10/5/4
f 447/8/5 18/7/5 19/11/5
f 3/13/6 444/9/6 11/10/6
f 448/12/7 19/11/7 20/15/7
f 3/13/8 12/14/8 13/17/8
f 4/18/11 13/17/486 14/20/11
f 5/21/13 14/20/13 15/22/13
f 1/24/14 442/469/14 7/25/14
f 445/23/15 15/22/15 16/2/15
f 443/4/16 1/24/16 8/26/16
f 16/2/17 15/22/17 29/29/17
f 8/26/18 22/41/18 23/31/18
f 17/3/19 16/2/19 30/30/19
f 9/28/20 23/31/20 24/33/20
f 18/7/21 17/3/21 31/32/21
f 10/5/22 24/33/22 25/35/22
f 19/11/23 18/7/23 32/34/23
f 12/14/24 11/10/24 25/35/24
f 19/11/25 33/36/25 34/38/26
f 12/14/27 26/37/27 27/39/27
f 13/17/29 27/39/29 28/40/29
f 14/20/30 28/40/30 29/29/30
f 7/25/31 21/48/31 22/41/31
f 34/38/32 33/36/487 47/42/32
f 27/39/33 26/37/33 40/44/33
f 27/39/35 41/45/35 42/46/35
f 28/40/36 42/46/36 43/47/36
f 21/48/37 35/67/37 36/49/37
f 30/30/38 29/29/38 43/47/38
f 22/41/39 36/49/39 37/51/39
f 31/32/40 30/30/40 44/50/40
f 23/31/41 37/51/41 38/53/41
f 32/34/42 31/32/42 45/52/42
f 24/33/43 38/53/43 39/55/43
f 33/36/44 32/34/44 46/54/44
f 26/37/45 25/35/45 39/55/45
f 36/49/46 50/68/46 51/56/46
f 44/50/47 58/69/47 59/57/47
f 38/53/48 37/51/48 51/56/48
f 46/54/49 45/52/49 59/57/49
f 38/53/50 52/58/50 53/60/50
f 47/42/51 46/54/51 60/59/51
f 40/44/52 39/55/52 53/60/52
f 48/43/53 47/42/54 61/61/54
f 41/45/55 40/44/488 54/62/55
f 41/45/57 55/64/57 56/65/57
f 42/46/59 56/65/59 57/66/59
f 35/67/60 49/470/60 50/68/60
f 44/50/61 43/47/61 57/66/61
f 55/64/62 54/62/62 68/70/62
f 55/64/64 69/71/64 70/73/64
f 56/65/65 70/73/65 71/74/65
f 50/68/66 49/470/66 63/75/66
f 58/69/67 57/66/67 71/74/67
f 50/68/68 64/76/68 65/78/68
f 58/69/69 72/77/69 73/79/69
f 52/58/70 51/56/70 65/78/70
f 60/59/71 59/57/71 73/79/71
f 52/58/72 66/80/72 67/82/72
f 60/59/73 74/81/73 75/83/73
f 54/62/74 53/60/74 67/82/74
f 61/61/75 75/83/75 76/72/75
f 72/77/76 86/96/76 87/84/76
f 66/80/77 65/78/77 79/85/77
f 74/81/78 73/79/78 87/84/78
f 66/80/79 80/86/79 81/88/79
f 75/83/80 74/81/80 88/87/80
f 68/70/81 67/82/81 81/88/81
f 76/72/82 75/83/82 89/89/82
f 69/71/83 68/70/83 82/90/83
f 69/71/86 83/92/489 84/93/86
f 70/73/87 84/93/87 85/94/87
f 63/75/88 77/471/88 78/95/88
f 72/77/89 71/74/89 85/94/89
f 64/76/90 78/95/90 79/85/90
f 83/92/92 97/110/92 98/98/92
f 84/93/93 98/98/93 99/99/93
f 78/95/94 77/471/94 91/100/94
f 86/96/95 85/94/95 99/99/95
f 78/95/96 92/101/96 93/103/96
f 86/96/97 100/102/97 101/104/97
f 80/86/98 79/85/98 93/103/98
f 88/87/99 87/84/99 101/104/99
f 80/86/100 94/105/100 95/107/100
f 88/87/101 102/106/101 103/108/101
f 82/90/102 81/88/102 95/107/102
f 89/89/103 103/108/103 104/97/103
f 83/92/105 82/90/105 96/109/105
f 102/106/106 101/104/106 115/111/106
f 94/105/107 108/123/107 109/113/107
f 103/108/108 102/106/108 116/112/108
f 96/109/109 95/107/109 109/113/109
f 103/108/110 117/114/110 118/116/110
f 97/110/111 96/109/111 110/115/111
f 97/110/114 111/117/490 112/118/114
f 98/98/115 112/118/115 113/119/115
f 91/100/116 105/472/116 106/120/116
f 100/102/117 99/99/117 113/119/117
f 92/101/118 106/120/118 107/122/118
f 100/102/119 114/121/119 115/111/119
f 94/105/120 93/103/120 107/122/120
f 112/124/121 126/151/121 127/125/121
f 106/127/122 105/472/122 119/128/122
f 114/130/123 113/126/123 127/125/123
f 106/127/124 120/129/124 121/132/124
f 114/130/125 128/131/125 129/134/125
f 108/136/126 107/133/126 121/132/126
f 116/138/127 115/135/127 129/134/127
f 108/136/128 122/137/128 123/140/128
f 116/138/129 130/139/129 131/142/129
f 110/144/130 109/141/130 123/140/130
f 117/143/131 131/142/131 132/146/131
f 111/148/132 110/144/491 124/145/132
f 111/148/135 125/149/492 126/151/135
f 122/137/137 136/164/137 137/152/137
f 131/142/138 130/139/138 144/153/138
f 124/145/139 123/140/139 137/152/139
f 131/142/140 145/154/140 146/156/140
f 125/149/141 124/145/141 138/155/141
f 125/149/143 139/157/143 140/158/143
f 126/151/144 140/158/144 141/159/144
f 119/128/145 133/166/145 134/160/145
f 128/131/146 127/125/146 141/159/146
f 120/129/147 134/160/147 135/162/147
f 128/131/148 142/161/148 143/163/148
f 122/137/149 121/132/149 135/162/149
f 130/139/150 129/134/150 143/163/150
f 140/158/151 154/178/151 155/165/151
f 133/166/152 147/187/152 148/167/152
f 142/161/153 141/159/153 155/165/153
f 134/160/154 148/167/154 149/169/154
f 142/161/155 156/168/155 157/170/155
f 136/164/156 135/162/156 149/169/156
f 144/153/157 143/163/157 157/170/157
f 136/164/158 150/171/158 151/173/158
f 145/154/159 144/153/493 158/172/159
f 138/155/160 137/152/160 151/173/160
f 146/156/161 145/154/161 159/174/161
f 139/157/162 138/155/162 152/175/162
f 139/157/164 153/177/164 154/178/164
f 159/174/165 158/172/165 172/179/165
f 152/175/166 151/173/166 165/181/166
f 160/176/167 159/174/167 173/180/167
f 153/177/168 152/175/168 166/182/168
f 153/177/171 167/184/171 168/185/171
f 154/178/172 168/185/172 169/186/172
f 147/187/173 161/473/173 162/188/173
f 156/168/174 155/165/174 169/186/174
f 148/167/175 162/188/175 163/190/175
f 156/168/176 170/189/176 171/191/176
f 150/171/177 149/169/177 163/190/177
f 158/172/178 157/170/178 171/191/178
f 150/171/179 164/192/179 165/181/179
f 162/188/180 161/473/180 175/193/180
f 170/189/181 169/186/181 183/195/181
f 162/188/182 176/194/182 177/197/182
f 170/189/183 184/196/183 185/198/183
f 164/192/184 163/190/184 177/197/184
f 172/179/185 171/191/185 185/198/185
f 164/192/186 178/199/186 179/201/186
f 172/179/187 186/200/187 187/202/187
f 166/182/188 165/181/188 179/201/188
f 173/180/189 187/202/189 188/204/189
f 167/184/190 166/182/190 180/203/190
f 167/184/193 181/205/193 182/206/193
f 168/185/195 182/206/195 183/195/195
f 180/203/196 179/201/196 193/207/196
f 188/204/197 187/202/197 201/209/197
f 181/205/198 180/203/198 194/208/198
f 181/205/200 195/211/200 196/212/200
f 182/206/201 196/212/201 197/213/201
f 175/193/202 189/232/202 190/214/202
f 184/196/203 183/195/203 197/213/203
f 176/194/204 190/214/204 191/216/204
f 184/196/205 198/215/205 199/217/205
f 178/199/206 177/197/206 191/216/206
f 186/200/207 185/198/207 199/217/207
f 178/199/208 192/218/208 193/207/208
f 187/202/209 186/200/210 200/219/210
f 198/215/211 197/213/211 211/220/211
f 190/214/212 204/233/212 205/222/212
f 198/215/213 212/221/213 213/223/213
f 192/218/214 191/216/214 205/222/214
f 200/219/215 199/217/215 213/223/215
f 192/218/216 206/224/216 207/226/216
f 201/209/217 200/219/217 214/225/217
f 194/208/218 193/207/218 207/226/218
f 202/210/219 201/209/220 215/227/220
f 195/211/221 194/208/221 208/228/221
f 195/211/223 209/230/223 210/231/223
f 196/212/224 210/231/224 211/220/224
f 189/232/225 203/239/225 204/233/225
f 215/227/226 229/247/226 230/234/226
f 209/230/227 208/228/494 222/235/227
f 209/230/229 223/236/229 224/237/229
f 210/231/231 224/237/231 225/238/231
f 203/239/232 217/474/232 218/240/232
f 212/221/233 211/220/233 225/238/233
f 204/233/234 218/240/234 219/242/234
f 212/221/235 226/241/235 227/243/235
f 206/224/236 205/222/236 219/242/236
f 214/225/237 213/223/237 227/243/237
f 206/224/238 220/244/238 221/246/238
f 215/227/239 214/225/239 228/245/239
f 208/228/240 207/226/240 221/246/240
f 226/241/241 240/261/241 241/248/241
f 220/244/242 219/242/242 233/249/242
f 228/245/243 227/243/243 241/248/243
f 220/244/244 234/250/244 235/252/244
f 228/245/245 242/251/245 243/253/245
f 222/235/246 221/246/246 235/252/246
f 229/247/247 243/253/247 244/255/247
f 223/236/248 222/235/495 236/254/248
f 223/236/251 237/256/496 238/257/251
f 224/237/253 238/257/253 239/258/253
f 218/240/254 217/474/254 231/259/254
f 226/241/255 225/238/255 239/258/255
f 218/240/256 232/260/256 233/249/256
f 237/256/258 251/274/258 252/263/258
f 238/257/260 252/263/260 253/264/260
f 231/259/261 245/286/261 246/265/261
f 240/261/262 239/258/263 253/264/263
f 232/260/264 246/265/264 247/267/264
f 240/261/265 254/266/265 255/268/265
f 234/250/266 233/249/266 247/267/266
f 242/251/267 241/248/267 255/268/267
f 234/250/268 248/269/268 249/271/269
f 243/253/270 242/251/270 256/270/270
f 236/254/271 235/252/271 249/271/271
f 243/253/272 257/272/272 258/262/273
f 237/256/274 236/254/274 250/273/274
f 248/269/276 247/267/276 261/275/276
f 256/270/277 255/268/277 269/277/277
f 248/269/278 262/276/278 263/279/278
f 256/270/279 270/278/279 271/280/279
f 250/273/281 249/271/281 263/279/281
f 257/272/282 271/280/282 272/282/282
f 251/274/283 250/273/283 264/281/283
f 251/274/285 265/283/285 266/284/285
f 252/263/286 266/284/286 267/285/286
f 245/286/287 259/475/287 260/287/287
f 254/266/289 253/264/289 267/285/289
f 246/265/290 260/287/290 261/275/290
f 254/266/291 268/288/291 269/277/291
f 265/283/292 279/302/292 280/289/292
f 266/284/293 280/289/293 281/290/293
f 260/287/294 259/475/294 273/291/294
f 268/288/295 267/285/295 281/290/295
f 260/287/296 274/292/296 275/294/296
f 268/288/297 282/293/297 283/295/297
f 262/276/298 261/275/298 275/294/298
f 270/278/299 269/277/299 283/295/299
f 262/276/300 276/296/300 277/298/300
f 270/278/301 284/297/301 285/299/301
f 264/281/302 263/279/302 277/298/302
f 272/282/303 271/280/304 285/299/304
f 265/283/305 264/281/305 278/300/305
f 284/297/307 283/295/307 298/303/307
f 276/296/308 291/316/308 292/305/308
f 284/297/309 299/304/309 300/306/309
f 278/300/310 277/298/310 292/305/310
f 285/299/311 300/306/311 301/308/311
f 279/302/313 278/300/313 293/307/313
f 279/302/315 294/309/315 295/310/315
f 280/289/316 295/310/316 296/311/316
f 274/292/317 273/291/317 288/312/317
f 282/293/318 281/290/318 296/311/318
f 274/292/319 289/313/319 290/315/319
f 282/293/320 297/314/320 298/303/320
f 276/296/321 275/294/321 290/315/321
f 295/310/322 309/329/322 310/317/322
f 288/312/323 302/476/323 303/318/323
f 297/314/324 296/311/324 310/317/324
f 289/313/325 303/318/325 304/320/325
f 297/314/326 311/319/326 312/321/326
f 291/316/327 290/315/327 304/320/327
f 299/304/328 298/303/328 312/321/328
f 291/316/329 305/322/329 306/324/329
f 299/304/330 313/323/330 314/325/331
f 293/307/332 292/305/332 306/324/332
f 301/308/333 300/306/333 314/325/333
f 294/309/334 293/307/334 307/326/334
f 294/309/336 308/328/336 309/329/336
f 305/322/337 319/342/337 320/330/337
f 313/323/338 327/343/338 328/331/338
f 307/326/339 306/324/339 320/330/339
f 315/327/340 314/325/340 328/331/340
f 308/328/341 307/326/341 321/332/341
f 308/328/343 322/334/343 323/335/343
f 309/329/344 323/335/344 324/336/344
f 303/318/345 302/476/345 316/337/345
f 311/319/346 310/317/346 324/336/346
f 303/318/347 317/338/347 318/340/347
f 311/319/348 325/339/348 326/341/348
f 305/322/349 304/320/349 318/340/349
f 313/323/350 312/321/350 326/341/350
f 323/335/351 337/357/351 338/344/351
f 317/338/352 316/337/352 330/345/352
f 325/339/353 324/336/353 338/344/353
f 317/338/354 331/346/354 332/348/354
f 325/339/355 339/347/355 340/349/355
f 319/342/356 318/340/356 332/348/356
f 327/343/357 326/341/357 340/349/357
f 319/342/358 333/350/358 334/352/358
f 327/343/359 341/351/359 342/353/359
f 321/332/360 320/330/360 334/352/360
f 329/333/361 328/331/361 342/353/361
f 322/334/362 321/332/362 335/354/362
f 322/334/364 336/356/364 337/357/364
f 341/358/365 355/383/365 356/359/365
f 335/361/366 334/384/366 348/362/366
f 342/360/367 356/359/367 357/364/367
f 336/366/368 335/361/368 349/363/368
f 336/366/370 350/367/370 351/368/370
f 337/369/371 351/368/371 352/370/371
f 331/372/372 330/345/372 344/373/372
f 339/375/373 338/371/373 352/370/373
f 331/372/374 345/374/374 346/377/374
f 339/375/375 353/376/375 354/379/375
f 333/381/376 332/378/376 346/377/376
f 341/358/377 340/380/377 354/379/377
f 333/381/378 347/382/378 348/362/378
f 353/376/379 352/370/380 366/385/380
f 345/374/381 359/398/381 360/387/381
f 353/376/382 367/386/382 368/388/382
f 347/382/383 346/377/383 360/387/383
f 355/383/384 354/379/384 368/388/384
f 347/382/385 361/389/385 362/391/386
f 355/383/387 369/390/387 370/392/387
f 349/363/388 348/362/388 362/391/388
f 356/359/389 370/392/389 371/394/389
f 350/367/390 349/363/390 363/393/390
f 350/367/392 364/395/392 365/396/392
f 351/368/393 365/396/393 366/385/393
f 345/374/394 344/373/394 358/397/394
f 371/394/395 370/392/395 384/399/395
f 364/395/396 363/393/396 377/401/396
f 364/395/398 378/402/398 379/403/398
f 365/396/399 379/403/399 380/404/399
f 359/398/400 358/397/401 372/405/401
f 367/386/402 366/385/402 380/404/402
f 359/398/403 373/406/403 374/408/403
f 367/386/404 381/407/404 382/409/404
f 361/389/405 360/387/405 374/408/405
f 369/390/406 368/388/406 382/409/406
f 361/389/407 375/410/407 376/412/407
f 369/390/408 383/411/408 384/399/409
f 363/393/410 362/391/410 376/412/410
f 373/406/411 387/425/411 388/413/411
f 381/407/412 395/426/412 396/414/412
f 375/410/413 374/408/413 388/413/413
f 383/411/414 382/409/414 396/414/414
f 375/410/415 389/415/415 390/417/415
f 383/411/416 397/416/416 398/418/416
f 377/401/417 376/412/417 390/417/417
f 384/399/418 398/418/418 399/420/419
f 378/402/420 377/401/420 391/419/420
f 378/402/422 392/421/422 393/422/422
f 379/403/423 393/422/423 394/423/423
f 373/406/424 372/405/424 386/424/424
f 381/407/425 380/404/425 394/423/425
f 392/421/426 391/419/426 405/427/426
f 392/421/428 406/428/428 407/430/428
f 393/422/429 407/430/429 408/431/429
f 387/425/430 386/424/430 400/432/430
f 395/426/431 394/423/431 408/431/431
f 387/425/432 401/433/432 402/435/432
f 395/426/433 409/434/433 410/436/433
f 389/415/434 388/413/434 402/435/434
f 397/416/435 396/414/435 410/436/435
f 389/415/436 403/437/436 404/439/436
f 397/416/437 411/438/437 412/440/437
f 391/419/438 390/417/438 404/439/438
f 399/420/439 398/418/440 412/440/440
f 409/434/441 423/454/441 424/441/441
f 403/437/442 402/435/442 416/442/442
f 411/438/443 410/436/443 424/441/443
f 403/437/444 417/443/444 418/445/444
f 411/438/445 425/444/445 426/446/445
f 405/427/446 404/439/446 418/445/446
f 412/440/447 426/446/447 427/448/448
f 406/428/449 405/427/449 419/447/449
f 406/428/451 420/449/451 421/450/451
f 407/430/452 421/450/452 422/451/452
f 401/433/453 400/432/497 414/452/453
f 409/434/454 408/431/454 422/451/454
f 401/433/455 415/453/455 416/442/455
f 420/449/457 434/468/457 435/456/457
f 421/450/458 435/456/458 436/457/458
f 415/453/459 414/452/459 428/458/459
f 423/454/460 422/451/460 436/457/460
f 415/453/461 429/459/461 430/461/461
f 423/454/462 437/460/462 438/462/462
f 417/443/463 416/442/463 430/461/463
f 425/444/464 424/441/464 438/462/464
f 417/443/465 431/463/465 432/465/465
f 425/444/466 439/464/466 440/466/466
f 419/447/467 418/445/467 432/465/467
f 427/448/468 426/446/469 440/466/469
f 420/449/470 419/447/470 433/467/470
f 431/463/471 430/461/471 443/4/471
f 439/464/472 438/462/472 446/1/472
f 432/465/473 431/463/473 2/6/473
f 439/464/474 447/8/474 448/12/474
f 433/467/475 432/465/475 444/9/475
f 440/466/476 448/12/476 449/16/476
f 434/468/477 433/467/477 3/13/477
f 434/468/480 4/18/498 5/21/480
f 428/458/499 414/452/500 400/432/501 386/424/502 372/405/503 358/397/504 344/373/505 330/345/506 316/337/507 302/476/508 288/312/509 273/291/510 259/475/511 245/286/512 231/259/513 217/474/514 203/239/515 189/232/516 175/193/517 161/473/518 147/187/519 133/166/520 119/128/521 105/472/522 91/100/523 77/471/524 63/75/525 49/470/526 35/67/527 21/48/528 7/25/529 442/469/530
f 435/456/481 5/21/481 445/23/481
f 429/459/482 428/458/482 442/469/482
f 436/457/483 445/23/483 6/27/483
f 430/461/484 429/459/484 1/24/484
f 437/460/485 6/27/485 446/1/485
f 451/477/531 452/478/531 450/479/531
f 453/480/532 456/481/532 452/478/532
f 457/482/533 454/483/533 456/481/533
f 455/484/534 450/485/534 454/483/534
f 456/481/535 450/486/535 452/487/535
f 453/488/536 455/484/536 457/482/536
f 451/477/531 453/480/531 452/478/531
f 453/480/532 457/482/532 456/481/532
f 457/482/533 455/484/533 454/483/533
f 455/484/534 451/489/534 450/485/534
f 456/481/535 454/483/535 450/486/535
f 453/488/536 451/490/536 455/484/536
f 459/491/531 460/492/531 458/493/531
f 461/494/532 464/495/532 460/492/532
f 465/496/533 462/497/533 464/495/533
f 463/498/534 458/499/534 462/497/534
f 464/495/535 458/500/535 460/501/535
f 461/502/536 463/498/536 465/496/536
f 459/491/531 461/494/531 460/492/531
f 461/494/532 465/496/532 464/495/532
f 465/496/533 463/498/533 462/497/533
f 463/498/534 459/503/534 458/499/534
f 464/495/535 462/497/535 458/500/535
f 461/502/536 459/504/536 463/498/536
