# Blender 4.4.1
# www.blender.org
mtllib player_found_mark.mtl
o exclamation_mark
v 0.128904 0.257184 -0.060000
v -0.128904 0.257694 -0.060000
v 0.128904 -0.000252 -0.060000
v -0.128904 0.000252 -0.060000
v -0.128904 0.357756 -0.060000
v 0.128904 0.357246 -0.060000
v -0.187944 1.505310 -0.060000
v 0.187944 1.504806 -0.060000
v 0.128904 0.257184 0.060000
v -0.128904 0.257694 0.060000
v 0.128904 -0.000252 0.060000
v -0.128904 0.000252 0.060000
v 0.187944 1.504806 0.060000
v 0.128904 0.357246 0.060000
v -0.128904 0.357756 0.060000
v -0.187944 1.505310 0.060000
vn -0.0000 -0.0000 -1.0000
vn -0.0000 -0.0000 1.0000
vn 0.0020 1.0000 -0.0000
vn -0.0020 -1.0000 -0.0000
vn -1.0000 -0.0000 -0.0000
vn 1.0000 -0.0000 -0.0000
vn 0.0013 1.0000 -0.0000
vn -0.9987 -0.0514 -0.0000
vn 0.9987 -0.0514 -0.0000
vt 0.727004 0.726469
vt 0.909820 0.909191
vt 0.727004 0.909549
vt 0.862721 0.005249
vt 0.679904 0.187970
vt 0.679904 0.004890
vt 0.641788 0.909549
vt 0.995037 0.726110
vt 0.909820 0.726110
vt 0.909988 0.994407
vt 0.726837 0.641253
vt 0.090186 0.905075
vt 0.314094 0.090217
vt 0.357119 0.905075
vt 0.628862 0.819747
vt 0.404951 0.004879
vt 0.671887 0.004879
vt 0.357119 0.990291
vt 0.399191 0.085724
vt 0.131068 0.004889
vt 0.131015 0.090105
vt 0.005077 0.900811
vt 0.862721 0.188329
vt 0.641788 0.726469
vt 0.995037 0.909191
vt 0.727172 0.994766
vt 0.909653 0.640894
vt 0.445781 0.819860
vt 0.090186 0.990291
vt 0.442216 0.900582
vt 0.314146 0.005002
vt 0.045906 0.085841
s 1
usemtl Material.001
f 1/1/1 4/2/1 2/3/1
f 12/4/2 9/5/2 10/6/2
f 10/7/3 1/1/3 2/3/3
f 11/8/4 4/2/4 3/9/4
f 12/10/5 2/3/5 4/2/5
f 9/11/6 3/9/6 1/1/6
f 8/12/1 5/13/1 7/14/1
f 15/15/2 13/16/2 16/17/2
f 16/18/7 8/12/7 7/14/7
f 15/19/8 7/14/8 5/13/8
f 14/20/4 5/13/4 6/21/4
f 13/22/9 6/21/9 8/12/9
f 1/1/1 3/9/1 4/2/1
f 12/4/2 11/23/2 9/5/2
f 10/7/3 9/24/3 1/1/3
f 11/8/4 12/25/4 4/2/4
f 12/10/5 10/26/5 2/3/5
f 9/11/6 11/27/6 3/9/6
f 8/12/1 6/21/1 5/13/1
f 15/15/2 14/28/2 13/16/2
f 16/18/7 13/29/7 8/12/7
f 15/19/8 16/30/8 7/14/8
f 14/20/4 15/31/4 5/13/4
f 13/22/9 14/32/9 6/21/9
