{
	"asset":{
		"generator":"Khronos glTF Blender I/O v4.4.56",
		"version":"2.0"
	},
	"scene":0,
	"scenes":[
		{
			"name":"Scene",
			"nodes":[
				0
			]
		}
	],
	"nodes":[
		{
			"mesh":0,
			"name":"\u7403"
		}
	],
	"materials":[
		{
			"doubleSided":true,
			"name":"Material",
			"pbrMetallicRoughness":{
				"baseColorTexture":{
					"index":0
				},
				"metallicFactor":0,
				"roughnessFactor":0.5
			}
		}
	],
	"meshes":[
		{
			"name":"\u7403",
			"primitives":[
				{
					"attributes":{
						"POSITION":0,
						"NORMAL":1,
						"TEXCOORD_0":2
					},
					"indices":3,
					"material":0
				}
			]
		}
	],
	"textures":[
		{
			"sampler":0,
			"source":0
		}
	],
	"images":[
		{
			"mimeType":"image/png",
			"name":"needle",
			"uri":"needle.png"
		}
	],
	"accessors":[
		{
			"bufferView":0,
			"componentType":5126,
			"count":2256,
			"max":[
				0.9899999499320984,
				0.9899999499320984,
				0.8249994516372681
			],
			"min":[
				-0.9899999499320984,
				-0.9899999499320984,
				-0.824999988079071
			],
			"type":"VEC3"
		},
		{
			"bufferView":1,
			"componentType":5126,
			"count":2256,
			"type":"VEC3"
		},
		{
			"bufferView":2,
			"componentType":5126,
			"count":2256,
			"type":"VEC2"
		},
		{
			"bufferView":3,
			"componentType":5123,
			"count":3348,
			"type":"SCALAR"
		}
	],
	"bufferViews":[
		{
			"buffer":0,
			"byteLength":27072,
			"byteOffset":0,
			"target":34962
		},
		{
			"buffer":0,
			"byteLength":27072,
			"byteOffset":27072,
			"target":34962
		},
		{
			"buffer":0,
			"byteLength":18048,
			"byteOffset":54144,
			"target":34962
		},
		{
			"buffer":0,
			"byteLength":6696,
			"byteOffset":72192,
			"target":34963
		}
	],
	"samplers":[
		{
			"magFilter":9729,
			"minFilter":9987
		}
	],
	"buffers":[
		{
			"byteLength":78888,
			"uri":"needle.bin"
		}
	]
}
