{
	"asset":{
		"generator":"Khronos glTF Blender I/O v4.4.56",
		"version":"2.0"
	},
	"scene":0,
	"scenes":[
		{
			"name":"Scene",
			"nodes":[
				0,
				1,
				2
			]
		}
	],
	"nodes":[
		{
			"mesh":0,
			"name":"\u7acb\u65b9\u4f53"
		},
		{
			"mesh":1,
			"name":"\u5186\u67f1"
		},
		{
			"mesh":2,
			"name":"\u7acb\u65b9\u4f53.001"
		}
	],
	"materials":[
		{
			"doubleSided":true,
			"name":"soldier",
			"pbrMetallicRoughness":{
				"baseColorTexture":{
					"index":0
				},
				"metallicFactor":0,
				"roughnessFactor":0.5
			}
		},
		{
			"doubleSided":true,
			"name":"soldier.001",
			"pbrMetallicRoughness":{
				"baseColorTexture":{
					"index":1
				},
				"metallicFactor":0,
				"roughnessFactor":0.5
			}
		}
	],
	"meshes":[
		{
			"name":"\u7acb\u65b9\u4f53.002",
			"primitives":[
				{
					"attributes":{
						"POSITION":0,
						"NORMAL":1,
						"TEXCOORD_0":2
					},
					"indices":3,
					"material":0
				}
			]
		},
		{
			"name":"\u5186\u67f1",
			"primitives":[
				{
					"attributes":{
						"POSITION":4,
						"NORMAL":5,
						"TEXCOORD_0":6
					},
					"indices":7,
					"material":1
				}
			]
		},
		{
			"name":"\u7acb\u65b9\u4f53.003",
			"primitives":[
				{
					"attributes":{
						"POSITION":8,
						"NORMAL":9,
						"TEXCOORD_0":10
					},
					"indices":11,
					"material":0
				}
			]
		}
	],
	"textures":[
		{
			"sampler":0,
			"source":0
		},
		{
			"sampler":0,
			"source":1
		}
	],
	"images":[
		{
			"mimeType":"image/png",
			"name":"soldierHead",
			"uri":"soldierHead.png"
		},
		{
			"mimeType":"image/png",
			"name":"enemy",
			"uri":"enemy.png"
		}
	],
	"accessors":[
		{
			"bufferView":0,
			"componentType":5126,
			"count":72,
			"max":[
				1.1000001430511475,
				0.6000000238418579,
				0.20000004768371582
			],
			"min":[
				-1.100000023841858,
				-1,
				-1
			],
			"type":"VEC3"
		},
		{
			"bufferView":1,
			"componentType":5126,
			"count":72,
			"type":"VEC3"
		},
		{
			"bufferView":2,
			"componentType":5126,
			"count":72,
			"type":"VEC2"
		},
		{
			"bufferView":3,
			"componentType":5123,
			"count":108,
			"type":"SCALAR"
		},
		{
			"bufferView":4,
			"componentType":5126,
			"count":711,
			"max":[
				0.25,
				0.2500002086162567,
				1.003199815750122
			],
			"min":[
				-0.25,
				-0.75,
				-0.32500016689300537
			],
			"type":"VEC3"
		},
		{
			"bufferView":5,
			"componentType":5126,
			"count":711,
			"type":"VEC3"
		},
		{
			"bufferView":6,
			"componentType":5126,
			"count":711,
			"type":"VEC2"
		},
		{
			"bufferView":7,
			"componentType":5123,
			"count":1275,
			"type":"SCALAR"
		},
		{
			"bufferView":8,
			"componentType":5126,
			"count":184,
			"max":[
				0.5,
				1.6200000047683716,
				0.1900002360343933
			],
			"min":[
				-0.5,
				0.6200000047683716,
				-0.8999999761581421
			],
			"type":"VEC3"
		},
		{
			"bufferView":9,
			"componentType":5126,
			"count":184,
			"type":"VEC3"
		},
		{
			"bufferView":10,
			"componentType":5126,
			"count":184,
			"type":"VEC2"
		},
		{
			"bufferView":11,
			"componentType":5123,
			"count":318,
			"type":"SCALAR"
		}
	],
	"bufferViews":[
		{
			"buffer":0,
			"byteLength":864,
			"byteOffset":0,
			"target":34962
		},
		{
			"buffer":0,
			"byteLength":864,
			"byteOffset":864,
			"target":34962
		},
		{
			"buffer":0,
			"byteLength":576,
			"byteOffset":1728,
			"target":34962
		},
		{
			"buffer":0,
			"byteLength":216,
			"byteOffset":2304,
			"target":34963
		},
		{
			"buffer":0,
			"byteLength":8532,
			"byteOffset":2520,
			"target":34962
		},
		{
			"buffer":0,
			"byteLength":8532,
			"byteOffset":11052,
			"target":34962
		},
		{
			"buffer":0,
			"byteLength":5688,
			"byteOffset":19584,
			"target":34962
		},
		{
			"buffer":0,
			"byteLength":2550,
			"byteOffset":25272,
			"target":34963
		},
		{
			"buffer":0,
			"byteLength":2208,
			"byteOffset":27824,
			"target":34962
		},
		{
			"buffer":0,
			"byteLength":2208,
			"byteOffset":30032,
			"target":34962
		},
		{
			"buffer":0,
			"byteLength":1472,
			"byteOffset":32240,
			"target":34962
		},
		{
			"buffer":0,
			"byteLength":636,
			"byteOffset":33712,
			"target":34963
		}
	],
	"samplers":[
		{
			"magFilter":9729,
			"minFilter":9987
		}
	],
	"buffers":[
		{
			"byteLength":34348,
			"uri":"soldier.bin"
		}
	]
}
