# Blender 4.4.1
# www.blender.org
mtllib stage_select.mtl
o 立方体.003
v -7.500001 0.100000 -6.060000
v -7.500001 7.900000 -6.060000
v -7.500001 0.100000 6.060000
v -7.500001 7.900000 6.060000
v -16.500000 0.100000 -6.060000
v -16.500000 7.900000 -6.060000
v -16.500000 0.100000 6.060000
v -16.500000 7.900000 6.060000
vn 1.0000 -0.0000 -0.0000
vn -0.0000 -0.0000 1.0000
vn -1.0000 -0.0000 -0.0000
vn -0.0000 -0.0000 -1.0000
vn -0.0000 -1.0000 -0.0000
vn -0.0000 1.0000 -0.0000
vt 0.625000 0.000000
vt 0.375000 0.250000
vt 0.375000 0.000000
vt 0.625000 0.250000
vt 0.375000 0.500000
vt 0.625000 0.500000
vt 0.375000 0.750000
vt 0.625000 0.750000
vt 0.375000 1.000000
vt 0.125000 0.750000
vt 0.125000 0.500000
vt 0.875000 0.500000
vt 0.625000 1.000000
vt 0.875000 0.750000
s 0
usemtl Material
f 2/1/1 3/2/1 1/3/1
f 4/4/2 7/5/2 3/2/2
f 8/6/3 5/7/3 7/5/3
f 6/8/4 1/9/4 5/7/4
f 7/5/5 1/10/5 3/11/5
f 4/12/6 6/8/6 8/6/6
f 2/1/1 4/4/1 3/2/1
f 4/4/2 8/6/2 7/5/2
f 8/6/3 6/8/3 5/7/3
f 6/8/4 2/13/4 1/9/4
f 7/5/5 5/7/5 1/10/5
f 4/12/6 2/14/6 6/8/6
o 立方体
v 22.500000 -1.000000 -10.099999
v 22.500000 1.000000 -10.099999
v 22.500000 -1.000000 10.099999
v 22.500000 1.000000 10.099999
v -22.500000 -1.000000 -10.099999
v -22.500000 1.000000 -10.099999
v -22.500000 -1.000000 10.099999
v -22.500000 1.000000 10.099999
vn 1.0000 -0.0000 -0.0000
vn -0.0000 -0.0000 1.0000
vn -1.0000 -0.0000 -0.0000
vn -0.0000 -0.0000 -1.0000
vn -0.0000 -1.0000 -0.0000
vn -0.0000 1.0000 -0.0000
vt 0.625000 0.000000
vt 0.375000 0.250000
vt 0.375000 0.000000
vt 0.625000 0.250000
vt 0.375000 0.500000
vt 0.625000 0.500000
vt 0.375000 0.750000
vt 0.625000 0.750000
vt 0.375000 1.000000
vt 0.125000 0.750000
vt 0.125000 0.500000
vt 0.875000 0.500000
vt 0.625000 1.000000
vt 0.875000 0.750000
s 0
usemtl Material.001
f 10/15/7 11/16/7 9/17/7
f 12/18/8 15/19/8 11/16/8
f 16/20/9 13/21/9 15/19/9
f 14/22/10 9/23/10 13/21/10
f 15/19/11 9/24/11 11/25/11
f 12/26/12 14/22/12 16/20/12
f 10/15/7 12/18/7 11/16/7
f 12/18/8 16/20/8 15/19/8
f 16/20/9 14/22/9 13/21/9
f 14/22/10 10/27/10 9/23/10
f 15/19/11 13/21/11 9/24/11
f 12/26/12 10/28/12 14/22/12
o 平面
v -9.000000 4.500000 -7.000000
v -15.000000 4.500000 -7.000000
v -9.000000 7.500000 -7.000000
v -15.000000 7.500000 -7.000000
vn -0.0000 -0.0000 -1.0000
vt 1.000000 0.000000
vt 0.000000 1.000000
vt 0.000000 0.000000
vt 1.000000 1.000000
s 0
usemtl Material.002
f 18/29/13 19/30/13 17/31/13
f 18/29/13 20/32/13 19/30/13
o 立方体.005
v -1.000000 0.100000 -6.060000
v -1.000000 4.100000 -6.060000
v -1.000000 0.100000 6.060000
v -1.000000 4.100000 6.060000
v -5.000000 0.100000 -6.060000
v -5.000000 4.100000 -6.060000
v -5.000000 0.100000 6.060000
v -5.000000 4.100000 6.060000
vn 1.0000 -0.0000 -0.0000
vn -0.0000 -0.0000 1.0000
vn -1.0000 -0.0000 -0.0000
vn -0.0000 -0.0000 -1.0000
vn -0.0000 -1.0000 -0.0000
vn -0.0000 1.0000 -0.0000
vt 0.625000 0.000000
vt 0.375000 0.250000
vt 0.375000 0.000000
vt 0.625000 0.250000
vt 0.375000 0.500000
vt 0.625000 0.500000
vt 0.375000 0.750000
vt 0.625000 0.750000
vt 0.375000 1.000000
vt 0.125000 0.750000
vt 0.125000 0.500000
vt 0.875000 0.500000
vt 0.625000 1.000000
vt 0.875000 0.750000
s 0
usemtl Material.004
f 22/33/14 23/34/14 21/35/14
f 24/36/15 27/37/15 23/34/15
f 28/38/16 25/39/16 27/37/16
f 26/40/17 21/41/17 25/39/17
f 27/37/18 21/42/18 23/43/18
f 24/44/19 26/40/19 28/38/19
f 22/33/14 24/36/14 23/34/14
f 24/36/15 28/38/15 27/37/15
f 28/38/16 26/40/16 25/39/16
f 26/40/17 22/45/17 21/41/17
f 27/37/18 25/39/18 21/42/18
f 24/44/19 22/46/19 26/40/19
o 立方体.004
v -4.000000 0.100000 -6.060000
v -4.000000 5.900000 -6.060000
v -4.000000 0.100000 6.060000
v -4.000000 5.900000 6.060000
v -8.000000 0.100000 -6.060000
v -8.000000 5.900000 -6.060000
v -8.000000 0.100000 6.060000
v -8.000000 5.900000 6.060000
vn 1.0000 -0.0000 -0.0000
vn -0.0000 -0.0000 1.0000
vn -1.0000 -0.0000 -0.0000
vn -0.0000 -0.0000 -1.0000
vn -0.0000 -1.0000 -0.0000
vn -0.0000 1.0000 -0.0000
vt 0.625000 0.000000
vt 0.375000 0.250000
vt 0.375000 0.000000
vt 0.625000 0.250000
vt 0.375000 0.500000
vt 0.625000 0.500000
vt 0.375000 0.750000
vt 0.625000 0.750000
vt 0.375000 1.000000
vt 0.125000 0.750000
vt 0.125000 0.500000
vt 0.875000 0.500000
vt 0.625000 1.000000
vt 0.875000 0.750000
s 0
usemtl Material.003
f 30/47/20 31/48/20 29/49/20
f 32/50/21 35/51/21 31/48/21
f 36/52/22 33/53/22 35/51/22
f 34/54/23 29/55/23 33/53/23
f 35/51/24 29/56/24 31/57/24
f 32/58/25 34/54/25 36/52/25
f 30/47/20 32/50/20 31/48/20
f 32/50/21 36/52/21 35/51/21
f 36/52/22 34/54/22 33/53/22
f 34/54/23 30/59/23 29/55/23
f 35/51/24 33/53/24 29/56/24
f 32/58/25 30/60/25 34/54/25
