{
	"asset":{
		"generator":"Khronos glTF Blender I/O v4.4.56",
		"version":"2.0"
	},
	"scene":0,
	"scenes":[
		{
			"name":"Scene",
			"nodes":[
				0
			]
		}
	],
	"nodes":[
		{
			"mesh":0,
			"name":"\u7403"
		}
	],
	"materials":[
		{
			"doubleSided":true,
			"name":"shadow",
			"pbrMetallicRoughness":{
				"baseColorTexture":{
					"index":0
				},
				"metallicFactor":0,
				"roughnessFactor":0.5
			}
		}
	],
	"meshes":[
		{
			"name":"\u7403.001",
			"primitives":[
				{
					"attributes":{
						"POSITION":0,
						"NORMAL":1,
						"TEXCOORD_0":2
					},
					"indices":3,
					"material":0
				}
			]
		}
	],
	"textures":[
		{
			"sampler":0,
			"source":0
		}
	],
	"images":[
		{
			"mimeType":"image/png",
			"name":"white",
			"uri":"white.png"
		}
	],
	"accessors":[
		{
			"bufferView":0,
			"componentType":5126,
			"count":598,
			"max":[
				0.9999989867210388,
				7.549790126404332e-08,
				1
			],
			"min":[
				-1,
				-7.549782310434239e-08,
				-0.9999989867210388
			],
			"type":"VEC3"
		},
		{
			"bufferView":1,
			"componentType":5126,
			"count":598,
			"type":"VEC3"
		},
		{
			"bufferView":2,
			"componentType":5126,
			"count":598,
			"type":"VEC2"
		},
		{
			"bufferView":3,
			"componentType":5123,
			"count":2880,
			"type":"SCALAR"
		}
	],
	"bufferViews":[
		{
			"buffer":0,
			"byteLength":7176,
			"byteOffset":0,
			"target":34962
		},
		{
			"buffer":0,
			"byteLength":7176,
			"byteOffset":7176,
			"target":34962
		},
		{
			"buffer":0,
			"byteLength":4784,
			"byteOffset":14352,
			"target":34962
		},
		{
			"buffer":0,
			"byteLength":5760,
			"byteOffset":19136,
			"target":34963
		}
	],
	"samplers":[
		{
			"magFilter":9729,
			"minFilter":9987
		}
	],
	"buffers":[
		{
			"byteLength":24896,
			"uri":"shadow.bin"
		}
	]
}
