# Blender 4.4.1
# www.blender.org
mtllib moveGround.mtl
o 立方体
v 0.520000 -1.000000 -1.000000
v 0.520000 1.000000 -1.000000
v 0.520000 -1.000000 1.000000
v 0.520000 1.000000 1.000000
v -0.520000 -1.000000 -1.000000
v -0.520000 1.000000 -1.000000
v -0.520000 -1.000000 1.000000
v -0.520000 1.000000 1.000000
v 1.000000 -1.000000 -0.500000
v -1.000000 1.000000 -0.500000
v 1.000000 1.000000 -0.500000
v -1.000000 -1.000000 -0.500000
v 1.000000 1.000000 0.500000
v -1.000000 -1.000000 0.500000
v 1.000000 -1.000000 0.500000
v -1.000000 1.000000 0.500000
vn 0.7214 -0.0000 0.6925
vn -0.0000 -0.0000 1.0000
vn -0.7214 -0.0000 -0.6925
vn -0.0000 -0.0000 -1.0000
vn -0.0000 -1.0000 -0.0000
vn -0.0000 1.0000 -0.0000
vn 0.7214 -0.0000 -0.6925
vn 1.0000 -0.0000 -0.0000
vn -0.7214 -0.0000 0.6925
vn -1.0000 -0.0000 -0.0000
vt 0.097044 0.688398
vt 0.399459 0.800779
vt 0.332263 0.882296
vt 0.164240 0.606881
vt 0.500286 0.678465
vt 0.429212 0.285441
vt 0.731627 0.397823
vt 0.664431 0.479339
vt 0.496408 0.203925
vt 0.832454 0.275509
vt 0.891672 0.567897
vt 0.899651 0.673237
vt 0.193993 0.091544
vt 0.421234 0.180101
vt 0.597235 0.081611
vt 0.899651 0.193993
vt 0.567482 0.596949
vt 0.802702 0.790847
vt 0.000095 0.806007
vt 0.235314 0.999905
vt 0.265067 0.484567
vt 0.575460 0.702289
vt 0.697774 0.803116
vt 0.105022 0.314493
vt 0.332263 0.403051
vt 0.227336 0.415320
vt 0.097044 0.209153
vt 0.769358 0.467070
vt 0.298920 0.079274
vt 0.664431 0.000095
s 0
usemtl Material
f 13/1/1 3/2/1 15/3/1
f 4/4/2 7/5/2 3/2/2
f 10/6/3 5/7/3 12/8/3
f 6/9/4 1/10/4 5/7/4
f 12/8/5 1/11/5 9/12/5
f 11/13/6 6/14/6 10/6/6
f 2/15/7 9/16/7 1/10/7
f 14/17/5 9/12/5 15/18/5
f 11/19/8 15/3/8 9/20/8
f 8/21/9 14/17/9 7/5/9
f 7/22/5 15/18/5 3/23/5
f 4/24/6 16/25/6 8/26/6
f 13/27/6 10/6/6 16/25/6
f 16/25/10 12/8/10 14/17/10
f 13/1/1 4/4/1 3/2/1
f 4/4/2 8/21/2 7/5/2
f 10/6/3 6/9/3 5/7/3
f 6/9/4 2/15/4 1/10/4
f 12/8/5 5/28/5 1/11/5
f 11/13/6 2/29/6 6/14/6
f 2/15/7 11/30/7 9/16/7
f 14/17/5 12/8/5 9/12/5
f 11/19/8 13/1/8 15/3/8
f 8/21/9 16/25/9 14/17/9
f 7/22/5 14/17/5 15/18/5
f 4/24/6 13/27/6 16/25/6
f 13/27/6 11/13/6 10/6/6
f 16/25/10 10/6/10 12/8/10
