{
	"asset":{
		"generator":"Khronos glTF Blender I/O v4.4.56",
		"version":"2.0"
	},
	"scene":0,
	"scenes":[
		{
			"name":"Scene",
			"nodes":[
				0,
				1,
				2,
				3,
				4,
				5,
				6,
				7,
				8,
				9,
				10,
				11,
				12
			]
		}
	],
	"nodes":[
		{
			"name":"\u7acb\u65b9\u4f53"
		},
		{
			"mesh":0,
			"name":"\u7acb\u65b9\u4f53.001",
			"translation":[
				-0.10403060168027878,
				0.8804013133049011,
				-0.8790376782417297
			]
		},
		{
			"mesh":1,
			"name":"\u7acb\u65b9\u4f53.002",
			"translation":[
				0.9972984790802002,
				0.5751524567604065,
				-0.3147449195384979
			]
		},
		{
			"mesh":2,
			"name":"\u7acb\u65b9\u4f53.003",
			"translation":[
				0.6830514669418335,
				-0.8298988342285156,
				-0.97718745470047
			]
		},
		{
			"mesh":3,
			"name":"\u7acb\u65b9\u4f53.004",
			"translation":[
				0.9540884494781494,
				-0.5448113679885864,
				0.8115836381912231
			]
		},
		{
			"mesh":4,
			"name":"\u7acb\u65b9\u4f53.005",
			"translation":[
				0.2114219218492508,
				-0.902279794216156,
				0.9681064486503601
			]
		},
		{
			"mesh":5,
			"name":"\u7acb\u65b9\u4f53.006",
			"translation":[
				-0.8134923577308655,
				-0.8675196766853333,
				0.8452244997024536
			]
		},
		{
			"mesh":6,
			"name":"\u7acb\u65b9\u4f53.007",
			"translation":[
				-0.8539525270462036,
				0.09668177366256714,
				0.9090588688850403
			]
		},
		{
			"mesh":7,
			"name":"\u7acb\u65b9\u4f53.008",
			"translation":[
				-0.9753537178039551,
				-0.918204128742218,
				-0.17684052884578705
			]
		},
		{
			"mesh":8,
			"name":"\u7acb\u65b9\u4f53.009",
			"translation":[
				-0.8355796933174133,
				-0.4404122829437256,
				-0.9409465193748474
			]
		},
		{
			"mesh":9,
			"name":"\u7acb\u65b9\u4f53.010",
			"translation":[
				0.9635645151138306,
				-0.9714940190315247,
				-0.32100287079811096
			]
		},
		{
			"mesh":10,
			"name":"\u7acb\u65b9\u4f53.011",
			"translation":[
				-0.029173122718930244,
				-1.0381269454956055,
				-0.5962396860122681
			]
		},
		{
			"mesh":11,
			"name":"\u7acb\u65b9\u4f53.012",
			"translation":[
				-0.22675590217113495,
				0.913432776927948,
				0.7195844650268555
			]
		}
	],
	"animations":[
		{
			"channels":[
				{
					"sampler":0,
					"target":{
						"node":0,
						"path":"translation"
					}
				},
				{
					"sampler":1,
					"target":{
						"node":0,
						"path":"rotation"
					}
				},
				{
					"sampler":2,
					"target":{
						"node":0,
						"path":"scale"
					}
				}
			],
			"name":"\u7acb\u65b9\u4f53\u30a2\u30af\u30b7\u30e7\u30f3",
			"samplers":[
				{
					"input":60,
					"interpolation":"LINEAR",
					"output":61
				},
				{
					"input":60,
					"interpolation":"LINEAR",
					"output":62
				},
				{
					"input":63,
					"interpolation":"STEP",
					"output":64
				}
			]
		},
		{
			"channels":[
				{
					"sampler":0,
					"target":{
						"node":1,
						"path":"translation"
					}
				},
				{
					"sampler":1,
					"target":{
						"node":1,
						"path":"rotation"
					}
				},
				{
					"sampler":2,
					"target":{
						"node":1,
						"path":"scale"
					}
				}
			],
			"name":"\u7acb\u65b9\u4f53.001\u30a2\u30af\u30b7\u30e7\u30f3",
			"samplers":[
				{
					"input":60,
					"interpolation":"LINEAR",
					"output":65
				},
				{
					"input":60,
					"interpolation":"LINEAR",
					"output":66
				},
				{
					"input":63,
					"interpolation":"STEP",
					"output":67
				}
			]
		},
		{
			"channels":[
				{
					"sampler":0,
					"target":{
						"node":2,
						"path":"translation"
					}
				},
				{
					"sampler":1,
					"target":{
						"node":2,
						"path":"rotation"
					}
				},
				{
					"sampler":2,
					"target":{
						"node":2,
						"path":"scale"
					}
				}
			],
			"name":"\u7acb\u65b9\u4f53.002\u30a2\u30af\u30b7\u30e7\u30f3",
			"samplers":[
				{
					"input":60,
					"interpolation":"LINEAR",
					"output":68
				},
				{
					"input":60,
					"interpolation":"LINEAR",
					"output":69
				},
				{
					"input":63,
					"interpolation":"STEP",
					"output":70
				}
			]
		},
		{
			"channels":[
				{
					"sampler":0,
					"target":{
						"node":3,
						"path":"translation"
					}
				},
				{
					"sampler":1,
					"target":{
						"node":3,
						"path":"rotation"
					}
				},
				{
					"sampler":2,
					"target":{
						"node":3,
						"path":"scale"
					}
				}
			],
			"name":"\u7acb\u65b9\u4f53.003\u30a2\u30af\u30b7\u30e7\u30f3",
			"samplers":[
				{
					"input":60,
					"interpolation":"LINEAR",
					"output":71
				},
				{
					"input":60,
					"interpolation":"LINEAR",
					"output":72
				},
				{
					"input":63,
					"interpolation":"STEP",
					"output":73
				}
			]
		},
		{
			"channels":[
				{
					"sampler":0,
					"target":{
						"node":4,
						"path":"translation"
					}
				},
				{
					"sampler":1,
					"target":{
						"node":4,
						"path":"rotation"
					}
				},
				{
					"sampler":2,
					"target":{
						"node":4,
						"path":"scale"
					}
				}
			],
			"name":"\u7acb\u65b9\u4f53.004\u30a2\u30af\u30b7\u30e7\u30f3",
			"samplers":[
				{
					"input":60,
					"interpolation":"LINEAR",
					"output":74
				},
				{
					"input":60,
					"interpolation":"LINEAR",
					"output":75
				},
				{
					"input":63,
					"interpolation":"STEP",
					"output":76
				}
			]
		},
		{
			"channels":[
				{
					"sampler":0,
					"target":{
						"node":5,
						"path":"translation"
					}
				},
				{
					"sampler":1,
					"target":{
						"node":5,
						"path":"rotation"
					}
				},
				{
					"sampler":2,
					"target":{
						"node":5,
						"path":"scale"
					}
				}
			],
			"name":"\u7acb\u65b9\u4f53.005\u30a2\u30af\u30b7\u30e7\u30f3",
			"samplers":[
				{
					"input":60,
					"interpolation":"LINEAR",
					"output":77
				},
				{
					"input":60,
					"interpolation":"LINEAR",
					"output":78
				},
				{
					"input":63,
					"interpolation":"STEP",
					"output":79
				}
			]
		},
		{
			"channels":[
				{
					"sampler":0,
					"target":{
						"node":6,
						"path":"translation"
					}
				},
				{
					"sampler":1,
					"target":{
						"node":6,
						"path":"rotation"
					}
				},
				{
					"sampler":2,
					"target":{
						"node":6,
						"path":"scale"
					}
				}
			],
			"name":"\u7acb\u65b9\u4f53.006\u30a2\u30af\u30b7\u30e7\u30f3",
			"samplers":[
				{
					"input":60,
					"interpolation":"LINEAR",
					"output":80
				},
				{
					"input":60,
					"interpolation":"LINEAR",
					"output":81
				},
				{
					"input":63,
					"interpolation":"STEP",
					"output":82
				}
			]
		},
		{
			"channels":[
				{
					"sampler":0,
					"target":{
						"node":7,
						"path":"translation"
					}
				},
				{
					"sampler":1,
					"target":{
						"node":7,
						"path":"rotation"
					}
				},
				{
					"sampler":2,
					"target":{
						"node":7,
						"path":"scale"
					}
				}
			],
			"name":"\u7acb\u65b9\u4f53.007\u30a2\u30af\u30b7\u30e7\u30f3",
			"samplers":[
				{
					"input":60,
					"interpolation":"LINEAR",
					"output":83
				},
				{
					"input":60,
					"interpolation":"LINEAR",
					"output":84
				},
				{
					"input":63,
					"interpolation":"STEP",
					"output":85
				}
			]
		},
		{
			"channels":[
				{
					"sampler":0,
					"target":{
						"node":8,
						"path":"translation"
					}
				},
				{
					"sampler":1,
					"target":{
						"node":8,
						"path":"rotation"
					}
				},
				{
					"sampler":2,
					"target":{
						"node":8,
						"path":"scale"
					}
				}
			],
			"name":"\u7acb\u65b9\u4f53.008\u30a2\u30af\u30b7\u30e7\u30f3",
			"samplers":[
				{
					"input":60,
					"interpolation":"LINEAR",
					"output":86
				},
				{
					"input":60,
					"interpolation":"LINEAR",
					"output":87
				},
				{
					"input":63,
					"interpolation":"STEP",
					"output":88
				}
			]
		},
		{
			"channels":[
				{
					"sampler":0,
					"target":{
						"node":9,
						"path":"translation"
					}
				},
				{
					"sampler":1,
					"target":{
						"node":9,
						"path":"rotation"
					}
				},
				{
					"sampler":2,
					"target":{
						"node":9,
						"path":"scale"
					}
				}
			],
			"name":"\u7acb\u65b9\u4f53.009\u30a2\u30af\u30b7\u30e7\u30f3",
			"samplers":[
				{
					"input":60,
					"interpolation":"LINEAR",
					"output":89
				},
				{
					"input":60,
					"interpolation":"LINEAR",
					"output":90
				},
				{
					"input":63,
					"interpolation":"STEP",
					"output":91
				}
			]
		},
		{
			"channels":[
				{
					"sampler":0,
					"target":{
						"node":10,
						"path":"translation"
					}
				},
				{
					"sampler":1,
					"target":{
						"node":10,
						"path":"rotation"
					}
				},
				{
					"sampler":2,
					"target":{
						"node":10,
						"path":"scale"
					}
				}
			],
			"name":"\u7acb\u65b9\u4f53.010\u30a2\u30af\u30b7\u30e7\u30f3",
			"samplers":[
				{
					"input":60,
					"interpolation":"LINEAR",
					"output":92
				},
				{
					"input":60,
					"interpolation":"LINEAR",
					"output":93
				},
				{
					"input":63,
					"interpolation":"STEP",
					"output":94
				}
			]
		},
		{
			"channels":[
				{
					"sampler":0,
					"target":{
						"node":11,
						"path":"translation"
					}
				},
				{
					"sampler":1,
					"target":{
						"node":11,
						"path":"rotation"
					}
				},
				{
					"sampler":2,
					"target":{
						"node":11,
						"path":"scale"
					}
				}
			],
			"name":"\u7acb\u65b9\u4f53.011\u30a2\u30af\u30b7\u30e7\u30f3",
			"samplers":[
				{
					"input":60,
					"interpolation":"LINEAR",
					"output":95
				},
				{
					"input":60,
					"interpolation":"LINEAR",
					"output":96
				},
				{
					"input":63,
					"interpolation":"STEP",
					"output":97
				}
			]
		},
		{
			"channels":[
				{
					"sampler":0,
					"target":{
						"node":12,
						"path":"translation"
					}
				},
				{
					"sampler":1,
					"target":{
						"node":12,
						"path":"rotation"
					}
				},
				{
					"sampler":2,
					"target":{
						"node":12,
						"path":"scale"
					}
				}
			],
			"name":"\u7acb\u65b9\u4f53.012\u30a2\u30af\u30b7\u30e7\u30f3",
			"samplers":[
				{
					"input":60,
					"interpolation":"LINEAR",
					"output":98
				},
				{
					"input":60,
					"interpolation":"LINEAR",
					"output":99
				},
				{
					"input":63,
					"interpolation":"STEP",
					"output":100
				}
			]
		}
	],
	"materials":[
		{
			"doubleSided":true,
			"name":"Material",
			"pbrMetallicRoughness":{
				"baseColorTexture":{
					"index":0
				},
				"metallicFactor":0,
				"roughnessFactor":0.5
			}
		}
	],
	"meshes":[
		{
			"name":"\u7acb\u65b9\u4f53.001",
			"primitives":[
				{
					"attributes":{
						"POSITION":0,
						"NORMAL":1,
						"TEXCOORD_0":2,
						"TEXCOORD_1":3
					},
					"indices":4,
					"material":0
				}
			]
		},
		{
			"name":"\u7acb\u65b9\u4f53.002",
			"primitives":[
				{
					"attributes":{
						"POSITION":5,
						"NORMAL":6,
						"TEXCOORD_0":7,
						"TEXCOORD_1":8
					},
					"indices":9,
					"material":0
				}
			]
		},
		{
			"name":"\u7acb\u65b9\u4f53.003",
			"primitives":[
				{
					"attributes":{
						"POSITION":10,
						"NORMAL":11,
						"TEXCOORD_0":12,
						"TEXCOORD_1":13
					},
					"indices":14,
					"material":0
				}
			]
		},
		{
			"name":"\u7acb\u65b9\u4f53.004",
			"primitives":[
				{
					"attributes":{
						"POSITION":15,
						"NORMAL":16,
						"TEXCOORD_0":17,
						"TEXCOORD_1":18
					},
					"indices":19,
					"material":0
				}
			]
		},
		{
			"name":"\u7acb\u65b9\u4f53.005",
			"primitives":[
				{
					"attributes":{
						"POSITION":20,
						"NORMAL":21,
						"TEXCOORD_0":22,
						"TEXCOORD_1":23
					},
					"indices":24,
					"material":0
				}
			]
		},
		{
			"name":"\u7acb\u65b9\u4f53.006",
			"primitives":[
				{
					"attributes":{
						"POSITION":25,
						"NORMAL":26,
						"TEXCOORD_0":27,
						"TEXCOORD_1":28
					},
					"indices":29,
					"material":0
				}
			]
		},
		{
			"name":"\u7acb\u65b9\u4f53.007",
			"primitives":[
				{
					"attributes":{
						"POSITION":30,
						"NORMAL":31,
						"TEXCOORD_0":32,
						"TEXCOORD_1":33
					},
					"indices":34,
					"material":0
				}
			]
		},
		{
			"name":"\u7acb\u65b9\u4f53.008",
			"primitives":[
				{
					"attributes":{
						"POSITION":35,
						"NORMAL":36,
						"TEXCOORD_0":37,
						"TEXCOORD_1":38
					},
					"indices":39,
					"material":0
				}
			]
		},
		{
			"name":"\u7acb\u65b9\u4f53.009",
			"primitives":[
				{
					"attributes":{
						"POSITION":40,
						"NORMAL":41,
						"TEXCOORD_0":42,
						"TEXCOORD_1":43
					},
					"indices":44,
					"material":0
				}
			]
		},
		{
			"name":"\u7acb\u65b9\u4f53.010",
			"primitives":[
				{
					"attributes":{
						"POSITION":45,
						"NORMAL":46,
						"TEXCOORD_0":47,
						"TEXCOORD_1":48
					},
					"indices":49,
					"material":0
				}
			]
		},
		{
			"name":"\u7acb\u65b9\u4f53.011",
			"primitives":[
				{
					"attributes":{
						"POSITION":50,
						"NORMAL":51,
						"TEXCOORD_0":52,
						"TEXCOORD_1":53
					},
					"indices":54,
					"material":0
				}
			]
		},
		{
			"name":"\u7acb\u65b9\u4f53.012",
			"primitives":[
				{
					"attributes":{
						"POSITION":55,
						"NORMAL":56,
						"TEXCOORD_0":57,
						"TEXCOORD_1":58
					},
					"indices":59,
					"material":0
				}
			]
		}
	],
	"textures":[
		{
			"sampler":0,
			"source":0
		}
	],
	"images":[
		{
			"mimeType":"image/png",
			"name":"box",
			"uri":"box.png"
		}
	],
	"accessors":[
		{
			"bufferView":0,
			"componentType":5126,
			"count":7466,
			"max":[
				1.166530728340149,
				0.1997729390859604,
				0.9364126324653625
			],
			"min":[
				-0.9762858748435974,
				-1.3394012451171875,
				-0.2009626030921936
			],
			"type":"VEC3"
		},
		{
			"bufferView":1,
			"componentType":5126,
			"count":7466,
			"type":"VEC3"
		},
		{
			"bufferView":2,
			"componentType":5126,
			"count":7466,
			"type":"VEC2"
		},
		{
			"bufferView":3,
			"componentType":5126,
			"count":7466,
			"type":"VEC2"
		},
		{
			"bufferView":4,
			"componentType":5123,
			"count":32448,
			"type":"SCALAR"
		},
		{
			"bufferView":5,
			"componentType":5126,
			"count":2256,
			"max":[
				0.08270180225372314,
				0.5048477053642273,
				1.258370041847229
			],
			"min":[
				-0.5956734418869019,
				-1.0915274620056152,
				-0.7652552127838135
			],
			"type":"VEC3"
		},
		{
			"bufferView":6,
			"componentType":5126,
			"count":2256,
			"type":"VEC3"
		},
		{
			"bufferView":7,
			"componentType":5126,
			"count":2256,
			"type":"VEC2"
		},
		{
			"bufferView":8,
			"componentType":5126,
			"count":2256,
			"type":"VEC2"
		},
		{
			"bufferView":9,
			"componentType":5123,
			"count":13392,
			"type":"SCALAR"
		},
		{
			"bufferView":10,
			"componentType":5126,
			"count":1358,
			"max":[
				0.3969486951828003,
				0.6577736139297485,
				0.3073045611381531
			],
			"min":[
				-0.7455512285232544,
				-0.25010132789611816,
				-0.10281270742416382
			],
			"type":"VEC3"
		},
		{
			"bufferView":11,
			"componentType":5126,
			"count":1358,
			"type":"VEC3"
		},
		{
			"bufferView":12,
			"componentType":5126,
			"count":1358,
			"type":"VEC2"
		},
		{
			"bufferView":13,
			"componentType":5126,
			"count":1358,
			"type":"VEC2"
		},
		{
			"bufferView":14,
			"componentType":5123,
			"count":8076,
			"type":"SCALAR"
		},
		{
			"bufferView":15,
			"componentType":5126,
			"count":1944,
			"max":[
				0.12591171264648438,
				1.2041243314743042,
				0.2684166431427002
			],
			"min":[
				-0.49508851766586304,
				-0.5351887941360474,
				-0.7542088627815247
			],
			"type":"VEC3"
		},
		{
			"bufferView":16,
			"componentType":5126,
			"count":1944,
			"type":"VEC3"
		},
		{
			"bufferView":17,
			"componentType":5126,
			"count":1944,
			"type":"VEC2"
		},
		{
			"bufferView":18,
			"componentType":5126,
			"count":1944,
			"type":"VEC2"
		},
		{
			"bufferView":19,
			"componentType":5123,
			"count":11496,
			"type":"SCALAR"
		},
		{
			"bufferView":20,
			"componentType":5126,
			"count":882,
			"max":[
				0.5386171936988831,
				1.0744048357009888,
				0.11189383268356323
			],
			"min":[
				-0.5556719303131104,
				-0.17772036790847778,
				-0.6812314391136169
			],
			"type":"VEC3"
		},
		{
			"bufferView":21,
			"componentType":5126,
			"count":882,
			"type":"VEC3"
		},
		{
			"bufferView":22,
			"componentType":5126,
			"count":882,
			"type":"VEC2"
		},
		{
			"bufferView":23,
			"componentType":5126,
			"count":882,
			"type":"VEC2"
		},
		{
			"bufferView":24,
			"componentType":5123,
			"count":5280,
			"type":"SCALAR"
		},
		{
			"bufferView":25,
			"componentType":5126,
			"count":1492,
			"max":[
				0.6413672566413879,
				0.5806443691253662,
				0.23477566242218018
			],
			"min":[
				-0.2665078043937683,
				-0.21248048543930054,
				-0.7304742336273193
			],
			"type":"VEC3"
		},
		{
			"bufferView":26,
			"componentType":5126,
			"count":1492,
			"type":"VEC3"
		},
		{
			"bufferView":27,
			"componentType":5126,
			"count":1492,
			"type":"VEC2"
		},
		{
			"bufferView":28,
			"componentType":5126,
			"count":1492,
			"type":"VEC2"
		},
		{
			"bufferView":29,
			"componentType":5123,
			"count":8868,
			"type":"SCALAR"
		},
		{
			"bufferView":30,
			"componentType":5126,
			"count":1094,
			"max":[
				1.5424525737762451,
				0.5908182263374329,
				0.17094141244888306
			],
			"min":[
				-0.22604775428771973,
				-0.6130568385124207,
				-1.1959338188171387
			],
			"type":"VEC3"
		},
		{
			"bufferView":31,
			"componentType":5126,
			"count":1094,
			"type":"VEC3"
		},
		{
			"bufferView":32,
			"componentType":5126,
			"count":1094,
			"type":"VEC2"
		},
		{
			"bufferView":33,
			"componentType":5126,
			"count":1094,
			"type":"VEC2"
		},
		{
			"bufferView":34,
			"componentType":5123,
			"count":6432,
			"type":"SCALAR"
		},
		{
			"bufferView":35,
			"componentType":5126,
			"count":1004,
			"max":[
				0.573728621006012,
				1.1477038860321045,
				0.6098559498786926
			],
			"min":[
				-0.10464644432067871,
				-0.16179615259170532,
				-0.6885890960693359
			],
			"type":"VEC3"
		},
		{
			"bufferView":36,
			"componentType":5126,
			"count":1004,
			"type":"VEC3"
		},
		{
			"bufferView":37,
			"componentType":5126,
			"count":1004,
			"type":"VEC2"
		},
		{
			"bufferView":38,
			"componentType":5126,
			"count":1004,
			"type":"VEC2"
		},
		{
			"bufferView":39,
			"componentType":5123,
			"count":6012,
			"type":"SCALAR"
		},
		{
			"bufferView":40,
			"componentType":5126,
			"count":2036,
			"max":[
				0.7782049179077148,
				1.2071081399917603,
				0.7688217759132385
			],
			"min":[
				-0.24442046880722046,
				-0.6395878791809082,
				-0.13905376195907593
			],
			"type":"VEC3"
		},
		{
			"bufferView":41,
			"componentType":5126,
			"count":2036,
			"type":"VEC3"
		},
		{
			"bufferView":42,
			"componentType":5126,
			"count":2036,
			"type":"VEC2"
		},
		{
			"bufferView":43,
			"componentType":5126,
			"count":2036,
			"type":"VEC2"
		},
		{
			"bufferView":44,
			"componentType":5123,
			"count":12048,
			"type":"SCALAR"
		},
		{
			"bufferView":45,
			"componentType":5126,
			"count":838,
			"max":[
				0.11643576622009277,
				0.5698689818382263,
				0.6094794273376465
			],
			"min":[
				-0.7340644598007202,
				-0.10850614309310913,
				-0.5444269180297852
			],
			"type":"VEC3"
		},
		{
			"bufferView":46,
			"componentType":5126,
			"count":838,
			"type":"VEC3"
		},
		{
			"bufferView":47,
			"componentType":5126,
			"count":838,
			"type":"VEC2"
		},
		{
			"bufferView":48,
			"componentType":5126,
			"count":838,
			"type":"VEC2"
		},
		{
			"bufferView":49,
			"componentType":5123,
			"count":5016,
			"type":"SCALAR"
		},
		{
			"bufferView":50,
			"componentType":5126,
			"count":538,
			"max":[
				0.660298228263855,
				0.2922518253326416,
				0.997864842414856
			],
			"min":[
				-0.4872019290924072,
				-0.04187333583831787,
				-0.4837604761123657
			],
			"type":"VEC3"
		},
		{
			"bufferView":51,
			"componentType":5126,
			"count":538,
			"type":"VEC3"
		},
		{
			"bufferView":52,
			"componentType":5126,
			"count":538,
			"type":"VEC2"
		},
		{
			"bufferView":53,
			"componentType":5126,
			"count":538,
			"type":"VEC2"
		},
		{
			"bufferView":54,
			"componentType":5123,
			"count":3216,
			"type":"SCALAR"
		},
		{
			"bufferView":55,
			"componentType":5126,
			"count":3240,
			"max":[
				1.3067564964294434,
				0.16656750440597534,
				0.3604156970977783
			],
			"min":[
				-0.8532443642616272,
				-0.7986829280853271,
				-1.1785849332809448
			],
			"type":"VEC3"
		},
		{
			"bufferView":56,
			"componentType":5126,
			"count":3240,
			"type":"VEC3"
		},
		{
			"bufferView":57,
			"componentType":5126,
			"count":3240,
			"type":"VEC2"
		},
		{
			"bufferView":58,
			"componentType":5126,
			"count":3240,
			"type":"VEC2"
		},
		{
			"bufferView":59,
			"componentType":5123,
			"count":18984,
			"type":"SCALAR"
		},
		{
			"bufferView":60,
			"componentType":5126,
			"count":60,
			"max":[
				2.5
			],
			"min":[
				0.041666666666666664
			],
			"type":"SCALAR"
		},
		{
			"bufferView":61,
			"componentType":5126,
			"count":60,
			"type":"VEC3"
		},
		{
			"bufferView":62,
			"componentType":5126,
			"count":60,
			"type":"VEC4"
		},
		{
			"bufferView":63,
			"componentType":5126,
			"count":2,
			"max":[
				2.5
			],
			"min":[
				0.041666666666666664
			],
			"type":"SCALAR"
		},
		{
			"bufferView":64,
			"componentType":5126,
			"count":2,
			"type":"VEC3"
		},
		{
			"bufferView":65,
			"componentType":5126,
			"count":60,
			"type":"VEC3"
		},
		{
			"bufferView":66,
			"componentType":5126,
			"count":60,
			"type":"VEC4"
		},
		{
			"bufferView":67,
			"componentType":5126,
			"count":2,
			"type":"VEC3"
		},
		{
			"bufferView":68,
			"componentType":5126,
			"count":60,
			"type":"VEC3"
		},
		{
			"bufferView":69,
			"componentType":5126,
			"count":60,
			"type":"VEC4"
		},
		{
			"bufferView":70,
			"componentType":5126,
			"count":2,
			"type":"VEC3"
		},
		{
			"bufferView":71,
			"componentType":5126,
			"count":60,
			"type":"VEC3"
		},
		{
			"bufferView":72,
			"componentType":5126,
			"count":60,
			"type":"VEC4"
		},
		{
			"bufferView":73,
			"componentType":5126,
			"count":2,
			"type":"VEC3"
		},
		{
			"bufferView":74,
			"componentType":5126,
			"count":60,
			"type":"VEC3"
		},
		{
			"bufferView":75,
			"componentType":5126,
			"count":60,
			"type":"VEC4"
		},
		{
			"bufferView":76,
			"componentType":5126,
			"count":2,
			"type":"VEC3"
		},
		{
			"bufferView":77,
			"componentType":5126,
			"count":60,
			"type":"VEC3"
		},
		{
			"bufferView":78,
			"componentType":5126,
			"count":60,
			"type":"VEC4"
		},
		{
			"bufferView":79,
			"componentType":5126,
			"count":2,
			"type":"VEC3"
		},
		{
			"bufferView":80,
			"componentType":5126,
			"count":60,
			"type":"VEC3"
		},
		{
			"bufferView":81,
			"componentType":5126,
			"count":60,
			"type":"VEC4"
		},
		{
			"bufferView":82,
			"componentType":5126,
			"count":2,
			"type":"VEC3"
		},
		{
			"bufferView":83,
			"componentType":5126,
			"count":60,
			"type":"VEC3"
		},
		{
			"bufferView":84,
			"componentType":5126,
			"count":60,
			"type":"VEC4"
		},
		{
			"bufferView":85,
			"componentType":5126,
			"count":2,
			"type":"VEC3"
		},
		{
			"bufferView":86,
			"componentType":5126,
			"count":60,
			"type":"VEC3"
		},
		{
			"bufferView":87,
			"componentType":5126,
			"count":60,
			"type":"VEC4"
		},
		{
			"bufferView":88,
			"componentType":5126,
			"count":2,
			"type":"VEC3"
		},
		{
			"bufferView":89,
			"componentType":5126,
			"count":60,
			"type":"VEC3"
		},
		{
			"bufferView":90,
			"componentType":5126,
			"count":60,
			"type":"VEC4"
		},
		{
			"bufferView":91,
			"componentType":5126,
			"count":2,
			"type":"VEC3"
		},
		{
			"bufferView":92,
			"componentType":5126,
			"count":60,
			"type":"VEC3"
		},
		{
			"bufferView":93,
			"componentType":5126,
			"count":60,
			"type":"VEC4"
		},
		{
			"bufferView":94,
			"componentType":5126,
			"count":2,
			"type":"VEC3"
		},
		{
			"bufferView":95,
			"componentType":5126,
			"count":60,
			"type":"VEC3"
		},
		{
			"bufferView":96,
			"componentType":5126,
			"count":60,
			"type":"VEC4"
		},
		{
			"bufferView":97,
			"componentType":5126,
			"count":2,
			"type":"VEC3"
		},
		{
			"bufferView":98,
			"componentType":5126,
			"count":60,
			"type":"VEC3"
		},
		{
			"bufferView":99,
			"componentType":5126,
			"count":60,
			"type":"VEC4"
		},
		{
			"bufferView":100,
			"componentType":5126,
			"count":2,
			"type":"VEC3"
		}
	],
	"bufferViews":[
		{
			"buffer":0,
			"byteLength":89592,
			"byteOffset":0,
			"target":34962
		},
		{
			"buffer":0,
			"byteLength":89592,
			"byteOffset":89592,
			"target":34962
		},
		{
			"buffer":0,
			"byteLength":59728,
			"byteOffset":179184,
			"target":34962
		},
		{
			"buffer":0,
			"byteLength":59728,
			"byteOffset":238912,
			"target":34962
		},
		{
			"buffer":0,
			"byteLength":64896,
			"byteOffset":298640,
			"target":34963
		},
		{
			"buffer":0,
			"byteLength":27072,
			"byteOffset":363536,
			"target":34962
		},
		{
			"buffer":0,
			"byteLength":27072,
			"byteOffset":390608,
			"target":34962
		},
		{
			"buffer":0,
			"byteLength":18048,
			"byteOffset":417680,
			"target":34962
		},
		{
			"buffer":0,
			"byteLength":18048,
			"byteOffset":435728,
			"target":34962
		},
		{
			"buffer":0,
			"byteLength":26784,
			"byteOffset":453776,
			"target":34963
		},
		{
			"buffer":0,
			"byteLength":16296,
			"byteOffset":480560,
			"target":34962
		},
		{
			"buffer":0,
			"byteLength":16296,
			"byteOffset":496856,
			"target":34962
		},
		{
			"buffer":0,
			"byteLength":10864,
			"byteOffset":513152,
			"target":34962
		},
		{
			"buffer":0,
			"byteLength":10864,
			"byteOffset":524016,
			"target":34962
		},
		{
			"buffer":0,
			"byteLength":16152,
			"byteOffset":534880,
			"target":34963
		},
		{
			"buffer":0,
			"byteLength":23328,
			"byteOffset":551032,
			"target":34962
		},
		{
			"buffer":0,
			"byteLength":23328,
			"byteOffset":574360,
			"target":34962
		},
		{
			"buffer":0,
			"byteLength":15552,
			"byteOffset":597688,
			"target":34962
		},
		{
			"buffer":0,
			"byteLength":15552,
			"byteOffset":613240,
			"target":34962
		},
		{
			"buffer":0,
			"byteLength":22992,
			"byteOffset":628792,
			"target":34963
		},
		{
			"buffer":0,
			"byteLength":10584,
			"byteOffset":651784,
			"target":34962
		},
		{
			"buffer":0,
			"byteLength":10584,
			"byteOffset":662368,
			"target":34962
		},
		{
			"buffer":0,
			"byteLength":7056,
			"byteOffset":672952,
			"target":34962
		},
		{
			"buffer":0,
			"byteLength":7056,
			"byteOffset":680008,
			"target":34962
		},
		{
			"buffer":0,
			"byteLength":10560,
			"byteOffset":687064,
			"target":34963
		},
		{
			"buffer":0,
			"byteLength":17904,
			"byteOffset":697624,
			"target":34962
		},
		{
			"buffer":0,
			"byteLength":17904,
			"byteOffset":715528,
			"target":34962
		},
		{
			"buffer":0,
			"byteLength":11936,
			"byteOffset":733432,
			"target":34962
		},
		{
			"buffer":0,
			"byteLength":11936,
			"byteOffset":745368,
			"target":34962
		},
		{
			"buffer":0,
			"byteLength":17736,
			"byteOffset":757304,
			"target":34963
		},
		{
			"buffer":0,
			"byteLength":13128,
			"byteOffset":775040,
			"target":34962
		},
		{
			"buffer":0,
			"byteLength":13128,
			"byteOffset":788168,
			"target":34962
		},
		{
			"buffer":0,
			"byteLength":8752,
			"byteOffset":801296,
			"target":34962
		},
		{
			"buffer":0,
			"byteLength":8752,
			"byteOffset":810048,
			"target":34962
		},
		{
			"buffer":0,
			"byteLength":12864,
			"byteOffset":818800,
			"target":34963
		},
		{
			"buffer":0,
			"byteLength":12048,
			"byteOffset":831664,
			"target":34962
		},
		{
			"buffer":0,
			"byteLength":12048,
			"byteOffset":843712,
			"target":34962
		},
		{
			"buffer":0,
			"byteLength":8032,
			"byteOffset":855760,
			"target":34962
		},
		{
			"buffer":0,
			"byteLength":8032,
			"byteOffset":863792,
			"target":34962
		},
		{
			"buffer":0,
			"byteLength":12024,
			"byteOffset":871824,
			"target":34963
		},
		{
			"buffer":0,
			"byteLength":24432,
			"byteOffset":883848,
			"target":34962
		},
		{
			"buffer":0,
			"byteLength":24432,
			"byteOffset":908280,
			"target":34962
		},
		{
			"buffer":0,
			"byteLength":16288,
			"byteOffset":932712,
			"target":34962
		},
		{
			"buffer":0,
			"byteLength":16288,
			"byteOffset":949000,
			"target":34962
		},
		{
			"buffer":0,
			"byteLength":24096,
			"byteOffset":965288,
			"target":34963
		},
		{
			"buffer":0,
			"byteLength":10056,
			"byteOffset":989384,
			"target":34962
		},
		{
			"buffer":0,
			"byteLength":10056,
			"byteOffset":999440,
			"target":34962
		},
		{
			"buffer":0,
			"byteLength":6704,
			"byteOffset":1009496,
			"target":34962
		},
		{
			"buffer":0,
			"byteLength":6704,
			"byteOffset":1016200,
			"target":34962
		},
		{
			"buffer":0,
			"byteLength":10032,
			"byteOffset":1022904,
			"target":34963
		},
		{
			"buffer":0,
			"byteLength":6456,
			"byteOffset":1032936,
			"target":34962
		},
		{
			"buffer":0,
			"byteLength":6456,
			"byteOffset":1039392,
			"target":34962
		},
		{
			"buffer":0,
			"byteLength":4304,
			"byteOffset":1045848,
			"target":34962
		},
		{
			"buffer":0,
			"byteLength":4304,
			"byteOffset":1050152,
			"target":34962
		},
		{
			"buffer":0,
			"byteLength":6432,
			"byteOffset":1054456,
			"target":34963
		},
		{
			"buffer":0,
			"byteLength":38880,
			"byteOffset":1060888,
			"target":34962
		},
		{
			"buffer":0,
			"byteLength":38880,
			"byteOffset":1099768,
			"target":34962
		},
		{
			"buffer":0,
			"byteLength":25920,
			"byteOffset":1138648,
			"target":34962
		},
		{
			"buffer":0,
			"byteLength":25920,
			"byteOffset":1164568,
			"target":34962
		},
		{
			"buffer":0,
			"byteLength":37968,
			"byteOffset":1190488,
			"target":34963
		},
		{
			"buffer":0,
			"byteLength":240,
			"byteOffset":1228456
		},
		{
			"buffer":0,
			"byteLength":720,
			"byteOffset":1228696
		},
		{
			"buffer":0,
			"byteLength":960,
			"byteOffset":1229416
		},
		{
			"buffer":0,
			"byteLength":8,
			"byteOffset":1230376
		},
		{
			"buffer":0,
			"byteLength":24,
			"byteOffset":1230384
		},
		{
			"buffer":0,
			"byteLength":720,
			"byteOffset":1230408
		},
		{
			"buffer":0,
			"byteLength":960,
			"byteOffset":1231128
		},
		{
			"buffer":0,
			"byteLength":24,
			"byteOffset":1232088
		},
		{
			"buffer":0,
			"byteLength":720,
			"byteOffset":1232112
		},
		{
			"buffer":0,
			"byteLength":960,
			"byteOffset":1232832
		},
		{
			"buffer":0,
			"byteLength":24,
			"byteOffset":1233792
		},
		{
			"buffer":0,
			"byteLength":720,
			"byteOffset":1233816
		},
		{
			"buffer":0,
			"byteLength":960,
			"byteOffset":1234536
		},
		{
			"buffer":0,
			"byteLength":24,
			"byteOffset":1235496
		},
		{
			"buffer":0,
			"byteLength":720,
			"byteOffset":1235520
		},
		{
			"buffer":0,
			"byteLength":960,
			"byteOffset":1236240
		},
		{
			"buffer":0,
			"byteLength":24,
			"byteOffset":1237200
		},
		{
			"buffer":0,
			"byteLength":720,
			"byteOffset":1237224
		},
		{
			"buffer":0,
			"byteLength":960,
			"byteOffset":1237944
		},
		{
			"buffer":0,
			"byteLength":24,
			"byteOffset":1238904
		},
		{
			"buffer":0,
			"byteLength":720,
			"byteOffset":1238928
		},
		{
			"buffer":0,
			"byteLength":960,
			"byteOffset":1239648
		},
		{
			"buffer":0,
			"byteLength":24,
			"byteOffset":1240608
		},
		{
			"buffer":0,
			"byteLength":720,
			"byteOffset":1240632
		},
		{
			"buffer":0,
			"byteLength":960,
			"byteOffset":1241352
		},
		{
			"buffer":0,
			"byteLength":24,
			"byteOffset":1242312
		},
		{
			"buffer":0,
			"byteLength":720,
			"byteOffset":1242336
		},
		{
			"buffer":0,
			"byteLength":960,
			"byteOffset":1243056
		},
		{
			"buffer":0,
			"byteLength":24,
			"byteOffset":1244016
		},
		{
			"buffer":0,
			"byteLength":720,
			"byteOffset":1244040
		},
		{
			"buffer":0,
			"byteLength":960,
			"byteOffset":1244760
		},
		{
			"buffer":0,
			"byteLength":24,
			"byteOffset":1245720
		},
		{
			"buffer":0,
			"byteLength":720,
			"byteOffset":1245744
		},
		{
			"buffer":0,
			"byteLength":960,
			"byteOffset":1246464
		},
		{
			"buffer":0,
			"byteLength":24,
			"byteOffset":1247424
		},
		{
			"buffer":0,
			"byteLength":720,
			"byteOffset":1247448
		},
		{
			"buffer":0,
			"byteLength":960,
			"byteOffset":1248168
		},
		{
			"buffer":0,
			"byteLength":24,
			"byteOffset":1249128
		},
		{
			"buffer":0,
			"byteLength":720,
			"byteOffset":1249152
		},
		{
			"buffer":0,
			"byteLength":960,
			"byteOffset":1249872
		},
		{
			"buffer":0,
			"byteLength":24,
			"byteOffset":1250832
		}
	],
	"samplers":[
		{
			"magFilter":9729,
			"minFilter":9987
		}
	],
	"buffers":[
		{
			"byteLength":1250856,
			"uri":"BrokenBox.bin"
		}
	]
}
