# Blender 4.4.1
# www.blender.org
mtllib player.mtl
o cube
v 0.400000 0.200000 -0.400000
v 0.400000 0.200000 -0.400000
v 0.400000 0.200000 -0.400000
v 0.400000 1.000000 -0.400000
v 0.400000 1.000000 -0.400000
v 0.400000 1.000000 -0.400000
v 0.400000 0.200000 0.400000
v 0.400000 0.200000 0.400000
v 0.400000 0.200000 0.400000
v 0.400000 1.000000 0.400000
v 0.400000 1.000000 0.400000
v 0.400000 1.000000 0.400000
v -0.400000 0.200000 -0.400000
v -0.400000 0.200000 -0.400000
v -0.400000 0.200000 -0.400000
v -0.400000 1.000000 -0.400000
v -0.400000 1.000000 -0.400000
v -0.400000 1.000000 -0.400000
v -0.400000 0.200000 0.400000
v -0.400000 0.200000 0.400000
v -0.400000 0.200000 0.400000
v -0.400000 1.000000 0.400000
v -0.400000 1.000000 0.400000
v -0.400000 1.000000 0.400000
v 0.144000 -0.900000 -0.144000
v 0.144000 -0.900000 -0.144000
v 0.144000 -0.900000 -0.144000
v 0.240000 0.006059 -0.240000
v 0.240000 0.006059 -0.240000
v 0.240000 0.006059 -0.240000
v 0.144000 -0.900000 0.144000
v 0.144000 -0.900000 0.144000
v 0.144000 -0.900000 0.144000
v 0.240000 0.006059 0.240000
v 0.240000 0.006059 0.240000
v 0.240000 0.006059 0.240000
v -0.144000 -0.900000 -0.144000
v -0.144000 -0.900000 -0.144000
v -0.144000 -0.900000 -0.144000
v -0.240000 0.006059 -0.240000
v -0.240000 0.006059 -0.240000
v -0.240000 0.006059 -0.240000
v -0.144000 -0.900000 0.144000
v -0.144000 -0.900000 0.144000
v -0.144000 -0.900000 0.144000
v -0.240000 0.006059 0.240000
v -0.240000 0.006059 0.240000
v -0.240000 0.006059 0.240000
v -0.500000 -0.500736 -0.200000
v -0.500000 -0.500736 -0.200000
v -0.500000 -0.500736 -0.200000
v -0.500000 -0.100736 -0.200000
v -0.500000 -0.100736 -0.200000
v -0.500000 -0.100736 -0.200000
v -0.500000 -0.500736 0.200000
v -0.500000 -0.500736 0.200000
v -0.500000 -0.500736 0.200000
v -0.500000 -0.100736 0.200000
v -0.500000 -0.100736 0.200000
v -0.500000 -0.100736 0.200000
v -0.900000 -0.500736 -0.200000
v -0.900000 -0.500736 -0.200000
v -0.900000 -0.500736 -0.200000
v -0.900000 -0.100736 -0.200000
v -0.900000 -0.100736 -0.200000
v -0.900000 -0.100736 -0.200000
v -0.900000 -0.500736 0.200000
v -0.900000 -0.500736 0.200000
v -0.900000 -0.500736 0.200000
v -0.900000 -0.100736 0.200000
v -0.900000 -0.100736 0.200000
v -0.900000 -0.100736 0.200000
v 0.900000 -0.500736 -0.200000
v 0.900000 -0.500736 -0.200000
v 0.900000 -0.500736 -0.200000
v 0.900000 -0.100736 -0.200000
v 0.900000 -0.100736 -0.200000
v 0.900000 -0.100736 -0.200000
v 0.900000 -0.500736 0.200000
v 0.900000 -0.500736 0.200000
v 0.900000 -0.500736 0.200000
v 0.900000 -0.100736 0.200000
v 0.900000 -0.100736 0.200000
v 0.900000 -0.100736 0.200000
v 0.500000 -0.500736 -0.200000
v 0.500000 -0.500736 -0.200000
v 0.500000 -0.500736 -0.200000
v 0.500000 -0.100736 -0.200000
v 0.500000 -0.100736 -0.200000
v 0.500000 -0.100736 -0.200000
v 0.500000 -0.500736 0.200000
v 0.500000 -0.500736 0.200000
v 0.500000 -0.500736 0.200000
v 0.500000 -0.100736 0.200000
v 0.500000 -0.100736 0.200000
v 0.500000 -0.100736 0.200000
vn 1.0000 -0.0000 -0.0000
vn -0.0000 -0.0000 1.0000
vn -1.0000 -0.0000 -0.0000
vn -0.0000 -0.0000 -1.0000
vn -0.0000 -1.0000 -0.0000
vn -0.0000 1.0000 -0.0000
vn 0.9944 -0.1054 -0.0000
vn -0.0000 -0.1054 0.9944
vn -0.9944 -0.1054 -0.0000
vn -0.0000 -0.1054 -0.9944
vt 0.375000 0.000000
vt 0.625000 0.000000
vt 0.625000 0.250000
vt 0.375000 0.250000
vt 0.625000 0.500000
vt 0.375000 0.500000
vt 0.625000 0.750000
vt 0.375000 0.750000
vt 0.625000 1.000000
vt 0.375000 1.000000
vt 0.125000 0.500000
vt 0.125000 0.750000
vt 0.875000 0.500000
vt 0.875000 0.750000
s 1
usemtl Material.001
f 3/1/1 6/2/1 12/3/1
f 3/1/1 12/3/1 9/4/1
f 7/4/2 10/3/2 22/5/2
f 7/4/2 22/5/2 19/6/2
f 21/6/3 24/5/3 18/7/3
f 21/6/3 18/7/3 15/8/3
f 13/8/4 16/7/4 4/9/4
f 13/8/4 4/9/4 1/10/4
f 8/11/5 20/6/5 14/8/5
f 8/11/5 14/8/5 2/12/5
f 23/5/6 11/13/6 5/14/6
f 23/5/6 5/14/6 17/7/6
usemtl Material.002
f 27/1/7 30/2/7 36/3/7
f 27/1/7 36/3/7 33/4/7
f 31/4/8 35/3/8 47/5/8
f 31/4/8 47/5/8 43/6/8
f 45/6/9 48/5/9 42/7/9
f 45/6/9 42/7/9 39/8/9
f 37/8/10 41/7/10 29/9/10
f 37/8/10 29/9/10 25/10/10
f 32/11/5 44/6/5 38/8/5
f 32/11/5 38/8/5 26/12/5
f 46/5/6 34/13/6 28/14/6
f 46/5/6 28/14/6 40/7/6
usemtl Material.004
f 51/1/1 54/2/1 60/3/1
f 51/1/1 60/3/1 57/4/1
f 55/4/2 58/3/2 70/5/2
f 55/4/2 70/5/2 67/6/2
f 69/6/3 72/5/3 66/7/3
f 69/6/3 66/7/3 63/8/3
f 61/8/4 64/7/4 52/9/4
f 61/8/4 52/9/4 49/10/4
f 56/11/5 68/6/5 62/8/5
f 56/11/5 62/8/5 50/12/5
f 71/5/6 59/13/6 53/14/6
f 71/5/6 53/14/6 65/7/6
usemtl Material.003
f 75/1/1 78/2/1 84/3/1
f 75/1/1 84/3/1 81/4/1
f 79/4/2 82/3/2 94/5/2
f 79/4/2 94/5/2 91/6/2
f 93/6/3 96/5/3 90/7/3
f 93/6/3 90/7/3 87/8/3
f 85/8/4 88/7/4 76/9/4
f 85/8/4 76/9/4 73/10/4
f 80/11/5 92/6/5 86/8/5
f 80/11/5 86/8/5 74/12/5
f 95/5/6 83/13/6 77/14/6
f 95/5/6 77/14/6 89/7/6
