# Blender 4.4.1
# www.blender.org
mtllib stage_3.mtl
o 立方体.009
v 33.200001 -5.000000 -10.000000
v 33.200001 5.000000 -10.000000
v 33.200001 -5.000000 10.000000
v 33.200001 5.000000 10.000000
v 10.800000 -5.000000 -10.000000
v 10.800000 5.000000 -10.000000
v 10.800000 -5.000000 10.000000
v 10.800000 5.000000 10.000000
v 55.070007 -5.000000 -10.000000
v 55.070007 5.000000 -10.000000
v 55.070007 -5.000000 10.000000
v 55.070007 5.000000 10.000000
v 33.230003 -5.000000 -10.000000
v 33.230003 5.000000 -10.000000
v 33.230003 -5.000000 10.000000
v 33.230003 5.000000 10.000000
v 76.770004 -5.000000 -10.000000
v 76.770004 5.000000 -10.000000
v 76.770004 -5.000000 10.000000
v 76.770004 5.000000 10.000000
v 54.929996 -5.000000 -10.000000
v 54.929996 5.000000 -10.000000
v 54.929996 -5.000000 10.000000
v 54.929996 5.000000 10.000000
v 128.000000 -5.000000 -10.000000
v 128.000000 5.000000 -10.000000
v 128.000000 -5.000000 10.000000
v 128.000000 5.000000 10.000000
v 100.000000 -5.000000 -10.000000
v 100.000000 5.000000 -10.000000
v 100.000000 -5.000000 10.000000
v 100.000000 5.000000 10.000000
v 101.000000 20.000000 -10.000000
v 101.000000 40.000000 -10.000000
v 101.000000 20.000000 10.000000
v 101.000000 40.000000 10.000000
v 75.000000 20.000000 -10.000000
v 75.000000 40.000000 -10.000000
v 75.000000 20.000000 10.000000
v 75.000000 40.000000 10.000000
v 99.531517 13.000000 -4.000000
v 99.531517 17.000000 -4.000000
v 99.531517 13.000000 4.000000
v 99.531517 17.000000 4.000000
v 76.468475 13.000000 -4.000000
v 76.468475 17.000000 -4.000000
v 76.468475 13.000000 4.000000
v 76.468475 17.000000 4.000000
v 100.759995 -4.999998 6.360001
v 100.759995 23.999998 6.360001
v 100.759995 -4.999998 15.640000
v 100.759995 23.999998 15.640000
v 75.240005 -4.999998 6.360001
v 75.240005 23.999998 6.360001
v 75.240005 -4.999998 15.640000
v 75.240005 23.999998 15.640000
v 69.239998 12.900000 -10.000000
v 69.239998 32.099998 -10.000000
v 69.239998 12.900000 10.000000
v 69.239998 32.099998 10.000000
v 64.759995 12.900000 -10.000000
v 64.759995 32.099998 -10.000000
v 64.759995 12.900000 10.000000
v 64.759995 32.099998 10.000000
v -28.399998 -5.000000 -10.000000
v -28.399998 5.000000 -10.000000
v -28.399998 -5.000000 10.000000
v -28.399998 5.000000 10.000000
v -39.599998 -5.000000 -10.000000
v -39.599998 5.000000 -10.000000
v -39.599998 -5.000000 10.000000
v -39.599998 5.000000 10.000000
v -29.199997 15.000000 -10.000000
v -29.199997 25.000000 -10.000000
v -29.199997 15.000000 10.000000
v -29.199997 25.000000 10.000000
v -31.999996 15.000000 -10.000000
v -31.999996 25.000000 -10.000000
v -31.999996 15.000000 10.000000
v -31.999996 25.000000 10.000000
v -38.800003 -5.000000 -10.000000
v -38.800003 15.000000 -10.000000
v -38.800003 -5.000000 10.000000
v -38.800003 15.000000 10.000000
v -61.200005 -5.000000 -10.000000
v -61.200005 15.000000 -10.000000
v -61.200005 -5.000000 10.000000
v -61.200005 15.000000 10.000000
v -58.999992 -5.000000 -10.000000
v -58.999992 3.000000 -10.000000
v -58.999992 -5.000000 10.000000
v -58.999992 3.000000 10.000000
v -119.000000 -5.000000 -10.000000
v -119.000000 3.000000 -10.000000
v -119.000000 -5.000000 10.000000
v -119.000000 3.000000 10.000000
v -96.884003 11.200001 -10.000000
v -96.884003 12.799999 -10.000000
v -96.884003 11.200001 10.000000
v -96.884003 12.799999 10.000000
v -105.116005 11.200001 -10.000000
v -105.116005 12.799999 -10.000000
v -105.116005 11.200001 10.000000
v -105.116005 12.799999 10.000000
v -72.883995 11.200001 -10.000000
v -72.883995 12.799999 -10.000000
v -72.883995 11.200001 10.000000
v -72.883995 12.799999 10.000000
v -81.116005 11.200001 -10.000000
v -81.116005 12.799999 -10.000000
v -81.116005 11.200001 10.000000
v -81.116005 12.799999 10.000000
v -118.600006 -5.000000 -10.000000
v -118.600006 3.000000 -10.000000
v -118.600006 -5.000000 10.000000
v -118.600006 3.000000 10.000000
v -135.399994 -5.000000 -10.000000
v -135.399994 3.000000 -10.000000
v -135.399994 -5.000000 10.000000
v -135.399994 3.000000 10.000000
v 50.399998 5.000000 -6.000000
v 50.399998 8.000001 -6.000000
v 50.399998 5.000000 6.000000
v 50.399998 8.000001 6.000000
v 47.599998 5.000000 -6.000000
v 47.599998 8.000001 -6.000000
v 47.599998 5.000000 6.000000
v 47.599998 8.000001 6.000000
v 102.239998 -4.060001 -10.000000
v 102.239998 17.060001 -10.000000
v 102.239998 -4.060001 10.000000
v 102.239998 17.060001 10.000000
v 97.760002 -4.060001 -10.000000
v 97.760002 17.060001 -10.000000
v 97.760002 -4.060001 10.000000
v 97.760002 17.060001 10.000000
v 79.239990 -4.060001 -10.000000
v 79.239990 17.060001 -10.000000
v 79.239990 -4.060001 10.000000
v 79.239990 17.060001 10.000000
v 74.759995 -4.060001 -10.000000
v 74.759995 17.060001 -10.000000
v 74.759995 -4.060001 10.000000
v 74.759995 17.060001 10.000000
v 13.560339 -5.045023 6.420578
v 13.560339 47.274986 6.420578
v 13.560339 -5.045023 15.140579
v 13.560339 47.274986 15.140579
v -38.759666 -5.045023 6.420578
v -38.759666 47.274986 6.420578
v -38.759666 -5.045023 15.140579
v -38.759666 47.274986 15.140579
vn 1.0000 -0.0000 -0.0000
vn -0.0000 -0.0000 1.0000
vn -1.0000 -0.0000 -0.0000
vn -0.0000 -0.0000 -1.0000
vn -0.0000 -1.0000 -0.0000
vn -0.0000 1.0000 -0.0000
vt 0.625000 0.000000
vt 0.375000 0.250000
vt 0.375000 0.000000
vt 0.625000 0.250000
vt 0.375000 0.500000
vt 0.625000 0.500000
vt 0.375000 0.750000
vt 0.625000 0.750000
vt 0.375000 1.000000
vt 0.125000 0.750000
vt 0.125000 0.500000
vt 0.875000 0.500000
vt 0.625000 1.000000
vt 0.875000 0.750000
s 0
usemtl ground
f 2/1/1 3/2/1 1/3/1
f 4/4/2 7/5/2 3/2/2
f 8/6/3 5/7/3 7/5/3
f 6/8/4 1/9/4 5/7/4
f 7/5/5 1/10/5 3/11/5
f 4/12/6 6/8/6 8/6/6
f 10/1/1 11/2/1 9/3/1
f 12/4/2 15/5/2 11/2/2
f 16/6/3 13/7/3 15/5/3
f 14/8/4 9/9/4 13/7/4
f 15/5/5 9/10/5 11/11/5
f 12/12/6 14/8/6 16/6/6
f 18/1/1 19/2/1 17/3/1
f 20/4/2 23/5/2 19/2/2
f 24/6/3 21/7/3 23/5/3
f 22/8/4 17/9/4 21/7/4
f 23/5/5 17/10/5 19/11/5
f 20/12/6 22/8/6 24/6/6
f 26/1/1 27/2/1 25/3/1
f 28/4/2 31/5/2 27/2/2
f 32/6/3 29/7/3 31/5/3
f 30/8/4 25/9/4 29/7/4
f 31/5/5 25/10/5 27/11/5
f 28/12/6 30/8/6 32/6/6
f 34/1/1 35/2/1 33/3/1
f 36/4/2 39/5/2 35/2/2
f 40/6/3 37/7/3 39/5/3
f 38/8/4 33/9/4 37/7/4
f 39/5/5 33/10/5 35/11/5
f 36/12/6 38/8/6 40/6/6
f 42/1/1 43/2/1 41/3/1
f 44/4/2 47/5/2 43/2/2
f 48/6/3 45/7/3 47/5/3
f 46/8/4 41/9/4 45/7/4
f 47/5/5 41/10/5 43/11/5
f 44/12/6 46/8/6 48/6/6
f 50/1/1 51/2/1 49/3/1
f 52/4/2 55/5/2 51/2/2
f 56/6/3 53/7/3 55/5/3
f 54/8/4 49/9/4 53/7/4
f 55/5/5 49/10/5 51/11/5
f 52/12/6 54/8/6 56/6/6
f 58/1/1 59/2/1 57/3/1
f 60/4/2 63/5/2 59/2/2
f 64/6/3 61/7/3 63/5/3
f 62/8/4 57/9/4 61/7/4
f 63/5/5 57/10/5 59/11/5
f 60/12/6 62/8/6 64/6/6
f 66/1/1 67/2/1 65/3/1
f 72/6/3 69/7/3 71/5/3
f 70/8/4 65/9/4 69/7/4
f 71/5/5 65/10/5 67/11/5
f 68/12/6 70/8/6 72/6/6
f 74/1/1 75/2/1 73/3/1
f 80/6/3 77/7/3 79/5/3
f 78/8/4 73/9/4 77/7/4
f 79/5/5 73/10/5 75/11/5
f 76/12/6 78/8/6 80/6/6
f 82/1/1 83/2/1 81/3/1
f 84/4/2 87/5/2 83/2/2
f 88/6/3 85/7/3 87/5/3
f 86/8/4 81/9/4 85/7/4
f 87/5/5 81/10/5 83/11/5
f 84/12/6 86/8/6 88/6/6
f 90/1/1 91/2/1 89/3/1
f 92/4/2 95/5/2 91/2/2
f 96/6/3 93/7/3 95/5/3
f 94/8/4 89/9/4 93/7/4
f 95/5/5 89/10/5 91/11/5
f 92/12/6 94/8/6 96/6/6
f 98/1/1 99/2/1 97/3/1
f 100/4/2 103/5/2 99/2/2
f 104/6/3 101/7/3 103/5/3
f 102/8/4 97/9/4 101/7/4
f 103/5/5 97/10/5 99/11/5
f 100/12/6 102/8/6 104/6/6
f 106/1/1 107/2/1 105/3/1
f 108/4/2 111/5/2 107/2/2
f 112/6/3 109/7/3 111/5/3
f 110/8/4 105/9/4 109/7/4
f 111/5/5 105/10/5 107/11/5
f 108/12/6 110/8/6 112/6/6
f 114/1/1 115/2/1 113/3/1
f 116/4/2 119/5/2 115/2/2
f 120/6/3 117/7/3 119/5/3
f 118/8/4 113/9/4 117/7/4
f 119/5/5 113/10/5 115/11/5
f 116/12/6 118/8/6 120/6/6
f 122/1/1 123/2/1 121/3/1
f 124/4/2 127/5/2 123/2/2
f 128/6/3 125/7/3 127/5/3
f 126/8/4 121/9/4 125/7/4
f 127/5/5 121/10/5 123/11/5
f 124/12/6 126/8/6 128/6/6
f 130/1/1 131/2/1 129/3/1
f 132/4/2 135/5/2 131/2/2
f 136/6/3 133/7/3 135/5/3
f 134/8/4 129/9/4 133/7/4
f 135/5/5 129/10/5 131/11/5
f 132/12/6 134/8/6 136/6/6
f 138/1/1 139/2/1 137/3/1
f 140/4/2 143/5/2 139/2/2
f 144/6/3 141/7/3 143/5/3
f 142/8/4 137/9/4 141/7/4
f 143/5/5 137/10/5 139/11/5
f 140/12/6 142/8/6 144/6/6
f 2/1/1 4/4/1 3/2/1
f 4/4/2 8/6/2 7/5/2
f 8/6/3 6/8/3 5/7/3
f 6/8/4 2/13/4 1/9/4
f 7/5/5 5/7/5 1/10/5
f 4/12/6 2/14/6 6/8/6
f 10/1/1 12/4/1 11/2/1
f 12/4/2 16/6/2 15/5/2
f 16/6/3 14/8/3 13/7/3
f 14/8/4 10/13/4 9/9/4
f 15/5/5 13/7/5 9/10/5
f 12/12/6 10/14/6 14/8/6
f 18/1/1 20/4/1 19/2/1
f 20/4/2 24/6/2 23/5/2
f 24/6/3 22/8/3 21/7/3
f 22/8/4 18/13/4 17/9/4
f 23/5/5 21/7/5 17/10/5
f 20/12/6 18/14/6 22/8/6
f 26/1/1 28/4/1 27/2/1
f 28/4/2 32/6/2 31/5/2
f 32/6/3 30/8/3 29/7/3
f 30/8/4 26/13/4 25/9/4
f 31/5/5 29/7/5 25/10/5
f 28/12/6 26/14/6 30/8/6
f 34/1/1 36/4/1 35/2/1
f 36/4/2 40/6/2 39/5/2
f 40/6/3 38/8/3 37/7/3
f 38/8/4 34/13/4 33/9/4
f 39/5/5 37/7/5 33/10/5
f 36/12/6 34/14/6 38/8/6
f 42/1/1 44/4/1 43/2/1
f 44/4/2 48/6/2 47/5/2
f 48/6/3 46/8/3 45/7/3
f 46/8/4 42/13/4 41/9/4
f 47/5/5 45/7/5 41/10/5
f 44/12/6 42/14/6 46/8/6
f 50/1/1 52/4/1 51/2/1
f 52/4/2 56/6/2 55/5/2
f 56/6/3 54/8/3 53/7/3
f 54/8/4 50/13/4 49/9/4
f 55/5/5 53/7/5 49/10/5
f 52/12/6 50/14/6 54/8/6
f 58/1/1 60/4/1 59/2/1
f 60/4/2 64/6/2 63/5/2
f 64/6/3 62/8/3 61/7/3
f 62/8/4 58/13/4 57/9/4
f 63/5/5 61/7/5 57/10/5
f 60/12/6 58/14/6 62/8/6
f 66/1/1 68/4/1 67/2/1
f 68/4/2 72/6/2 71/5/2
f 72/6/3 70/8/3 69/7/3
f 70/8/4 66/13/4 65/9/4
f 71/5/5 69/7/5 65/10/5
f 68/12/6 66/14/6 70/8/6
f 74/1/1 76/4/1 75/2/1
f 80/6/3 78/8/3 77/7/3
f 78/8/4 74/13/4 73/9/4
f 79/5/5 77/7/5 73/10/5
f 76/12/6 74/14/6 78/8/6
f 82/1/1 84/4/1 83/2/1
f 84/4/2 88/6/2 87/5/2
f 88/6/3 86/8/3 85/7/3
f 86/8/4 82/13/4 81/9/4
f 87/5/5 85/7/5 81/10/5
f 84/12/6 82/14/6 86/8/6
f 90/1/1 92/4/1 91/2/1
f 92/4/2 96/6/2 95/5/2
f 96/6/3 94/8/3 93/7/3
f 94/8/4 90/13/4 89/9/4
f 95/5/5 93/7/5 89/10/5
f 92/12/6 90/14/6 94/8/6
f 98/1/1 100/4/1 99/2/1
f 100/4/2 104/6/2 103/5/2
f 104/6/3 102/8/3 101/7/3
f 102/8/4 98/13/4 97/9/4
f 103/5/5 101/7/5 97/10/5
f 100/12/6 98/14/6 102/8/6
f 106/1/1 108/4/1 107/2/1
f 108/4/2 112/6/2 111/5/2
f 112/6/3 110/8/3 109/7/3
f 110/8/4 106/13/4 105/9/4
f 111/5/5 109/7/5 105/10/5
f 108/12/6 106/14/6 110/8/6
f 114/1/1 116/4/1 115/2/1
f 116/4/2 120/6/2 119/5/2
f 118/8/4 114/13/4 113/9/4
f 119/5/5 117/7/5 113/10/5
f 116/12/6 114/14/6 118/8/6
f 122/1/1 124/4/1 123/2/1
f 124/4/2 128/6/2 127/5/2
f 128/6/3 126/8/3 125/7/3
f 126/8/4 122/13/4 121/9/4
f 127/5/5 125/7/5 121/10/5
f 124/12/6 122/14/6 126/8/6
f 130/1/1 132/4/1 131/2/1
f 132/4/2 136/6/2 135/5/2
f 136/6/3 134/8/3 133/7/3
f 134/8/4 130/13/4 129/9/4
f 135/5/5 133/7/5 129/10/5
f 132/12/6 130/14/6 134/8/6
f 138/1/1 140/4/1 139/2/1
f 140/4/2 144/6/2 143/5/2
f 144/6/3 142/8/3 141/7/3
f 142/8/4 138/13/4 137/9/4
f 143/5/5 141/7/5 137/10/5
f 140/12/6 138/14/6 142/8/6
f 146/1/1 147/2/1 145/3/1
f 148/4/2 151/5/2 147/2/2
f 152/6/3 149/7/3 151/5/3
f 150/8/4 145/9/4 149/7/4
f 151/5/5 145/10/5 147/11/5
f 148/12/6 150/8/6 152/6/6
f 146/1/1 148/4/1 147/2/1
f 148/4/2 152/6/2 151/5/2
f 152/6/3 150/8/3 149/7/3
f 150/8/4 146/13/4 145/9/4
f 151/5/5 149/7/5 145/10/5
f 148/12/6 146/14/6 150/8/6
