# Blender 4.4.1
# www.blender.org
mtllib enemy_bomb.mtl
o 球
v 0.000000 0.950088 -0.540014
v 0.000000 0.681914 -0.808189
v 0.000000 0.331527 -0.953323
v 0.000000 0.141899 -0.972000
v 0.000000 -0.047728 -0.953323
v 0.000000 -0.398115 -0.808189
v 0.072568 1.039911 -0.364821
v 0.105351 0.950088 -0.529638
v 0.134087 0.829208 -0.674102
v 0.157670 0.681914 -0.792659
v 0.175193 0.513867 -0.880755
v 0.185984 0.331527 -0.935006
v 0.189627 0.141899 -0.953323
v 0.185984 -0.047728 -0.935006
v 0.175193 -0.230068 -0.880755
v 0.157670 -0.398115 -0.792659
v 0.134087 -0.545409 -0.674101
v 0.105351 -0.666289 -0.529638
v 0.072568 -0.756112 -0.364821
v 0.036994 -0.811424 -0.185984
v 0.142347 1.039911 -0.343654
v 0.206655 0.950088 -0.498908
v 0.263021 0.829208 -0.634989
v 0.309281 0.681914 -0.746669
v 0.343654 0.513867 -0.829654
v 0.364821 0.331527 -0.880755
v 0.371968 0.141899 -0.898010
v 0.364821 -0.047728 -0.880755
v 0.343654 -0.230068 -0.829654
v 0.309281 -0.398115 -0.746669
v 0.263021 -0.545409 -0.634989
v 0.206655 -0.666289 -0.498908
v 0.142347 -0.756112 -0.343653
v 0.072568 -0.811424 -0.175193
v 0.206655 1.039911 -0.309281
v 0.300016 0.950088 -0.449006
v 0.381847 0.829208 -0.571476
v 0.449006 0.681914 -0.671984
v 0.498908 0.513867 -0.746669
v 0.529638 0.331527 -0.792659
v 0.540014 0.141899 -0.808188
v 0.529638 -0.047728 -0.792659
v 0.498908 -0.230068 -0.746669
v 0.449006 -0.398115 -0.671984
v 0.381847 -0.545409 -0.571476
v 0.300016 -0.666289 -0.449006
v 0.206655 -0.756112 -0.309281
v 0.105351 -0.811424 -0.157670
v 0.263021 1.039911 -0.263021
v 0.381847 0.950088 -0.381847
v 0.486000 0.829208 -0.486000
v 0.571476 0.681914 -0.571476
v 0.634989 0.513867 -0.634989
v 0.674101 0.331527 -0.674101
v 0.687308 0.141899 -0.687308
v 0.674101 -0.047728 -0.674101
v 0.634989 -0.230068 -0.634989
v 0.571476 -0.398115 -0.571476
v 0.486000 -0.545409 -0.486000
v 0.381847 -0.666289 -0.381847
v 0.263021 -0.756112 -0.263021
v 0.134087 -0.811424 -0.134087
v 0.309281 1.039911 -0.206655
v 0.449006 0.950088 -0.300016
v 0.571476 0.829208 -0.381847
v 0.671984 0.681914 -0.449006
v 0.746669 0.513867 -0.498908
v 0.792659 0.331527 -0.529638
v 0.808189 0.141899 -0.540014
v 0.792659 -0.047728 -0.529638
v 0.746669 -0.230068 -0.498908
v 0.671984 -0.398115 -0.449006
v 0.571476 -0.545409 -0.381847
v 0.449006 -0.666289 -0.300016
v 0.309281 -0.756112 -0.206655
v 0.157670 -0.811424 -0.105351
v 0.343654 1.039911 -0.142347
v 0.498908 0.950088 -0.206654
v 0.634989 0.829208 -0.263021
v 0.746669 0.681914 -0.309281
v 0.829654 0.513867 -0.343654
v 0.880755 0.331527 -0.364821
v 0.898010 0.141899 -0.371968
v 0.880755 -0.047728 -0.364821
v 0.829654 -0.230068 -0.343654
v 0.746669 -0.398115 -0.309281
v 0.634989 -0.545409 -0.263021
v 0.498908 -0.666289 -0.206654
v 0.343654 -0.756112 -0.142346
v 0.175193 -0.811424 -0.072568
v 0.364821 1.039911 -0.072568
v 0.529638 0.950088 -0.105351
v 0.674101 0.829208 -0.134087
v 0.792659 0.681914 -0.157670
v 0.880755 0.513867 -0.175193
v 0.935006 0.331527 -0.185984
v 0.953323 0.141900 -0.189627
v 0.935006 -0.047728 -0.185984
v 0.880755 -0.230068 -0.175193
v 0.792659 -0.398115 -0.157670
v 0.674101 -0.545409 -0.134087
v 0.529638 -0.666289 -0.105351
v 0.364821 -0.756112 -0.072568
v 0.185984 -0.811424 -0.036994
v 0.371968 1.039911 -0.000000
v 0.540014 0.950088 -0.000000
v 0.687308 0.829208 -0.000000
v 0.808188 0.681914 -0.000000
v 0.898010 0.513867 -0.000000
v 0.953323 0.331527 -0.000000
v 0.972000 0.141900 0.000000
v 0.953323 -0.047728 0.000000
v 0.898010 -0.230068 0.000000
v 0.808188 -0.398115 0.000000
v 0.687308 -0.545409 0.000000
v 0.540014 -0.666289 0.000000
v 0.371968 -0.756112 0.000000
v 0.189627 -0.811424 0.000000
v 0.364821 1.039911 0.072568
v 0.529638 0.950088 0.105351
v 0.674101 0.829208 0.134087
v 0.792659 0.681914 0.157670
v 0.880755 0.513867 0.175193
v 0.935006 0.331527 0.185984
v 0.953323 0.141900 0.189627
v 0.935006 -0.047728 0.185984
v 0.880755 -0.230068 0.175193
v 0.792659 -0.398115 0.157670
v 0.674101 -0.545409 0.134087
v 0.529638 -0.666289 0.105351
v 0.364821 -0.756112 0.072568
v 0.185984 -0.811424 0.036994
v 0.343654 1.039911 0.142346
v 0.498908 0.950088 0.206655
v 0.634989 0.829208 0.263021
v 0.746669 0.681914 0.309281
v 0.829654 0.513867 0.343654
v 0.880755 0.331527 0.364821
v 0.898010 0.141900 0.371968
v 0.880755 -0.047728 0.364821
v 0.829654 -0.230068 0.343654
v 0.746669 -0.398115 0.309281
v 0.634989 -0.545409 0.263021
v 0.498908 -0.666289 0.206655
v 0.343654 -0.756112 0.142347
v 0.175193 -0.811424 0.072568
v 0.309281 1.039911 0.206655
v 0.449006 0.950088 0.300016
v 0.571476 0.829208 0.381847
v 0.671983 0.681914 0.449006
v 0.746669 0.513867 0.498908
v 0.792659 0.331527 0.529638
v 0.808188 0.141900 0.540014
v 0.792659 -0.047728 0.529638
v 0.746669 -0.230068 0.498908
v 0.671983 -0.398115 0.449006
v 0.571476 -0.545409 0.381847
v 0.449006 -0.666289 0.300016
v 0.309281 -0.756112 0.206655
v 0.157670 -0.811424 0.105351
v 0.263021 1.039911 0.263021
v 0.381847 0.950088 0.381847
v 0.486000 0.829208 0.486000
v 0.571476 0.681914 0.571476
v 0.634989 0.513867 0.634989
v 0.674101 0.331527 0.674101
v 0.687307 0.141900 0.687308
v 0.674101 -0.047728 0.674101
v 0.634989 -0.230068 0.634989
v 0.571476 -0.398115 0.571476
v 0.486000 -0.545408 0.486000
v 0.381847 -0.666289 0.381847
v 0.263021 -0.756112 0.263021
v 0.134087 -0.811424 0.134087
v 0.206654 1.039911 0.309281
v 0.300016 0.950089 0.449006
v 0.381847 0.829208 0.571476
v 0.449006 0.681914 0.671984
v 0.498908 0.513867 0.746669
v 0.529638 0.331527 0.792659
v 0.540014 0.141900 0.808188
v 0.529638 -0.047728 0.792659
v 0.498908 -0.230068 0.746669
v 0.449006 -0.398115 0.671984
v 0.381847 -0.545408 0.571476
v 0.300016 -0.666289 0.449006
v 0.206654 -0.756112 0.309281
v 0.105351 -0.811424 0.157670
v 0.142347 1.039911 0.343653
v 0.206654 0.950089 0.498908
v 0.263021 0.829208 0.634989
v 0.309280 0.681914 0.746669
v 0.343654 0.513867 0.829654
v 0.364821 0.331527 0.880755
v 0.371968 0.141900 0.898010
v 0.364821 -0.047728 0.880755
v 0.343654 -0.230068 0.829654
v 0.309280 -0.398115 0.746669
v 0.263021 -0.545408 0.634989
v 0.206654 -0.666289 0.498908
v 0.142347 -0.756112 0.343654
v 0.072568 -0.811424 0.175193
v 0.072568 1.039911 0.364821
v 0.105351 0.950089 0.529638
v 0.134087 0.829208 0.674101
v 0.157670 0.681914 0.792659
v 0.175193 0.513867 0.880755
v 0.185984 0.331527 0.935005
v 0.189627 0.141900 0.953323
v 0.185984 -0.047728 0.935005
v 0.175193 -0.230068 0.880755
v 0.157670 -0.398115 0.792659
v 0.134087 -0.545408 0.674102
v 0.105351 -0.666289 0.529638
v 0.072568 -0.756112 0.364821
v 0.036994 -0.811424 0.185985
v 0.000000 1.039911 0.371968
v 0.000000 0.950089 0.540014
v 0.000000 0.829208 0.687308
v 0.000000 0.681914 0.808188
v 0.000000 0.513867 0.898010
v 0.000000 0.331527 0.953323
v 0.000000 0.141900 0.971999
v 0.000000 -0.047728 0.953323
v 0.000000 -0.230068 0.898010
v 0.000000 -0.398115 0.808188
v 0.000000 -0.545408 0.687308
v 0.000000 -0.666289 0.540014
v 0.000000 -0.756112 0.371968
v 0.000000 -0.811424 0.189628
v -0.072568 1.039911 0.364821
v -0.105351 0.950089 0.529638
v -0.134087 0.829208 0.674101
v -0.157670 0.681914 0.792659
v -0.175193 0.513867 0.880755
v -0.185984 0.331527 0.935005
v -0.189628 0.141900 0.953323
v -0.185984 -0.047728 0.935005
v -0.175193 -0.230068 0.880755
v -0.157670 -0.398115 0.792659
v -0.134087 -0.545408 0.674102
v -0.105351 -0.666289 0.529638
v -0.072568 -0.756112 0.364821
v -0.036994 -0.811424 0.185985
v -0.142347 1.039911 0.343653
v -0.206655 0.950089 0.498908
v -0.263021 0.829208 0.634989
v -0.309281 0.681914 0.746668
v -0.343654 0.513867 0.829654
v -0.364821 0.331527 0.880755
v -0.371968 0.141900 0.898010
v -0.364821 -0.047728 0.880755
v -0.343654 -0.230068 0.829654
v -0.309281 -0.398115 0.746668
v -0.263021 -0.545408 0.634989
v -0.206655 -0.666289 0.498908
v -0.142347 -0.756112 0.343654
v -0.072568 -0.811424 0.175193
v -0.206655 1.039911 0.309281
v -0.300016 0.950089 0.449005
v -0.381847 0.829208 0.571476
v -0.449006 0.681914 0.671983
v -0.498908 0.513867 0.746669
v -0.529638 0.331527 0.792659
v -0.540014 0.141900 0.808188
v -0.529638 -0.047728 0.792659
v -0.498908 -0.230068 0.746669
v -0.449006 -0.398115 0.671984
v -0.381847 -0.545408 0.571476
v -0.300016 -0.666289 0.449005
v -0.206655 -0.756112 0.309281
v -0.105351 -0.811424 0.157670
v -0.263021 1.039911 0.263021
v -0.381847 0.950088 0.381847
v -0.486000 0.829208 0.486000
v -0.571476 0.681914 0.571475
v -0.634989 0.513867 0.634989
v -0.674101 0.331527 0.674101
v -0.687307 0.141900 0.687307
v -0.674101 -0.047728 0.674101
v -0.634989 -0.230068 0.634989
v -0.571476 -0.398115 0.571475
v -0.486000 -0.545408 0.486000
v -0.381847 -0.666289 0.381847
v -0.263021 -0.756112 0.263021
v -0.134087 -0.811424 0.134087
v 0.000000 -0.830101 0.000000
v -0.309281 1.039911 0.206654
v -0.449006 0.950088 0.300016
v -0.571476 0.829208 0.381847
v -0.671983 0.681914 0.449005
v -0.746668 0.513867 0.498908
v -0.792659 0.331527 0.529638
v -0.808188 0.141900 0.540013
v -0.792659 -0.047728 0.529638
v -0.746668 -0.230068 0.498908
v -0.671983 -0.398115 0.449005
v -0.571476 -0.545409 0.381847
v -0.449006 -0.666289 0.300016
v -0.309281 -0.756112 0.206654
v -0.157670 -0.811424 0.105351
v -0.343654 1.039911 0.142346
v -0.498908 0.950088 0.206654
v -0.634989 0.829208 0.263021
v -0.746668 0.681914 0.309280
v -0.829654 0.513867 0.343654
v -0.880755 0.331527 0.364821
v -0.898010 0.141900 0.371968
v -0.880755 -0.047728 0.364821
v -0.829654 -0.230068 0.343654
v -0.746668 -0.398115 0.309280
v -0.634989 -0.545409 0.263021
v -0.498908 -0.666289 0.206654
v -0.343654 -0.756112 0.142347
v -0.175193 -0.811424 0.072568
v -0.364821 1.039911 0.072568
v -0.529638 0.950088 0.105351
v -0.674101 0.829208 0.134087
v -0.792659 0.681914 0.157669
v -0.880755 0.513867 0.175193
v -0.935005 0.331527 0.185983
v -0.953322 0.141900 0.189627
v -0.935005 -0.047728 0.185983
v -0.880755 -0.230068 0.175193
v -0.792659 -0.398115 0.157669
v -0.674101 -0.545409 0.134087
v -0.529638 -0.666289 0.105351
v -0.364821 -0.756112 0.072568
v -0.185984 -0.811424 0.036994
v -0.371968 1.039911 -0.000000
v -0.540014 0.950088 -0.000000
v -0.687308 0.829208 -0.000000
v -0.808188 0.681914 -0.000000
v -0.898010 0.513867 -0.000000
v -0.953323 0.331527 -0.000000
v -0.971999 0.141900 0.000000
v -0.953323 -0.047728 0.000000
v -0.898010 -0.230068 0.000000
v -0.808188 -0.398115 0.000000
v -0.687308 -0.545409 0.000000
v -0.540014 -0.666289 0.000000
v -0.371968 -0.756112 0.000000
v -0.189627 -0.811424 0.000000
v -0.364821 1.039911 -0.072568
v -0.529638 0.950088 -0.105351
v -0.674101 0.829208 -0.134087
v -0.792659 0.681914 -0.157670
v -0.880755 0.513867 -0.175193
v -0.935005 0.331527 -0.185984
v -0.953322 0.141900 -0.189628
v -0.935005 -0.047728 -0.185984
v -0.880755 -0.230068 -0.175193
v -0.792659 -0.398115 -0.157670
v -0.674101 -0.545409 -0.134087
v -0.529638 -0.666289 -0.105351
v -0.364821 -0.756112 -0.072568
v -0.185984 -0.811424 -0.036994
v -0.343654 1.039911 -0.142347
v -0.498907 0.950088 -0.206654
v -0.634989 0.829208 -0.263021
v -0.746668 0.681914 -0.309281
v -0.829654 0.513867 -0.343654
v -0.880755 0.331527 -0.364821
v -0.898009 0.141899 -0.371968
v -0.880755 -0.047728 -0.364821
v -0.829654 -0.230068 -0.343654
v -0.746668 -0.398115 -0.309281
v -0.634989 -0.545409 -0.263021
v -0.498907 -0.666289 -0.206654
v -0.343654 -0.756112 -0.142346
v -0.175193 -0.811424 -0.072568
v -0.309280 1.039911 -0.206654
v -0.449005 0.950088 -0.300016
v -0.571476 0.829208 -0.381847
v -0.671983 0.681914 -0.449006
v -0.746668 0.513867 -0.498908
v -0.792659 0.331527 -0.529638
v -0.808187 0.141899 -0.540014
v -0.792659 -0.047728 -0.529638
v -0.746668 -0.230068 -0.498908
v -0.671983 -0.398115 -0.449006
v -0.571476 -0.545409 -0.381847
v -0.449005 -0.666289 -0.300016
v -0.309280 -0.756112 -0.206654
v -0.157670 -0.811424 -0.105351
v -0.263021 1.039911 -0.263021
v -0.381847 0.950088 -0.381847
v -0.486000 0.829208 -0.486000
v -0.571475 0.681914 -0.571476
v -0.634989 0.513867 -0.634989
v -0.674101 0.331527 -0.674101
v -0.687307 0.141899 -0.687307
v -0.674101 -0.047728 -0.674101
v -0.634989 -0.230068 -0.634989
v -0.571475 -0.398115 -0.571476
v -0.486000 -0.545409 -0.486000
v -0.381847 -0.666289 -0.381847
v -0.263021 -0.756112 -0.263021
v -0.134087 -0.811424 -0.134087
v -0.206654 1.039911 -0.309281
v -0.300016 0.950088 -0.449005
v -0.381847 0.829208 -0.571476
v -0.449005 0.681914 -0.671984
v -0.498908 0.513867 -0.746668
v -0.529638 0.331527 -0.792659
v -0.540013 0.141899 -0.808188
v -0.529638 -0.047728 -0.792659
v -0.498908 -0.230068 -0.746668
v -0.449005 -0.398115 -0.671983
v -0.381847 -0.545409 -0.571476
v -0.300016 -0.666289 -0.449005
v -0.206654 -0.756112 -0.309281
v -0.105351 -0.811424 -0.157670
v -0.142346 1.039911 -0.343654
v -0.206654 0.950088 -0.498907
v -0.263021 0.829208 -0.634989
v -0.309280 0.681914 -0.746668
v -0.343654 0.513867 -0.829654
v -0.364821 0.331527 -0.880755
v -0.371968 0.141899 -0.898010
v -0.364821 -0.047728 -0.880755
v -0.343654 -0.230068 -0.829654
v -0.309280 -0.398115 -0.746668
v -0.263021 -0.545409 -0.634989
v -0.206654 -0.666289 -0.498907
v -0.142346 -0.756112 -0.343653
v -0.072568 -0.811424 -0.175193
v -0.072568 1.039911 -0.364821
v -0.105351 0.950088 -0.529638
v -0.134087 0.829208 -0.674102
v -0.157669 0.681914 -0.792659
v -0.175193 0.513867 -0.880755
v -0.185983 0.331527 -0.935005
v -0.189627 0.141899 -0.953322
v -0.185983 -0.047728 -0.935005
v -0.175193 -0.230068 -0.880755
v -0.157669 -0.398115 -0.792659
v -0.134087 -0.545409 -0.674101
v -0.105351 -0.666289 -0.529638
v -0.072568 -0.756112 -0.364821
v -0.036994 -0.811424 -0.185984
v 0.000000 1.039911 -0.371968
v 0.000000 0.829208 -0.687308
v 0.000000 0.513867 -0.898010
v 0.000000 -0.230068 -0.898010
v 0.000000 -0.545409 -0.687308
v 0.000000 -0.666289 -0.540014
v 0.000000 -0.756112 -0.371968
v 0.000000 -0.811424 -0.189627
vn 0.0759 -0.6326 -0.7708
vn 0.0759 0.6326 -0.7708
vn 0.0624 -0.7715 -0.6332
vn 0.0865 0.4696 -0.8786
vn 0.0464 -0.8810 -0.4709
vn 0.0938 0.2890 -0.9527
vn 0.0286 -0.9566 -0.2902
vn 0.0975 0.0975 -0.9904
vn 0.0976 0.0976 -0.9904
vn 0.0097 -0.9951 -0.0980
vn 0.0975 -0.0975 -0.9904
vn 0.0975 -0.0976 -0.9904
vn 0.0938 -0.2890 -0.9527
vn 0.0464 0.8810 -0.4709
vn 0.0865 -0.4696 -0.8786
vn 0.0624 0.7715 -0.6332
vn 0.2563 -0.4696 -0.8448
vn 0.2563 -0.4696 -0.8449
vn 0.1847 0.7715 -0.6088
vn 0.2248 -0.6326 -0.7412
vn 0.2248 0.6326 -0.7412
vn 0.1847 -0.7715 -0.6088
vn 0.2563 0.4696 -0.8449
vn 0.2563 0.4696 -0.8448
vn 0.1374 -0.8810 -0.4528
vn 0.2779 0.2890 -0.9161
vn 0.0846 -0.9566 -0.2790
vn 0.2889 0.0975 -0.9524
vn 0.0286 -0.9951 -0.0942
vn 0.2889 -0.0975 -0.9524
vn 0.2779 -0.2890 -0.9161
vn 0.1374 0.8810 -0.4528
vn 0.1374 -0.9566 -0.2571
vn 0.4691 0.0975 -0.8777
vn 0.0464 -0.9951 -0.0869
vn 0.4691 -0.0975 -0.8777
vn 0.4513 -0.2890 -0.8443
vn 0.2230 0.8810 -0.4173
vn 0.2231 0.8810 -0.4173
vn 0.4162 -0.4696 -0.7786
vn 0.2999 0.7715 -0.5611
vn 0.3651 -0.6326 -0.6831
vn 0.3651 0.6326 -0.6831
vn 0.2999 -0.7715 -0.5611
vn 0.4162 0.4696 -0.7786
vn 0.2230 -0.8810 -0.4173
vn 0.4513 0.2890 -0.8443
vn 0.4036 0.7715 -0.4918
vn 0.4913 -0.6326 -0.5987
vn 0.4913 0.6326 -0.5987
vn 0.4036 -0.7715 -0.4918
vn 0.5601 0.4696 -0.6825
vn 0.3002 -0.8810 -0.3658
vn 0.6073 0.2890 -0.7400
vn 0.1850 -0.9565 -0.2254
vn 0.1850 -0.9566 -0.2254
vn 0.6314 0.0975 -0.7693
vn 0.6314 0.0976 -0.7693
vn 0.0625 -0.9951 -0.0761
vn 0.6314 -0.0975 -0.7693
vn 0.6073 -0.2890 -0.7400
vn 0.3002 0.8810 -0.3658
vn 0.5601 -0.4696 -0.6825
vn 0.7693 0.0976 -0.6314
vn 0.0761 -0.9951 -0.0625
vn 0.7693 -0.0976 -0.6314
vn 0.7400 -0.2890 -0.6073
vn 0.3658 0.8810 -0.3002
vn 0.6825 -0.4696 -0.5601
vn 0.4918 0.7715 -0.4036
vn 0.5987 -0.6326 -0.4913
vn 0.5987 0.6326 -0.4913
vn 0.4918 -0.7715 -0.4036
vn 0.6825 0.4696 -0.5601
vn 0.3658 -0.8810 -0.3002
vn 0.7400 0.2890 -0.6073
vn 0.2254 -0.9566 -0.1850
vn 0.6831 -0.6326 -0.3651
vn 0.6831 0.6326 -0.3651
vn 0.5611 -0.7715 -0.2999
vn 0.7786 0.4696 -0.4162
vn 0.4173 -0.8810 -0.2230
vn 0.8443 0.2890 -0.4513
vn 0.2571 -0.9566 -0.1374
vn 0.8777 0.0976 -0.4691
vn 0.8777 0.0975 -0.4691
vn 0.0869 -0.9951 -0.0464
vn 0.8777 -0.0976 -0.4691
vn 0.8443 -0.2890 -0.4513
vn 0.4173 0.8810 -0.2230
vn 0.4173 0.8810 -0.2231
vn 0.7786 -0.4696 -0.4162
vn 0.5611 0.7715 -0.2999
vn 0.0942 -0.9951 -0.0286
vn 0.9524 -0.0975 -0.2889
vn 0.9161 -0.2890 -0.2779
vn 0.4528 0.8810 -0.1374
vn 0.8448 -0.4696 -0.2563
vn 0.6088 0.7715 -0.1847
vn 0.7412 -0.6326 -0.2248
vn 0.7412 0.6326 -0.2248
vn 0.6088 -0.7715 -0.1847
vn 0.8448 0.4696 -0.2563
vn 0.4528 -0.8810 -0.1374
vn 0.9161 0.2890 -0.2779
vn 0.2790 -0.9566 -0.0846
vn 0.9524 0.0975 -0.2889
vn 0.6332 -0.7715 -0.0624
vn 0.8786 0.4696 -0.0865
vn 0.4709 -0.8810 -0.0464
vn 0.9527 0.2890 -0.0938
vn 0.2902 -0.9566 -0.0286
vn 0.9904 0.0975 -0.0975
vn 0.9904 0.0976 -0.0976
vn 0.0980 -0.9951 -0.0097
vn 0.9904 -0.0975 -0.0975
vn 0.9527 -0.2890 -0.0938
vn 0.4709 0.8810 -0.0464
vn 0.8786 -0.4696 -0.0865
vn 0.6332 0.7715 -0.0624
vn 0.7708 -0.6326 -0.0759
vn 0.7708 0.6326 -0.0759
vn 0.9527 -0.2890 0.0938
vn 0.4709 0.8810 0.0464
vn 0.8786 -0.4696 0.0865
vn 0.6332 0.7715 0.0624
vn 0.7708 -0.6326 0.0759
vn 0.7708 0.6326 0.0759
vn 0.6332 -0.7715 0.0624
vn 0.8786 0.4696 0.0865
vn 0.4709 -0.8810 0.0464
vn 0.9527 0.2890 0.0938
vn 0.2902 -0.9566 0.0286
vn 0.9904 0.0975 0.0975
vn 0.9904 0.0975 0.0976
vn 0.0980 -0.9951 0.0097
vn 0.9904 -0.0975 0.0975
vn 0.9904 -0.0976 0.0975
vn 0.8448 0.4696 0.2563
vn 0.4528 -0.8810 0.1374
vn 0.9161 0.2890 0.2779
vn 0.2790 -0.9566 0.0846
vn 0.9524 0.0975 0.2889
vn 0.0942 -0.9951 0.0286
vn 0.9524 -0.0975 0.2889
vn 0.9161 -0.2890 0.2779
vn 0.4528 0.8810 0.1374
vn 0.8448 -0.4696 0.2563
vn 0.8449 -0.4696 0.2563
vn 0.6088 0.7715 0.1847
vn 0.7412 -0.6326 0.2248
vn 0.7412 0.6326 0.2248
vn 0.6088 -0.7715 0.1847
vn 0.8443 -0.2890 0.4513
vn 0.4173 0.8810 0.2230
vn 0.4173 0.8810 0.2231
vn 0.7786 -0.4696 0.4162
vn 0.5611 0.7715 0.2999
vn 0.6831 -0.6326 0.3651
vn 0.6831 0.6326 0.3651
vn 0.5611 -0.7715 0.2999
vn 0.7786 0.4696 0.4162
vn 0.4173 -0.8810 0.2230
vn 0.8443 0.2890 0.4513
vn 0.2571 -0.9566 0.1374
vn 0.8777 0.0975 0.4691
vn 0.0869 -0.9951 0.0464
vn 0.8777 -0.0975 0.4691
vn 0.3658 -0.8810 0.3002
vn 0.7400 0.2890 0.6073
vn 0.2254 -0.9566 0.1850
vn 0.7693 0.0975 0.6314
vn 0.0761 -0.9951 0.0625
vn 0.7693 -0.0975 0.6314
vn 0.7400 -0.2890 0.6073
vn 0.3658 0.8810 0.3002
vn 0.6825 -0.4696 0.5601
vn 0.4918 0.7715 0.4036
vn 0.5987 -0.6326 0.4913
vn 0.5987 0.6326 0.4913
vn 0.4918 -0.7715 0.4036
vn 0.6825 0.4696 0.5601
vn 0.3002 0.8810 0.3658
vn 0.5601 -0.4696 0.6825
vn 0.4036 0.7715 0.4918
vn 0.4913 -0.6326 0.5987
vn 0.4913 0.6326 0.5987
vn 0.4036 -0.7715 0.4918
vn 0.5601 0.4696 0.6825
vn 0.3002 -0.8810 0.3658
vn 0.6073 0.2890 0.7400
vn 0.1850 -0.9566 0.2254
vn 0.1850 -0.9565 0.2254
vn 0.6314 0.0975 0.7693
vn 0.0625 -0.9951 0.0761
vn 0.6314 -0.0975 0.7693
vn 0.6073 -0.2890 0.7400
vn 0.4513 0.2890 0.8443
vn 0.1374 -0.9566 0.2571
vn 0.4691 0.0975 0.8777
vn 0.0464 -0.9951 0.0869
vn 0.4691 -0.0975 0.8777
vn 0.4513 -0.2890 0.8443
vn 0.2230 0.8810 0.4173
vn 0.4162 -0.4696 0.7786
vn 0.2999 0.7715 0.5611
vn 0.3651 -0.6326 0.6831
vn 0.3651 0.6326 0.6831
vn 0.2999 -0.7715 0.5611
vn 0.4162 0.4696 0.7786
vn 0.2230 -0.8810 0.4173
vn 0.2563 -0.4696 0.8448
vn 0.1847 0.7715 0.6088
vn 0.2248 -0.6326 0.7412
vn 0.2248 0.6326 0.7412
vn 0.1847 -0.7715 0.6088
vn 0.2563 0.4696 0.8448
vn 0.1374 -0.8810 0.4528
vn 0.2779 0.2890 0.9161
vn 0.0846 -0.9566 0.2790
vn 0.2889 0.0976 0.9524
vn 0.0286 -0.9951 0.0942
vn 0.2889 -0.0976 0.9524
vn 0.2889 -0.0975 0.9524
vn 0.2779 -0.2890 0.9161
vn 0.1374 0.8810 0.4528
vn 0.0286 -0.9566 0.2902
vn 0.0286 -0.9565 0.2902
vn 0.0975 0.0975 0.9904
vn 0.0097 -0.9951 0.0980
vn 0.0975 -0.0975 0.9904
vn 0.0976 -0.0976 0.9904
vn 0.0938 -0.2890 0.9527
vn 0.0464 0.8810 0.4709
vn 0.0865 -0.4696 0.8786
vn 0.0624 0.7715 0.6332
vn 0.0759 -0.6326 0.7708
vn 0.0759 0.6326 0.7708
vn 0.0624 -0.7715 0.6332
vn 0.0865 0.4696 0.8786
vn 0.0464 -0.8810 0.4709
vn 0.0938 0.2890 0.9527
vn -0.0759 -0.6326 0.7708
vn -0.0759 0.6326 0.7708
vn -0.0624 -0.7715 0.6332
vn -0.0865 0.4696 0.8786
vn -0.0464 -0.8810 0.4709
vn -0.0938 0.2890 0.9527
vn -0.0286 -0.9566 0.2902
vn -0.0975 0.0975 0.9904
vn -0.0975 0.0976 0.9904
vn -0.0097 -0.9951 0.0980
vn -0.0975 -0.0975 0.9904
vn -0.0976 -0.0975 0.9904
vn -0.0938 -0.2890 0.9527
vn -0.0464 0.8810 0.4709
vn -0.0865 -0.4696 0.8786
vn -0.0624 0.7715 0.6332
vn -0.0286 -0.9951 0.0942
vn -0.2889 -0.0976 0.9524
vn -0.2779 -0.2890 0.9161
vn -0.1374 0.8810 0.4528
vn -0.2563 -0.4696 0.8448
vn -0.1847 0.7715 0.6088
vn -0.2248 -0.6326 0.7412
vn -0.2248 0.6326 0.7412
vn -0.1847 -0.7715 0.6088
vn -0.2563 0.4696 0.8448
vn -0.1374 -0.8810 0.4528
vn -0.2779 0.2890 0.9161
vn -0.0846 -0.9566 0.2790
vn -0.2889 0.0976 0.9524
vn -0.2889 0.0975 0.9524
vn -0.3651 0.6326 0.6831
vn -0.2999 -0.7715 0.5611
vn -0.4162 0.4696 0.7786
vn -0.2231 -0.8810 0.4173
vn -0.2230 -0.8810 0.4173
vn -0.4513 0.2890 0.8443
vn -0.1374 -0.9566 0.2571
vn -0.4691 0.0975 0.8777
vn -0.0464 -0.9951 0.0869
vn -0.4691 -0.0975 0.8777
vn -0.4513 -0.2890 0.8443
vn -0.2230 0.8810 0.4173
vn -0.2231 0.8810 0.4173
vn -0.4162 -0.4696 0.7786
vn -0.2999 0.7715 0.5611
vn -0.3651 -0.6326 0.6831
vn -0.6314 -0.0975 0.7693
vn -0.6073 -0.2890 0.7400
vn -0.3002 0.8810 0.3658
vn -0.5601 -0.4696 0.6825
vn -0.4036 0.7715 0.4918
vn -0.4913 -0.6326 0.5987
vn -0.4913 0.6326 0.5987
vn -0.4036 -0.7715 0.4918
vn -0.5601 0.4696 0.6825
vn -0.3002 -0.8810 0.3658
vn -0.6073 0.2890 0.7400
vn -0.1850 -0.9565 0.2254
vn -0.1850 -0.9566 0.2254
vn -0.6314 0.0975 0.7693
vn -0.0625 -0.9951 0.0761
vn -0.4918 -0.7715 0.4036
vn -0.6825 0.4696 0.5601
vn -0.3658 -0.8810 0.3002
vn -0.7400 0.2890 0.6073
vn -0.2254 -0.9566 0.1850
vn -0.7693 0.0975 0.6314
vn -0.0761 -0.9951 0.0625
vn -0.7693 -0.0975 0.6314
vn -0.7400 -0.2890 0.6073
vn -0.3658 0.8810 0.3002
vn -0.6825 -0.4696 0.5601
vn -0.4918 0.7715 0.4036
vn -0.5987 -0.6326 0.4913
vn -0.5987 0.6326 0.4913
vn -0.8443 -0.2890 0.4513
vn -0.4173 0.8810 0.2230
vn -0.7786 -0.4696 0.4162
vn -0.5611 0.7715 0.2999
vn -0.6831 -0.6326 0.3651
vn -0.6831 0.6326 0.3651
vn -0.5611 -0.7715 0.2999
vn -0.7786 0.4696 0.4162
vn -0.4173 -0.8810 0.2230
vn -0.8443 0.2890 0.4513
vn -0.2571 -0.9566 0.1374
vn -0.8777 0.0975 0.4691
vn -0.8777 0.0975 0.4692
vn -0.0869 -0.9951 0.0464
vn -0.8777 -0.0975 0.4691
vn -0.8448 0.4696 0.2563
vn -0.4528 -0.8810 0.1374
vn -0.9161 0.2890 0.2779
vn -0.2790 -0.9566 0.0846
vn -0.9524 0.0975 0.2889
vn -0.0942 -0.9951 0.0286
vn -0.9524 -0.0975 0.2889
vn -0.9161 -0.2890 0.2779
vn -0.4528 0.8810 0.1374
vn -0.8448 -0.4696 0.2563
vn -0.6088 0.7715 0.1847
vn -0.7412 -0.6326 0.2248
vn -0.7412 0.6326 0.2248
vn -0.6088 -0.7715 0.1847
vn -0.9527 -0.2890 0.0938
vn -0.4709 0.8810 0.0464
vn -0.8786 -0.4696 0.0865
vn -0.6332 0.7715 0.0624
vn -0.7708 -0.6326 0.0759
vn -0.7708 0.6326 0.0759
vn -0.6332 -0.7715 0.0624
vn -0.8786 0.4696 0.0865
vn -0.4709 -0.8810 0.0464
vn -0.9527 0.2890 0.0938
vn -0.2902 -0.9566 0.0286
vn -0.9904 0.0975 0.0976
vn -0.0980 -0.9951 0.0097
vn -0.9904 -0.0975 0.0976
vn -0.4709 -0.8810 -0.0464
vn -0.9527 0.2890 -0.0938
vn -0.2902 -0.9566 -0.0286
vn -0.9904 0.0975 -0.0976
vn -0.0980 -0.9951 -0.0097
vn -0.9904 -0.0975 -0.0976
vn -0.9527 -0.2890 -0.0938
vn -0.4709 0.8810 -0.0464
vn -0.8786 -0.4696 -0.0865
vn -0.6332 0.7715 -0.0624
vn -0.7708 -0.6326 -0.0759
vn -0.7708 0.6326 -0.0759
vn -0.6332 -0.7715 -0.0624
vn -0.8786 0.4696 -0.0865
vn -0.8448 -0.4696 -0.2563
vn -0.6088 0.7715 -0.1847
vn -0.7412 -0.6326 -0.2248
vn -0.7412 0.6326 -0.2248
vn -0.6088 -0.7715 -0.1847
vn -0.8448 0.4696 -0.2563
vn -0.4528 -0.8810 -0.1374
vn -0.9161 0.2890 -0.2779
vn -0.2790 -0.9566 -0.0846
vn -0.9524 0.0975 -0.2889
vn -0.0942 -0.9951 -0.0286
vn -0.9524 -0.0975 -0.2889
vn -0.9161 -0.2890 -0.2779
vn -0.4528 0.8810 -0.1374
vn -0.2571 -0.9566 -0.1374
vn -0.8777 0.0975 -0.4691
vn -0.0869 -0.9951 -0.0464
vn -0.8777 -0.0975 -0.4691
vn -0.8443 -0.2890 -0.4513
vn -0.4173 0.8810 -0.2230
vn -0.4173 0.8810 -0.2231
vn -0.7786 -0.4696 -0.4162
vn -0.5611 0.7715 -0.2999
vn -0.6831 -0.6326 -0.3651
vn -0.6831 0.6326 -0.3651
vn -0.5611 -0.7715 -0.2999
vn -0.7786 0.4696 -0.4162
vn -0.4173 -0.8810 -0.2230
vn -0.4173 -0.8810 -0.2231
vn -0.8443 0.2890 -0.4513
vn -0.4918 0.7715 -0.4036
vn -0.5987 -0.6326 -0.4913
vn -0.5987 0.6326 -0.4913
vn -0.4918 -0.7715 -0.4036
vn -0.6825 0.4696 -0.5601
vn -0.3658 -0.8810 -0.3002
vn -0.7400 0.2890 -0.6073
vn -0.2254 -0.9566 -0.1850
vn -0.7693 0.0975 -0.6314
vn -0.0761 -0.9951 -0.0625
vn -0.7693 -0.0975 -0.6314
vn -0.7400 -0.2890 -0.6073
vn -0.3658 0.8810 -0.3002
vn -0.6825 -0.4696 -0.5601
vn -0.6314 0.0975 -0.7693
vn -0.0625 -0.9951 -0.0761
vn -0.6314 -0.0975 -0.7693
vn -0.6073 -0.2890 -0.7400
vn -0.3002 0.8810 -0.3658
vn -0.5601 -0.4696 -0.6825
vn -0.4036 0.7715 -0.4918
vn -0.4913 -0.6326 -0.5987
vn -0.4913 0.6326 -0.5987
vn -0.4036 -0.7715 -0.4918
vn -0.5601 0.4696 -0.6825
vn -0.3002 -0.8810 -0.3658
vn -0.6073 0.2890 -0.7400
vn -0.1850 -0.9566 -0.2254
vn -0.3651 -0.6326 -0.6831
vn -0.3651 0.6326 -0.6831
vn -0.2999 -0.7715 -0.5611
vn -0.4162 0.4696 -0.7786
vn -0.2230 -0.8810 -0.4173
vn -0.4513 0.2890 -0.8443
vn -0.1374 -0.9566 -0.2571
vn -0.4691 0.0975 -0.8777
vn -0.4692 0.0975 -0.8777
vn -0.0464 -0.9951 -0.0869
vn -0.4691 -0.0975 -0.8777
vn -0.4513 -0.2890 -0.8443
vn -0.2230 0.8810 -0.4173
vn -0.4162 -0.4696 -0.7786
vn -0.2999 0.7715 -0.5611
vn -0.0286 -0.9951 -0.0942
vn -0.2889 -0.0975 -0.9524
vn -0.2779 -0.2890 -0.9161
vn -0.1374 0.8810 -0.4528
vn -0.2563 -0.4696 -0.8448
vn -0.1847 0.7715 -0.6088
vn -0.2248 -0.6326 -0.7412
vn -0.2248 0.6326 -0.7412
vn -0.1847 -0.7715 -0.6088
vn -0.2563 0.4696 -0.8448
vn -0.1374 -0.8810 -0.4528
vn -0.2779 0.2890 -0.9161
vn -0.0846 -0.9566 -0.2790
vn -0.2889 0.0975 -0.9524
vn -0.0759 0.6326 -0.7708
vn -0.0624 -0.7715 -0.6332
vn -0.0865 0.4696 -0.8786
vn -0.0464 -0.8810 -0.4709
vn -0.0938 0.2890 -0.9527
vn -0.0286 -0.9566 -0.2902
vn -0.0286 -0.9565 -0.2902
vn -0.0976 0.0975 -0.9904
vn -0.0976 0.0976 -0.9904
vn -0.0097 -0.9951 -0.0980
vn -0.0976 -0.0975 -0.9904
vn -0.0938 -0.2890 -0.9527
vn -0.0464 0.8810 -0.4709
vn -0.0865 -0.4696 -0.8786
vn -0.0624 0.7715 -0.6332
vn -0.0759 -0.6326 -0.7708
vn 0.0976 -0.0975 -0.9904
vn 0.2231 -0.8810 -0.4173
vn 0.6314 -0.0976 -0.7693
vn 0.8777 -0.0975 -0.4691
vn 0.9904 -0.0976 -0.0976
vn 0.9904 0.0976 0.0975
vn 0.9904 -0.0975 0.0976
vn 0.8449 0.4696 0.2563
vn 0.4173 -0.8810 0.2231
vn 0.2889 0.0975 0.9524
vn 0.0976 0.0976 0.9904
vn -0.0976 0.0975 0.9904
vn -0.0975 -0.0976 0.9904
vn -0.2889 -0.0975 0.9524
vn -0.8777 -0.0975 0.4692
vn -0.4692 -0.0975 -0.8777
vn -0.0976 -0.0976 -0.9904
vn -0.0846 0.9566 -0.2790
vn -0.1374 0.9566 -0.2571
vn -0.1849 0.9566 -0.2254
vn -0.2254 0.9566 -0.1849
vn -0.2571 0.9566 -0.1374
vn -0.2790 0.9566 -0.0846
vn -0.2901 0.9566 -0.0286
vn -0.2901 0.9566 0.0286
vn -0.2790 0.9566 0.0846
vn -0.2571 0.9566 0.1374
vn -0.2254 0.9566 0.1849
vn -0.1849 0.9566 0.2254
vn -0.1374 0.9566 0.2571
vn -0.0846 0.9566 0.2790
vn -0.0286 0.9566 0.2901
vn 0.0286 0.9566 0.2901
vn 0.0846 0.9566 0.2790
vn 0.1374 0.9566 0.2571
vn 0.1849 0.9566 0.2254
vn 0.2254 0.9566 0.1849
vn 0.2571 0.9566 0.1374
vn 0.2790 0.9566 0.0846
vn 0.2901 0.9566 0.0286
vn 0.2901 0.9566 -0.0286
vn 0.2790 0.9566 -0.0846
vn 0.2571 0.9566 -0.1374
vn 0.2254 0.9566 -0.1849
vn 0.1849 0.9566 -0.2254
vn 0.1374 0.9566 -0.2571
vn 0.0846 0.9566 -0.2790
vn 0.0286 0.9566 -0.2901
vn -0.0286 0.9566 -0.2901
vt 0.217503 0.213938
vt 0.220853 0.254091
vt 0.200274 0.229585
vt 0.383895 0.383920
vt 0.344257 0.379849
vt 0.361792 0.361360
vt 0.178696 0.202613
vt 0.193716 0.189631
vt 0.340944 0.340115
vt 0.321978 0.359450
vt 0.155841 0.172445
vt 0.167344 0.162750
vt 0.320683 0.319585
vt 0.300818 0.339506
vt 0.131428 0.138253
vt 0.138026 0.132853
vt 0.280537 0.319258
vt 0.300796 0.299313
vt 0.105171 0.099249
vt 0.260712 0.298489
vt 0.281025 0.278950
vt 0.241024 0.276913
vt 0.260833 0.258205
vt 0.407540 0.408075
vt 0.422934 0.446171
vt 0.394226 0.422533
vt 0.239863 0.236766
vt 0.368091 0.400640
vt 0.219867 0.295093
vt 0.200402 0.270555
vt 0.353734 0.419083
vt 0.181292 0.243807
vt 0.327628 0.399812
vt 0.162135 0.214078
vt 0.303606 0.380156
vt 0.143061 0.180632
vt 0.281094 0.360276
vt 0.123985 0.142503
vt 0.259773 0.339748
vt 0.239515 0.318042
vt 0.382520 0.438425
vt 0.128860 0.187046
vt 0.115869 0.145560
vt 0.260918 0.382471
vt 0.238124 0.361075
vt 0.216969 0.337969
vt 0.197025 0.313109
vt 0.413932 0.457913
vt 0.372646 0.456091
vt 0.177963 0.286235
vt 0.340773 0.439428
vt 0.160431 0.256679
vt 0.311812 0.421804
vt 0.143801 0.223830
vt 0.285405 0.402603
vt 0.329363 0.462268
vt 0.137111 0.268059
vt 0.296784 0.446146
vt 0.123487 0.231641
vt 0.267192 0.427376
vt 0.113366 0.191440
vt 0.239973 0.406685
vt 0.107185 0.147196
vt 0.215037 0.383904
vt 0.192456 0.358711
vt 0.171911 0.331178
vt 0.407312 0.471025
vt 0.364872 0.475786
vt 0.153234 0.301184
vt 0.217759 0.433761
vt 0.189804 0.408930
vt 0.098118 0.147218
vt 0.165134 0.380766
vt 0.143603 0.349531
vt 0.401652 0.501487
vt 0.359626 0.497451
vt 0.125240 0.315342
vt 0.319764 0.487941
vt 0.111031 0.277716
vt 0.282601 0.473814
vt 0.101281 0.237090
vt 0.248738 0.455403
vt 0.096689 0.193390
vt 0.081380 0.285138
vt 0.312489 0.517271
vt 0.269474 0.505824
vt 0.076407 0.239623
vt 0.229843 0.487892
vt 0.078982 0.192663
vt 0.193661 0.464834
vt 0.088964 0.145601
vt 0.161511 0.437056
vt 0.133869 0.404737
vt 0.110899 0.368360
vt 0.357421 0.521853
vt 0.092981 0.328498
vt 0.079975 0.142177
vt 0.097077 0.431450
vt 0.071993 0.387832
vt 0.407843 0.536299
vt 0.359176 0.548327
vt 0.055130 0.340103
vt 0.308458 0.551070
vt 0.047377 0.289400
vt 0.257939 0.543523
vt 0.049561 0.238307
vt 0.210324 0.526661
vt 0.060583 0.188676
vt 0.166835 0.501482
vt 0.128975 0.469452
vt 0.007466 0.289006
vt 0.020065 0.231692
vt 0.189899 0.575055
vt 0.042286 0.180902
vt 0.135951 0.545897
vt 0.071523 0.136920
vt 0.090913 0.507377
vt 0.052557 0.462200
vt 0.023563 0.408190
vt 0.366357 0.577547
vt 0.010177 0.348921
vt 0.309179 0.590946
vt 0.249210 0.588443
vt 0.505058 0.920957
vt 0.578870 0.900391
vt 0.559189 0.946759
vt 0.391604 0.604231
vt 0.433526 0.562861
vt 0.421246 0.611375
vt 0.616757 0.963280
vt 0.626442 0.917625
vt 0.418497 0.661929
vt 0.380405 0.660897
vt 0.676516 0.926158
vt 0.676029 0.964713
vt 0.379668 0.719935
vt 0.425362 0.711735
vt 0.733786 0.956050
vt 0.728139 0.925477
vt 0.441187 0.759453
vt 0.394459 0.777799
vt 0.779088 0.915439
vt 0.786834 0.934510
vt 0.418792 0.832547
vt 0.465178 0.803388
vt 0.826646 0.896226
vt 0.831953 0.904837
vt 0.455710 0.882815
vt 0.496975 0.842532
vt 0.870547 0.870878
vt 0.535403 0.875255
vt 0.480013 0.740837
vt 0.727480 0.898154
vt 0.775248 0.896475
vt 0.502719 0.777240
vt 0.823253 0.887049
vt 0.530462 0.809779
vt 0.562469 0.838226
vt 0.598547 0.861820
vt 0.447723 0.613213
vt 0.638522 0.879912
vt 0.451851 0.658176
vt 0.681490 0.892393
vt 0.463031 0.700816
vt 0.617775 0.829212
vt 0.451297 0.567941
vt 0.471794 0.611132
vt 0.652089 0.847794
vt 0.481053 0.651133
vt 0.689482 0.862811
vt 0.495054 0.688149
vt 0.730479 0.873354
vt 0.512775 0.722429
vt 0.774712 0.878555
vt 0.534299 0.753530
vt 0.821671 0.877684
vt 0.559137 0.781646
vt 0.586875 0.807010
vt 0.736317 0.850932
vt 0.776902 0.861703
vt 0.541087 0.704284
vt 0.561740 0.731591
vt 0.821774 0.868455
vt 0.584547 0.756623
vt 0.609330 0.779807
vt 0.636539 0.800965
vt 0.468048 0.569364
vt 0.493590 0.605953
vt 0.666635 0.819864
vt 0.506805 0.641698
vt 0.699632 0.836693
vt 0.522846 0.674288
vt 0.498433 0.563286
vt 0.513419 0.598289
vt 0.654989 0.775903
vt 0.681928 0.795118
vt 0.529733 0.630406
vt 0.711449 0.813387
vt 0.547409 0.659506
vt 0.744416 0.830413
vt 0.566137 0.686288
vt 0.781536 0.846080
vt 0.586257 0.710858
vt 0.823514 0.859637
vt 0.607697 0.733730
vt 0.630429 0.755421
vt 0.588786 0.668256
vt 0.608709 0.690860
vt 0.788055 0.831744
vt 0.826598 0.851353
vt 0.629314 0.712258
vt 0.650668 0.733007
vt 0.673341 0.753172
vt 0.531211 0.588524
vt 0.697910 0.772834
vt 0.550303 0.617573
vt 0.724649 0.792451
vt 0.569474 0.643893
vt 0.754423 0.812053
vt 0.691852 0.732133
vt 0.714651 0.752452
vt 0.568926 0.603345
vt 0.739147 0.773467
vt 0.589601 0.627421
vt 0.766124 0.795448
vt 0.609677 0.649959
vt 0.796351 0.818775
vt 0.629742 0.671186
vt 0.830967 0.843790
vt 0.649969 0.691652
vt 0.670479 0.711927
vt 0.511629 0.556332
vt 0.547319 0.576971
vt 0.836576 0.837173
vt 0.649870 0.651447
vt 0.670140 0.671439
vt 0.690265 0.691668
vt 0.710811 0.712286
vt 0.523936 0.547628
vt 0.561861 0.563816
vt 0.732308 0.733543
vt 0.585901 0.587759
vt 0.754962 0.756128
vt 0.608212 0.609964
vt 0.779425 0.780490
vt 0.629306 0.631129
vt 0.806259 0.807172
vt 0.772210 0.740219
vt 0.601426 0.570754
vt 0.625614 0.591310
vt 0.794276 0.767060
vt 0.648064 0.611447
vt 0.817804 0.797193
vt 0.669526 0.631247
vt 0.843203 0.831578
vt 0.690264 0.651182
vt 0.710427 0.671792
vt 0.730554 0.693229
vt 0.545659 0.525990
vt 0.575059 0.549268
vt 0.751118 0.715782
vt 0.850707 0.827138
vt 0.731399 0.651893
vt 0.751478 0.674623
vt 0.586578 0.533113
vt 0.771405 0.698925
vt 0.615580 0.552121
vt 0.791116 0.725619
vt 0.642023 0.571150
vt 0.810881 0.755242
vt 0.666272 0.590522
vt 0.830623 0.788676
vt 0.689103 0.610154
vt 0.710773 0.630444
vt 0.628325 0.531580
vt 0.657561 0.549065
vt 0.811945 0.712319
vt 0.829175 0.745099
vt 0.684197 0.567863
vt 0.844932 0.782057
vt 0.708987 0.587656
vt 0.858955 0.823977
vt 0.732135 0.608745
vt 0.753687 0.631565
vt 0.774072 0.656173
vt 0.554418 0.513722
vt 0.596321 0.515278
vt 0.793588 0.682816
vt 0.777913 0.610373
vt 0.798972 0.637613
vt 0.565721 0.485973
vt 0.603974 0.495659
vt 0.818233 0.667372
vt 0.639508 0.508735
vt 0.835126 0.700405
vt 0.672262 0.524491
vt 0.849470 0.736849
vt 0.702072 0.542829
vt 0.860621 0.777422
vt 0.729587 0.563116
vt 0.867746 0.822167
vt 0.754892 0.585520
vt 0.861179 0.690140
vt 0.871939 0.730862
vt 0.720103 0.514558
vt 0.877389 0.775090
vt 0.751376 0.535699
vt 0.876963 0.821988
vt 0.779726 0.560064
vt 0.804893 0.587813
vt 0.827025 0.618697
vt 0.567512 0.470103
vt 0.609082 0.473951
vt 0.846093 0.652623
vt 0.648823 0.483024
vt 0.686055 0.496665
vt 0.859417 0.599207
vt 0.611083 0.449612
vt 0.878179 0.638766
vt 0.655731 0.453724
vt 0.890787 0.682019
vt 0.698696 0.464559
vt 0.896812 0.727716
vt 0.738463 0.481846
vt 0.895402 0.775514
vt 0.774937 0.504269
vt 0.886307 0.823459
vt 0.807520 0.531457
vt 0.835736 0.563257
vt 0.757290 0.442887
vt 0.914263 0.779183
vt 0.801070 0.467242
vt 0.895502 0.826778
vt 0.839421 0.498515
vt 0.871995 0.535855
vt 0.897940 0.578937
vt 0.561143 0.436095
vt 0.609035 0.423235
vt 0.915841 0.626305
vt 0.659288 0.420077
vt 0.924843 0.676907
vt 0.709608 0.426852
vt 0.924182 0.728288
vt 0.945876 0.557580
vt 0.552223 0.418686
vt 0.601673 0.394901
vt 0.960572 0.616457
vt 0.657958 0.380662
vt 0.964715 0.676258
vt 0.717519 0.382067
vt 0.953769 0.733869
vt 0.776792 0.394351
vt 0.933574 0.786724
vt 0.831049 0.422414
vt 0.904151 0.832023
vt 0.876673 0.459955
vt 0.915826 0.504273
vt 0.239771 0.016178
vt 0.195450 0.056639
vt 0.187837 0.037886
vt 0.553347 0.141369
vt 0.530171 0.214181
vt 0.506676 0.170032
vt 0.148619 0.075005
vt 0.143516 0.066512
vt 0.516936 0.090722
vt 0.475299 0.130606
vt 0.437206 0.097569
vt 0.467915 0.052138
vt 0.393994 0.072122
vt 0.413976 0.025930
vt 0.577602 0.369684
vt 0.535332 0.409802
vt 0.548432 0.362179
vt 0.356518 0.009061
vt 0.346623 0.054613
vt 0.551703 0.311824
vt 0.589666 0.313384
vt 0.296734 0.045862
vt 0.297278 0.007466
vt 0.591185 0.254386
vt 0.545434 0.262023
vt 0.245390 0.046339
vt 0.577074 0.196374
vt 0.374073 0.110471
vt 0.334359 0.092157
vt 0.518325 0.315153
vt 0.291662 0.079493
vt 0.507678 0.272487
vt 0.246040 0.073620
vt 0.491184 0.232346
vt 0.199134 0.075190
vt 0.468909 0.195760
vt 0.151844 0.084044
vt 0.441543 0.162997
vt 0.409865 0.134308
vt 0.518096 0.404722
vt 0.521889 0.359965
vt 0.199505 0.092795
vt 0.153296 0.093258
vt 0.437139 0.219095
vt 0.412652 0.190789
vt 0.385239 0.165225
vt 0.354644 0.142822
vt 0.501334 0.403243
vt 0.497799 0.361779
vt 0.320630 0.124054
vt 0.489083 0.321842
vt 0.283563 0.108878
vt 0.475562 0.284765
vt 0.242986 0.098238
vt 0.458276 0.250361
vt 0.463290 0.330972
vt 0.273305 0.134748
vt 0.447677 0.298282
vt 0.237072 0.120471
vt 0.429829 0.268154
vt 0.197132 0.109486
vt 0.409532 0.240687
vt 0.153024 0.102304
vt 0.387058 0.215482
vt 0.362598 0.192120
vt 0.335707 0.170785
vt 0.485437 0.404951
vt 0.475989 0.366746
vt 0.305941 0.151723
vt 0.384859 0.261093
vt 0.363740 0.238050
vt 0.151274 0.110989
vt 0.341330 0.216189
vt 0.317100 0.195540
vt 0.470924 0.409177
vt 0.456273 0.374223
vt 0.290520 0.176172
vt 0.440333 0.341988
vt 0.261389 0.157735
vt 0.423018 0.312749
vt 0.228892 0.140519
vt 0.404649 0.285825
vt 0.192461 0.124811
vt 0.248077 0.178355
vt 0.419704 0.354576
vt 0.400834 0.328061
vt 0.218804 0.158620
vt 0.381866 0.303558
vt 0.185778 0.138896
vt 0.362250 0.280776
vt 0.148046 0.119054
vt 0.341960 0.259197
vt 0.320928 0.238277
vt 0.298591 0.217943
vt 0.457592 0.416087
vt 0.438418 0.383782
vt 0.274420 0.198150
vt 0.143641 0.126428
vt 0.300959 0.259019
vt 0.279906 0.238625
vt 0.445170 0.424848
vt 0.422140 0.395129
vt 0.257590 0.218232
vt 0.401013 0.368590
vt 0.233464 0.196998
vt 0.380551 0.344221
vt 0.207043 0.174940
vt 0.360837 0.321591
vt 0.177359 0.151530
vt 0.341046 0.300141
vt 0.321141 0.279468
vt 0.434324 0.436216
vt 0.403323 0.485454
vt 0.403220 0.518136
vt 0.416256 0.553953
vt 0.483993 0.567579
vt 0.534495 0.536484
vt 0.561401 0.500476
vt 0.566124 0.453676
s 1
usemtl material
f 446/1/1 16/2/1 17/3/1
f 443/4/2 10/5/2 2/6/2
f 446/1/3 18/7/3 447/8/3
f 444/9/4 10/5/4 11/10/4
f 447/8/5 19/11/5 448/12/5
f 3/13/6 11/10/6 12/14/6
f 448/12/7 20/15/7 449/16/7
f 3/13/8 13/17/8 4/18/9
f 287/19/10 449/16/10 20/15/10
f 4/18/11 14/20/11 5/21/12
f 5/21/13 15/22/13 445/23/13
f 1/24/14 7/25/14 8/26/14
f 445/23/15 16/2/15 6/27/15
f 443/4/16 8/26/16 9/28/16
f 16/2/17 29/29/17 30/30/18
f 8/26/19 23/31/19 9/28/19
f 17/3/20 30/30/20 31/32/20
f 9/28/21 24/33/21 10/5/21
f 18/7/22 31/32/22 32/34/22
f 10/5/23 25/35/24 11/10/24
f 19/11/25 32/34/25 33/36/25
f 12/14/26 25/35/26 26/37/26
f 19/11/27 34/38/27 20/15/27
f 12/14/28 27/39/28 13/17/28
f 287/19/29 20/15/29 34/38/29
f 13/17/30 28/40/30 14/20/30
f 14/20/31 29/29/31 15/22/31
f 7/25/32 22/41/32 8/26/32
f 34/38/33 47/42/33 48/43/33
f 27/39/34 40/44/34 41/45/34
f 287/19/35 34/38/35 48/43/35
f 27/39/36 42/46/36 28/40/36
f 28/40/37 43/47/37 29/29/37
f 21/48/38 36/49/38 22/41/39
f 30/30/40 43/47/40 44/50/40
f 22/41/41 37/51/41 23/31/41
f 31/32/42 44/50/42 45/52/42
f 23/31/43 38/53/43 24/33/43
f 32/34/44 45/52/44 46/54/44
f 24/33/45 39/55/45 25/35/45
f 33/36/46 46/54/46 47/42/46
f 26/37/47 39/55/47 40/44/47
f 36/49/48 51/56/48 37/51/48
f 44/50/49 59/57/49 45/52/49
f 38/53/50 51/56/50 52/58/50
f 46/54/51 59/57/51 60/59/51
f 38/53/52 53/60/52 39/55/52
f 47/42/53 60/59/53 61/61/53
f 40/44/54 53/60/54 54/62/54
f 48/43/55 61/61/56 62/63/55
f 41/45/57 54/62/57 55/64/58
f 287/19/59 48/43/59 62/63/59
f 41/45/60 56/65/60 42/46/60
f 42/46/61 57/66/61 43/47/61
f 35/67/62 50/68/62 36/49/62
f 44/50/63 57/66/63 58/69/63
f 55/64/64 68/70/64 69/71/64
f 287/19/65 62/63/65 76/72/65
f 55/64/66 70/73/66 56/65/66
f 56/65/67 71/74/67 57/66/67
f 50/68/68 63/75/68 64/76/68
f 58/69/69 71/74/69 72/77/69
f 50/68/70 65/78/70 51/56/70
f 58/69/71 73/79/71 59/57/71
f 52/58/72 65/78/72 66/80/72
f 60/59/73 73/79/73 74/81/73
f 52/58/74 67/82/74 53/60/74
f 60/59/75 75/83/75 61/61/75
f 54/62/76 67/82/76 68/70/76
f 61/61/77 76/72/77 62/63/77
f 72/77/78 87/84/78 73/79/78
f 66/80/79 79/85/79 80/86/79
f 74/81/80 87/84/80 88/87/80
f 66/80/81 81/88/81 67/82/81
f 75/83/82 88/87/82 89/89/82
f 68/70/83 81/88/83 82/90/83
f 76/72/84 89/89/84 90/91/84
f 69/71/85 82/90/85 83/92/86
f 287/19/87 76/72/87 90/91/87
f 69/71/88 84/93/88 70/73/88
f 70/73/89 85/94/89 71/74/89
f 63/75/90 78/95/90 64/76/91
f 72/77/92 85/94/92 86/96/92
f 64/76/93 79/85/93 65/78/93
f 287/19/94 90/91/94 104/97/94
f 83/92/95 98/98/95 84/93/95
f 84/93/96 99/99/96 85/94/96
f 78/95/97 91/100/97 92/101/97
f 86/96/98 99/99/98 100/102/98
f 78/95/99 93/103/99 79/85/99
f 86/96/100 101/104/100 87/84/100
f 80/86/101 93/103/101 94/105/101
f 88/87/102 101/104/102 102/106/102
f 80/86/103 95/107/103 81/88/103
f 88/87/104 103/108/104 89/89/104
f 82/90/105 95/107/105 96/109/105
f 89/89/106 104/97/106 90/91/106
f 83/92/107 96/109/107 97/110/107
f 102/106/108 115/111/108 116/112/108
f 94/105/109 109/113/109 95/107/109
f 103/108/110 116/112/110 117/114/110
f 96/109/111 109/113/111 110/115/111
f 103/108/112 118/116/112 104/97/112
f 97/110/113 110/115/113 111/117/114
f 287/19/115 104/97/115 118/116/115
f 97/110/116 112/118/116 98/98/116
f 98/98/117 113/119/117 99/99/117
f 91/100/118 106/120/118 92/101/118
f 100/102/119 113/119/119 114/121/119
f 92/101/120 107/122/120 93/103/120
f 100/102/121 115/111/121 101/104/121
f 94/105/122 107/122/122 108/123/122
f 112/124/123 127/125/123 113/126/123
f 106/127/124 119/128/124 120/129/124
f 114/130/125 127/125/125 128/131/125
f 106/127/126 121/132/126 107/133/126
f 114/130/127 129/134/127 115/135/127
f 108/136/128 121/132/128 122/137/128
f 116/138/129 129/134/129 130/139/129
f 108/136/130 123/140/130 109/141/130
f 116/138/131 131/142/131 117/143/131
f 110/144/132 123/140/132 124/145/132
f 117/143/133 132/146/133 118/147/133
f 111/148/134 124/145/134 125/149/135
f 287/150/136 118/147/136 132/146/136
f 111/148/137 126/151/137 112/124/138
f 122/137/139 137/152/139 123/140/139
f 131/142/140 144/153/140 145/154/140
f 124/145/141 137/152/141 138/155/141
f 131/142/142 146/156/142 132/146/142
f 125/149/143 138/155/143 139/157/143
f 287/150/144 132/146/144 146/156/144
f 125/149/145 140/158/145 126/151/145
f 126/151/146 141/159/146 127/125/146
f 119/128/147 134/160/147 120/129/147
f 128/131/148 141/159/148 142/161/149
f 120/129/150 135/162/150 121/132/150
f 128/131/151 143/163/151 129/134/151
f 122/137/152 135/162/152 136/164/152
f 130/139/153 143/163/153 144/153/153
f 140/158/154 155/165/154 141/159/154
f 133/166/155 148/167/155 134/160/156
f 142/161/157 155/165/157 156/168/157
f 134/160/158 149/169/158 135/162/158
f 142/161/159 157/170/159 143/163/159
f 136/164/160 149/169/160 150/171/160
f 144/153/161 157/170/161 158/172/161
f 136/164/162 151/173/162 137/152/162
f 145/154/163 158/172/163 159/174/163
f 138/155/164 151/173/164 152/175/164
f 146/156/165 159/174/165 160/176/165
f 139/157/166 152/175/166 153/177/166
f 287/150/167 146/156/167 160/176/167
f 139/157/168 154/178/168 140/158/168
f 159/174/169 172/179/169 173/180/169
f 152/175/170 165/181/170 166/182/170
f 160/176/171 173/180/171 174/183/171
f 153/177/172 166/182/172 167/184/172
f 287/150/173 160/176/173 174/183/173
f 153/177/174 168/185/174 154/178/174
f 154/178/175 169/186/175 155/165/175
f 147/187/176 162/188/176 148/167/176
f 156/168/177 169/186/177 170/189/177
f 148/167/178 163/190/178 149/169/178
f 156/168/179 171/191/179 157/170/179
f 150/171/180 163/190/180 164/192/180
f 158/172/181 171/191/181 172/179/181
f 150/171/182 165/181/182 151/173/182
f 162/188/183 175/193/183 176/194/183
f 170/189/184 183/195/184 184/196/184
f 162/188/185 177/197/185 163/190/185
f 170/189/186 185/198/186 171/191/186
f 164/192/187 177/197/187 178/199/187
f 172/179/188 185/198/188 186/200/188
f 164/192/189 179/201/189 165/181/189
f 172/179/190 187/202/190 173/180/190
f 166/182/191 179/201/191 180/203/191
f 173/180/192 188/204/193 174/183/193
f 167/184/194 180/203/194 181/205/194
f 287/150/195 174/183/195 188/204/195
f 167/184/196 182/206/196 168/185/196
f 168/185/197 183/195/197 169/186/197
f 180/203/198 193/207/198 194/208/198
f 188/204/199 201/209/199 202/210/199
f 181/205/200 194/208/200 195/211/200
f 287/150/201 188/204/201 202/210/201
f 181/205/202 196/212/202 182/206/202
f 182/206/203 197/213/203 183/195/203
f 175/193/204 190/214/204 176/194/204
f 184/196/205 197/213/205 198/215/205
f 176/194/206 191/216/206 177/197/206
f 184/196/207 199/217/207 185/198/207
f 178/199/208 191/216/208 192/218/208
f 186/200/209 199/217/209 200/219/209
f 178/199/210 193/207/210 179/201/210
f 187/202/211 200/219/211 201/209/211
f 198/215/212 211/220/212 212/221/212
f 190/214/213 205/222/213 191/216/213
f 198/215/214 213/223/214 199/217/214
f 192/218/215 205/222/215 206/224/215
f 200/219/216 213/223/216 214/225/216
f 192/218/217 207/226/217 193/207/217
f 201/209/218 214/225/218 215/227/218
f 194/208/219 207/226/219 208/228/219
f 202/210/220 215/227/220 216/229/220
f 195/211/221 208/228/221 209/230/221
f 287/150/222 202/210/222 216/229/222
f 195/211/223 210/231/223 196/212/224
f 196/212/225 211/220/225 197/213/225
f 189/232/226 204/233/226 190/214/226
f 215/227/227 230/234/227 216/229/228
f 209/230/229 222/235/229 223/236/229
f 287/150/230 216/229/230 230/234/230
f 209/230/231 224/237/231 210/231/232
f 210/231/233 225/238/233 211/220/233
f 203/239/234 218/240/234 204/233/234
f 212/221/235 225/238/235 226/241/235
f 204/233/236 219/242/236 205/222/236
f 212/221/237 227/243/237 213/223/237
f 206/224/238 219/242/238 220/244/238
f 214/225/239 227/243/239 228/245/239
f 206/224/240 221/246/240 207/226/240
f 215/227/241 228/245/241 229/247/241
f 208/228/242 221/246/242 222/235/242
f 226/241/243 241/248/243 227/243/243
f 220/244/244 233/249/244 234/250/244
f 228/245/245 241/248/245 242/251/245
f 220/244/246 235/252/246 221/246/246
f 228/245/247 243/253/247 229/247/247
f 222/235/248 235/252/248 236/254/248
f 229/247/249 244/255/249 230/234/249
f 223/236/250 236/254/250 237/256/251
f 287/150/252 230/234/252 244/255/252
f 223/236/253 238/257/253 224/237/254
f 224/237/255 239/258/255 225/238/255
f 218/240/256 231/259/256 232/260/256
f 226/241/257 239/258/257 240/261/257
f 218/240/258 233/249/258 219/242/258
f 287/150/259 244/255/259 258/262/259
f 237/256/260 252/263/260 238/257/260
f 238/257/261 253/264/261 239/258/261
f 231/259/262 246/265/262 232/260/262
f 240/261/263 253/264/263 254/266/263
f 232/260/264 247/267/264 233/249/264
f 240/261/265 255/268/265 241/248/265
f 234/250/266 247/267/266 248/269/266
f 242/251/267 255/268/267 256/270/267
f 234/250/268 249/271/268 235/252/268
f 243/253/269 256/270/269 257/272/269
f 236/254/270 249/271/270 250/273/270
f 243/253/271 258/262/271 244/255/271
f 237/256/272 250/273/272 251/274/273
f 248/269/274 261/275/274 262/276/274
f 256/270/275 269/277/275 270/278/275
f 248/269/276 263/279/276 249/271/276
f 256/270/277 271/280/278 257/272/278
f 250/273/279 263/279/279 264/281/279
f 257/272/280 272/282/280 258/262/280
f 251/274/281 264/281/281 265/283/281
f 287/150/282 258/262/282 272/282/282
f 251/274/283 266/284/283 252/263/283
f 252/263/284 267/285/284 253/264/284
f 245/286/285 260/287/286 246/265/286
f 254/266/287 267/285/287 268/288/287
f 246/265/288 261/275/288 247/267/288
f 254/266/289 269/277/289 255/268/289
f 265/283/290 280/289/290 266/284/290
f 266/284/291 281/290/291 267/285/291
f 260/287/292 273/291/292 274/292/292
f 268/288/293 281/290/293 282/293/293
f 260/287/294 275/294/294 261/275/294
f 268/288/295 283/295/295 269/277/295
f 262/276/296 275/294/296 276/296/296
f 270/278/297 283/295/297 284/297/297
f 262/276/298 277/298/298 263/279/298
f 270/278/299 285/299/299 271/280/299
f 264/281/300 277/298/300 278/300/300
f 272/282/301 285/299/302 286/301/301
f 265/283/303 278/300/303 279/302/303
f 287/150/304 272/282/304 286/301/304
f 284/297/305 298/303/305 299/304/305
f 276/296/306 292/305/306 277/298/306
f 284/297/307 300/306/307 285/299/307
f 278/300/308 292/305/308 293/307/308
f 285/299/309 301/308/309 286/301/309
f 279/302/310 293/307/310 294/309/310
f 287/150/311 286/301/311 301/308/311
f 279/302/312 295/310/312 280/289/312
f 280/289/313 296/311/313 281/290/313
f 274/292/314 288/312/314 289/313/314
f 282/293/315 296/311/315 297/314/315
f 274/292/316 290/315/316 275/294/316
f 282/293/317 298/303/317 283/295/317
f 276/296/318 290/315/318 291/316/318
f 295/310/319 310/317/319 296/311/319
f 288/312/320 303/318/320 289/313/320
f 297/314/321 310/317/321 311/319/321
f 289/313/322 304/320/322 290/315/322
f 297/314/323 312/321/323 298/303/323
f 291/316/324 304/320/324 305/322/324
f 299/304/325 312/321/325 313/323/325
f 291/316/326 306/324/326 292/305/326
f 299/304/327 314/325/327 300/306/327
f 293/307/328 306/324/328 307/326/328
f 301/308/329 314/325/329 315/327/329
f 294/309/330 307/326/330 308/328/331
f 287/150/332 301/308/332 315/327/332
f 294/309/333 309/329/333 295/310/333
f 305/322/334 320/330/334 306/324/334
f 313/323/335 328/331/335 314/325/335
f 307/326/336 320/330/336 321/332/336
f 315/327/337 328/331/337 329/333/337
f 308/328/338 321/332/338 322/334/338
f 287/150/339 315/327/339 329/333/339
f 308/328/340 323/335/340 309/329/340
f 309/329/341 324/336/341 310/317/341
f 303/318/342 316/337/342 317/338/342
f 311/319/343 324/336/343 325/339/343
f 303/318/344 318/340/344 304/320/344
f 311/319/345 326/341/345 312/321/345
f 305/322/346 318/340/346 319/342/346
f 313/323/347 326/341/347 327/343/347
f 323/335/348 338/344/348 324/336/348
f 317/338/349 330/345/349 331/346/349
f 325/339/350 338/344/350 339/347/350
f 317/338/351 332/348/351 318/340/351
f 325/339/352 340/349/352 326/341/352
f 319/342/353 332/348/353 333/350/353
f 327/343/354 340/349/354 341/351/354
f 319/342/355 334/352/355 320/330/355
f 327/343/356 342/353/356 328/331/356
f 321/332/357 334/352/357 335/354/357
f 329/333/358 342/353/358 343/355/358
f 322/334/359 335/354/359 336/356/359
f 287/150/360 329/333/360 343/355/360
f 322/334/361 337/357/361 323/335/361
f 341/358/362 356/359/362 342/360/362
f 335/361/363 348/362/363 349/363/363
f 342/360/364 357/364/364 343/365/364
f 336/366/365 349/363/365 350/367/365
f 287/19/366 343/365/366 357/364/366
f 336/366/367 351/368/367 337/369/367
f 337/369/368 352/370/368 338/371/368
f 331/372/369 344/373/369 345/374/369
f 339/375/370 352/370/370 353/376/370
f 331/372/371 346/377/371 332/378/371
f 339/375/372 354/379/372 340/380/372
f 333/381/373 346/377/373 347/382/373
f 341/358/374 354/379/374 355/383/374
f 333/381/375 348/362/375 334/384/375
f 353/376/376 366/385/376 367/386/376
f 345/374/377 360/387/377 346/377/377
f 353/376/378 368/388/378 354/379/378
f 347/382/379 360/387/379 361/389/379
f 355/383/380 368/388/380 369/390/380
f 347/382/381 362/391/381 348/362/381
f 355/383/382 370/392/382 356/359/382
f 349/363/383 362/391/383 363/393/383
f 356/359/384 371/394/384 357/364/384
f 350/367/385 363/393/385 364/395/385
f 287/19/386 357/364/386 371/394/386
f 350/367/387 365/396/387 351/368/387
f 351/368/388 366/385/388 352/370/388
f 345/374/389 358/397/389 359/398/389
f 371/394/390 384/399/390 385/400/390
f 364/395/391 377/401/391 378/402/391
f 287/19/392 371/394/392 385/400/392
f 364/395/393 379/403/393 365/396/393
f 365/396/394 380/404/394 366/385/394
f 359/398/395 372/405/396 373/406/395
f 367/386/397 380/404/397 381/407/397
f 359/398/398 374/408/398 360/387/398
f 367/386/399 382/409/399 368/388/399
f 361/389/400 374/408/400 375/410/400
f 369/390/401 382/409/401 383/411/401
f 361/389/402 376/412/402 362/391/402
f 369/390/403 384/399/404 370/392/404
f 363/393/405 376/412/405 377/401/405
f 373/406/406 388/413/406 374/408/406
f 381/407/407 396/414/407 382/409/407
f 375/410/408 388/413/408 389/415/408
f 383/411/409 396/414/409 397/416/409
f 375/410/410 390/417/410 376/412/410
f 383/411/411 398/418/411 384/399/411
f 377/401/412 390/417/412 391/419/412
f 384/399/413 399/420/413 385/400/413
f 378/402/414 391/419/414 392/421/414
f 287/19/415 385/400/415 399/420/415
f 378/402/416 393/422/416 379/403/416
f 379/403/417 394/423/417 380/404/417
f 373/406/418 386/424/418 387/425/418
f 381/407/419 394/423/419 395/426/419
f 392/421/420 405/427/420 406/428/420
f 287/19/421 399/420/421 413/429/421
f 392/421/422 407/430/422 393/422/422
f 393/422/423 408/431/423 394/423/423
f 387/425/424 400/432/424 401/433/424
f 395/426/425 408/431/425 409/434/425
f 387/425/426 402/435/426 388/413/426
f 395/426/427 410/436/427 396/414/427
f 389/415/428 402/435/428 403/437/428
f 397/416/429 410/436/429 411/438/429
f 389/415/430 404/439/430 390/417/430
f 397/416/431 412/440/431 398/418/431
f 391/419/432 404/439/432 405/427/432
f 399/420/433 412/440/433 413/429/433
f 409/434/434 424/441/434 410/436/434
f 403/437/435 416/442/435 417/443/435
f 411/438/436 424/441/436 425/444/436
f 403/437/437 418/445/437 404/439/437
f 411/438/438 426/446/438 412/440/438
f 405/427/439 418/445/439 419/447/439
f 412/440/440 427/448/440 413/429/440
f 406/428/441 419/447/441 420/449/442
f 287/19/443 413/429/443 427/448/443
f 406/428/444 421/450/444 407/430/444
f 407/430/445 422/451/445 408/431/445
f 401/433/446 414/452/446 415/453/446
f 409/434/447 422/451/447 423/454/447
f 401/433/448 416/442/448 402/435/448
f 287/19/449 427/448/449 441/455/449
f 420/449/450 435/456/450 421/450/450
f 421/450/451 436/457/451 422/451/451
f 415/453/452 428/458/452 429/459/452
f 423/454/453 436/457/453 437/460/453
f 415/453/454 430/461/454 416/442/454
f 423/454/455 438/462/455 424/441/455
f 417/443/456 430/461/456 431/463/456
f 425/444/457 438/462/457 439/464/457
f 417/443/458 432/465/458 418/445/458
f 425/444/459 440/466/459 426/446/459
f 419/447/460 432/465/460 433/467/460
f 427/448/461 440/466/461 441/455/461
f 420/449/462 433/467/462 434/468/462
f 431/463/463 443/4/463 2/6/463
f 439/464/464 446/1/464 447/8/464
f 432/465/465 2/6/465 444/9/465
f 439/464/466 448/12/466 440/466/466
f 433/467/467 444/9/467 3/13/467
f 440/466/468 449/16/468 441/455/469
f 434/468/470 3/13/470 4/18/471
f 287/19/472 441/455/472 449/16/472
f 434/468/473 5/21/473 435/456/473
f 435/456/474 445/23/474 436/457/474
f 429/459/475 442/469/475 1/24/475
f 436/457/476 6/27/476 437/460/476
f 430/461/477 1/24/477 443/4/477
f 437/460/478 446/1/478 438/462/478
f 446/1/1 6/27/1 16/2/1
f 443/4/2 9/28/2 10/5/2
f 446/1/3 17/3/3 18/7/3
f 444/9/4 2/6/4 10/5/4
f 447/8/5 18/7/5 19/11/5
f 3/13/6 444/9/6 11/10/6
f 448/12/7 19/11/7 20/15/7
f 3/13/8 12/14/8 13/17/8
f 4/18/11 13/17/479 14/20/11
f 5/21/13 14/20/13 15/22/13
f 1/24/14 442/469/14 7/25/14
f 445/23/15 15/22/15 16/2/15
f 443/4/16 1/24/16 8/26/16
f 16/2/17 15/22/17 29/29/17
f 8/26/19 22/41/19 23/31/19
f 17/3/20 16/2/20 30/30/20
f 9/28/21 23/31/21 24/33/21
f 18/7/22 17/3/22 31/32/22
f 10/5/23 24/33/23 25/35/24
f 19/11/25 18/7/25 32/34/25
f 12/14/26 11/10/26 25/35/26
f 19/11/27 33/36/27 34/38/27
f 12/14/28 26/37/28 27/39/28
f 13/17/30 27/39/30 28/40/30
f 14/20/31 28/40/31 29/29/31
f 7/25/32 21/48/32 22/41/32
f 34/38/33 33/36/33 47/42/33
f 27/39/34 26/37/34 40/44/34
f 27/39/36 41/45/36 42/46/36
f 28/40/37 42/46/37 43/47/37
f 21/48/38 35/67/38 36/49/38
f 30/30/40 29/29/40 43/47/40
f 22/41/41 36/49/41 37/51/41
f 31/32/42 30/30/42 44/50/42
f 23/31/43 37/51/43 38/53/43
f 32/34/44 31/32/44 45/52/44
f 24/33/45 38/53/45 39/55/45
f 33/36/46 32/34/480 46/54/46
f 26/37/47 25/35/47 39/55/47
f 36/49/48 50/68/48 51/56/48
f 44/50/49 58/69/49 59/57/49
f 38/53/50 37/51/50 51/56/50
f 46/54/51 45/52/51 59/57/51
f 38/53/52 52/58/52 53/60/52
f 47/42/53 46/54/53 60/59/53
f 40/44/54 39/55/54 53/60/54
f 48/43/55 47/42/56 61/61/56
f 41/45/57 40/44/57 54/62/57
f 41/45/60 55/64/481 56/65/60
f 42/46/61 56/65/61 57/66/61
f 35/67/62 49/470/62 50/68/62
f 44/50/63 43/47/63 57/66/63
f 55/64/64 54/62/64 68/70/64
f 55/64/66 69/71/66 70/73/66
f 56/65/67 70/73/67 71/74/67
f 50/68/68 49/470/68 63/75/68
f 58/69/69 57/66/69 71/74/69
f 50/68/70 64/76/70 65/78/70
f 58/69/71 72/77/71 73/79/71
f 52/58/72 51/56/72 65/78/72
f 60/59/73 59/57/73 73/79/73
f 52/58/74 66/80/74 67/82/74
f 60/59/75 74/81/75 75/83/75
f 54/62/76 53/60/76 67/82/76
f 61/61/77 75/83/77 76/72/77
f 72/77/78 86/96/78 87/84/78
f 66/80/79 65/78/79 79/85/79
f 74/81/80 73/79/80 87/84/80
f 66/80/81 80/86/81 81/88/81
f 75/83/82 74/81/82 88/87/82
f 68/70/83 67/82/83 81/88/83
f 76/72/84 75/83/84 89/89/84
f 69/71/85 68/70/85 82/90/85
f 69/71/88 83/92/482 84/93/88
f 70/73/89 84/93/89 85/94/89
f 63/75/90 77/471/90 78/95/90
f 72/77/92 71/74/92 85/94/92
f 64/76/93 78/95/93 79/85/93
f 83/92/95 97/110/95 98/98/95
f 84/93/96 98/98/96 99/99/96
f 78/95/97 77/471/97 91/100/97
f 86/96/98 85/94/98 99/99/98
f 78/95/99 92/101/99 93/103/99
f 86/96/100 100/102/100 101/104/100
f 80/86/101 79/85/101 93/103/101
f 88/87/102 87/84/102 101/104/102
f 80/86/103 94/105/103 95/107/103
f 88/87/104 102/106/104 103/108/104
f 82/90/105 81/88/105 95/107/105
f 89/89/106 103/108/106 104/97/106
f 83/92/107 82/90/107 96/109/107
f 102/106/108 101/104/108 115/111/108
f 94/105/109 108/123/109 109/113/109
f 103/108/110 102/106/110 116/112/110
f 96/109/111 95/107/111 109/113/111
f 103/108/112 117/114/112 118/116/112
f 97/110/113 96/109/113 110/115/113
f 97/110/116 111/117/483 112/118/116
f 98/98/117 112/118/117 113/119/117
f 91/100/118 105/472/118 106/120/118
f 100/102/119 99/99/119 113/119/119
f 92/101/120 106/120/120 107/122/120
f 100/102/121 114/121/121 115/111/121
f 94/105/122 93/103/122 107/122/122
f 112/124/123 126/151/123 127/125/123
f 106/127/124 105/472/124 119/128/124
f 114/130/125 113/126/125 127/125/125
f 106/127/126 120/129/126 121/132/126
f 114/130/127 128/131/127 129/134/127
f 108/136/128 107/133/128 121/132/128
f 116/138/129 115/135/129 129/134/129
f 108/136/130 122/137/130 123/140/130
f 116/138/131 130/139/131 131/142/131
f 110/144/132 109/141/132 123/140/132
f 117/143/133 131/142/133 132/146/133
f 111/148/134 110/144/484 124/145/134
f 111/148/137 125/149/485 126/151/137
f 122/137/139 136/164/486 137/152/139
f 131/142/140 130/139/140 144/153/140
f 124/145/141 123/140/141 137/152/141
f 131/142/142 145/154/142 146/156/142
f 125/149/143 124/145/143 138/155/143
f 125/149/145 139/157/145 140/158/145
f 126/151/146 140/158/146 141/159/146
f 119/128/147 133/166/147 134/160/147
f 128/131/148 127/125/148 141/159/148
f 120/129/150 134/160/150 135/162/150
f 128/131/151 142/161/151 143/163/151
f 122/137/152 121/132/152 135/162/152
f 130/139/153 129/134/153 143/163/153
f 140/158/154 154/178/154 155/165/154
f 133/166/155 147/187/155 148/167/155
f 142/161/157 141/159/157 155/165/157
f 134/160/158 148/167/158 149/169/158
f 142/161/159 156/168/159 157/170/159
f 136/164/160 135/162/160 149/169/160
f 144/153/161 143/163/161 157/170/161
f 136/164/162 150/171/162 151/173/162
f 145/154/163 144/153/487 158/172/163
f 138/155/164 137/152/164 151/173/164
f 146/156/165 145/154/165 159/174/165
f 139/157/166 138/155/166 152/175/166
f 139/157/168 153/177/168 154/178/168
f 159/174/169 158/172/169 172/179/169
f 152/175/170 151/173/170 165/181/170
f 160/176/171 159/174/171 173/180/171
f 153/177/172 152/175/172 166/182/172
f 153/177/174 167/184/174 168/185/174
f 154/178/175 168/185/175 169/186/175
f 147/187/176 161/473/176 162/188/176
f 156/168/177 155/165/177 169/186/177
f 148/167/178 162/188/178 163/190/178
f 156/168/179 170/189/179 171/191/179
f 150/171/180 149/169/180 163/190/180
f 158/172/181 157/170/181 171/191/181
f 150/171/182 164/192/182 165/181/182
f 162/188/183 161/473/183 175/193/183
f 170/189/184 169/186/184 183/195/184
f 162/188/185 176/194/185 177/197/185
f 170/189/186 184/196/186 185/198/186
f 164/192/187 163/190/187 177/197/187
f 172/179/188 171/191/188 185/198/188
f 164/192/189 178/199/189 179/201/189
f 172/179/190 186/200/190 187/202/190
f 166/182/191 165/181/191 179/201/191
f 173/180/192 187/202/192 188/204/193
f 167/184/194 166/182/194 180/203/194
f 167/184/196 181/205/196 182/206/196
f 168/185/197 182/206/197 183/195/197
f 180/203/198 179/201/198 193/207/198
f 188/204/199 187/202/199 201/209/199
f 181/205/200 180/203/200 194/208/200
f 181/205/202 195/211/202 196/212/202
f 182/206/203 196/212/203 197/213/203
f 175/193/204 189/232/204 190/214/204
f 184/196/205 183/195/205 197/213/205
f 176/194/206 190/214/206 191/216/206
f 184/196/207 198/215/207 199/217/207
f 178/199/208 177/197/208 191/216/208
f 186/200/209 185/198/209 199/217/209
f 178/199/210 192/218/210 193/207/210
f 187/202/211 186/200/211 200/219/211
f 198/215/212 197/213/212 211/220/212
f 190/214/213 204/233/213 205/222/213
f 198/215/214 212/221/214 213/223/214
f 192/218/215 191/216/215 205/222/215
f 200/219/216 199/217/216 213/223/216
f 192/218/217 206/224/217 207/226/217
f 201/209/218 200/219/218 214/225/218
f 194/208/219 193/207/219 207/226/219
f 202/210/220 201/209/220 215/227/220
f 195/211/221 194/208/488 208/228/221
f 195/211/223 209/230/223 210/231/223
f 196/212/225 210/231/225 211/220/225
f 189/232/226 203/239/226 204/233/226
f 215/227/227 229/247/227 230/234/227
f 209/230/229 208/228/489 222/235/229
f 209/230/231 223/236/231 224/237/231
f 210/231/233 224/237/233 225/238/233
f 203/239/234 217/474/234 218/240/234
f 212/221/235 211/220/235 225/238/235
f 204/233/236 218/240/236 219/242/236
f 212/221/237 226/241/237 227/243/237
f 206/224/238 205/222/238 219/242/238
f 214/225/239 213/223/239 227/243/239
f 206/224/240 220/244/240 221/246/240
f 215/227/241 214/225/241 228/245/241
f 208/228/242 207/226/242 221/246/242
f 226/241/243 240/261/243 241/248/243
f 220/244/244 219/242/244 233/249/244
f 228/245/245 227/243/245 241/248/245
f 220/244/246 234/250/246 235/252/246
f 228/245/247 242/251/247 243/253/247
f 222/235/248 221/246/248 235/252/248
f 229/247/249 243/253/249 244/255/249
f 223/236/250 222/235/490 236/254/250
f 223/236/253 237/256/491 238/257/253
f 224/237/255 238/257/255 239/258/255
f 218/240/256 217/474/256 231/259/256
f 226/241/257 225/238/257 239/258/257
f 218/240/258 232/260/258 233/249/258
f 237/256/260 251/274/492 252/263/260
f 238/257/261 252/263/261 253/264/261
f 231/259/262 245/286/262 246/265/262
f 240/261/263 239/258/263 253/264/263
f 232/260/264 246/265/264 247/267/264
f 240/261/265 254/266/265 255/268/265
f 234/250/266 233/249/266 247/267/266
f 242/251/267 241/248/267 255/268/267
f 234/250/268 248/269/268 249/271/268
f 243/253/269 242/251/269 256/270/269
f 236/254/270 235/252/270 249/271/270
f 243/253/271 257/272/271 258/262/271
f 237/256/272 236/254/272 250/273/272
f 248/269/274 247/267/274 261/275/274
f 256/270/275 255/268/275 269/277/275
f 248/269/276 262/276/276 263/279/276
f 256/270/277 270/278/277 271/280/278
f 250/273/279 249/271/279 263/279/279
f 257/272/280 271/280/280 272/282/280
f 251/274/281 250/273/281 264/281/281
f 251/274/283 265/283/283 266/284/283
f 252/263/284 266/284/284 267/285/284
f 245/286/285 259/475/285 260/287/286
f 254/266/287 253/264/287 267/285/287
f 246/265/288 260/287/288 261/275/288
f 254/266/289 268/288/289 269/277/289
f 265/283/290 279/302/290 280/289/290
f 266/284/291 280/289/291 281/290/291
f 260/287/292 259/475/292 273/291/292
f 268/288/293 267/285/293 281/290/293
f 260/287/294 274/292/294 275/294/294
f 268/288/295 282/293/295 283/295/295
f 262/276/296 261/275/296 275/294/296
f 270/278/297 269/277/297 283/295/297
f 262/276/298 276/296/298 277/298/298
f 270/278/299 284/297/299 285/299/299
f 264/281/300 263/279/300 277/298/300
f 272/282/301 271/280/302 285/299/302
f 265/283/303 264/281/303 278/300/303
f 284/297/305 283/295/305 298/303/305
f 276/296/306 291/316/306 292/305/306
f 284/297/307 299/304/307 300/306/307
f 278/300/308 277/298/308 292/305/308
f 285/299/309 300/306/309 301/308/309
f 279/302/310 278/300/310 293/307/310
f 279/302/312 294/309/312 295/310/312
f 280/289/313 295/310/313 296/311/313
f 274/292/314 273/291/314 288/312/314
f 282/293/315 281/290/315 296/311/315
f 274/292/316 289/313/316 290/315/316
f 282/293/317 297/314/317 298/303/317
f 276/296/318 275/294/318 290/315/318
f 295/310/319 309/329/319 310/317/319
f 288/312/320 302/476/320 303/318/320
f 297/314/321 296/311/321 310/317/321
f 289/313/322 303/318/322 304/320/322
f 297/314/323 311/319/323 312/321/323
f 291/316/324 290/315/324 304/320/324
f 299/304/325 298/303/325 312/321/325
f 291/316/326 305/322/326 306/324/326
f 299/304/327 313/323/327 314/325/327
f 293/307/328 292/305/328 306/324/328
f 301/308/329 300/306/329 314/325/329
f 294/309/330 293/307/330 307/326/330
f 294/309/333 308/328/493 309/329/333
f 305/322/334 319/342/334 320/330/334
f 313/323/335 327/343/335 328/331/335
f 307/326/336 306/324/336 320/330/336
f 315/327/337 314/325/337 328/331/337
f 308/328/338 307/326/338 321/332/338
f 308/328/340 322/334/340 323/335/340
f 309/329/341 323/335/341 324/336/341
f 303/318/342 302/476/342 316/337/342
f 311/319/343 310/317/343 324/336/343
f 303/318/344 317/338/344 318/340/344
f 311/319/345 325/339/345 326/341/345
f 305/322/346 304/320/346 318/340/346
f 313/323/347 312/321/347 326/341/347
f 323/335/348 337/357/348 338/344/348
f 317/338/349 316/337/349 330/345/349
f 325/339/350 324/336/350 338/344/350
f 317/338/351 331/346/351 332/348/351
f 325/339/352 339/347/352 340/349/352
f 319/342/353 318/340/353 332/348/353
f 327/343/354 326/341/354 340/349/354
f 319/342/355 333/350/355 334/352/355
f 327/343/356 341/351/356 342/353/356
f 321/332/357 320/330/357 334/352/357
f 329/333/358 328/331/358 342/353/358
f 322/334/359 321/332/359 335/354/359
f 322/334/361 336/356/361 337/357/361
f 341/358/362 355/383/362 356/359/362
f 335/361/363 334/384/363 348/362/363
f 342/360/364 356/359/364 357/364/364
f 336/366/365 335/361/365 349/363/365
f 336/366/367 350/367/367 351/368/367
f 337/369/368 351/368/368 352/370/368
f 331/372/369 330/345/369 344/373/369
f 339/375/370 338/371/370 352/370/370
f 331/372/371 345/374/371 346/377/371
f 339/375/372 353/376/372 354/379/372
f 333/381/373 332/378/373 346/377/373
f 341/358/374 340/380/374 354/379/374
f 333/381/375 347/382/375 348/362/375
f 353/376/376 352/370/376 366/385/376
f 345/374/377 359/398/377 360/387/377
f 353/376/378 367/386/378 368/388/378
f 347/382/379 346/377/379 360/387/379
f 355/383/380 354/379/380 368/388/380
f 347/382/381 361/389/381 362/391/381
f 355/383/382 369/390/382 370/392/382
f 349/363/383 348/362/383 362/391/383
f 356/359/384 370/392/384 371/394/384
f 350/367/385 349/363/385 363/393/385
f 350/367/387 364/395/387 365/396/387
f 351/368/388 365/396/388 366/385/388
f 345/374/389 344/373/389 358/397/389
f 371/394/390 370/392/390 384/399/390
f 364/395/391 363/393/391 377/401/391
f 364/395/393 378/402/393 379/403/393
f 365/396/394 379/403/394 380/404/394
f 359/398/395 358/397/396 372/405/396
f 367/386/397 366/385/397 380/404/397
f 359/398/398 373/406/398 374/408/398
f 367/386/399 381/407/399 382/409/399
f 361/389/400 360/387/400 374/408/400
f 369/390/401 368/388/401 382/409/401
f 361/389/402 375/410/402 376/412/402
f 369/390/403 383/411/403 384/399/404
f 363/393/405 362/391/405 376/412/405
f 373/406/406 387/425/406 388/413/406
f 381/407/407 395/426/407 396/414/407
f 375/410/408 374/408/408 388/413/408
f 383/411/409 382/409/409 396/414/409
f 375/410/410 389/415/410 390/417/410
f 383/411/411 397/416/411 398/418/411
f 377/401/412 376/412/412 390/417/412
f 384/399/413 398/418/413 399/420/413
f 378/402/414 377/401/414 391/419/414
f 378/402/416 392/421/416 393/422/416
f 379/403/417 393/422/417 394/423/417
f 373/406/418 372/405/418 386/424/418
f 381/407/419 380/404/419 394/423/419
f 392/421/420 391/419/420 405/427/420
f 392/421/422 406/428/422 407/430/422
f 393/422/423 407/430/423 408/431/423
f 387/425/424 386/424/424 400/432/424
f 395/426/425 394/423/425 408/431/425
f 387/425/426 401/433/426 402/435/426
f 395/426/427 409/434/427 410/436/427
f 389/415/428 388/413/428 402/435/428
f 397/416/429 396/414/429 410/436/429
f 389/415/430 403/437/430 404/439/430
f 397/416/431 411/438/431 412/440/431
f 391/419/432 390/417/432 404/439/432
f 399/420/433 398/418/433 412/440/433
f 409/434/434 423/454/434 424/441/434
f 403/437/435 402/435/435 416/442/435
f 411/438/436 410/436/436 424/441/436
f 403/437/437 417/443/437 418/445/437
f 411/438/438 425/444/438 426/446/438
f 405/427/439 404/439/439 418/445/439
f 412/440/440 426/446/440 427/448/440
f 406/428/441 405/427/441 419/447/441
f 406/428/444 420/449/494 421/450/444
f 407/430/445 421/450/445 422/451/445
f 401/433/446 400/432/446 414/452/446
f 409/434/447 408/431/447 422/451/447
f 401/433/448 415/453/448 416/442/448
f 420/449/450 434/468/450 435/456/450
f 421/450/451 435/456/451 436/457/451
f 415/453/452 414/452/452 428/458/452
f 423/454/453 422/451/453 436/457/453
f 415/453/454 429/459/454 430/461/454
f 423/454/455 437/460/455 438/462/455
f 417/443/456 416/442/456 430/461/456
f 425/444/457 424/441/457 438/462/457
f 417/443/458 431/463/458 432/465/458
f 425/444/459 439/464/459 440/466/459
f 419/447/460 418/445/460 432/465/460
f 427/448/461 426/446/461 440/466/461
f 420/449/462 419/447/462 433/467/462
f 431/463/463 430/461/463 443/4/463
f 439/464/464 438/462/464 446/1/464
f 432/465/465 431/463/465 2/6/465
f 439/464/466 447/8/466 448/12/466
f 433/467/467 432/465/467 444/9/467
f 440/466/468 448/12/468 449/16/468
f 434/468/470 433/467/470 3/13/470
f 434/468/473 4/18/495 5/21/473
f 428/458/496 414/452/497 400/432/498 386/424/499 372/405/500 358/397/501 344/373/502 330/345/503 316/337/504 302/476/505 288/312/506 273/291/507 259/475/508 245/286/509 231/259/510 217/474/511 203/239/512 189/232/513 175/193/514 161/473/515 147/187/516 133/166/517 119/128/518 105/472/519 91/100/520 77/471/521 63/75/522 49/470/523 35/67/524 21/48/525 7/25/526 442/469/527
f 435/456/474 5/21/474 445/23/474
f 429/459/475 428/458/475 442/469/475
f 436/457/476 445/23/476 6/27/476
f 430/461/477 429/459/477 1/24/477
f 437/460/478 6/27/478 446/1/478
o 立方体
v -0.252720 1.041000 0.252720
v -0.252720 1.157640 0.252720
v -0.252720 1.041000 -0.252720
v -0.252720 1.157640 -0.252720
v 0.252720 1.041000 0.252720
v 0.252720 1.157640 0.252720
v 0.252720 1.041000 -0.252720
v 0.252720 1.157640 -0.252720
vn -1.0000 -0.0000 -0.0000
vn -0.0000 -0.0000 -1.0000
vn 1.0000 -0.0000 -0.0000
vn -0.0000 -0.0000 1.0000
vn -0.0000 -1.0000 -0.0000
vn -0.0000 1.0000 -0.0000
vt 0.361406 0.958047
vt 0.363235 0.817618
vt 0.432535 0.888747
vt 0.292106 0.886918
vt 0.293935 0.746488
vt 0.222806 0.815788
vt 0.224635 0.675359
vt 0.153506 0.744659
vt 0.155335 0.604230
vt 0.295765 0.606059
vt 0.365065 0.677188
vt 0.151676 0.885088
vt 0.084206 0.673530
vt 0.082376 0.813959
s 0
usemtl material
f 451/477/528 452/478/528 450/479/528
f 453/480/529 456/481/529 452/478/529
f 457/482/530 454/483/530 456/481/530
f 455/484/531 450/485/531 454/483/531
f 456/481/532 450/486/532 452/487/532
f 453/488/533 455/484/533 457/482/533
f 451/477/528 453/480/528 452/478/528
f 453/480/529 457/482/529 456/481/529
f 457/482/530 455/484/530 454/483/530
f 455/484/531 451/489/531 450/485/531
f 456/481/532 454/483/532 450/486/532
f 453/488/533 451/490/533 455/484/533
o 立方体.001
v -0.025272 1.159584 0.025272
v -0.025272 1.369536 0.025272
v -0.025272 1.159584 -0.025272
v -0.025272 1.369536 -0.025272
v 0.025272 1.159584 0.025272
v 0.025272 1.369536 0.025272
v 0.025272 1.159584 -0.025272
v 0.025272 1.369536 -0.025272
vn -1.0000 -0.0000 -0.0000
vn -0.0000 -0.0000 -1.0000
vn 1.0000 -0.0000 -0.0000
vn -0.0000 -0.0000 1.0000
vn -0.0000 -1.0000 -0.0000
vn -0.0000 1.0000 -0.0000
vt 0.595306 0.107858
vt 0.694613 0.207165
vt 0.595306 0.207165
vt 0.694613 0.107858
vt 0.793920 0.207165
vt 0.793920 0.107858
vt 0.893227 0.207165
vt 0.893227 0.107858
vt 0.992534 0.207165
vt 0.893227 0.306472
vt 0.793920 0.306472
vt 0.793920 0.008551
vt 0.992534 0.107858
vt 0.893227 0.008551
s 0
usemtl material
f 459/491/534 460/492/534 458/493/534
f 461/494/535 464/495/535 460/492/535
f 465/496/536 462/497/536 464/495/536
f 463/498/537 458/499/537 462/497/537
f 464/495/538 458/500/538 460/501/538
f 461/502/539 463/498/539 465/496/539
f 459/491/534 461/494/534 460/492/534
f 461/494/535 465/496/535 464/495/535
f 465/496/536 463/498/536 462/497/536
f 463/498/537 459/503/537 458/499/537
f 464/495/538 462/497/538 458/500/538
f 461/502/539 459/504/539 463/498/539
