# Blender 4.4.1
# www.blender.org
mtllib moveGround.mtl
o 立方体
v -0.520000 -1.000000 1.000000
v -0.520000 1.000000 1.000000
v -0.520000 -1.000000 -1.000000
v -0.520000 1.000000 -1.000000
v 0.520000 -1.000000 1.000000
v 0.520000 1.000000 1.000000
v 0.520000 -1.000000 -1.000000
v 0.520000 1.000000 -1.000000
v -1.000000 -1.000000 0.500000
v 1.000000 1.000000 0.500000
v -1.000000 1.000000 0.500000
v 1.000000 -1.000000 0.500000
v -1.000000 1.000000 -0.500000
v 1.000000 -1.000000 -0.500000
v -1.000000 -1.000000 -0.500000
v 1.000000 1.000000 -0.500000
vn -0.7214 -0.0000 -0.6925
vn -0.0000 -0.0000 -1.0000
vn 0.7214 -0.0000 0.6925
vn -0.0000 -0.0000 1.0000
vn -0.0000 -1.0000 -0.0000
vn -0.0000 1.0000 -0.0000
vn -0.7214 -0.0000 0.6925
vn -1.0000 -0.0000 -0.0000
vn 0.7214 -0.0000 -0.6925
vn 1.0000 -0.0000 -0.0000
vt 0.332263 0.882296
vt 0.097044 0.688398
vt 0.164240 0.606881
vt 0.399459 0.800779
vt 0.265067 0.484567
vt 0.500286 0.678465
vt 0.664431 0.479339
vt 0.429212 0.285441
vt 0.496408 0.203925
vt 0.731627 0.397823
vt 0.597235 0.081611
vt 0.832454 0.275509
vt 0.899651 0.673237
vt 0.769358 0.467070
vt 0.891672 0.567897
vt 0.193993 0.091544
vt 0.298920 0.079274
vt 0.421234 0.180101
vt 0.664431 0.000095
vt 0.899651 0.193993
vt 0.802702 0.790847
vt 0.567482 0.596949
vt 0.235314 0.999905
vt 0.000095 0.806007
vt 0.332263 0.403051
vt 0.697774 0.803116
vt 0.575460 0.702289
vt 0.227336 0.415320
vt 0.105022 0.314493
vt 0.097044 0.209153
s 0
usemtl Material
f 15/1/1 13/2/1 4/3/1 3/4/1
f 3/4/2 4/3/2 8/5/2 7/6/2
f 12/7/3 10/8/3 6/9/3 5/10/3
f 5/10/4 6/9/4 2/11/4 1/12/4
f 9/13/5 12/7/5 5/14/5 1/15/5
f 10/8/6 11/16/6 2/17/6 6/18/6
f 1/12/7 2/11/7 11/19/7 9/20/7
f 15/21/5 14/22/5 12/7/5 9/13/5
f 9/23/8 11/24/8 13/2/8 15/1/8
f 7/6/9 8/5/9 16/25/9 14/22/9
f 3/26/5 7/27/5 14/22/5 15/21/5
f 8/28/6 4/29/6 13/30/6 16/25/6
f 16/25/6 13/30/6 11/16/6 10/8/6
f 14/22/10 16/25/10 10/8/10 12/7/10
